<?xml version="1.0" encoding="utf-8" standalone="no"?>
<!DOCTYPE svg PUBLIC "-//W3C//DTD SVG 1.1//EN"
  "http://www.w3.org/Graphics/SVG/1.1/DTD/svg11.dtd">
<svg xmlns:xlink="http://www.w3.org/1999/xlink" width="460.8pt" height="345.6pt" viewBox="0 0 460.8 345.6" xmlns="http://www.w3.org/2000/svg" version="1.1">
 <metadata>
  <rdf:RDF xmlns:dc="http://purl.org/dc/elements/1.1/" xmlns:cc="http://creativecommons.org/ns#" xmlns:rdf="http://www.w3.org/1999/02/22-rdf-syntax-ns#">
   <cc:Work>
    <dc:type rdf:resource="http://purl.org/dc/dcmitype/StillImage"/>
    <dc:date>2023-12-06T17:23:56.241271</dc:date>
    <dc:format>image/svg+xml</dc:format>
    <dc:creator>
     <cc:Agent>
      <dc:title>Matplotlib v3.7.1, https://matplotlib.org/</dc:title>
     </cc:Agent>
    </dc:creator>
   </cc:Work>
  </rdf:RDF>
 </metadata>
 <defs>
  <style type="text/css">*{stroke-linejoin: round; stroke-linecap: butt}</style>
 </defs>
 <g id="figure_1">
  <g id="patch_1">
   <path d="M 0 345.6 
L 460.8 345.6 
L 460.8 0 
L 0 0 
z
" style="fill: #ffffff"/>
  </g>
  <g id="axes_1">
   <g id="patch_2">
    <path d="M 50.87 160.866989 
L 448.117849 160.866989 
L 448.117849 50.64 
L 50.87 50.64 
z
" style="fill: #ffffff"/>
   </g>
   <g id="matplotlib.axis_1">
    <g id="xtick_1">
     <g id="line2d_1">
      <defs>
       <path id="m611df6ebe9" d="M 0 0 
L 0 3.5 
" style="stroke: #000000; stroke-width: 0.8"/>
      </defs>
      <g>
       <use xlink:href="#m611df6ebe9" x="68.92672" y="160.866989" style="stroke: #000000; stroke-width: 0.8"/>
      </g>
     </g>
    </g>
    <g id="xtick_2">
     <g id="line2d_2">
      <g>
       <use xlink:href="#m611df6ebe9" x="105.633504" y="160.866989" style="stroke: #000000; stroke-width: 0.8"/>
      </g>
     </g>
    </g>
    <g id="xtick_3">
     <g id="line2d_3">
      <g>
       <use xlink:href="#m611df6ebe9" x="142.340287" y="160.866989" style="stroke: #000000; stroke-width: 0.8"/>
      </g>
     </g>
    </g>
    <g id="xtick_4">
     <g id="line2d_4">
      <g>
       <use xlink:href="#m611df6ebe9" x="179.147637" y="160.866989" style="stroke: #000000; stroke-width: 0.8"/>
      </g>
     </g>
    </g>
    <g id="xtick_5">
     <g id="line2d_5">
      <g>
       <use xlink:href="#m611df6ebe9" x="215.85442" y="160.866989" style="stroke: #000000; stroke-width: 0.8"/>
      </g>
     </g>
    </g>
    <g id="xtick_6">
     <g id="line2d_6">
      <g>
       <use xlink:href="#m611df6ebe9" x="252.561204" y="160.866989" style="stroke: #000000; stroke-width: 0.8"/>
      </g>
     </g>
    </g>
    <g id="xtick_7">
     <g id="line2d_7">
      <g>
       <use xlink:href="#m611df6ebe9" x="289.267987" y="160.866989" style="stroke: #000000; stroke-width: 0.8"/>
      </g>
     </g>
    </g>
    <g id="xtick_8">
     <g id="line2d_8">
      <g>
       <use xlink:href="#m611df6ebe9" x="326.075337" y="160.866989" style="stroke: #000000; stroke-width: 0.8"/>
      </g>
     </g>
    </g>
    <g id="xtick_9">
     <g id="line2d_9">
      <g>
       <use xlink:href="#m611df6ebe9" x="362.78212" y="160.866989" style="stroke: #000000; stroke-width: 0.8"/>
      </g>
     </g>
    </g>
    <g id="xtick_10">
     <g id="line2d_10">
      <g>
       <use xlink:href="#m611df6ebe9" x="399.488904" y="160.866989" style="stroke: #000000; stroke-width: 0.8"/>
      </g>
     </g>
    </g>
    <g id="xtick_11">
     <g id="line2d_11">
      <g>
       <use xlink:href="#m611df6ebe9" x="436.195687" y="160.866989" style="stroke: #000000; stroke-width: 0.8"/>
      </g>
     </g>
    </g>
   </g>
   <g id="matplotlib.axis_2">
    <g id="ytick_1">
     <g id="line2d_12">
      <defs>
       <path id="m59220ed004" d="M 0 0 
L -3.5 0 
" style="stroke: #000000; stroke-width: 0.8"/>
      </defs>
      <g>
       <use xlink:href="#m59220ed004" x="50.87" y="160.453293" style="stroke: #000000; stroke-width: 0.8"/>
      </g>
     </g>
     <g id="text_1">
      <!-- 0 -->
      <g transform="translate(37.5075 164.252512) scale(0.1 -0.1)">
       <defs>
        <path id="DejaVuSans-30" d="M 2034 4250 
Q 1547 4250 1301 3770 
Q 1056 3291 1056 2328 
Q 1056 1369 1301 889 
Q 1547 409 2034 409 
Q 2525 409 2770 889 
Q 3016 1369 3016 2328 
Q 3016 3291 2770 3770 
Q 2525 4250 2034 4250 
z
M 2034 4750 
Q 2819 4750 3233 4129 
Q 3647 3509 3647 2328 
Q 3647 1150 3233 529 
Q 2819 -91 2034 -91 
Q 1250 -91 836 529 
Q 422 1150 422 2328 
Q 422 3509 836 4129 
Q 1250 4750 2034 4750 
z
" transform="scale(0.015625)"/>
       </defs>
       <use xlink:href="#DejaVuSans-30"/>
      </g>
     </g>
    </g>
    <g id="ytick_2">
     <g id="line2d_13">
      <g>
       <use xlink:href="#m59220ed004" x="50.87" y="137.470185" style="stroke: #000000; stroke-width: 0.8"/>
      </g>
     </g>
     <g id="text_2">
      <!-- 25 -->
      <g transform="translate(31.145 141.269403) scale(0.1 -0.1)">
       <defs>
        <path id="DejaVuSans-32" d="M 1228 531 
L 3431 531 
L 3431 0 
L 469 0 
L 469 531 
Q 828 903 1448 1529 
Q 2069 2156 2228 2338 
Q 2531 2678 2651 2914 
Q 2772 3150 2772 3378 
Q 2772 3750 2511 3984 
Q 2250 4219 1831 4219 
Q 1534 4219 1204 4116 
Q 875 4013 500 3803 
L 500 4441 
Q 881 4594 1212 4672 
Q 1544 4750 1819 4750 
Q 2544 4750 2975 4387 
Q 3406 4025 3406 3419 
Q 3406 3131 3298 2873 
Q 3191 2616 2906 2266 
Q 2828 2175 2409 1742 
Q 1991 1309 1228 531 
z
" transform="scale(0.015625)"/>
        <path id="DejaVuSans-35" d="M 691 4666 
L 3169 4666 
L 3169 4134 
L 1269 4134 
L 1269 2991 
Q 1406 3038 1543 3061 
Q 1681 3084 1819 3084 
Q 2600 3084 3056 2656 
Q 3513 2228 3513 1497 
Q 3513 744 3044 326 
Q 2575 -91 1722 -91 
Q 1428 -91 1123 -41 
Q 819 9 494 109 
L 494 744 
Q 775 591 1075 516 
Q 1375 441 1709 441 
Q 2250 441 2565 725 
Q 2881 1009 2881 1497 
Q 2881 1984 2565 2268 
Q 2250 2553 1709 2553 
Q 1456 2553 1204 2497 
Q 953 2441 691 2322 
L 691 4666 
z
" transform="scale(0.015625)"/>
       </defs>
       <use xlink:href="#DejaVuSans-32"/>
       <use xlink:href="#DejaVuSans-35" x="63.623047"/>
      </g>
     </g>
    </g>
    <g id="ytick_3">
     <g id="line2d_14">
      <g>
       <use xlink:href="#m59220ed004" x="50.87" y="114.487076" style="stroke: #000000; stroke-width: 0.8"/>
      </g>
     </g>
     <g id="text_3">
      <!-- 50 -->
      <g transform="translate(31.145 118.286295) scale(0.1 -0.1)">
       <use xlink:href="#DejaVuSans-35"/>
       <use xlink:href="#DejaVuSans-30" x="63.623047"/>
      </g>
     </g>
    </g>
    <g id="ytick_4">
     <g id="line2d_15">
      <g>
       <use xlink:href="#m59220ed004" x="50.87" y="91.503967" style="stroke: #000000; stroke-width: 0.8"/>
      </g>
     </g>
     <g id="text_4">
      <!-- 75 -->
      <g transform="translate(31.145 95.303186) scale(0.1 -0.1)">
       <defs>
        <path id="DejaVuSans-37" d="M 525 4666 
L 3525 4666 
L 3525 4397 
L 1831 0 
L 1172 0 
L 2766 4134 
L 525 4134 
L 525 4666 
z
" transform="scale(0.015625)"/>
       </defs>
       <use xlink:href="#DejaVuSans-37"/>
       <use xlink:href="#DejaVuSans-35" x="63.623047"/>
      </g>
     </g>
    </g>
    <g id="ytick_5">
     <g id="line2d_16">
      <g>
       <use xlink:href="#m59220ed004" x="50.87" y="68.520859" style="stroke: #000000; stroke-width: 0.8"/>
      </g>
     </g>
     <g id="text_5">
      <!-- 100 -->
      <g transform="translate(24.7825 72.320077) scale(0.1 -0.1)">
       <defs>
        <path id="DejaVuSans-31" d="M 794 531 
L 1825 531 
L 1825 4091 
L 703 3866 
L 703 4441 
L 1819 4666 
L 2450 4666 
L 2450 531 
L 3481 531 
L 3481 0 
L 794 0 
L 794 531 
z
" transform="scale(0.015625)"/>
       </defs>
       <use xlink:href="#DejaVuSans-31"/>
       <use xlink:href="#DejaVuSans-30" x="63.623047"/>
       <use xlink:href="#DejaVuSans-30" x="127.246094"/>
      </g>
     </g>
    </g>
   </g>
   <g id="line2d_17">
    <path d="M 68.92672 140.228158 
L 72.044283 143.905455 
L 74.860146 135.631536 
L 77.977708 137.470185 
L 80.994704 134.712211 
L 84.112266 133.792887 
L 87.129262 115.4064 
L 90.246825 101.616535 
L 93.364387 102.535859 
L 96.381383 120.003022 
L 99.498945 126.438292 
L 102.515941 132.873563 
L 105.633504 115.4064 
L 108.751066 132.873563 
L 111.566929 129.196265 
L 114.684491 125.518968 
L 117.701487 142.986131 
L 120.81905 143.905455 
L 123.836046 128.276941 
L 126.953608 131.954238 
L 130.071171 122.760995 
L 133.088166 125.518968 
L 136.205729 136.55086 
L 139.222725 133.792887 
L 142.340287 136.55086 
L 145.45785 142.066806 
L 148.374279 141.147482 
L 151.491841 132.873563 
L 154.508837 144.824779 
L 157.6264 141.147482 
L 160.643396 134.712211 
L 163.760958 131.034914 
L 166.87852 129.196265 
L 169.895516 133.792887 
L 173.013079 137.470185 
L 176.030075 133.792887 
L 179.147637 136.55086 
L 182.265199 132.873563 
L 185.081062 142.986131 
L 188.198625 125.518968 
L 191.215621 118.164373 
L 194.333183 125.518968 
L 197.350179 127.357617 
L 200.467741 121.841671 
L 203.585304 124.599644 
L 206.6023 142.986131 
L 209.719862 127.357617 
L 212.736858 135.631536 
L 215.85442 136.55086 
L 218.971983 139.308833 
L 221.787846 135.631536 
L 224.905408 130.11559 
L 227.922404 120.003022 
L 231.039966 124.599644 
L 234.056962 110.809778 
L 237.174525 105.293832 
L 240.292087 115.4064 
L 243.309083 106.213157 
L 246.426645 120.922346 
L 249.443641 120.922346 
L 252.561204 115.4064 
L 255.678766 127.357617 
L 258.494629 114.487076 
L 261.612191 102.535859 
L 264.629187 89.665319 
L 267.74675 119.083698 
L 270.763746 105.293832 
L 273.881308 113.567752 
L 276.99887 113.567752 
L 280.015866 120.922346 
L 283.133429 136.55086 
L 286.150425 123.680319 
L 289.267987 129.196265 
L 292.38555 116.325725 
L 295.301979 136.55086 
L 298.419541 140.228158 
L 301.436537 136.55086 
L 304.5541 122.760995 
L 307.571096 133.792887 
L 310.688658 119.083698 
L 313.80622 120.922346 
L 316.823216 127.357617 
L 319.940779 121.841671 
L 322.957775 111.729103 
L 326.075337 108.97113 
L 329.192899 112.648427 
L 332.008762 98.858562 
L 335.126325 119.083698 
L 338.143321 113.567752 
L 341.260883 119.083698 
L 344.277879 123.680319 
L 347.395441 135.631536 
L 350.513004 137.470185 
L 353.53 132.873563 
L 356.647562 129.196265 
L 359.664558 142.066806 
L 362.78212 129.196265 
L 365.899683 128.276941 
L 368.715546 123.680319 
L 371.833108 135.631536 
L 374.850104 116.325725 
L 377.967666 112.648427 
L 380.984662 104.374508 
L 384.102225 84.149372 
L 387.219787 98.858562 
L 390.236783 113.567752 
L 393.354345 100.697211 
L 396.371341 121.841671 
L 399.488904 113.567752 
L 402.606466 113.567752 
L 405.422329 95.181265 
L 408.539891 102.535859 
L 411.556887 88.745994 
L 414.67445 64.843561 
L 417.691446 55.650318 
L 420.809008 75.875453 
L 423.92657 86.907345 
L 426.943566 90.584643 
L 430.061129 114.487076 
" clip-path="url(#pb616df2a81)" style="fill: none; stroke: #1f77b4; stroke-width: 1.5; stroke-linecap: square"/>
   </g>
   <g id="line2d_18">
    <path d="M 68.92672 151.26005 
L 72.044283 153.098698 
L 74.860146 148.502077 
L 77.977708 154.937347 
L 80.994704 147.582752 
L 84.112266 154.018023 
L 87.129262 147.582752 
L 90.246825 141.147482 
L 93.364387 145.744104 
L 96.381383 151.26005 
L 99.498945 144.824779 
L 102.515941 148.502077 
L 105.633504 141.147482 
L 108.751066 150.340725 
L 111.566929 150.340725 
L 114.684491 147.582752 
L 117.701487 155.856671 
L 120.81905 152.179374 
L 123.836046 150.340725 
L 126.953608 145.744104 
L 130.071171 149.421401 
L 133.088166 142.066806 
L 136.205729 146.663428 
L 139.222725 152.179374 
L 142.340287 151.26005 
L 145.45785 152.179374 
L 148.374279 150.340725 
L 151.491841 150.340725 
L 154.508837 154.937347 
L 157.6264 151.26005 
L 160.643396 153.098698 
L 163.760958 145.744104 
L 166.87852 149.421401 
L 169.895516 153.098698 
L 173.013079 152.179374 
L 176.030075 154.018023 
L 179.147637 152.179374 
L 182.265199 153.098698 
L 185.081062 153.098698 
L 188.198625 146.663428 
L 191.215621 142.986131 
L 194.333183 151.26005 
L 197.350179 145.744104 
L 200.467741 144.824779 
L 203.585304 144.824779 
L 206.6023 154.937347 
L 209.719862 142.066806 
L 212.736858 148.502077 
L 215.85442 149.421401 
L 218.971983 148.502077 
L 221.787846 149.421401 
L 224.905408 147.582752 
L 227.922404 143.905455 
L 231.039966 147.582752 
L 234.056962 141.147482 
L 237.174525 142.066806 
L 240.292087 145.744104 
L 243.309083 133.792887 
L 246.426645 138.389509 
L 249.443641 141.147482 
L 252.561204 137.470185 
L 255.678766 148.502077 
L 258.494629 140.228158 
L 261.612191 138.389509 
L 264.629187 112.648427 
L 267.74675 140.228158 
L 270.763746 143.905455 
L 273.881308 131.954238 
L 276.99887 143.905455 
L 280.015866 141.147482 
L 283.133429 154.018023 
L 286.150425 137.470185 
L 289.267987 148.502077 
L 292.38555 136.55086 
L 295.301979 147.582752 
L 298.419541 151.26005 
L 301.436537 152.179374 
L 304.5541 146.663428 
L 307.571096 148.502077 
L 310.688658 135.631536 
L 313.80622 138.389509 
L 316.823216 145.744104 
L 319.940779 140.228158 
L 322.957775 142.986131 
L 326.075337 131.034914 
L 329.192899 134.712211 
L 332.008762 124.599644 
L 335.126325 134.712211 
L 338.143321 130.11559 
L 341.260883 141.147482 
L 344.277879 142.066806 
L 347.395441 149.421401 
L 350.513004 147.582752 
L 353.53 148.502077 
L 356.647562 139.308833 
L 359.664558 151.26005 
L 362.78212 143.905455 
L 365.899683 148.502077 
L 368.715546 142.066806 
L 371.833108 148.502077 
L 374.850104 132.873563 
L 377.967666 137.470185 
L 380.984662 140.228158 
L 384.102225 108.051805 
L 387.219787 129.196265 
L 390.236783 138.389509 
L 393.354345 131.034914 
L 396.371341 139.308833 
L 399.488904 138.389509 
L 402.606466 136.55086 
L 405.422329 126.438292 
L 408.539891 135.631536 
L 411.556887 115.4064 
L 414.67445 117.245049 
L 417.691446 111.729103 
L 420.809008 120.922346 
L 423.92657 130.11559 
L 426.943566 127.357617 
L 430.061129 136.55086 
" clip-path="url(#pb616df2a81)" style="fill: none; stroke: #ff7f0e; stroke-width: 1.5; stroke-linecap: square"/>
   </g>
   <g id="patch_3">
    <path d="M 50.87 160.866989 
L 50.87 50.64 
" style="fill: none; stroke: #000000; stroke-width: 0.8; stroke-linejoin: miter; stroke-linecap: square"/>
   </g>
   <g id="patch_4">
    <path d="M 448.117849 160.866989 
L 448.117849 50.64 
" style="fill: none; stroke: #000000; stroke-width: 0.8; stroke-linejoin: miter; stroke-linecap: square"/>
   </g>
   <g id="patch_5">
    <path d="M 50.87 160.866989 
L 448.117849 160.866989 
" style="fill: none; stroke: #000000; stroke-width: 0.8; stroke-linejoin: miter; stroke-linecap: square"/>
   </g>
   <g id="patch_6">
    <path d="M 50.87 50.64 
L 448.117849 50.64 
" style="fill: none; stroke: #000000; stroke-width: 0.8; stroke-linejoin: miter; stroke-linecap: square"/>
   </g>
   <g id="text_6">
    <!-- TP -->
    <g transform="translate(242.211425 44.64) scale(0.12 -0.12)">
     <defs>
      <path id="DejaVuSans-54" d="M -19 4666 
L 3928 4666 
L 3928 4134 
L 2272 4134 
L 2272 0 
L 1638 0 
L 1638 4134 
L -19 4134 
L -19 4666 
z
" transform="scale(0.015625)"/>
      <path id="DejaVuSans-50" d="M 1259 4147 
L 1259 2394 
L 2053 2394 
Q 2494 2394 2734 2622 
Q 2975 2850 2975 3272 
Q 2975 3691 2734 3919 
Q 2494 4147 2053 4147 
L 1259 4147 
z
M 628 4666 
L 2053 4666 
Q 2838 4666 3239 4311 
Q 3641 3956 3641 3272 
Q 3641 2581 3239 2228 
Q 2838 1875 2053 1875 
L 1259 1875 
L 1259 0 
L 628 0 
L 628 4666 
z
" transform="scale(0.015625)"/>
     </defs>
     <use xlink:href="#DejaVuSans-54"/>
     <use xlink:href="#DejaVuSans-50" x="61.083984"/>
    </g>
   </g>
   <g id="legend_1">
    <g id="patch_7">
     <path d="M 57.87 88.274375 
L 210.691875 88.274375 
Q 212.691875 88.274375 212.691875 86.274375 
L 212.691875 57.64 
Q 212.691875 55.64 210.691875 55.64 
L 57.87 55.64 
Q 55.87 55.64 55.87 57.64 
L 55.87 86.274375 
Q 55.87 88.274375 57.87 88.274375 
z
" style="fill: #ffffff; opacity: 0.8; stroke: #cccccc; stroke-linejoin: miter"/>
    </g>
    <g id="line2d_19">
     <path d="M 59.87 63.738438 
L 69.87 63.738438 
L 79.87 63.738438 
" style="fill: none; stroke: #1f77b4; stroke-width: 1.5; stroke-linecap: square"/>
    </g>
    <g id="text_7">
     <!-- actual -->
     <g transform="translate(87.87 67.238438) scale(0.1 -0.1)">
      <defs>
       <path id="DejaVuSans-61" d="M 2194 1759 
Q 1497 1759 1228 1600 
Q 959 1441 959 1056 
Q 959 750 1161 570 
Q 1363 391 1709 391 
Q 2188 391 2477 730 
Q 2766 1069 2766 1631 
L 2766 1759 
L 2194 1759 
z
M 3341 1997 
L 3341 0 
L 2766 0 
L 2766 531 
Q 2569 213 2275 61 
Q 1981 -91 1556 -91 
Q 1019 -91 701 211 
Q 384 513 384 1019 
Q 384 1609 779 1909 
Q 1175 2209 1959 2209 
L 2766 2209 
L 2766 2266 
Q 2766 2663 2505 2880 
Q 2244 3097 1772 3097 
Q 1472 3097 1187 3025 
Q 903 2953 641 2809 
L 641 3341 
Q 956 3463 1253 3523 
Q 1550 3584 1831 3584 
Q 2591 3584 2966 3190 
Q 3341 2797 3341 1997 
z
" transform="scale(0.015625)"/>
       <path id="DejaVuSans-63" d="M 3122 3366 
L 3122 2828 
Q 2878 2963 2633 3030 
Q 2388 3097 2138 3097 
Q 1578 3097 1268 2742 
Q 959 2388 959 1747 
Q 959 1106 1268 751 
Q 1578 397 2138 397 
Q 2388 397 2633 464 
Q 2878 531 3122 666 
L 3122 134 
Q 2881 22 2623 -34 
Q 2366 -91 2075 -91 
Q 1284 -91 818 406 
Q 353 903 353 1747 
Q 353 2603 823 3093 
Q 1294 3584 2113 3584 
Q 2378 3584 2631 3529 
Q 2884 3475 3122 3366 
z
" transform="scale(0.015625)"/>
       <path id="DejaVuSans-74" d="M 1172 4494 
L 1172 3500 
L 2356 3500 
L 2356 3053 
L 1172 3053 
L 1172 1153 
Q 1172 725 1289 603 
Q 1406 481 1766 481 
L 2356 481 
L 2356 0 
L 1766 0 
Q 1100 0 847 248 
Q 594 497 594 1153 
L 594 3053 
L 172 3053 
L 172 3500 
L 594 3500 
L 594 4494 
L 1172 4494 
z
" transform="scale(0.015625)"/>
       <path id="DejaVuSans-75" d="M 544 1381 
L 544 3500 
L 1119 3500 
L 1119 1403 
Q 1119 906 1312 657 
Q 1506 409 1894 409 
Q 2359 409 2629 706 
Q 2900 1003 2900 1516 
L 2900 3500 
L 3475 3500 
L 3475 0 
L 2900 0 
L 2900 538 
Q 2691 219 2414 64 
Q 2138 -91 1772 -91 
Q 1169 -91 856 284 
Q 544 659 544 1381 
z
M 1991 3584 
L 1991 3584 
z
" transform="scale(0.015625)"/>
       <path id="DejaVuSans-6c" d="M 603 4863 
L 1178 4863 
L 1178 0 
L 603 0 
L 603 4863 
z
" transform="scale(0.015625)"/>
      </defs>
      <use xlink:href="#DejaVuSans-61"/>
      <use xlink:href="#DejaVuSans-63" x="61.279297"/>
      <use xlink:href="#DejaVuSans-74" x="116.259766"/>
      <use xlink:href="#DejaVuSans-75" x="155.46875"/>
      <use xlink:href="#DejaVuSans-61" x="218.847656"/>
      <use xlink:href="#DejaVuSans-6c" x="280.126953"/>
     </g>
    </g>
    <g id="line2d_20">
     <path d="M 59.87 78.416563 
L 69.87 78.416563 
L 79.87 78.416563 
" style="fill: none; stroke: #ff7f0e; stroke-width: 1.5; stroke-linecap: square"/>
    </g>
    <g id="text_8">
     <!-- prompt_emergent_parts -->
     <g transform="translate(87.87 81.916563) scale(0.1 -0.1)">
      <defs>
       <path id="DejaVuSans-70" d="M 1159 525 
L 1159 -1331 
L 581 -1331 
L 581 3500 
L 1159 3500 
L 1159 2969 
Q 1341 3281 1617 3432 
Q 1894 3584 2278 3584 
Q 2916 3584 3314 3078 
Q 3713 2572 3713 1747 
Q 3713 922 3314 415 
Q 2916 -91 2278 -91 
Q 1894 -91 1617 61 
Q 1341 213 1159 525 
z
M 3116 1747 
Q 3116 2381 2855 2742 
Q 2594 3103 2138 3103 
Q 1681 3103 1420 2742 
Q 1159 2381 1159 1747 
Q 1159 1113 1420 752 
Q 1681 391 2138 391 
Q 2594 391 2855 752 
Q 3116 1113 3116 1747 
z
" transform="scale(0.015625)"/>
       <path id="DejaVuSans-72" d="M 2631 2963 
Q 2534 3019 2420 3045 
Q 2306 3072 2169 3072 
Q 1681 3072 1420 2755 
Q 1159 2438 1159 1844 
L 1159 0 
L 581 0 
L 581 3500 
L 1159 3500 
L 1159 2956 
Q 1341 3275 1631 3429 
Q 1922 3584 2338 3584 
Q 2397 3584 2469 3576 
Q 2541 3569 2628 3553 
L 2631 2963 
z
" transform="scale(0.015625)"/>
       <path id="DejaVuSans-6f" d="M 1959 3097 
Q 1497 3097 1228 2736 
Q 959 2375 959 1747 
Q 959 1119 1226 758 
Q 1494 397 1959 397 
Q 2419 397 2687 759 
Q 2956 1122 2956 1747 
Q 2956 2369 2687 2733 
Q 2419 3097 1959 3097 
z
M 1959 3584 
Q 2709 3584 3137 3096 
Q 3566 2609 3566 1747 
Q 3566 888 3137 398 
Q 2709 -91 1959 -91 
Q 1206 -91 779 398 
Q 353 888 353 1747 
Q 353 2609 779 3096 
Q 1206 3584 1959 3584 
z
" transform="scale(0.015625)"/>
       <path id="DejaVuSans-6d" d="M 3328 2828 
Q 3544 3216 3844 3400 
Q 4144 3584 4550 3584 
Q 5097 3584 5394 3201 
Q 5691 2819 5691 2113 
L 5691 0 
L 5113 0 
L 5113 2094 
Q 5113 2597 4934 2840 
Q 4756 3084 4391 3084 
Q 3944 3084 3684 2787 
Q 3425 2491 3425 1978 
L 3425 0 
L 2847 0 
L 2847 2094 
Q 2847 2600 2669 2842 
Q 2491 3084 2119 3084 
Q 1678 3084 1418 2786 
Q 1159 2488 1159 1978 
L 1159 0 
L 581 0 
L 581 3500 
L 1159 3500 
L 1159 2956 
Q 1356 3278 1631 3431 
Q 1906 3584 2284 3584 
Q 2666 3584 2933 3390 
Q 3200 3197 3328 2828 
z
" transform="scale(0.015625)"/>
       <path id="DejaVuSans-5f" d="M 3263 -1063 
L 3263 -1509 
L -63 -1509 
L -63 -1063 
L 3263 -1063 
z
" transform="scale(0.015625)"/>
       <path id="DejaVuSans-65" d="M 3597 1894 
L 3597 1613 
L 953 1613 
Q 991 1019 1311 708 
Q 1631 397 2203 397 
Q 2534 397 2845 478 
Q 3156 559 3463 722 
L 3463 178 
Q 3153 47 2828 -22 
Q 2503 -91 2169 -91 
Q 1331 -91 842 396 
Q 353 884 353 1716 
Q 353 2575 817 3079 
Q 1281 3584 2069 3584 
Q 2775 3584 3186 3129 
Q 3597 2675 3597 1894 
z
M 3022 2063 
Q 3016 2534 2758 2815 
Q 2500 3097 2075 3097 
Q 1594 3097 1305 2825 
Q 1016 2553 972 2059 
L 3022 2063 
z
" transform="scale(0.015625)"/>
       <path id="DejaVuSans-67" d="M 2906 1791 
Q 2906 2416 2648 2759 
Q 2391 3103 1925 3103 
Q 1463 3103 1205 2759 
Q 947 2416 947 1791 
Q 947 1169 1205 825 
Q 1463 481 1925 481 
Q 2391 481 2648 825 
Q 2906 1169 2906 1791 
z
M 3481 434 
Q 3481 -459 3084 -895 
Q 2688 -1331 1869 -1331 
Q 1566 -1331 1297 -1286 
Q 1028 -1241 775 -1147 
L 775 -588 
Q 1028 -725 1275 -790 
Q 1522 -856 1778 -856 
Q 2344 -856 2625 -561 
Q 2906 -266 2906 331 
L 2906 616 
Q 2728 306 2450 153 
Q 2172 0 1784 0 
Q 1141 0 747 490 
Q 353 981 353 1791 
Q 353 2603 747 3093 
Q 1141 3584 1784 3584 
Q 2172 3584 2450 3431 
Q 2728 3278 2906 2969 
L 2906 3500 
L 3481 3500 
L 3481 434 
z
" transform="scale(0.015625)"/>
       <path id="DejaVuSans-6e" d="M 3513 2113 
L 3513 0 
L 2938 0 
L 2938 2094 
Q 2938 2591 2744 2837 
Q 2550 3084 2163 3084 
Q 1697 3084 1428 2787 
Q 1159 2491 1159 1978 
L 1159 0 
L 581 0 
L 581 3500 
L 1159 3500 
L 1159 2956 
Q 1366 3272 1645 3428 
Q 1925 3584 2291 3584 
Q 2894 3584 3203 3211 
Q 3513 2838 3513 2113 
z
" transform="scale(0.015625)"/>
       <path id="DejaVuSans-73" d="M 2834 3397 
L 2834 2853 
Q 2591 2978 2328 3040 
Q 2066 3103 1784 3103 
Q 1356 3103 1142 2972 
Q 928 2841 928 2578 
Q 928 2378 1081 2264 
Q 1234 2150 1697 2047 
L 1894 2003 
Q 2506 1872 2764 1633 
Q 3022 1394 3022 966 
Q 3022 478 2636 193 
Q 2250 -91 1575 -91 
Q 1294 -91 989 -36 
Q 684 19 347 128 
L 347 722 
Q 666 556 975 473 
Q 1284 391 1588 391 
Q 1994 391 2212 530 
Q 2431 669 2431 922 
Q 2431 1156 2273 1281 
Q 2116 1406 1581 1522 
L 1381 1569 
Q 847 1681 609 1914 
Q 372 2147 372 2553 
Q 372 3047 722 3315 
Q 1072 3584 1716 3584 
Q 2034 3584 2315 3537 
Q 2597 3491 2834 3397 
z
" transform="scale(0.015625)"/>
      </defs>
      <use xlink:href="#DejaVuSans-70"/>
      <use xlink:href="#DejaVuSans-72" x="63.476562"/>
      <use xlink:href="#DejaVuSans-6f" x="102.339844"/>
      <use xlink:href="#DejaVuSans-6d" x="163.521484"/>
      <use xlink:href="#DejaVuSans-70" x="260.933594"/>
      <use xlink:href="#DejaVuSans-74" x="324.410156"/>
      <use xlink:href="#DejaVuSans-5f" x="363.619141"/>
      <use xlink:href="#DejaVuSans-65" x="413.619141"/>
      <use xlink:href="#DejaVuSans-6d" x="475.142578"/>
      <use xlink:href="#DejaVuSans-65" x="572.554688"/>
      <use xlink:href="#DejaVuSans-72" x="634.078125"/>
      <use xlink:href="#DejaVuSans-67" x="673.441406"/>
      <use xlink:href="#DejaVuSans-65" x="736.917969"/>
      <use xlink:href="#DejaVuSans-6e" x="798.441406"/>
      <use xlink:href="#DejaVuSans-74" x="861.820312"/>
      <use xlink:href="#DejaVuSans-5f" x="901.029297"/>
      <use xlink:href="#DejaVuSans-70" x="951.029297"/>
      <use xlink:href="#DejaVuSans-61" x="1014.505859"/>
      <use xlink:href="#DejaVuSans-72" x="1075.785156"/>
      <use xlink:href="#DejaVuSans-74" x="1116.898438"/>
      <use xlink:href="#DejaVuSans-73" x="1156.107422"/>
     </g>
    </g>
   </g>
  </g>
  <g id="axes_2">
   <g id="patch_8">
    <path d="M 50.87 303.64 
L 448.117849 303.64 
L 448.117849 193.413011 
L 50.87 193.413011 
z
" style="fill: #ffffff"/>
   </g>
   <g id="matplotlib.axis_3">
    <g id="xtick_12">
     <g id="text_9">
      <!-- 2014 -->
      <g style="opacity: 0" transform="translate(56.20172 318.238437) scale(0.1 -0.1)">
       <defs>
        <path id="DejaVuSans-34" d="M 2419 4116 
L 825 1625 
L 2419 1625 
L 2419 4116 
z
M 2253 4666 
L 3047 4666 
L 3047 1625 
L 3713 1625 
L 3713 1100 
L 3047 1100 
L 3047 0 
L 2419 0 
L 2419 1100 
L 313 1100 
L 313 1709 
L 2253 4666 
z
" transform="scale(0.015625)"/>
       </defs>
       <use xlink:href="#DejaVuSans-32"/>
       <use xlink:href="#DejaVuSans-30" x="63.623047"/>
       <use xlink:href="#DejaVuSans-31" x="127.246094"/>
       <use xlink:href="#DejaVuSans-34" x="190.869141"/>
      </g>
     </g>
    </g>
    <g id="xtick_13">
     <g id="text_10">
      <!-- 2015 -->
      <g style="opacity: 0" transform="translate(92.908504 318.238437) scale(0.1 -0.1)">
       <use xlink:href="#DejaVuSans-32"/>
       <use xlink:href="#DejaVuSans-30" x="63.623047"/>
       <use xlink:href="#DejaVuSans-31" x="127.246094"/>
       <use xlink:href="#DejaVuSans-35" x="190.869141"/>
      </g>
     </g>
    </g>
    <g id="xtick_14">
     <g id="text_11">
      <!-- 2016 -->
      <g style="opacity: 0" transform="translate(129.615287 318.238437) scale(0.1 -0.1)">
       <defs>
        <path id="DejaVuSans-36" d="M 2113 2584 
Q 1688 2584 1439 2293 
Q 1191 2003 1191 1497 
Q 1191 994 1439 701 
Q 1688 409 2113 409 
Q 2538 409 2786 701 
Q 3034 994 3034 1497 
Q 3034 2003 2786 2293 
Q 2538 2584 2113 2584 
z
M 3366 4563 
L 3366 3988 
Q 3128 4100 2886 4159 
Q 2644 4219 2406 4219 
Q 1781 4219 1451 3797 
Q 1122 3375 1075 2522 
Q 1259 2794 1537 2939 
Q 1816 3084 2150 3084 
Q 2853 3084 3261 2657 
Q 3669 2231 3669 1497 
Q 3669 778 3244 343 
Q 2819 -91 2113 -91 
Q 1303 -91 875 529 
Q 447 1150 447 2328 
Q 447 3434 972 4092 
Q 1497 4750 2381 4750 
Q 2619 4750 2861 4703 
Q 3103 4656 3366 4563 
z
" transform="scale(0.015625)"/>
       </defs>
       <use xlink:href="#DejaVuSans-32"/>
       <use xlink:href="#DejaVuSans-30" x="63.623047"/>
       <use xlink:href="#DejaVuSans-31" x="127.246094"/>
       <use xlink:href="#DejaVuSans-36" x="190.869141"/>
      </g>
     </g>
    </g>
    <g id="xtick_15">
     <g id="text_12">
      <!-- 2017 -->
      <g style="opacity: 0" transform="translate(166.422637 318.238437) scale(0.1 -0.1)">
       <use xlink:href="#DejaVuSans-32"/>
       <use xlink:href="#DejaVuSans-30" x="63.623047"/>
       <use xlink:href="#DejaVuSans-31" x="127.246094"/>
       <use xlink:href="#DejaVuSans-37" x="190.869141"/>
      </g>
     </g>
    </g>
    <g id="xtick_16">
     <g id="text_13">
      <!-- 2018 -->
      <g style="opacity: 0" transform="translate(203.12942 318.238437) scale(0.1 -0.1)">
       <defs>
        <path id="DejaVuSans-38" d="M 2034 2216 
Q 1584 2216 1326 1975 
Q 1069 1734 1069 1313 
Q 1069 891 1326 650 
Q 1584 409 2034 409 
Q 2484 409 2743 651 
Q 3003 894 3003 1313 
Q 3003 1734 2745 1975 
Q 2488 2216 2034 2216 
z
M 1403 2484 
Q 997 2584 770 2862 
Q 544 3141 544 3541 
Q 544 4100 942 4425 
Q 1341 4750 2034 4750 
Q 2731 4750 3128 4425 
Q 3525 4100 3525 3541 
Q 3525 3141 3298 2862 
Q 3072 2584 2669 2484 
Q 3125 2378 3379 2068 
Q 3634 1759 3634 1313 
Q 3634 634 3220 271 
Q 2806 -91 2034 -91 
Q 1263 -91 848 271 
Q 434 634 434 1313 
Q 434 1759 690 2068 
Q 947 2378 1403 2484 
z
M 1172 3481 
Q 1172 3119 1398 2916 
Q 1625 2713 2034 2713 
Q 2441 2713 2670 2916 
Q 2900 3119 2900 3481 
Q 2900 3844 2670 4047 
Q 2441 4250 2034 4250 
Q 1625 4250 1398 4047 
Q 1172 3844 1172 3481 
z
" transform="scale(0.015625)"/>
       </defs>
       <use xlink:href="#DejaVuSans-32"/>
       <use xlink:href="#DejaVuSans-30" x="63.623047"/>
       <use xlink:href="#DejaVuSans-31" x="127.246094"/>
       <use xlink:href="#DejaVuSans-38" x="190.869141"/>
      </g>
     </g>
    </g>
    <g id="xtick_17">
     <g id="text_14">
      <!-- 2019 -->
      <g style="opacity: 0" transform="translate(239.836204 318.238437) scale(0.1 -0.1)">
       <defs>
        <path id="DejaVuSans-39" d="M 703 97 
L 703 672 
Q 941 559 1184 500 
Q 1428 441 1663 441 
Q 2288 441 2617 861 
Q 2947 1281 2994 2138 
Q 2813 1869 2534 1725 
Q 2256 1581 1919 1581 
Q 1219 1581 811 2004 
Q 403 2428 403 3163 
Q 403 3881 828 4315 
Q 1253 4750 1959 4750 
Q 2769 4750 3195 4129 
Q 3622 3509 3622 2328 
Q 3622 1225 3098 567 
Q 2575 -91 1691 -91 
Q 1453 -91 1209 -44 
Q 966 3 703 97 
z
M 1959 2075 
Q 2384 2075 2632 2365 
Q 2881 2656 2881 3163 
Q 2881 3666 2632 3958 
Q 2384 4250 1959 4250 
Q 1534 4250 1286 3958 
Q 1038 3666 1038 3163 
Q 1038 2656 1286 2365 
Q 1534 2075 1959 2075 
z
" transform="scale(0.015625)"/>
       </defs>
       <use xlink:href="#DejaVuSans-32"/>
       <use xlink:href="#DejaVuSans-30" x="63.623047"/>
       <use xlink:href="#DejaVuSans-31" x="127.246094"/>
       <use xlink:href="#DejaVuSans-39" x="190.869141"/>
      </g>
     </g>
    </g>
    <g id="xtick_18">
     <g id="text_15">
      <!-- 2020 -->
      <g style="opacity: 0" transform="translate(276.542987 318.238437) scale(0.1 -0.1)">
       <use xlink:href="#DejaVuSans-32"/>
       <use xlink:href="#DejaVuSans-30" x="63.623047"/>
       <use xlink:href="#DejaVuSans-32" x="127.246094"/>
       <use xlink:href="#DejaVuSans-30" x="190.869141"/>
      </g>
     </g>
    </g>
    <g id="xtick_19">
     <g id="text_16">
      <!-- 2021 -->
      <g style="opacity: 0" transform="translate(313.350337 318.238437) scale(0.1 -0.1)">
       <use xlink:href="#DejaVuSans-32"/>
       <use xlink:href="#DejaVuSans-30" x="63.623047"/>
       <use xlink:href="#DejaVuSans-32" x="127.246094"/>
       <use xlink:href="#DejaVuSans-31" x="190.869141"/>
      </g>
     </g>
    </g>
    <g id="xtick_20">
     <g id="text_17">
      <!-- 2022 -->
      <g style="opacity: 0" transform="translate(350.05712 318.238437) scale(0.1 -0.1)">
       <use xlink:href="#DejaVuSans-32"/>
       <use xlink:href="#DejaVuSans-30" x="63.623047"/>
       <use xlink:href="#DejaVuSans-32" x="127.246094"/>
       <use xlink:href="#DejaVuSans-32" x="190.869141"/>
      </g>
     </g>
    </g>
    <g id="xtick_21">
     <g id="text_18">
      <!-- 2023 -->
      <g style="opacity: 0" transform="translate(386.763904 318.238437) scale(0.1 -0.1)">
       <defs>
        <path id="DejaVuSans-33" d="M 2597 2516 
Q 3050 2419 3304 2112 
Q 3559 1806 3559 1356 
Q 3559 666 3084 287 
Q 2609 -91 1734 -91 
Q 1441 -91 1130 -33 
Q 819 25 488 141 
L 488 750 
Q 750 597 1062 519 
Q 1375 441 1716 441 
Q 2309 441 2620 675 
Q 2931 909 2931 1356 
Q 2931 1769 2642 2001 
Q 2353 2234 1838 2234 
L 1294 2234 
L 1294 2753 
L 1863 2753 
Q 2328 2753 2575 2939 
Q 2822 3125 2822 3475 
Q 2822 3834 2567 4026 
Q 2313 4219 1838 4219 
Q 1578 4219 1281 4162 
Q 984 4106 628 3988 
L 628 4550 
Q 988 4650 1302 4700 
Q 1616 4750 1894 4750 
Q 2613 4750 3031 4423 
Q 3450 4097 3450 3541 
Q 3450 3153 3228 2886 
Q 3006 2619 2597 2516 
z
" transform="scale(0.015625)"/>
       </defs>
       <use xlink:href="#DejaVuSans-32"/>
       <use xlink:href="#DejaVuSans-30" x="63.623047"/>
       <use xlink:href="#DejaVuSans-32" x="127.246094"/>
       <use xlink:href="#DejaVuSans-33" x="190.869141"/>
      </g>
     </g>
    </g>
    <g id="xtick_22">
     <g id="text_19">
      <!-- 2024 -->
      <g style="opacity: 0" transform="translate(423.470687 318.238437) scale(0.1 -0.1)">
       <use xlink:href="#DejaVuSans-32"/>
       <use xlink:href="#DejaVuSans-30" x="63.623047"/>
       <use xlink:href="#DejaVuSans-32" x="127.246094"/>
       <use xlink:href="#DejaVuSans-34" x="190.869141"/>
      </g>
     </g>
    </g>
    <g id="text_20">
     <!-- Years -->
     <g transform="translate(236.301737 331.916562) scale(0.1 -0.1)">
      <defs>
       <path id="DejaVuSans-59" d="M -13 4666 
L 666 4666 
L 1959 2747 
L 3244 4666 
L 3922 4666 
L 2272 2222 
L 2272 0 
L 1638 0 
L 1638 2222 
L -13 4666 
z
" transform="scale(0.015625)"/>
      </defs>
      <use xlink:href="#DejaVuSans-59"/>
      <use xlink:href="#DejaVuSans-65" x="47.833984"/>
      <use xlink:href="#DejaVuSans-61" x="109.357422"/>
      <use xlink:href="#DejaVuSans-72" x="170.636719"/>
      <use xlink:href="#DejaVuSans-73" x="211.75"/>
     </g>
    </g>
   </g>
   <g id="matplotlib.axis_4">
    <g id="ytick_6">
     <g id="text_21">
      <!-- 25 -->
      <g style="opacity: 0" transform="translate(31.145 291.406202) scale(0.1 -0.1)">
       <use xlink:href="#DejaVuSans-32"/>
       <use xlink:href="#DejaVuSans-35" x="63.623047"/>
      </g>
     </g>
    </g>
    <g id="ytick_7">
     <g id="text_22">
      <!-- 50 -->
      <g style="opacity: 0" transform="translate(31.145 266.354614) scale(0.1 -0.1)">
       <use xlink:href="#DejaVuSans-35"/>
       <use xlink:href="#DejaVuSans-30" x="63.623047"/>
      </g>
     </g>
    </g>
    <g id="ytick_8">
     <g id="text_23">
      <!-- 75 -->
      <g style="opacity: 0" transform="translate(31.145 241.303025) scale(0.1 -0.1)">
       <use xlink:href="#DejaVuSans-37"/>
       <use xlink:href="#DejaVuSans-35" x="63.623047"/>
      </g>
     </g>
    </g>
    <g id="ytick_9">
     <g id="text_24">
      <!-- 100 -->
      <g style="opacity: 0" transform="translate(24.7825 216.251437) scale(0.1 -0.1)">
       <use xlink:href="#DejaVuSans-31"/>
       <use xlink:href="#DejaVuSans-30" x="63.623047"/>
       <use xlink:href="#DejaVuSans-30" x="127.246094"/>
      </g>
     </g>
    </g>
    <g id="text_25">
     <!-- Monthly Complaint counts -->
     <g transform="translate(18.702813 314.001505) rotate(-90) scale(0.1 -0.1)">
      <defs>
       <path id="DejaVuSans-4d" d="M 628 4666 
L 1569 4666 
L 2759 1491 
L 3956 4666 
L 4897 4666 
L 4897 0 
L 4281 0 
L 4281 4097 
L 3078 897 
L 2444 897 
L 1241 4097 
L 1241 0 
L 628 0 
L 628 4666 
z
" transform="scale(0.015625)"/>
       <path id="DejaVuSans-68" d="M 3513 2113 
L 3513 0 
L 2938 0 
L 2938 2094 
Q 2938 2591 2744 2837 
Q 2550 3084 2163 3084 
Q 1697 3084 1428 2787 
Q 1159 2491 1159 1978 
L 1159 0 
L 581 0 
L 581 4863 
L 1159 4863 
L 1159 2956 
Q 1366 3272 1645 3428 
Q 1925 3584 2291 3584 
Q 2894 3584 3203 3211 
Q 3513 2838 3513 2113 
z
" transform="scale(0.015625)"/>
       <path id="DejaVuSans-79" d="M 2059 -325 
Q 1816 -950 1584 -1140 
Q 1353 -1331 966 -1331 
L 506 -1331 
L 506 -850 
L 844 -850 
Q 1081 -850 1212 -737 
Q 1344 -625 1503 -206 
L 1606 56 
L 191 3500 
L 800 3500 
L 1894 763 
L 2988 3500 
L 3597 3500 
L 2059 -325 
z
" transform="scale(0.015625)"/>
       <path id="DejaVuSans-20" transform="scale(0.015625)"/>
       <path id="DejaVuSans-43" d="M 4122 4306 
L 4122 3641 
Q 3803 3938 3442 4084 
Q 3081 4231 2675 4231 
Q 1875 4231 1450 3742 
Q 1025 3253 1025 2328 
Q 1025 1406 1450 917 
Q 1875 428 2675 428 
Q 3081 428 3442 575 
Q 3803 722 4122 1019 
L 4122 359 
Q 3791 134 3420 21 
Q 3050 -91 2638 -91 
Q 1578 -91 968 557 
Q 359 1206 359 2328 
Q 359 3453 968 4101 
Q 1578 4750 2638 4750 
Q 3056 4750 3426 4639 
Q 3797 4528 4122 4306 
z
" transform="scale(0.015625)"/>
       <path id="DejaVuSans-69" d="M 603 3500 
L 1178 3500 
L 1178 0 
L 603 0 
L 603 3500 
z
M 603 4863 
L 1178 4863 
L 1178 4134 
L 603 4134 
L 603 4863 
z
" transform="scale(0.015625)"/>
      </defs>
      <use xlink:href="#DejaVuSans-4d"/>
      <use xlink:href="#DejaVuSans-6f" x="86.279297"/>
      <use xlink:href="#DejaVuSans-6e" x="147.460938"/>
      <use xlink:href="#DejaVuSans-74" x="210.839844"/>
      <use xlink:href="#DejaVuSans-68" x="250.048828"/>
      <use xlink:href="#DejaVuSans-6c" x="313.427734"/>
      <use xlink:href="#DejaVuSans-79" x="341.210938"/>
      <use xlink:href="#DejaVuSans-20" x="400.390625"/>
      <use xlink:href="#DejaVuSans-43" x="432.177734"/>
      <use xlink:href="#DejaVuSans-6f" x="502.001953"/>
      <use xlink:href="#DejaVuSans-6d" x="563.183594"/>
      <use xlink:href="#DejaVuSans-70" x="660.595703"/>
      <use xlink:href="#DejaVuSans-6c" x="724.072266"/>
      <use xlink:href="#DejaVuSans-61" x="751.855469"/>
      <use xlink:href="#DejaVuSans-69" x="813.134766"/>
      <use xlink:href="#DejaVuSans-6e" x="840.917969"/>
      <use xlink:href="#DejaVuSans-74" x="904.296875"/>
      <use xlink:href="#DejaVuSans-20" x="943.505859"/>
      <use xlink:href="#DejaVuSans-63" x="975.292969"/>
      <use xlink:href="#DejaVuSans-6f" x="1030.273438"/>
      <use xlink:href="#DejaVuSans-75" x="1091.455078"/>
      <use xlink:href="#DejaVuSans-6e" x="1154.833984"/>
      <use xlink:href="#DejaVuSans-74" x="1218.212891"/>
      <use xlink:href="#DejaVuSans-73" x="1257.421875"/>
     </g>
    </g>
   </g>
   <g id="line2d_21">
    <path d="M 68.92672 290.613174 
L 72.044283 294.621428 
L 74.860146 285.602856 
L 77.977708 287.606983 
L 80.994704 284.600793 
L 84.112266 283.598729 
L 87.129262 263.557458 
L 90.246825 248.526505 
L 93.364387 249.528569 
L 96.381383 268.567776 
L 99.498945 275.582221 
L 102.515941 282.596666 
L 105.633504 263.557458 
L 108.751066 282.596666 
L 111.566929 278.588412 
L 114.684491 274.580157 
L 117.701487 293.619365 
L 120.81905 294.621428 
L 123.836046 277.586348 
L 126.953608 281.594602 
L 130.071171 271.573967 
L 133.088166 274.580157 
L 136.205729 286.60492 
L 139.222725 283.598729 
L 142.340287 286.60492 
L 145.45785 292.617301 
L 148.374279 291.615238 
L 151.491841 282.596666 
L 154.508837 295.623492 
L 157.6264 291.615238 
L 160.643396 284.600793 
L 163.760958 280.592539 
L 166.87852 278.588412 
L 169.895516 283.598729 
L 173.013079 287.606983 
L 176.030075 283.598729 
L 179.147637 286.60492 
L 182.265199 282.596666 
L 185.081062 293.619365 
L 188.198625 274.580157 
L 191.215621 266.563649 
L 194.333183 274.580157 
L 197.350179 276.584284 
L 200.467741 270.571903 
L 203.585304 273.578094 
L 206.6023 293.619365 
L 209.719862 276.584284 
L 212.736858 285.602856 
L 215.85442 286.60492 
L 218.971983 289.61111 
L 221.787846 285.602856 
L 224.905408 279.590475 
L 227.922404 268.567776 
L 231.039966 273.578094 
L 234.056962 258.547141 
L 237.174525 252.53476 
L 240.292087 263.557458 
L 243.309083 253.536823 
L 246.426645 269.56984 
L 249.443641 269.56984 
L 252.561204 263.557458 
L 255.678766 276.584284 
L 258.494629 262.555395 
L 261.612191 249.528569 
L 264.629187 235.499679 
L 267.74675 267.565713 
L 270.763746 252.53476 
L 273.881308 261.553331 
L 276.99887 261.553331 
L 280.015866 269.56984 
L 283.133429 286.60492 
L 286.150425 272.57603 
L 289.267987 278.588412 
L 292.38555 264.559522 
L 295.301979 286.60492 
L 298.419541 290.613174 
L 301.436537 286.60492 
L 304.5541 271.573967 
L 307.571096 283.598729 
L 310.688658 267.565713 
L 313.80622 269.56984 
L 316.823216 276.584284 
L 319.940779 270.571903 
L 322.957775 259.549204 
L 326.075337 256.543014 
L 329.192899 260.551268 
L 332.008762 245.520315 
L 335.126325 267.565713 
L 338.143321 261.553331 
L 341.260883 267.565713 
L 344.277879 272.57603 
L 347.395441 285.602856 
L 350.513004 287.606983 
L 353.53 282.596666 
L 356.647562 278.588412 
L 359.664558 292.617301 
L 362.78212 278.588412 
L 365.899683 277.586348 
L 368.715546 272.57603 
L 371.833108 285.602856 
L 374.850104 264.559522 
L 377.967666 260.551268 
L 380.984662 251.532696 
L 384.102225 229.487298 
L 387.219787 245.520315 
L 390.236783 261.553331 
L 393.354345 247.524442 
L 396.371341 270.571903 
L 399.488904 261.553331 
L 402.606466 261.553331 
L 405.422329 241.512061 
L 408.539891 249.528569 
L 411.556887 234.497616 
L 414.67445 208.443964 
L 417.691446 198.423329 
L 420.809008 220.468726 
L 423.92657 232.493489 
L 426.943566 236.501743 
L 430.061129 262.555395 
" clip-path="url(#p8e42974d4c)" style="fill: none; stroke: #1f77b4; stroke-width: 1.5; stroke-linecap: square"/>
   </g>
   <g id="line2d_22">
    <path d="M 68.92672 289.61111 
L 72.044283 288.609047 
L 74.860146 273.578094 
L 77.977708 280.592539 
L 80.994704 275.582221 
L 84.112266 276.584284 
L 87.129262 276.584284 
L 90.246825 260.551268 
L 93.364387 265.561586 
L 96.381383 279.590475 
L 99.498945 273.578094 
L 102.515941 282.596666 
L 105.633504 266.563649 
L 108.751066 283.598729 
L 111.566929 267.565713 
L 114.684491 281.594602 
L 117.701487 295.623492 
L 120.81905 291.615238 
L 123.836046 288.609047 
L 126.953608 283.598729 
L 130.071171 272.57603 
L 133.088166 264.559522 
L 136.205729 275.582221 
L 139.222725 280.592539 
L 142.340287 293.619365 
L 145.45785 282.596666 
L 148.374279 283.598729 
L 151.491841 287.606983 
L 154.508837 285.602856 
L 157.6264 284.600793 
L 160.643396 285.602856 
L 163.760958 251.532696 
L 166.87852 286.60492 
L 169.895516 284.600793 
L 173.013079 287.606983 
L 176.030075 298.629682 
L 179.147637 277.586348 
L 182.265199 295.623492 
L 185.081062 286.60492 
L 188.198625 283.598729 
L 191.215621 268.567776 
L 194.333183 273.578094 
L 197.350179 270.571903 
L 200.467741 270.571903 
L 203.585304 276.584284 
L 206.6023 283.598729 
L 209.719862 272.57603 
L 212.736858 282.596666 
L 215.85442 281.594602 
L 218.971983 273.578094 
L 221.787846 275.582221 
L 224.905408 282.596666 
L 227.922404 275.582221 
L 231.039966 270.571903 
L 234.056962 267.565713 
L 237.174525 263.557458 
L 240.292087 274.580157 
L 243.309083 253.536823 
L 246.426645 268.567776 
L 249.443641 266.563649 
L 252.561204 260.551268 
L 255.678766 276.584284 
L 258.494629 251.532696 
L 261.612191 257.545077 
L 264.629187 217.462536 
L 267.74675 261.553331 
L 270.763746 266.563649 
L 273.881308 253.536823 
L 276.99887 284.600793 
L 280.015866 265.561586 
L 283.133429 289.61111 
L 286.150425 260.551268 
L 289.267987 286.60492 
L 292.38555 262.555395 
L 295.301979 279.590475 
L 298.419541 292.617301 
L 301.436537 291.615238 
L 304.5541 284.600793 
L 307.571096 274.580157 
L 310.688658 267.565713 
L 313.80622 264.559522 
L 316.823216 275.582221 
L 319.940779 258.547141 
L 322.957775 264.559522 
L 326.075337 239.507934 
L 329.192899 256.543014 
L 332.008762 244.518251 
L 335.126325 258.547141 
L 338.143321 257.545077 
L 341.260883 275.582221 
L 344.277879 275.582221 
L 347.395441 279.590475 
L 350.513004 273.578094 
L 353.53 286.60492 
L 356.647562 271.573967 
L 359.664558 287.606983 
L 362.78212 277.586348 
L 365.899683 275.582221 
L 368.715546 273.578094 
L 371.833108 283.598729 
L 374.850104 256.543014 
L 377.967666 258.547141 
L 380.984662 267.565713 
L 384.102225 210.448091 
L 387.219787 241.512061 
L 390.236783 259.549204 
L 393.354345 251.532696 
L 396.371341 249.528569 
L 399.488904 245.520315 
L 402.606466 254.538887 
L 405.422329 232.493489 
L 408.539891 253.536823 
L 411.556887 223.474917 
L 414.67445 235.499679 
L 417.691446 234.497616 
L 420.809008 237.503807 
L 423.92657 256.543014 
L 426.943566 245.520315 
L 430.061129 263.557458 
" clip-path="url(#p8e42974d4c)" style="fill: none; stroke: #ff7f0e; stroke-width: 1.5; stroke-linecap: square"/>
   </g>
   <g id="patch_9">
    <path d="M 50.87 303.64 
L 50.87 193.413011 
" style="fill: none; stroke: #000000; stroke-width: 0.8; stroke-linejoin: miter; stroke-linecap: square"/>
   </g>
   <g id="patch_10">
    <path d="M 448.117849 303.64 
L 448.117849 193.413011 
" style="fill: none; stroke: #000000; stroke-width: 0.8; stroke-linejoin: miter; stroke-linecap: square"/>
   </g>
   <g id="patch_11">
    <path d="M 50.87 303.64 
L 448.117849 303.64 
" style="fill: none; stroke: #000000; stroke-width: 0.8; stroke-linejoin: miter; stroke-linecap: square"/>
   </g>
   <g id="patch_12">
    <path d="M 50.87 193.413011 
L 448.117849 193.413011 
" style="fill: none; stroke: #000000; stroke-width: 0.8; stroke-linejoin: miter; stroke-linecap: square"/>
   </g>
   <g id="text_26">
    <!-- TP+FP -->
    <g transform="translate(230.114862 187.413011) scale(0.12 -0.12)">
     <defs>
      <path id="DejaVuSans-2b" d="M 2944 4013 
L 2944 2272 
L 4684 2272 
L 4684 1741 
L 2944 1741 
L 2944 0 
L 2419 0 
L 2419 1741 
L 678 1741 
L 678 2272 
L 2419 2272 
L 2419 4013 
L 2944 4013 
z
" transform="scale(0.015625)"/>
      <path id="DejaVuSans-46" d="M 628 4666 
L 3309 4666 
L 3309 4134 
L 1259 4134 
L 1259 2759 
L 3109 2759 
L 3109 2228 
L 1259 2228 
L 1259 0 
L 628 0 
L 628 4666 
z
" transform="scale(0.015625)"/>
     </defs>
     <use xlink:href="#DejaVuSans-54"/>
     <use xlink:href="#DejaVuSans-50" x="61.083984"/>
     <use xlink:href="#DejaVuSans-2b" x="121.386719"/>
     <use xlink:href="#DejaVuSans-46" x="205.175781"/>
     <use xlink:href="#DejaVuSans-50" x="262.695312"/>
    </g>
   </g>
   <g id="legend_2">
    <g id="patch_13">
     <path d="M 57.87 231.047386 
L 210.691875 231.047386 
Q 212.691875 231.047386 212.691875 229.047386 
L 212.691875 200.413011 
Q 212.691875 198.413011 210.691875 198.413011 
L 57.87 198.413011 
Q 55.87 198.413011 55.87 200.413011 
L 55.87 229.047386 
Q 55.87 231.047386 57.87 231.047386 
z
" style="fill: #ffffff; opacity: 0.8; stroke: #cccccc; stroke-linejoin: miter"/>
    </g>
    <g id="line2d_23">
     <path d="M 59.87 206.511448 
L 69.87 206.511448 
L 79.87 206.511448 
" style="fill: none; stroke: #1f77b4; stroke-width: 1.5; stroke-linecap: square"/>
    </g>
    <g id="text_27">
     <!-- actual -->
     <g transform="translate(87.87 210.011448) scale(0.1 -0.1)">
      <use xlink:href="#DejaVuSans-61"/>
      <use xlink:href="#DejaVuSans-63" x="61.279297"/>
      <use xlink:href="#DejaVuSans-74" x="116.259766"/>
      <use xlink:href="#DejaVuSans-75" x="155.46875"/>
      <use xlink:href="#DejaVuSans-61" x="218.847656"/>
      <use xlink:href="#DejaVuSans-6c" x="280.126953"/>
     </g>
    </g>
    <g id="line2d_24">
     <path d="M 59.87 221.189573 
L 69.87 221.189573 
L 79.87 221.189573 
" style="fill: none; stroke: #ff7f0e; stroke-width: 1.5; stroke-linecap: square"/>
    </g>
    <g id="text_28">
     <!-- prompt_emergent_parts -->
     <g transform="translate(87.87 224.689573) scale(0.1 -0.1)">
      <use xlink:href="#DejaVuSans-70"/>
      <use xlink:href="#DejaVuSans-72" x="63.476562"/>
      <use xlink:href="#DejaVuSans-6f" x="102.339844"/>
      <use xlink:href="#DejaVuSans-6d" x="163.521484"/>
      <use xlink:href="#DejaVuSans-70" x="260.933594"/>
      <use xlink:href="#DejaVuSans-74" x="324.410156"/>
      <use xlink:href="#DejaVuSans-5f" x="363.619141"/>
      <use xlink:href="#DejaVuSans-65" x="413.619141"/>
      <use xlink:href="#DejaVuSans-6d" x="475.142578"/>
      <use xlink:href="#DejaVuSans-65" x="572.554688"/>
      <use xlink:href="#DejaVuSans-72" x="634.078125"/>
      <use xlink:href="#DejaVuSans-67" x="673.441406"/>
      <use xlink:href="#DejaVuSans-65" x="736.917969"/>
      <use xlink:href="#DejaVuSans-6e" x="798.441406"/>
      <use xlink:href="#DejaVuSans-74" x="861.820312"/>
      <use xlink:href="#DejaVuSans-5f" x="901.029297"/>
      <use xlink:href="#DejaVuSans-70" x="951.029297"/>
      <use xlink:href="#DejaVuSans-61" x="1014.505859"/>
      <use xlink:href="#DejaVuSans-72" x="1075.785156"/>
      <use xlink:href="#DejaVuSans-74" x="1116.898438"/>
      <use xlink:href="#DejaVuSans-73" x="1156.107422"/>
     </g>
    </g>
   </g>
  </g>
  <g id="text_29">
   <!-- 2014-2023 Hyundai 'other component' complaints -->
   <g transform="translate(79.105313 16.030125) scale(0.12 -0.12)">
    <defs>
     <path id="DejaVuSans-2d" d="M 313 2009 
L 1997 2009 
L 1997 1497 
L 313 1497 
L 313 2009 
z
" transform="scale(0.015625)"/>
     <path id="DejaVuSans-48" d="M 628 4666 
L 1259 4666 
L 1259 2753 
L 3553 2753 
L 3553 4666 
L 4184 4666 
L 4184 0 
L 3553 0 
L 3553 2222 
L 1259 2222 
L 1259 0 
L 628 0 
L 628 4666 
z
" transform="scale(0.015625)"/>
     <path id="DejaVuSans-64" d="M 2906 2969 
L 2906 4863 
L 3481 4863 
L 3481 0 
L 2906 0 
L 2906 525 
Q 2725 213 2448 61 
Q 2172 -91 1784 -91 
Q 1150 -91 751 415 
Q 353 922 353 1747 
Q 353 2572 751 3078 
Q 1150 3584 1784 3584 
Q 2172 3584 2448 3432 
Q 2725 3281 2906 2969 
z
M 947 1747 
Q 947 1113 1208 752 
Q 1469 391 1925 391 
Q 2381 391 2643 752 
Q 2906 1113 2906 1747 
Q 2906 2381 2643 2742 
Q 2381 3103 1925 3103 
Q 1469 3103 1208 2742 
Q 947 2381 947 1747 
z
" transform="scale(0.015625)"/>
     <path id="DejaVuSans-27" d="M 1147 4666 
L 1147 2931 
L 616 2931 
L 616 4666 
L 1147 4666 
z
" transform="scale(0.015625)"/>
    </defs>
    <use xlink:href="#DejaVuSans-32"/>
    <use xlink:href="#DejaVuSans-30" x="63.623047"/>
    <use xlink:href="#DejaVuSans-31" x="127.246094"/>
    <use xlink:href="#DejaVuSans-34" x="190.869141"/>
    <use xlink:href="#DejaVuSans-2d" x="254.492188"/>
    <use xlink:href="#DejaVuSans-32" x="290.576172"/>
    <use xlink:href="#DejaVuSans-30" x="354.199219"/>
    <use xlink:href="#DejaVuSans-32" x="417.822266"/>
    <use xlink:href="#DejaVuSans-33" x="481.445312"/>
    <use xlink:href="#DejaVuSans-20" x="545.068359"/>
    <use xlink:href="#DejaVuSans-48" x="576.855469"/>
    <use xlink:href="#DejaVuSans-79" x="652.050781"/>
    <use xlink:href="#DejaVuSans-75" x="711.230469"/>
    <use xlink:href="#DejaVuSans-6e" x="774.609375"/>
    <use xlink:href="#DejaVuSans-64" x="837.988281"/>
    <use xlink:href="#DejaVuSans-61" x="901.464844"/>
    <use xlink:href="#DejaVuSans-69" x="962.744141"/>
    <use xlink:href="#DejaVuSans-20" x="990.527344"/>
    <use xlink:href="#DejaVuSans-27" x="1022.314453"/>
    <use xlink:href="#DejaVuSans-6f" x="1049.804688"/>
    <use xlink:href="#DejaVuSans-74" x="1110.986328"/>
    <use xlink:href="#DejaVuSans-68" x="1150.195312"/>
    <use xlink:href="#DejaVuSans-65" x="1213.574219"/>
    <use xlink:href="#DejaVuSans-72" x="1275.097656"/>
    <use xlink:href="#DejaVuSans-20" x="1316.210938"/>
    <use xlink:href="#DejaVuSans-63" x="1347.998047"/>
    <use xlink:href="#DejaVuSans-6f" x="1402.978516"/>
    <use xlink:href="#DejaVuSans-6d" x="1464.160156"/>
    <use xlink:href="#DejaVuSans-70" x="1561.572266"/>
    <use xlink:href="#DejaVuSans-6f" x="1625.048828"/>
    <use xlink:href="#DejaVuSans-6e" x="1686.230469"/>
    <use xlink:href="#DejaVuSans-65" x="1749.609375"/>
    <use xlink:href="#DejaVuSans-6e" x="1811.132812"/>
    <use xlink:href="#DejaVuSans-74" x="1874.511719"/>
    <use xlink:href="#DejaVuSans-27" x="1913.720703"/>
    <use xlink:href="#DejaVuSans-20" x="1941.210938"/>
    <use xlink:href="#DejaVuSans-63" x="1972.998047"/>
    <use xlink:href="#DejaVuSans-6f" x="2027.978516"/>
    <use xlink:href="#DejaVuSans-6d" x="2089.160156"/>
    <use xlink:href="#DejaVuSans-70" x="2186.572266"/>
    <use xlink:href="#DejaVuSans-6c" x="2250.048828"/>
    <use xlink:href="#DejaVuSans-61" x="2277.832031"/>
    <use xlink:href="#DejaVuSans-69" x="2339.111328"/>
    <use xlink:href="#DejaVuSans-6e" x="2366.894531"/>
    <use xlink:href="#DejaVuSans-74" x="2430.273438"/>
    <use xlink:href="#DejaVuSans-73" x="2469.482422"/>
   </g>
  </g>
 </g>
 <defs>
  <clipPath id="pb616df2a81">
   <rect x="50.87" y="50.64" width="397.247849" height="110.226989"/>
  </clipPath>
  <clipPath id="p8e42974d4c">
   <rect x="50.87" y="193.413011" width="397.247849" height="110.226989"/>
  </clipPath>
 </defs>
</svg>
