<?xml version="1.0" encoding="utf-8" standalone="no"?>
<!DOCTYPE svg PUBLIC "-//W3C//DTD SVG 1.1//EN"
  "http://www.w3.org/Graphics/SVG/1.1/DTD/svg11.dtd">
<svg xmlns:xlink="http://www.w3.org/1999/xlink" width="460.8pt" height="345.6pt" viewBox="0 0 460.8 345.6" xmlns="http://www.w3.org/2000/svg" version="1.1">
 <metadata>
  <rdf:RDF xmlns:dc="http://purl.org/dc/elements/1.1/" xmlns:cc="http://creativecommons.org/ns#" xmlns:rdf="http://www.w3.org/1999/02/22-rdf-syntax-ns#">
   <cc:Work>
    <dc:type rdf:resource="http://purl.org/dc/dcmitype/StillImage"/>
    <dc:date>2023-12-07T04:25:18.742948</dc:date>
    <dc:format>image/svg+xml</dc:format>
    <dc:creator>
     <cc:Agent>
      <dc:title>Matplotlib v3.7.1, https://matplotlib.org/</dc:title>
     </cc:Agent>
    </dc:creator>
   </cc:Work>
  </rdf:RDF>
 </metadata>
 <defs>
  <style type="text/css">*{stroke-linejoin: round; stroke-linecap: butt}</style>
 </defs>
 <g id="figure_1">
  <g id="patch_1">
   <path d="M 0 345.6 
L 460.8 345.6 
L 460.8 0 
L 0 0 
z
" style="fill: #ffffff"/>
  </g>
  <g id="axes_1">
   <g id="patch_2">
    <path d="M 73.71 155.39 
L 440.197849 155.39 
L 440.197849 54.6 
L 73.71 54.6 
z
" style="fill: #ffffff"/>
   </g>
   <g id="matplotlib.axis_1">
    <g id="xtick_1">
     <g id="line2d_1">
      <defs>
       <path id="mf6eae992f7" d="M 0 0 
L 0 3.5 
" style="stroke: #000000; stroke-width: 0.8"/>
      </defs>
      <g>
       <use xlink:href="#mf6eae992f7" x="90.368539" y="155.39" style="stroke: #000000; stroke-width: 0.8"/>
      </g>
     </g>
    </g>
    <g id="xtick_2">
     <g id="line2d_2">
      <g>
       <use xlink:href="#mf6eae992f7" x="124.233014" y="155.39" style="stroke: #000000; stroke-width: 0.8"/>
      </g>
     </g>
    </g>
    <g id="xtick_3">
     <g id="line2d_3">
      <g>
       <use xlink:href="#mf6eae992f7" x="158.09749" y="155.39" style="stroke: #000000; stroke-width: 0.8"/>
      </g>
     </g>
    </g>
    <g id="xtick_4">
     <g id="line2d_4">
      <g>
       <use xlink:href="#mf6eae992f7" x="192.054745" y="155.39" style="stroke: #000000; stroke-width: 0.8"/>
      </g>
     </g>
    </g>
    <g id="xtick_5">
     <g id="line2d_5">
      <g>
       <use xlink:href="#mf6eae992f7" x="225.91922" y="155.39" style="stroke: #000000; stroke-width: 0.8"/>
      </g>
     </g>
    </g>
    <g id="xtick_6">
     <g id="line2d_6">
      <g>
       <use xlink:href="#mf6eae992f7" x="259.783696" y="155.39" style="stroke: #000000; stroke-width: 0.8"/>
      </g>
     </g>
    </g>
    <g id="xtick_7">
     <g id="line2d_7">
      <g>
       <use xlink:href="#mf6eae992f7" x="293.648171" y="155.39" style="stroke: #000000; stroke-width: 0.8"/>
      </g>
     </g>
    </g>
    <g id="xtick_8">
     <g id="line2d_8">
      <g>
       <use xlink:href="#mf6eae992f7" x="327.605426" y="155.39" style="stroke: #000000; stroke-width: 0.8"/>
      </g>
     </g>
    </g>
    <g id="xtick_9">
     <g id="line2d_9">
      <g>
       <use xlink:href="#mf6eae992f7" x="361.469902" y="155.39" style="stroke: #000000; stroke-width: 0.8"/>
      </g>
     </g>
    </g>
    <g id="xtick_10">
     <g id="line2d_10">
      <g>
       <use xlink:href="#mf6eae992f7" x="395.334377" y="155.39" style="stroke: #000000; stroke-width: 0.8"/>
      </g>
     </g>
    </g>
    <g id="xtick_11">
     <g id="line2d_11">
      <g>
       <use xlink:href="#mf6eae992f7" x="429.198853" y="155.39" style="stroke: #000000; stroke-width: 0.8"/>
      </g>
     </g>
    </g>
   </g>
   <g id="matplotlib.axis_2">
    <g id="ytick_1">
     <g id="line2d_12">
      <defs>
       <path id="mdb0877842d" d="M 0 0 
L -3.5 0 
" style="stroke: #000000; stroke-width: 0.8"/>
      </defs>
      <g>
       <use xlink:href="#mdb0877842d" x="73.71" y="151.657037" style="stroke: #000000; stroke-width: 0.8"/>
      </g>
     </g>
     <g id="text_1">
      <!-- 0 -->
      <g transform="translate(60.3475 155.456256) scale(0.1 -0.1)">
       <defs>
        <path id="DejaVuSans-30" d="M 2034 4250 
Q 1547 4250 1301 3770 
Q 1056 3291 1056 2328 
Q 1056 1369 1301 889 
Q 1547 409 2034 409 
Q 2525 409 2770 889 
Q 3016 1369 3016 2328 
Q 3016 3291 2770 3770 
Q 2525 4250 2034 4250 
z
M 2034 4750 
Q 2819 4750 3233 4129 
Q 3647 3509 3647 2328 
Q 3647 1150 3233 529 
Q 2819 -91 2034 -91 
Q 1250 -91 836 529 
Q 422 1150 422 2328 
Q 422 3509 836 4129 
Q 1250 4750 2034 4750 
z
" transform="scale(0.015625)"/>
       </defs>
       <use xlink:href="#DejaVuSans-30"/>
      </g>
     </g>
    </g>
    <g id="ytick_2">
     <g id="line2d_13">
      <g>
       <use xlink:href="#mdb0877842d" x="73.71" y="130.44702" style="stroke: #000000; stroke-width: 0.8"/>
      </g>
     </g>
     <g id="text_2">
      <!-- 25 -->
      <g transform="translate(53.985 134.246239) scale(0.1 -0.1)">
       <defs>
        <path id="DejaVuSans-32" d="M 1228 531 
L 3431 531 
L 3431 0 
L 469 0 
L 469 531 
Q 828 903 1448 1529 
Q 2069 2156 2228 2338 
Q 2531 2678 2651 2914 
Q 2772 3150 2772 3378 
Q 2772 3750 2511 3984 
Q 2250 4219 1831 4219 
Q 1534 4219 1204 4116 
Q 875 4013 500 3803 
L 500 4441 
Q 881 4594 1212 4672 
Q 1544 4750 1819 4750 
Q 2544 4750 2975 4387 
Q 3406 4025 3406 3419 
Q 3406 3131 3298 2873 
Q 3191 2616 2906 2266 
Q 2828 2175 2409 1742 
Q 1991 1309 1228 531 
z
" transform="scale(0.015625)"/>
        <path id="DejaVuSans-35" d="M 691 4666 
L 3169 4666 
L 3169 4134 
L 1269 4134 
L 1269 2991 
Q 1406 3038 1543 3061 
Q 1681 3084 1819 3084 
Q 2600 3084 3056 2656 
Q 3513 2228 3513 1497 
Q 3513 744 3044 326 
Q 2575 -91 1722 -91 
Q 1428 -91 1123 -41 
Q 819 9 494 109 
L 494 744 
Q 775 591 1075 516 
Q 1375 441 1709 441 
Q 2250 441 2565 725 
Q 2881 1009 2881 1497 
Q 2881 1984 2565 2268 
Q 2250 2553 1709 2553 
Q 1456 2553 1204 2497 
Q 953 2441 691 2322 
L 691 4666 
z
" transform="scale(0.015625)"/>
       </defs>
       <use xlink:href="#DejaVuSans-32"/>
       <use xlink:href="#DejaVuSans-35" x="63.623047"/>
      </g>
     </g>
    </g>
    <g id="ytick_3">
     <g id="line2d_14">
      <g>
       <use xlink:href="#mdb0877842d" x="73.71" y="109.237003" style="stroke: #000000; stroke-width: 0.8"/>
      </g>
     </g>
     <g id="text_3">
      <!-- 50 -->
      <g transform="translate(53.985 113.036222) scale(0.1 -0.1)">
       <use xlink:href="#DejaVuSans-35"/>
       <use xlink:href="#DejaVuSans-30" x="63.623047"/>
      </g>
     </g>
    </g>
    <g id="ytick_4">
     <g id="line2d_15">
      <g>
       <use xlink:href="#mdb0877842d" x="73.71" y="88.026987" style="stroke: #000000; stroke-width: 0.8"/>
      </g>
     </g>
     <g id="text_4">
      <!-- 75 -->
      <g transform="translate(53.985 91.826205) scale(0.1 -0.1)">
       <defs>
        <path id="DejaVuSans-37" d="M 525 4666 
L 3525 4666 
L 3525 4397 
L 1831 0 
L 1172 0 
L 2766 4134 
L 525 4134 
L 525 4666 
z
" transform="scale(0.015625)"/>
       </defs>
       <use xlink:href="#DejaVuSans-37"/>
       <use xlink:href="#DejaVuSans-35" x="63.623047"/>
      </g>
     </g>
    </g>
    <g id="ytick_5">
     <g id="line2d_16">
      <g>
       <use xlink:href="#mdb0877842d" x="73.71" y="66.81697" style="stroke: #000000; stroke-width: 0.8"/>
      </g>
     </g>
     <g id="text_5">
      <!-- 100 -->
      <g transform="translate(47.6225 70.616188) scale(0.1 -0.1)">
       <defs>
        <path id="DejaVuSans-31" d="M 794 531 
L 1825 531 
L 1825 4091 
L 703 3866 
L 703 4441 
L 1819 4666 
L 2450 4666 
L 2450 531 
L 3481 531 
L 3481 0 
L 794 0 
L 794 531 
z
" transform="scale(0.015625)"/>
       </defs>
       <use xlink:href="#DejaVuSans-31"/>
       <use xlink:href="#DejaVuSans-30" x="63.623047"/>
       <use xlink:href="#DejaVuSans-30" x="127.246094"/>
      </g>
     </g>
    </g>
   </g>
   <g id="line2d_17">
    <path d="M 90.368539 139.779428 
L 93.2447 137.234226 
L 95.842522 135.537424 
L 98.718683 134.689024 
L 101.502065 131.295421 
L 104.378226 132.143822 
L 107.161607 121.963013 
L 110.037768 111.782205 
L 112.913929 113.479007 
L 115.697311 123.659815 
L 118.573472 127.901818 
L 121.356853 130.44702 
L 124.233014 122.811414 
L 127.109175 129.59862 
L 129.706998 128.750219 
L 132.583159 123.659815 
L 135.36654 137.234226 
L 138.242701 140.627828 
L 141.026083 126.205017 
L 143.902244 129.59862 
L 146.778405 120.266212 
L 149.561786 123.659815 
L 152.437947 130.44702 
L 155.221329 128.750219 
L 158.09749 132.143822 
L 160.973651 138.082626 
L 163.664253 137.234226 
L 166.540414 129.59862 
L 169.323795 138.931027 
L 172.199956 135.537424 
L 174.983338 129.59862 
L 177.859499 129.59862 
L 180.73566 127.053418 
L 183.519041 127.901818 
L 186.395202 136.385825 
L 189.178584 130.44702 
L 192.054745 131.295421 
L 194.930906 132.143822 
L 197.528728 138.931027 
L 200.404889 124.508215 
L 203.188271 122.811414 
L 206.064432 128.750219 
L 208.847813 126.205017 
L 211.723974 121.114613 
L 214.600135 124.508215 
L 217.383517 138.931027 
L 220.259678 130.44702 
L 223.043059 132.992222 
L 225.91922 132.143822 
L 228.795381 133.840623 
L 231.393204 131.295421 
L 234.269365 128.750219 
L 237.052746 121.963013 
L 239.928907 128.750219 
L 242.712289 125.356616 
L 245.58845 115.175808 
L 248.464611 125.356616 
L 251.247992 106.691801 
L 254.124153 125.356616 
L 256.907535 121.963013 
L 259.783696 117.72101 
L 262.659857 125.356616 
L 265.25768 117.72101 
L 268.13384 106.691801 
L 270.917222 113.479007 
L 273.793383 119.417811 
L 276.576765 104.995 
L 279.452925 110.933805 
L 282.329086 111.782205 
L 285.112468 116.872609 
L 287.988629 132.143822 
L 290.77201 121.963013 
L 293.648171 125.356616 
L 296.524332 116.872609 
L 299.214935 133.840623 
L 302.091095 135.537424 
L 304.874477 134.689024 
L 307.750638 119.417811 
L 310.534019 130.44702 
L 313.41018 116.024209 
L 316.286341 116.872609 
L 319.069723 124.508215 
L 321.945884 116.024209 
L 324.729265 110.085404 
L 327.605426 107.540202 
L 330.481587 108.388603 
L 333.07941 96.510993 
L 335.955571 120.266212 
L 338.738953 109.237003 
L 341.615114 116.024209 
L 344.398495 120.266212 
L 347.274656 131.295421 
L 350.150817 132.143822 
L 352.934198 127.053418 
L 355.810359 125.356616 
L 358.593741 134.689024 
L 361.469902 126.205017 
L 364.346063 124.508215 
L 366.943886 123.659815 
L 369.820047 128.750219 
L 372.603428 120.266212 
L 375.479589 114.327407 
L 378.262971 108.388603 
L 381.139132 104.146599 
L 384.015293 110.933805 
L 386.798674 117.72101 
L 389.674835 107.540202 
L 392.458217 121.114613 
L 395.334377 112.630606 
L 398.210538 114.327407 
L 400.808361 96.510993 
L 403.684522 104.995 
L 406.467904 96.510993 
L 409.344065 63.423367 
L 412.127446 59.181364 
L 415.003607 78.694579 
L 417.879768 90.572189 
L 420.66315 89.723788 
L 423.539311 116.872609 
" clip-path="url(#pb62793ea69)" style="fill: none; stroke: #0000ff; stroke-width: 1.5; stroke-linecap: square"/>
   </g>
   <g id="line2d_18">
    <path d="M 98.718683 150.808636 
L 101.502065 150.808636 
L 110.037768 149.960236 
L 118.573472 150.808636 
L 121.356853 150.808636 
L 124.233014 150.808636 
L 129.706998 150.808636 
L 132.583159 150.808636 
L 138.242701 150.808636 
L 146.778405 150.808636 
L 149.561786 150.808636 
L 172.199956 150.808636 
L 180.73566 149.960236 
L 183.519041 149.960236 
L 194.930906 149.960236 
L 197.528728 150.808636 
L 214.600135 150.808636 
L 239.928907 150.808636 
L 245.58845 150.808636 
L 251.247992 150.808636 
L 254.124153 150.808636 
L 256.907535 150.808636 
L 270.917222 150.808636 
L 282.329086 150.808636 
L 287.988629 150.808636 
L 307.750638 150.808636 
L 319.069723 150.808636 
L 324.729265 149.111835 
L 330.481587 150.808636 
L 335.955571 149.960236 
L 338.738953 146.566633 
L 341.615114 149.111835 
L 344.398495 149.960236 
L 347.274656 146.566633 
L 350.150817 150.808636 
L 352.934198 150.808636 
L 355.810359 150.808636 
L 361.469902 150.808636 
L 372.603428 150.808636 
L 378.262971 150.808636 
L 386.798674 149.960236 
L 398.210538 150.808636 
L 400.808361 149.111835 
L 406.467904 149.111835 
L 409.344065 150.808636 
L 412.127446 149.111835 
L 415.003607 150.808636 
L 417.879768 149.960236 
L 420.66315 149.960236 
" clip-path="url(#pb62793ea69)" style="fill: none; stroke: #ffa500; stroke-width: 1.5; stroke-linecap: square"/>
   </g>
   <g id="line2d_19">
    <path d="M 90.368539 144.869832 
L 93.2447 144.869832 
L 95.842522 143.17303 
L 98.718683 145.718232 
L 101.502065 141.476229 
L 104.378226 144.021431 
L 107.161607 142.32463 
L 110.037768 134.689024 
L 112.913929 140.627828 
L 115.697311 139.779428 
L 118.573472 138.082626 
L 121.356853 141.476229 
L 124.233014 132.992222 
L 127.109175 141.476229 
L 129.706998 139.779428 
L 132.583159 141.476229 
L 135.36654 145.718232 
L 138.242701 146.566633 
L 141.026083 142.32463 
L 143.902244 135.537424 
L 146.778405 133.840623 
L 149.561786 133.840623 
L 152.437947 139.779428 
L 155.221329 142.32463 
L 158.09749 139.779428 
L 160.973651 145.718232 
L 163.664253 142.32463 
L 166.540414 138.931027 
L 169.323795 146.566633 
L 172.199956 142.32463 
L 174.983338 138.082626 
L 177.859499 137.234226 
L 180.73566 138.082626 
L 183.519041 140.627828 
L 186.395202 144.021431 
L 189.178584 140.627828 
L 192.054745 143.17303 
L 194.930906 140.627828 
L 197.528728 146.566633 
L 200.404889 133.840623 
L 203.188271 133.840623 
L 206.064432 141.476229 
L 208.847813 139.779428 
L 211.723974 136.385825 
L 214.600135 137.234226 
L 217.383517 145.718232 
L 220.259678 138.082626 
L 223.043059 140.627828 
L 225.91922 140.627828 
L 228.795381 141.476229 
L 231.393204 142.32463 
L 234.269365 138.931027 
L 237.052746 137.234226 
L 239.928907 138.931027 
L 242.712289 134.689024 
L 245.58845 132.143822 
L 248.464611 136.385825 
L 251.247992 121.114613 
L 254.124153 138.082626 
L 256.907535 134.689024 
L 259.783696 128.750219 
L 262.659857 135.537424 
L 265.25768 128.750219 
L 268.13384 132.143822 
L 270.917222 127.901818 
L 273.793383 138.082626 
L 276.576765 124.508215 
L 279.452925 125.356616 
L 282.329086 129.59862 
L 285.112468 128.750219 
L 287.988629 144.021431 
L 290.77201 131.295421 
L 293.648171 137.234226 
L 296.524332 126.205017 
L 299.214935 142.32463 
L 302.091095 142.32463 
L 304.874477 145.718232 
L 307.750638 134.689024 
L 310.534019 139.779428 
L 313.41018 134.689024 
L 316.286341 132.143822 
L 319.069723 134.689024 
L 321.945884 132.992222 
L 324.729265 128.750219 
L 327.605426 125.356616 
L 330.481587 127.053418 
L 333.07941 119.417811 
L 335.955571 134.689024 
L 338.738953 126.205017 
L 341.615114 131.295421 
L 344.398495 133.840623 
L 347.274656 138.082626 
L 350.150817 140.627828 
L 352.934198 137.234226 
L 355.810359 133.840623 
L 358.593741 142.32463 
L 361.469902 134.689024 
L 364.346063 137.234226 
L 366.943886 136.385825 
L 369.820047 139.779428 
L 372.603428 137.234226 
L 375.479589 136.385825 
L 378.262971 131.295421 
L 381.139132 121.963013 
L 384.015293 132.992222 
L 386.798674 135.537424 
L 389.674835 127.053418 
L 392.458217 137.234226 
L 395.334377 128.750219 
L 398.210538 137.234226 
L 400.808361 120.266212 
L 403.684522 127.901818 
L 406.467904 116.024209 
L 409.344065 89.723788 
L 412.127446 87.178586 
L 415.003607 104.995 
L 417.879768 119.417811 
L 420.66315 110.933805 
L 423.539311 132.992222 
" clip-path="url(#pb62793ea69)" style="fill: none; stroke: #008000; stroke-width: 1.5; stroke-linecap: square"/>
   </g>
   <g id="patch_3">
    <path d="M 73.71 155.39 
L 73.71 54.6 
" style="fill: none; stroke: #000000; stroke-width: 0.8; stroke-linejoin: miter; stroke-linecap: square"/>
   </g>
   <g id="patch_4">
    <path d="M 440.197849 155.39 
L 440.197849 54.6 
" style="fill: none; stroke: #000000; stroke-width: 0.8; stroke-linejoin: miter; stroke-linecap: square"/>
   </g>
   <g id="patch_5">
    <path d="M 73.71 155.39 
L 440.197849 155.39 
" style="fill: none; stroke: #000000; stroke-width: 0.8; stroke-linejoin: miter; stroke-linecap: square"/>
   </g>
   <g id="patch_6">
    <path d="M 73.71 54.6 
L 440.197849 54.6 
" style="fill: none; stroke: #000000; stroke-width: 0.8; stroke-linejoin: miter; stroke-linecap: square"/>
   </g>
   <g id="text_6">
    <!-- TP -->
    <g transform="translate(249.671425 48.6) scale(0.12 -0.12)">
     <defs>
      <path id="DejaVuSans-54" d="M -19 4666 
L 3928 4666 
L 3928 4134 
L 2272 4134 
L 2272 0 
L 1638 0 
L 1638 4134 
L -19 4134 
L -19 4666 
z
" transform="scale(0.015625)"/>
      <path id="DejaVuSans-50" d="M 1259 4147 
L 1259 2394 
L 2053 2394 
Q 2494 2394 2734 2622 
Q 2975 2850 2975 3272 
Q 2975 3691 2734 3919 
Q 2494 4147 2053 4147 
L 1259 4147 
z
M 628 4666 
L 2053 4666 
Q 2838 4666 3239 4311 
Q 3641 3956 3641 3272 
Q 3641 2581 3239 2228 
Q 2838 1875 2053 1875 
L 1259 1875 
L 1259 0 
L 628 0 
L 628 4666 
z
" transform="scale(0.015625)"/>
     </defs>
     <use xlink:href="#DejaVuSans-54"/>
     <use xlink:href="#DejaVuSans-50" x="61.083984"/>
    </g>
   </g>
   <g id="legend_1">
    <g id="patch_7">
     <path d="M 80.71 107.190625 
L 222.574062 107.190625 
Q 224.574062 107.190625 224.574062 105.190625 
L 224.574062 61.6 
Q 224.574062 59.6 222.574062 59.6 
L 80.71 59.6 
Q 78.71 59.6 78.71 61.6 
L 78.71 105.190625 
Q 78.71 107.190625 80.71 107.190625 
z
" style="fill: #ffffff; opacity: 0.8; stroke: #cccccc; stroke-linejoin: miter"/>
    </g>
    <g id="line2d_20">
     <path d="M 82.71 67.698438 
L 92.71 67.698438 
L 102.71 67.698438 
" style="fill: none; stroke: #0000ff; stroke-width: 1.5; stroke-linecap: square"/>
    </g>
    <g id="text_7">
     <!-- actual -->
     <g transform="translate(110.71 71.198438) scale(0.1 -0.1)">
      <defs>
       <path id="DejaVuSans-61" d="M 2194 1759 
Q 1497 1759 1228 1600 
Q 959 1441 959 1056 
Q 959 750 1161 570 
Q 1363 391 1709 391 
Q 2188 391 2477 730 
Q 2766 1069 2766 1631 
L 2766 1759 
L 2194 1759 
z
M 3341 1997 
L 3341 0 
L 2766 0 
L 2766 531 
Q 2569 213 2275 61 
Q 1981 -91 1556 -91 
Q 1019 -91 701 211 
Q 384 513 384 1019 
Q 384 1609 779 1909 
Q 1175 2209 1959 2209 
L 2766 2209 
L 2766 2266 
Q 2766 2663 2505 2880 
Q 2244 3097 1772 3097 
Q 1472 3097 1187 3025 
Q 903 2953 641 2809 
L 641 3341 
Q 956 3463 1253 3523 
Q 1550 3584 1831 3584 
Q 2591 3584 2966 3190 
Q 3341 2797 3341 1997 
z
" transform="scale(0.015625)"/>
       <path id="DejaVuSans-63" d="M 3122 3366 
L 3122 2828 
Q 2878 2963 2633 3030 
Q 2388 3097 2138 3097 
Q 1578 3097 1268 2742 
Q 959 2388 959 1747 
Q 959 1106 1268 751 
Q 1578 397 2138 397 
Q 2388 397 2633 464 
Q 2878 531 3122 666 
L 3122 134 
Q 2881 22 2623 -34 
Q 2366 -91 2075 -91 
Q 1284 -91 818 406 
Q 353 903 353 1747 
Q 353 2603 823 3093 
Q 1294 3584 2113 3584 
Q 2378 3584 2631 3529 
Q 2884 3475 3122 3366 
z
" transform="scale(0.015625)"/>
       <path id="DejaVuSans-74" d="M 1172 4494 
L 1172 3500 
L 2356 3500 
L 2356 3053 
L 1172 3053 
L 1172 1153 
Q 1172 725 1289 603 
Q 1406 481 1766 481 
L 2356 481 
L 2356 0 
L 1766 0 
Q 1100 0 847 248 
Q 594 497 594 1153 
L 594 3053 
L 172 3053 
L 172 3500 
L 594 3500 
L 594 4494 
L 1172 4494 
z
" transform="scale(0.015625)"/>
       <path id="DejaVuSans-75" d="M 544 1381 
L 544 3500 
L 1119 3500 
L 1119 1403 
Q 1119 906 1312 657 
Q 1506 409 1894 409 
Q 2359 409 2629 706 
Q 2900 1003 2900 1516 
L 2900 3500 
L 3475 3500 
L 3475 0 
L 2900 0 
L 2900 538 
Q 2691 219 2414 64 
Q 2138 -91 1772 -91 
Q 1169 -91 856 284 
Q 544 659 544 1381 
z
M 1991 3584 
L 1991 3584 
z
" transform="scale(0.015625)"/>
       <path id="DejaVuSans-6c" d="M 603 4863 
L 1178 4863 
L 1178 0 
L 603 0 
L 603 4863 
z
" transform="scale(0.015625)"/>
      </defs>
      <use xlink:href="#DejaVuSans-61"/>
      <use xlink:href="#DejaVuSans-63" x="61.279297"/>
      <use xlink:href="#DejaVuSans-74" x="116.259766"/>
      <use xlink:href="#DejaVuSans-75" x="155.46875"/>
      <use xlink:href="#DejaVuSans-61" x="218.847656"/>
      <use xlink:href="#DejaVuSans-6c" x="280.126953"/>
     </g>
    </g>
    <g id="line2d_21">
     <path d="M 82.71 82.376563 
L 92.71 82.376563 
L 102.71 82.376563 
" style="fill: none; stroke: #ffa500; stroke-width: 1.5; stroke-linecap: square"/>
    </g>
    <g id="text_8">
     <!-- prompt_no_parts -->
     <g transform="translate(110.71 85.876563) scale(0.1 -0.1)">
      <defs>
       <path id="DejaVuSans-70" d="M 1159 525 
L 1159 -1331 
L 581 -1331 
L 581 3500 
L 1159 3500 
L 1159 2969 
Q 1341 3281 1617 3432 
Q 1894 3584 2278 3584 
Q 2916 3584 3314 3078 
Q 3713 2572 3713 1747 
Q 3713 922 3314 415 
Q 2916 -91 2278 -91 
Q 1894 -91 1617 61 
Q 1341 213 1159 525 
z
M 3116 1747 
Q 3116 2381 2855 2742 
Q 2594 3103 2138 3103 
Q 1681 3103 1420 2742 
Q 1159 2381 1159 1747 
Q 1159 1113 1420 752 
Q 1681 391 2138 391 
Q 2594 391 2855 752 
Q 3116 1113 3116 1747 
z
" transform="scale(0.015625)"/>
       <path id="DejaVuSans-72" d="M 2631 2963 
Q 2534 3019 2420 3045 
Q 2306 3072 2169 3072 
Q 1681 3072 1420 2755 
Q 1159 2438 1159 1844 
L 1159 0 
L 581 0 
L 581 3500 
L 1159 3500 
L 1159 2956 
Q 1341 3275 1631 3429 
Q 1922 3584 2338 3584 
Q 2397 3584 2469 3576 
Q 2541 3569 2628 3553 
L 2631 2963 
z
" transform="scale(0.015625)"/>
       <path id="DejaVuSans-6f" d="M 1959 3097 
Q 1497 3097 1228 2736 
Q 959 2375 959 1747 
Q 959 1119 1226 758 
Q 1494 397 1959 397 
Q 2419 397 2687 759 
Q 2956 1122 2956 1747 
Q 2956 2369 2687 2733 
Q 2419 3097 1959 3097 
z
M 1959 3584 
Q 2709 3584 3137 3096 
Q 3566 2609 3566 1747 
Q 3566 888 3137 398 
Q 2709 -91 1959 -91 
Q 1206 -91 779 398 
Q 353 888 353 1747 
Q 353 2609 779 3096 
Q 1206 3584 1959 3584 
z
" transform="scale(0.015625)"/>
       <path id="DejaVuSans-6d" d="M 3328 2828 
Q 3544 3216 3844 3400 
Q 4144 3584 4550 3584 
Q 5097 3584 5394 3201 
Q 5691 2819 5691 2113 
L 5691 0 
L 5113 0 
L 5113 2094 
Q 5113 2597 4934 2840 
Q 4756 3084 4391 3084 
Q 3944 3084 3684 2787 
Q 3425 2491 3425 1978 
L 3425 0 
L 2847 0 
L 2847 2094 
Q 2847 2600 2669 2842 
Q 2491 3084 2119 3084 
Q 1678 3084 1418 2786 
Q 1159 2488 1159 1978 
L 1159 0 
L 581 0 
L 581 3500 
L 1159 3500 
L 1159 2956 
Q 1356 3278 1631 3431 
Q 1906 3584 2284 3584 
Q 2666 3584 2933 3390 
Q 3200 3197 3328 2828 
z
" transform="scale(0.015625)"/>
       <path id="DejaVuSans-5f" d="M 3263 -1063 
L 3263 -1509 
L -63 -1509 
L -63 -1063 
L 3263 -1063 
z
" transform="scale(0.015625)"/>
       <path id="DejaVuSans-6e" d="M 3513 2113 
L 3513 0 
L 2938 0 
L 2938 2094 
Q 2938 2591 2744 2837 
Q 2550 3084 2163 3084 
Q 1697 3084 1428 2787 
Q 1159 2491 1159 1978 
L 1159 0 
L 581 0 
L 581 3500 
L 1159 3500 
L 1159 2956 
Q 1366 3272 1645 3428 
Q 1925 3584 2291 3584 
Q 2894 3584 3203 3211 
Q 3513 2838 3513 2113 
z
" transform="scale(0.015625)"/>
       <path id="DejaVuSans-73" d="M 2834 3397 
L 2834 2853 
Q 2591 2978 2328 3040 
Q 2066 3103 1784 3103 
Q 1356 3103 1142 2972 
Q 928 2841 928 2578 
Q 928 2378 1081 2264 
Q 1234 2150 1697 2047 
L 1894 2003 
Q 2506 1872 2764 1633 
Q 3022 1394 3022 966 
Q 3022 478 2636 193 
Q 2250 -91 1575 -91 
Q 1294 -91 989 -36 
Q 684 19 347 128 
L 347 722 
Q 666 556 975 473 
Q 1284 391 1588 391 
Q 1994 391 2212 530 
Q 2431 669 2431 922 
Q 2431 1156 2273 1281 
Q 2116 1406 1581 1522 
L 1381 1569 
Q 847 1681 609 1914 
Q 372 2147 372 2553 
Q 372 3047 722 3315 
Q 1072 3584 1716 3584 
Q 2034 3584 2315 3537 
Q 2597 3491 2834 3397 
z
" transform="scale(0.015625)"/>
      </defs>
      <use xlink:href="#DejaVuSans-70"/>
      <use xlink:href="#DejaVuSans-72" x="63.476562"/>
      <use xlink:href="#DejaVuSans-6f" x="102.339844"/>
      <use xlink:href="#DejaVuSans-6d" x="163.521484"/>
      <use xlink:href="#DejaVuSans-70" x="260.933594"/>
      <use xlink:href="#DejaVuSans-74" x="324.410156"/>
      <use xlink:href="#DejaVuSans-5f" x="363.619141"/>
      <use xlink:href="#DejaVuSans-6e" x="413.619141"/>
      <use xlink:href="#DejaVuSans-6f" x="476.998047"/>
      <use xlink:href="#DejaVuSans-5f" x="538.179688"/>
      <use xlink:href="#DejaVuSans-70" x="588.179688"/>
      <use xlink:href="#DejaVuSans-61" x="651.65625"/>
      <use xlink:href="#DejaVuSans-72" x="712.935547"/>
      <use xlink:href="#DejaVuSans-74" x="754.048828"/>
      <use xlink:href="#DejaVuSans-73" x="793.257812"/>
     </g>
    </g>
    <g id="line2d_22">
     <path d="M 82.71 97.332813 
L 92.71 97.332813 
L 102.71 97.332813 
" style="fill: none; stroke: #008000; stroke-width: 1.5; stroke-linecap: square"/>
    </g>
    <g id="text_9">
     <!-- prompt_specific_parts -->
     <g transform="translate(110.71 100.832813) scale(0.1 -0.1)">
      <defs>
       <path id="DejaVuSans-65" d="M 3597 1894 
L 3597 1613 
L 953 1613 
Q 991 1019 1311 708 
Q 1631 397 2203 397 
Q 2534 397 2845 478 
Q 3156 559 3463 722 
L 3463 178 
Q 3153 47 2828 -22 
Q 2503 -91 2169 -91 
Q 1331 -91 842 396 
Q 353 884 353 1716 
Q 353 2575 817 3079 
Q 1281 3584 2069 3584 
Q 2775 3584 3186 3129 
Q 3597 2675 3597 1894 
z
M 3022 2063 
Q 3016 2534 2758 2815 
Q 2500 3097 2075 3097 
Q 1594 3097 1305 2825 
Q 1016 2553 972 2059 
L 3022 2063 
z
" transform="scale(0.015625)"/>
       <path id="DejaVuSans-69" d="M 603 3500 
L 1178 3500 
L 1178 0 
L 603 0 
L 603 3500 
z
M 603 4863 
L 1178 4863 
L 1178 4134 
L 603 4134 
L 603 4863 
z
" transform="scale(0.015625)"/>
       <path id="DejaVuSans-66" d="M 2375 4863 
L 2375 4384 
L 1825 4384 
Q 1516 4384 1395 4259 
Q 1275 4134 1275 3809 
L 1275 3500 
L 2222 3500 
L 2222 3053 
L 1275 3053 
L 1275 0 
L 697 0 
L 697 3053 
L 147 3053 
L 147 3500 
L 697 3500 
L 697 3744 
Q 697 4328 969 4595 
Q 1241 4863 1831 4863 
L 2375 4863 
z
" transform="scale(0.015625)"/>
      </defs>
      <use xlink:href="#DejaVuSans-70"/>
      <use xlink:href="#DejaVuSans-72" x="63.476562"/>
      <use xlink:href="#DejaVuSans-6f" x="102.339844"/>
      <use xlink:href="#DejaVuSans-6d" x="163.521484"/>
      <use xlink:href="#DejaVuSans-70" x="260.933594"/>
      <use xlink:href="#DejaVuSans-74" x="324.410156"/>
      <use xlink:href="#DejaVuSans-5f" x="363.619141"/>
      <use xlink:href="#DejaVuSans-73" x="413.619141"/>
      <use xlink:href="#DejaVuSans-70" x="465.71875"/>
      <use xlink:href="#DejaVuSans-65" x="529.195312"/>
      <use xlink:href="#DejaVuSans-63" x="590.71875"/>
      <use xlink:href="#DejaVuSans-69" x="645.699219"/>
      <use xlink:href="#DejaVuSans-66" x="673.482422"/>
      <use xlink:href="#DejaVuSans-69" x="708.6875"/>
      <use xlink:href="#DejaVuSans-63" x="736.470703"/>
      <use xlink:href="#DejaVuSans-5f" x="791.451172"/>
      <use xlink:href="#DejaVuSans-70" x="841.451172"/>
      <use xlink:href="#DejaVuSans-61" x="904.927734"/>
      <use xlink:href="#DejaVuSans-72" x="966.207031"/>
      <use xlink:href="#DejaVuSans-74" x="1007.320312"/>
      <use xlink:href="#DejaVuSans-73" x="1046.529297"/>
     </g>
    </g>
   </g>
  </g>
  <g id="axes_2">
   <g id="patch_8">
    <path d="M 73.71 286.56 
L 440.197849 286.56 
L 440.197849 185.77 
L 73.71 185.77 
z
" style="fill: #ffffff"/>
   </g>
   <g id="matplotlib.axis_3">
    <g id="xtick_12">
     <g id="line2d_23">
      <g>
       <use xlink:href="#mf6eae992f7" x="90.368539" y="286.56" style="stroke: #000000; stroke-width: 0.8"/>
      </g>
     </g>
     <g id="text_10">
      <!-- 2014 -->
      <g transform="translate(77.643539 301.158437) scale(0.1 -0.1)">
       <defs>
        <path id="DejaVuSans-34" d="M 2419 4116 
L 825 1625 
L 2419 1625 
L 2419 4116 
z
M 2253 4666 
L 3047 4666 
L 3047 1625 
L 3713 1625 
L 3713 1100 
L 3047 1100 
L 3047 0 
L 2419 0 
L 2419 1100 
L 313 1100 
L 313 1709 
L 2253 4666 
z
" transform="scale(0.015625)"/>
       </defs>
       <use xlink:href="#DejaVuSans-32"/>
       <use xlink:href="#DejaVuSans-30" x="63.623047"/>
       <use xlink:href="#DejaVuSans-31" x="127.246094"/>
       <use xlink:href="#DejaVuSans-34" x="190.869141"/>
      </g>
     </g>
    </g>
    <g id="xtick_13">
     <g id="line2d_24">
      <g>
       <use xlink:href="#mf6eae992f7" x="124.233014" y="286.56" style="stroke: #000000; stroke-width: 0.8"/>
      </g>
     </g>
     <g id="text_11">
      <!-- 2015 -->
      <g transform="translate(111.508014 301.158437) scale(0.1 -0.1)">
       <use xlink:href="#DejaVuSans-32"/>
       <use xlink:href="#DejaVuSans-30" x="63.623047"/>
       <use xlink:href="#DejaVuSans-31" x="127.246094"/>
       <use xlink:href="#DejaVuSans-35" x="190.869141"/>
      </g>
     </g>
    </g>
    <g id="xtick_14">
     <g id="line2d_25">
      <g>
       <use xlink:href="#mf6eae992f7" x="158.09749" y="286.56" style="stroke: #000000; stroke-width: 0.8"/>
      </g>
     </g>
     <g id="text_12">
      <!-- 2016 -->
      <g transform="translate(145.37249 301.158437) scale(0.1 -0.1)">
       <defs>
        <path id="DejaVuSans-36" d="M 2113 2584 
Q 1688 2584 1439 2293 
Q 1191 2003 1191 1497 
Q 1191 994 1439 701 
Q 1688 409 2113 409 
Q 2538 409 2786 701 
Q 3034 994 3034 1497 
Q 3034 2003 2786 2293 
Q 2538 2584 2113 2584 
z
M 3366 4563 
L 3366 3988 
Q 3128 4100 2886 4159 
Q 2644 4219 2406 4219 
Q 1781 4219 1451 3797 
Q 1122 3375 1075 2522 
Q 1259 2794 1537 2939 
Q 1816 3084 2150 3084 
Q 2853 3084 3261 2657 
Q 3669 2231 3669 1497 
Q 3669 778 3244 343 
Q 2819 -91 2113 -91 
Q 1303 -91 875 529 
Q 447 1150 447 2328 
Q 447 3434 972 4092 
Q 1497 4750 2381 4750 
Q 2619 4750 2861 4703 
Q 3103 4656 3366 4563 
z
" transform="scale(0.015625)"/>
       </defs>
       <use xlink:href="#DejaVuSans-32"/>
       <use xlink:href="#DejaVuSans-30" x="63.623047"/>
       <use xlink:href="#DejaVuSans-31" x="127.246094"/>
       <use xlink:href="#DejaVuSans-36" x="190.869141"/>
      </g>
     </g>
    </g>
    <g id="xtick_15">
     <g id="line2d_26">
      <g>
       <use xlink:href="#mf6eae992f7" x="192.054745" y="286.56" style="stroke: #000000; stroke-width: 0.8"/>
      </g>
     </g>
     <g id="text_13">
      <!-- 2017 -->
      <g transform="translate(179.329745 301.158437) scale(0.1 -0.1)">
       <use xlink:href="#DejaVuSans-32"/>
       <use xlink:href="#DejaVuSans-30" x="63.623047"/>
       <use xlink:href="#DejaVuSans-31" x="127.246094"/>
       <use xlink:href="#DejaVuSans-37" x="190.869141"/>
      </g>
     </g>
    </g>
    <g id="xtick_16">
     <g id="line2d_27">
      <g>
       <use xlink:href="#mf6eae992f7" x="225.91922" y="286.56" style="stroke: #000000; stroke-width: 0.8"/>
      </g>
     </g>
     <g id="text_14">
      <!-- 2018 -->
      <g transform="translate(213.19422 301.158437) scale(0.1 -0.1)">
       <defs>
        <path id="DejaVuSans-38" d="M 2034 2216 
Q 1584 2216 1326 1975 
Q 1069 1734 1069 1313 
Q 1069 891 1326 650 
Q 1584 409 2034 409 
Q 2484 409 2743 651 
Q 3003 894 3003 1313 
Q 3003 1734 2745 1975 
Q 2488 2216 2034 2216 
z
M 1403 2484 
Q 997 2584 770 2862 
Q 544 3141 544 3541 
Q 544 4100 942 4425 
Q 1341 4750 2034 4750 
Q 2731 4750 3128 4425 
Q 3525 4100 3525 3541 
Q 3525 3141 3298 2862 
Q 3072 2584 2669 2484 
Q 3125 2378 3379 2068 
Q 3634 1759 3634 1313 
Q 3634 634 3220 271 
Q 2806 -91 2034 -91 
Q 1263 -91 848 271 
Q 434 634 434 1313 
Q 434 1759 690 2068 
Q 947 2378 1403 2484 
z
M 1172 3481 
Q 1172 3119 1398 2916 
Q 1625 2713 2034 2713 
Q 2441 2713 2670 2916 
Q 2900 3119 2900 3481 
Q 2900 3844 2670 4047 
Q 2441 4250 2034 4250 
Q 1625 4250 1398 4047 
Q 1172 3844 1172 3481 
z
" transform="scale(0.015625)"/>
       </defs>
       <use xlink:href="#DejaVuSans-32"/>
       <use xlink:href="#DejaVuSans-30" x="63.623047"/>
       <use xlink:href="#DejaVuSans-31" x="127.246094"/>
       <use xlink:href="#DejaVuSans-38" x="190.869141"/>
      </g>
     </g>
    </g>
    <g id="xtick_17">
     <g id="line2d_28">
      <g>
       <use xlink:href="#mf6eae992f7" x="259.783696" y="286.56" style="stroke: #000000; stroke-width: 0.8"/>
      </g>
     </g>
     <g id="text_15">
      <!-- 2019 -->
      <g transform="translate(247.058696 301.158437) scale(0.1 -0.1)">
       <defs>
        <path id="DejaVuSans-39" d="M 703 97 
L 703 672 
Q 941 559 1184 500 
Q 1428 441 1663 441 
Q 2288 441 2617 861 
Q 2947 1281 2994 2138 
Q 2813 1869 2534 1725 
Q 2256 1581 1919 1581 
Q 1219 1581 811 2004 
Q 403 2428 403 3163 
Q 403 3881 828 4315 
Q 1253 4750 1959 4750 
Q 2769 4750 3195 4129 
Q 3622 3509 3622 2328 
Q 3622 1225 3098 567 
Q 2575 -91 1691 -91 
Q 1453 -91 1209 -44 
Q 966 3 703 97 
z
M 1959 2075 
Q 2384 2075 2632 2365 
Q 2881 2656 2881 3163 
Q 2881 3666 2632 3958 
Q 2384 4250 1959 4250 
Q 1534 4250 1286 3958 
Q 1038 3666 1038 3163 
Q 1038 2656 1286 2365 
Q 1534 2075 1959 2075 
z
" transform="scale(0.015625)"/>
       </defs>
       <use xlink:href="#DejaVuSans-32"/>
       <use xlink:href="#DejaVuSans-30" x="63.623047"/>
       <use xlink:href="#DejaVuSans-31" x="127.246094"/>
       <use xlink:href="#DejaVuSans-39" x="190.869141"/>
      </g>
     </g>
    </g>
    <g id="xtick_18">
     <g id="line2d_29">
      <g>
       <use xlink:href="#mf6eae992f7" x="293.648171" y="286.56" style="stroke: #000000; stroke-width: 0.8"/>
      </g>
     </g>
     <g id="text_16">
      <!-- 2020 -->
      <g transform="translate(280.923171 301.158437) scale(0.1 -0.1)">
       <use xlink:href="#DejaVuSans-32"/>
       <use xlink:href="#DejaVuSans-30" x="63.623047"/>
       <use xlink:href="#DejaVuSans-32" x="127.246094"/>
       <use xlink:href="#DejaVuSans-30" x="190.869141"/>
      </g>
     </g>
    </g>
    <g id="xtick_19">
     <g id="line2d_30">
      <g>
       <use xlink:href="#mf6eae992f7" x="327.605426" y="286.56" style="stroke: #000000; stroke-width: 0.8"/>
      </g>
     </g>
     <g id="text_17">
      <!-- 2021 -->
      <g transform="translate(314.880426 301.158437) scale(0.1 -0.1)">
       <use xlink:href="#DejaVuSans-32"/>
       <use xlink:href="#DejaVuSans-30" x="63.623047"/>
       <use xlink:href="#DejaVuSans-32" x="127.246094"/>
       <use xlink:href="#DejaVuSans-31" x="190.869141"/>
      </g>
     </g>
    </g>
    <g id="xtick_20">
     <g id="line2d_31">
      <g>
       <use xlink:href="#mf6eae992f7" x="361.469902" y="286.56" style="stroke: #000000; stroke-width: 0.8"/>
      </g>
     </g>
     <g id="text_18">
      <!-- 2022 -->
      <g transform="translate(348.744902 301.158437) scale(0.1 -0.1)">
       <use xlink:href="#DejaVuSans-32"/>
       <use xlink:href="#DejaVuSans-30" x="63.623047"/>
       <use xlink:href="#DejaVuSans-32" x="127.246094"/>
       <use xlink:href="#DejaVuSans-32" x="190.869141"/>
      </g>
     </g>
    </g>
    <g id="xtick_21">
     <g id="line2d_32">
      <g>
       <use xlink:href="#mf6eae992f7" x="395.334377" y="286.56" style="stroke: #000000; stroke-width: 0.8"/>
      </g>
     </g>
     <g id="text_19">
      <!-- 2023 -->
      <g transform="translate(382.609377 301.158437) scale(0.1 -0.1)">
       <defs>
        <path id="DejaVuSans-33" d="M 2597 2516 
Q 3050 2419 3304 2112 
Q 3559 1806 3559 1356 
Q 3559 666 3084 287 
Q 2609 -91 1734 -91 
Q 1441 -91 1130 -33 
Q 819 25 488 141 
L 488 750 
Q 750 597 1062 519 
Q 1375 441 1716 441 
Q 2309 441 2620 675 
Q 2931 909 2931 1356 
Q 2931 1769 2642 2001 
Q 2353 2234 1838 2234 
L 1294 2234 
L 1294 2753 
L 1863 2753 
Q 2328 2753 2575 2939 
Q 2822 3125 2822 3475 
Q 2822 3834 2567 4026 
Q 2313 4219 1838 4219 
Q 1578 4219 1281 4162 
Q 984 4106 628 3988 
L 628 4550 
Q 988 4650 1302 4700 
Q 1616 4750 1894 4750 
Q 2613 4750 3031 4423 
Q 3450 4097 3450 3541 
Q 3450 3153 3228 2886 
Q 3006 2619 2597 2516 
z
" transform="scale(0.015625)"/>
       </defs>
       <use xlink:href="#DejaVuSans-32"/>
       <use xlink:href="#DejaVuSans-30" x="63.623047"/>
       <use xlink:href="#DejaVuSans-32" x="127.246094"/>
       <use xlink:href="#DejaVuSans-33" x="190.869141"/>
      </g>
     </g>
    </g>
    <g id="xtick_22">
     <g id="line2d_33">
      <g>
       <use xlink:href="#mf6eae992f7" x="429.198853" y="286.56" style="stroke: #000000; stroke-width: 0.8"/>
      </g>
     </g>
     <g id="text_20">
      <!-- 2024 -->
      <g transform="translate(416.473853 301.158437) scale(0.1 -0.1)">
       <use xlink:href="#DejaVuSans-32"/>
       <use xlink:href="#DejaVuSans-30" x="63.623047"/>
       <use xlink:href="#DejaVuSans-32" x="127.246094"/>
       <use xlink:href="#DejaVuSans-34" x="190.869141"/>
      </g>
     </g>
    </g>
   </g>
   <g id="matplotlib.axis_4">
    <g id="ytick_6">
     <g id="line2d_34">
      <g>
       <use xlink:href="#mdb0877842d" x="73.71" y="282.72968" style="stroke: #000000; stroke-width: 0.8"/>
      </g>
     </g>
     <g id="text_21">
      <!-- 0 -->
      <g transform="translate(60.3475 286.528898) scale(0.1 -0.1)">
       <use xlink:href="#DejaVuSans-30"/>
      </g>
     </g>
    </g>
    <g id="ytick_7">
     <g id="line2d_35">
      <g>
       <use xlink:href="#mdb0877842d" x="73.71" y="245.177519" style="stroke: #000000; stroke-width: 0.8"/>
      </g>
     </g>
     <g id="text_22">
      <!-- 50 -->
      <g transform="translate(53.985 248.976737) scale(0.1 -0.1)">
       <use xlink:href="#DejaVuSans-35"/>
       <use xlink:href="#DejaVuSans-30" x="63.623047"/>
      </g>
     </g>
    </g>
    <g id="ytick_8">
     <g id="line2d_36">
      <g>
       <use xlink:href="#mdb0877842d" x="73.71" y="207.625358" style="stroke: #000000; stroke-width: 0.8"/>
      </g>
     </g>
     <g id="text_23">
      <!-- 100 -->
      <g transform="translate(47.6225 211.424576) scale(0.1 -0.1)">
       <use xlink:href="#DejaVuSans-31"/>
       <use xlink:href="#DejaVuSans-30" x="63.623047"/>
       <use xlink:href="#DejaVuSans-30" x="127.246094"/>
      </g>
     </g>
    </g>
   </g>
   <g id="line2d_37">
    <path d="M 90.368539 272.215075 
L 93.2447 269.961945 
L 95.842522 268.459858 
L 98.718683 267.708815 
L 101.502065 264.704642 
L 104.378226 265.455686 
L 107.161607 256.443167 
L 110.037768 247.430648 
L 112.913929 248.932735 
L 115.697311 257.945253 
L 118.573472 261.700469 
L 121.356853 263.953599 
L 124.233014 257.19421 
L 127.109175 263.202556 
L 129.706998 262.451513 
L 132.583159 257.945253 
L 135.36654 269.961945 
L 138.242701 272.966118 
L 141.026083 260.198383 
L 143.902244 263.202556 
L 146.778405 254.94108 
L 149.561786 257.945253 
L 152.437947 263.953599 
L 155.221329 262.451513 
L 158.09749 265.455686 
L 160.973651 270.712988 
L 163.664253 269.961945 
L 166.540414 263.202556 
L 169.323795 271.464031 
L 172.199956 268.459858 
L 174.983338 263.202556 
L 177.859499 263.202556 
L 180.73566 260.949426 
L 183.519041 261.700469 
L 186.395202 269.210902 
L 189.178584 263.953599 
L 192.054745 264.704642 
L 194.930906 265.455686 
L 197.528728 271.464031 
L 200.404889 258.696297 
L 203.188271 257.19421 
L 206.064432 262.451513 
L 208.847813 260.198383 
L 211.723974 255.692124 
L 214.600135 258.696297 
L 217.383517 271.464031 
L 220.259678 263.953599 
L 223.043059 266.206729 
L 225.91922 265.455686 
L 228.795381 266.957772 
L 231.393204 264.704642 
L 234.269365 262.451513 
L 237.052746 256.443167 
L 239.928907 262.451513 
L 242.712289 259.44734 
L 245.58845 250.434821 
L 248.464611 259.44734 
L 251.247992 242.924389 
L 254.124153 259.44734 
L 256.907535 256.443167 
L 259.783696 252.687951 
L 262.659857 259.44734 
L 265.25768 252.687951 
L 268.13384 242.924389 
L 270.917222 248.932735 
L 273.793383 254.190037 
L 276.576765 241.422303 
L 279.452925 246.679605 
L 282.329086 247.430648 
L 285.112468 251.936908 
L 287.988629 265.455686 
L 290.77201 256.443167 
L 293.648171 259.44734 
L 296.524332 251.936908 
L 299.214935 266.957772 
L 302.091095 268.459858 
L 304.874477 267.708815 
L 307.750638 254.190037 
L 310.534019 263.953599 
L 313.41018 251.185864 
L 316.286341 251.936908 
L 319.069723 258.696297 
L 321.945884 251.185864 
L 324.729265 245.928562 
L 327.605426 243.675432 
L 330.481587 244.426475 
L 333.07941 233.91187 
L 335.955571 254.94108 
L 338.738953 245.177519 
L 341.615114 251.185864 
L 344.398495 254.94108 
L 347.274656 264.704642 
L 350.150817 265.455686 
L 352.934198 260.949426 
L 355.810359 259.44734 
L 358.593741 267.708815 
L 361.469902 260.198383 
L 364.346063 258.696297 
L 366.943886 257.945253 
L 369.820047 262.451513 
L 372.603428 254.94108 
L 375.479589 249.683778 
L 378.262971 244.426475 
L 381.139132 240.671259 
L 384.015293 246.679605 
L 386.798674 252.687951 
L 389.674835 243.675432 
L 392.458217 255.692124 
L 395.334377 248.181692 
L 398.210538 249.683778 
L 400.808361 233.91187 
L 403.684522 241.422303 
L 406.467904 233.91187 
L 409.344065 204.621185 
L 412.127446 200.865969 
L 415.003607 218.139963 
L 417.879768 228.654568 
L 420.66315 227.903525 
L 423.539311 251.936908 
" clip-path="url(#p2010de1bac)" style="fill: none; stroke: #0000ff; stroke-width: 1.5; stroke-linecap: square"/>
   </g>
   <g id="line2d_38">
    <path d="M 98.718683 281.978636 
L 101.502065 281.978636 
L 110.037768 278.974463 
L 118.573472 281.978636 
L 121.356853 281.227593 
L 124.233014 281.978636 
L 129.706998 281.978636 
L 132.583159 281.227593 
L 138.242701 280.47655 
L 146.778405 280.47655 
L 149.561786 281.978636 
L 172.199956 281.978636 
L 180.73566 279.725507 
L 183.519041 280.47655 
L 186.395202 281.978636 
L 194.930906 281.227593 
L 197.528728 281.978636 
L 214.600135 281.227593 
L 228.795381 281.978636 
L 239.928907 281.227593 
L 245.58845 281.227593 
L 251.247992 281.227593 
L 254.124153 281.978636 
L 256.907535 281.978636 
L 270.917222 281.978636 
L 279.452925 281.978636 
L 282.329086 281.227593 
L 287.988629 280.47655 
L 296.524332 281.978636 
L 307.750638 281.227593 
L 310.534019 281.978636 
L 319.069723 281.978636 
L 324.729265 278.974463 
L 330.481587 281.978636 
L 335.955571 281.227593 
L 338.738953 278.22342 
L 341.615114 280.47655 
L 344.398495 281.227593 
L 347.274656 277.472377 
L 350.150817 281.978636 
L 352.934198 281.978636 
L 355.810359 281.978636 
L 361.469902 281.978636 
L 372.603428 281.978636 
L 375.479589 281.978636 
L 378.262971 281.978636 
L 386.798674 281.227593 
L 398.210538 281.978636 
L 400.808361 280.47655 
L 406.467904 278.974463 
L 409.344065 280.47655 
L 412.127446 278.974463 
L 415.003607 281.227593 
L 417.879768 281.227593 
L 420.66315 281.227593 
" clip-path="url(#p2010de1bac)" style="fill: none; stroke: #ffa500; stroke-width: 1.5; stroke-linecap: square"/>
   </g>
   <g id="line2d_39">
    <path d="M 90.368539 272.215075 
L 93.2447 270.712988 
L 95.842522 259.44734 
L 98.718683 269.210902 
L 101.502065 263.202556 
L 104.378226 267.708815 
L 107.161607 262.451513 
L 110.037768 252.687951 
L 112.913929 260.198383 
L 115.697311 261.700469 
L 118.573472 258.696297 
L 121.356853 265.455686 
L 124.233014 260.198383 
L 127.109175 263.202556 
L 129.706998 256.443167 
L 132.583159 264.704642 
L 135.36654 269.961945 
L 138.242701 272.215075 
L 141.026083 263.202556 
L 143.902244 260.198383 
L 146.778405 247.430648 
L 149.561786 248.181692 
L 152.437947 260.949426 
L 155.221329 265.455686 
L 158.09749 268.459858 
L 160.973651 266.957772 
L 163.664253 266.957772 
L 166.540414 261.700469 
L 169.323795 263.953599 
L 172.199956 259.44734 
L 174.983338 255.692124 
L 177.859499 253.438994 
L 180.73566 263.202556 
L 183.519041 259.44734 
L 186.395202 265.455686 
L 189.178584 262.451513 
L 192.054745 265.455686 
L 194.930906 262.451513 
L 197.528728 272.966118 
L 200.404889 256.443167 
L 203.188271 248.932735 
L 206.064432 256.443167 
L 208.847813 254.94108 
L 211.723974 246.679605 
L 214.600135 255.692124 
L 217.383517 269.210902 
L 220.259678 257.945253 
L 223.043059 258.696297 
L 225.91922 257.945253 
L 228.795381 263.953599 
L 231.393204 258.696297 
L 234.269365 257.19421 
L 237.052746 257.945253 
L 239.928907 251.185864 
L 242.712289 255.692124 
L 245.58845 245.928562 
L 248.464611 249.683778 
L 251.247992 233.91187 
L 254.124153 256.443167 
L 256.907535 251.936908 
L 259.783696 242.924389 
L 262.659857 245.177519 
L 265.25768 233.91187 
L 268.13384 245.928562 
L 270.917222 244.426475 
L 273.793383 257.945253 
L 276.576765 236.916043 
L 279.452925 242.924389 
L 282.329086 253.438994 
L 285.112468 243.675432 
L 287.988629 263.202556 
L 290.77201 255.692124 
L 293.648171 260.949426 
L 296.524332 239.169173 
L 299.214935 260.198383 
L 302.091095 265.455686 
L 304.874477 268.459858 
L 307.750638 256.443167 
L 310.534019 258.696297 
L 313.41018 248.932735 
L 316.286341 249.683778 
L 319.069723 245.177519 
L 321.945884 245.177519 
L 324.729265 234.662914 
L 327.605426 233.91187 
L 330.481587 248.181692 
L 333.07941 233.91187 
L 335.955571 249.683778 
L 338.738953 240.671259 
L 341.615114 254.190037 
L 344.398495 257.19421 
L 347.274656 260.949426 
L 350.150817 260.949426 
L 352.934198 255.692124 
L 355.810359 262.451513 
L 358.593741 264.704642 
L 361.469902 257.19421 
L 364.346063 252.687951 
L 366.943886 256.443167 
L 369.820047 263.202556 
L 372.603428 258.696297 
L 375.479589 250.434821 
L 378.262971 245.177519 
L 381.139132 227.903525 
L 384.015293 247.430648 
L 386.798674 253.438994 
L 389.674835 241.422303 
L 392.458217 250.434821 
L 395.334377 236.916043 
L 398.210538 251.185864 
L 400.808361 235.413957 
L 403.684522 245.177519 
L 406.467904 230.156654 
L 409.344065 190.351364 
L 412.127446 194.10658 
L 415.003607 203.119098 
L 417.879768 238.41813 
L 420.66315 221.144136 
L 423.539311 251.185864 
" clip-path="url(#p2010de1bac)" style="fill: none; stroke: #008000; stroke-width: 1.5; stroke-linecap: square"/>
   </g>
   <g id="patch_9">
    <path d="M 73.71 286.56 
L 73.71 185.77 
" style="fill: none; stroke: #000000; stroke-width: 0.8; stroke-linejoin: miter; stroke-linecap: square"/>
   </g>
   <g id="patch_10">
    <path d="M 440.197849 286.56 
L 440.197849 185.77 
" style="fill: none; stroke: #000000; stroke-width: 0.8; stroke-linejoin: miter; stroke-linecap: square"/>
   </g>
   <g id="patch_11">
    <path d="M 73.71 286.56 
L 440.197849 286.56 
" style="fill: none; stroke: #000000; stroke-width: 0.8; stroke-linejoin: miter; stroke-linecap: square"/>
   </g>
   <g id="patch_12">
    <path d="M 73.71 185.77 
L 440.197849 185.77 
" style="fill: none; stroke: #000000; stroke-width: 0.8; stroke-linejoin: miter; stroke-linecap: square"/>
   </g>
   <g id="text_24">
    <!-- TP+FP -->
    <g transform="translate(237.574862 179.77) scale(0.12 -0.12)">
     <defs>
      <path id="DejaVuSans-2b" d="M 2944 4013 
L 2944 2272 
L 4684 2272 
L 4684 1741 
L 2944 1741 
L 2944 0 
L 2419 0 
L 2419 1741 
L 678 1741 
L 678 2272 
L 2419 2272 
L 2419 4013 
L 2944 4013 
z
" transform="scale(0.015625)"/>
      <path id="DejaVuSans-46" d="M 628 4666 
L 3309 4666 
L 3309 4134 
L 1259 4134 
L 1259 2759 
L 3109 2759 
L 3109 2228 
L 1259 2228 
L 1259 0 
L 628 0 
L 628 4666 
z
" transform="scale(0.015625)"/>
     </defs>
     <use xlink:href="#DejaVuSans-54"/>
     <use xlink:href="#DejaVuSans-50" x="61.083984"/>
     <use xlink:href="#DejaVuSans-2b" x="121.386719"/>
     <use xlink:href="#DejaVuSans-46" x="205.175781"/>
     <use xlink:href="#DejaVuSans-50" x="262.695312"/>
    </g>
   </g>
   <g id="legend_2">
    <g id="patch_13">
     <path d="M 80.71 238.360625 
L 222.574062 238.360625 
Q 224.574062 238.360625 224.574062 236.360625 
L 224.574062 192.77 
Q 224.574062 190.77 222.574062 190.77 
L 80.71 190.77 
Q 78.71 190.77 78.71 192.77 
L 78.71 236.360625 
Q 78.71 238.360625 80.71 238.360625 
z
" style="fill: #ffffff; opacity: 0.8; stroke: #cccccc; stroke-linejoin: miter"/>
    </g>
    <g id="line2d_40">
     <path d="M 82.71 198.868438 
L 92.71 198.868438 
L 102.71 198.868438 
" style="fill: none; stroke: #0000ff; stroke-width: 1.5; stroke-linecap: square"/>
    </g>
    <g id="text_25">
     <!-- actual -->
     <g transform="translate(110.71 202.368438) scale(0.1 -0.1)">
      <use xlink:href="#DejaVuSans-61"/>
      <use xlink:href="#DejaVuSans-63" x="61.279297"/>
      <use xlink:href="#DejaVuSans-74" x="116.259766"/>
      <use xlink:href="#DejaVuSans-75" x="155.46875"/>
      <use xlink:href="#DejaVuSans-61" x="218.847656"/>
      <use xlink:href="#DejaVuSans-6c" x="280.126953"/>
     </g>
    </g>
    <g id="line2d_41">
     <path d="M 82.71 213.546563 
L 92.71 213.546563 
L 102.71 213.546563 
" style="fill: none; stroke: #ffa500; stroke-width: 1.5; stroke-linecap: square"/>
    </g>
    <g id="text_26">
     <!-- prompt_no_parts -->
     <g transform="translate(110.71 217.046563) scale(0.1 -0.1)">
      <use xlink:href="#DejaVuSans-70"/>
      <use xlink:href="#DejaVuSans-72" x="63.476562"/>
      <use xlink:href="#DejaVuSans-6f" x="102.339844"/>
      <use xlink:href="#DejaVuSans-6d" x="163.521484"/>
      <use xlink:href="#DejaVuSans-70" x="260.933594"/>
      <use xlink:href="#DejaVuSans-74" x="324.410156"/>
      <use xlink:href="#DejaVuSans-5f" x="363.619141"/>
      <use xlink:href="#DejaVuSans-6e" x="413.619141"/>
      <use xlink:href="#DejaVuSans-6f" x="476.998047"/>
      <use xlink:href="#DejaVuSans-5f" x="538.179688"/>
      <use xlink:href="#DejaVuSans-70" x="588.179688"/>
      <use xlink:href="#DejaVuSans-61" x="651.65625"/>
      <use xlink:href="#DejaVuSans-72" x="712.935547"/>
      <use xlink:href="#DejaVuSans-74" x="754.048828"/>
      <use xlink:href="#DejaVuSans-73" x="793.257812"/>
     </g>
    </g>
    <g id="line2d_42">
     <path d="M 82.71 228.502813 
L 92.71 228.502813 
L 102.71 228.502813 
" style="fill: none; stroke: #008000; stroke-width: 1.5; stroke-linecap: square"/>
    </g>
    <g id="text_27">
     <!-- prompt_specific_parts -->
     <g transform="translate(110.71 232.002813) scale(0.1 -0.1)">
      <use xlink:href="#DejaVuSans-70"/>
      <use xlink:href="#DejaVuSans-72" x="63.476562"/>
      <use xlink:href="#DejaVuSans-6f" x="102.339844"/>
      <use xlink:href="#DejaVuSans-6d" x="163.521484"/>
      <use xlink:href="#DejaVuSans-70" x="260.933594"/>
      <use xlink:href="#DejaVuSans-74" x="324.410156"/>
      <use xlink:href="#DejaVuSans-5f" x="363.619141"/>
      <use xlink:href="#DejaVuSans-73" x="413.619141"/>
      <use xlink:href="#DejaVuSans-70" x="465.71875"/>
      <use xlink:href="#DejaVuSans-65" x="529.195312"/>
      <use xlink:href="#DejaVuSans-63" x="590.71875"/>
      <use xlink:href="#DejaVuSans-69" x="645.699219"/>
      <use xlink:href="#DejaVuSans-66" x="673.482422"/>
      <use xlink:href="#DejaVuSans-69" x="708.6875"/>
      <use xlink:href="#DejaVuSans-63" x="736.470703"/>
      <use xlink:href="#DejaVuSans-5f" x="791.451172"/>
      <use xlink:href="#DejaVuSans-70" x="841.451172"/>
      <use xlink:href="#DejaVuSans-61" x="904.927734"/>
      <use xlink:href="#DejaVuSans-72" x="966.207031"/>
      <use xlink:href="#DejaVuSans-74" x="1007.320312"/>
      <use xlink:href="#DejaVuSans-73" x="1046.529297"/>
     </g>
    </g>
   </g>
  </g>
  <g id="axes_3">
   <g id="matplotlib.axis_5">
    <g id="xtick_23">
     <g id="text_28">
      <!-- 0.0 -->
      <g style="opacity: 0" transform="translate(65.758438 301.158437) scale(0.1 -0.1)">
       <defs>
        <path id="DejaVuSans-2e" d="M 684 794 
L 1344 794 
L 1344 0 
L 684 0 
L 684 794 
z
" transform="scale(0.015625)"/>
       </defs>
       <use xlink:href="#DejaVuSans-30"/>
       <use xlink:href="#DejaVuSans-2e" x="63.623047"/>
       <use xlink:href="#DejaVuSans-30" x="95.410156"/>
      </g>
     </g>
    </g>
    <g id="xtick_24">
     <g id="text_29">
      <!-- 0.2 -->
      <g style="opacity: 0" transform="translate(139.056007 301.158437) scale(0.1 -0.1)">
       <use xlink:href="#DejaVuSans-30"/>
       <use xlink:href="#DejaVuSans-2e" x="63.623047"/>
       <use xlink:href="#DejaVuSans-32" x="95.410156"/>
      </g>
     </g>
    </g>
    <g id="xtick_25">
     <g id="text_30">
      <!-- 0.4 -->
      <g style="opacity: 0" transform="translate(212.353577 301.158437) scale(0.1 -0.1)">
       <use xlink:href="#DejaVuSans-30"/>
       <use xlink:href="#DejaVuSans-2e" x="63.623047"/>
       <use xlink:href="#DejaVuSans-34" x="95.410156"/>
      </g>
     </g>
    </g>
    <g id="xtick_26">
     <g id="text_31">
      <!-- 0.6 -->
      <g style="opacity: 0" transform="translate(285.651147 301.158437) scale(0.1 -0.1)">
       <use xlink:href="#DejaVuSans-30"/>
       <use xlink:href="#DejaVuSans-2e" x="63.623047"/>
       <use xlink:href="#DejaVuSans-36" x="95.410156"/>
      </g>
     </g>
    </g>
    <g id="xtick_27">
     <g id="text_32">
      <!-- 0.8 -->
      <g style="opacity: 0" transform="translate(358.948717 301.158437) scale(0.1 -0.1)">
       <use xlink:href="#DejaVuSans-30"/>
       <use xlink:href="#DejaVuSans-2e" x="63.623047"/>
       <use xlink:href="#DejaVuSans-38" x="95.410156"/>
      </g>
     </g>
    </g>
    <g id="xtick_28">
     <g id="text_33">
      <!-- 1.0 -->
      <g style="opacity: 0" transform="translate(432.246287 301.158437) scale(0.1 -0.1)">
       <use xlink:href="#DejaVuSans-31"/>
       <use xlink:href="#DejaVuSans-2e" x="63.623047"/>
       <use xlink:href="#DejaVuSans-30" x="95.410156"/>
      </g>
     </g>
    </g>
    <g id="text_34">
     <!-- Years -->
     <g transform="translate(243.761737 314.836563) scale(0.1 -0.1)">
      <defs>
       <path id="DejaVuSans-59" d="M -13 4666 
L 666 4666 
L 1959 2747 
L 3244 4666 
L 3922 4666 
L 2272 2222 
L 2272 0 
L 1638 0 
L 1638 2222 
L -13 4666 
z
" transform="scale(0.015625)"/>
      </defs>
      <use xlink:href="#DejaVuSans-59"/>
      <use xlink:href="#DejaVuSans-65" x="47.833984"/>
      <use xlink:href="#DejaVuSans-61" x="109.357422"/>
      <use xlink:href="#DejaVuSans-72" x="170.636719"/>
      <use xlink:href="#DejaVuSans-73" x="211.75"/>
     </g>
    </g>
   </g>
   <g id="matplotlib.axis_6">
    <g id="ytick_9">
     <g id="text_35">
      <!-- 0.0 -->
      <g style="opacity: 0" transform="translate(50.806875 290.359219) scale(0.1 -0.1)">
       <use xlink:href="#DejaVuSans-30"/>
       <use xlink:href="#DejaVuSans-2e" x="63.623047"/>
       <use xlink:href="#DejaVuSans-30" x="95.410156"/>
      </g>
     </g>
    </g>
    <g id="ytick_10">
     <g id="text_36">
      <!-- 0.2 -->
      <g style="opacity: 0" transform="translate(50.806875 243.967219) scale(0.1 -0.1)">
       <use xlink:href="#DejaVuSans-30"/>
       <use xlink:href="#DejaVuSans-2e" x="63.623047"/>
       <use xlink:href="#DejaVuSans-32" x="95.410156"/>
      </g>
     </g>
    </g>
    <g id="ytick_11">
     <g id="text_37">
      <!-- 0.4 -->
      <g style="opacity: 0" transform="translate(50.806875 197.575219) scale(0.1 -0.1)">
       <use xlink:href="#DejaVuSans-30"/>
       <use xlink:href="#DejaVuSans-2e" x="63.623047"/>
       <use xlink:href="#DejaVuSans-34" x="95.410156"/>
      </g>
     </g>
    </g>
    <g id="ytick_12">
     <g id="text_38">
      <!-- 0.6 -->
      <g style="opacity: 0" transform="translate(50.806875 151.183219) scale(0.1 -0.1)">
       <use xlink:href="#DejaVuSans-30"/>
       <use xlink:href="#DejaVuSans-2e" x="63.623047"/>
       <use xlink:href="#DejaVuSans-36" x="95.410156"/>
      </g>
     </g>
    </g>
    <g id="ytick_13">
     <g id="text_39">
      <!-- 0.8 -->
      <g style="opacity: 0" transform="translate(50.806875 104.791219) scale(0.1 -0.1)">
       <use xlink:href="#DejaVuSans-30"/>
       <use xlink:href="#DejaVuSans-2e" x="63.623047"/>
       <use xlink:href="#DejaVuSans-38" x="95.410156"/>
      </g>
     </g>
    </g>
    <g id="ytick_14">
     <g id="text_40">
      <!-- 1.0 -->
      <g style="opacity: 0" transform="translate(50.806875 58.399219) scale(0.1 -0.1)">
       <use xlink:href="#DejaVuSans-31"/>
       <use xlink:href="#DejaVuSans-2e" x="63.623047"/>
       <use xlink:href="#DejaVuSans-30" x="95.410156"/>
      </g>
     </g>
    </g>
    <g id="text_41">
     <!-- Monthly Complaint counts -->
     <g transform="translate(44.727187 236.055) rotate(-90) scale(0.1 -0.1)">
      <defs>
       <path id="DejaVuSans-4d" d="M 628 4666 
L 1569 4666 
L 2759 1491 
L 3956 4666 
L 4897 4666 
L 4897 0 
L 4281 0 
L 4281 4097 
L 3078 897 
L 2444 897 
L 1241 4097 
L 1241 0 
L 628 0 
L 628 4666 
z
" transform="scale(0.015625)"/>
       <path id="DejaVuSans-68" d="M 3513 2113 
L 3513 0 
L 2938 0 
L 2938 2094 
Q 2938 2591 2744 2837 
Q 2550 3084 2163 3084 
Q 1697 3084 1428 2787 
Q 1159 2491 1159 1978 
L 1159 0 
L 581 0 
L 581 4863 
L 1159 4863 
L 1159 2956 
Q 1366 3272 1645 3428 
Q 1925 3584 2291 3584 
Q 2894 3584 3203 3211 
Q 3513 2838 3513 2113 
z
" transform="scale(0.015625)"/>
       <path id="DejaVuSans-79" d="M 2059 -325 
Q 1816 -950 1584 -1140 
Q 1353 -1331 966 -1331 
L 506 -1331 
L 506 -850 
L 844 -850 
Q 1081 -850 1212 -737 
Q 1344 -625 1503 -206 
L 1606 56 
L 191 3500 
L 800 3500 
L 1894 763 
L 2988 3500 
L 3597 3500 
L 2059 -325 
z
" transform="scale(0.015625)"/>
       <path id="DejaVuSans-20" transform="scale(0.015625)"/>
       <path id="DejaVuSans-43" d="M 4122 4306 
L 4122 3641 
Q 3803 3938 3442 4084 
Q 3081 4231 2675 4231 
Q 1875 4231 1450 3742 
Q 1025 3253 1025 2328 
Q 1025 1406 1450 917 
Q 1875 428 2675 428 
Q 3081 428 3442 575 
Q 3803 722 4122 1019 
L 4122 359 
Q 3791 134 3420 21 
Q 3050 -91 2638 -91 
Q 1578 -91 968 557 
Q 359 1206 359 2328 
Q 359 3453 968 4101 
Q 1578 4750 2638 4750 
Q 3056 4750 3426 4639 
Q 3797 4528 4122 4306 
z
" transform="scale(0.015625)"/>
      </defs>
      <use xlink:href="#DejaVuSans-4d"/>
      <use xlink:href="#DejaVuSans-6f" x="86.279297"/>
      <use xlink:href="#DejaVuSans-6e" x="147.460938"/>
      <use xlink:href="#DejaVuSans-74" x="210.839844"/>
      <use xlink:href="#DejaVuSans-68" x="250.048828"/>
      <use xlink:href="#DejaVuSans-6c" x="313.427734"/>
      <use xlink:href="#DejaVuSans-79" x="341.210938"/>
      <use xlink:href="#DejaVuSans-20" x="400.390625"/>
      <use xlink:href="#DejaVuSans-43" x="432.177734"/>
      <use xlink:href="#DejaVuSans-6f" x="502.001953"/>
      <use xlink:href="#DejaVuSans-6d" x="563.183594"/>
      <use xlink:href="#DejaVuSans-70" x="660.595703"/>
      <use xlink:href="#DejaVuSans-6c" x="724.072266"/>
      <use xlink:href="#DejaVuSans-61" x="751.855469"/>
      <use xlink:href="#DejaVuSans-69" x="813.134766"/>
      <use xlink:href="#DejaVuSans-6e" x="840.917969"/>
      <use xlink:href="#DejaVuSans-74" x="904.296875"/>
      <use xlink:href="#DejaVuSans-20" x="943.505859"/>
      <use xlink:href="#DejaVuSans-63" x="975.292969"/>
      <use xlink:href="#DejaVuSans-6f" x="1030.273438"/>
      <use xlink:href="#DejaVuSans-75" x="1091.455078"/>
      <use xlink:href="#DejaVuSans-6e" x="1154.833984"/>
      <use xlink:href="#DejaVuSans-74" x="1218.212891"/>
      <use xlink:href="#DejaVuSans-73" x="1257.421875"/>
     </g>
    </g>
   </g>
  </g>
  <g id="text_42">
   <!-- 2014-2023 Hyundai electrical system complaints -->
   <g transform="translate(83.162813 16.030125) scale(0.12 -0.12)">
    <defs>
     <path id="DejaVuSans-2d" d="M 313 2009 
L 1997 2009 
L 1997 1497 
L 313 1497 
L 313 2009 
z
" transform="scale(0.015625)"/>
     <path id="DejaVuSans-48" d="M 628 4666 
L 1259 4666 
L 1259 2753 
L 3553 2753 
L 3553 4666 
L 4184 4666 
L 4184 0 
L 3553 0 
L 3553 2222 
L 1259 2222 
L 1259 0 
L 628 0 
L 628 4666 
z
" transform="scale(0.015625)"/>
     <path id="DejaVuSans-64" d="M 2906 2969 
L 2906 4863 
L 3481 4863 
L 3481 0 
L 2906 0 
L 2906 525 
Q 2725 213 2448 61 
Q 2172 -91 1784 -91 
Q 1150 -91 751 415 
Q 353 922 353 1747 
Q 353 2572 751 3078 
Q 1150 3584 1784 3584 
Q 2172 3584 2448 3432 
Q 2725 3281 2906 2969 
z
M 947 1747 
Q 947 1113 1208 752 
Q 1469 391 1925 391 
Q 2381 391 2643 752 
Q 2906 1113 2906 1747 
Q 2906 2381 2643 2742 
Q 2381 3103 1925 3103 
Q 1469 3103 1208 2742 
Q 947 2381 947 1747 
z
" transform="scale(0.015625)"/>
    </defs>
    <use xlink:href="#DejaVuSans-32"/>
    <use xlink:href="#DejaVuSans-30" x="63.623047"/>
    <use xlink:href="#DejaVuSans-31" x="127.246094"/>
    <use xlink:href="#DejaVuSans-34" x="190.869141"/>
    <use xlink:href="#DejaVuSans-2d" x="254.492188"/>
    <use xlink:href="#DejaVuSans-32" x="290.576172"/>
    <use xlink:href="#DejaVuSans-30" x="354.199219"/>
    <use xlink:href="#DejaVuSans-32" x="417.822266"/>
    <use xlink:href="#DejaVuSans-33" x="481.445312"/>
    <use xlink:href="#DejaVuSans-20" x="545.068359"/>
    <use xlink:href="#DejaVuSans-48" x="576.855469"/>
    <use xlink:href="#DejaVuSans-79" x="652.050781"/>
    <use xlink:href="#DejaVuSans-75" x="711.230469"/>
    <use xlink:href="#DejaVuSans-6e" x="774.609375"/>
    <use xlink:href="#DejaVuSans-64" x="837.988281"/>
    <use xlink:href="#DejaVuSans-61" x="901.464844"/>
    <use xlink:href="#DejaVuSans-69" x="962.744141"/>
    <use xlink:href="#DejaVuSans-20" x="990.527344"/>
    <use xlink:href="#DejaVuSans-65" x="1022.314453"/>
    <use xlink:href="#DejaVuSans-6c" x="1083.837891"/>
    <use xlink:href="#DejaVuSans-65" x="1111.621094"/>
    <use xlink:href="#DejaVuSans-63" x="1173.144531"/>
    <use xlink:href="#DejaVuSans-74" x="1228.125"/>
    <use xlink:href="#DejaVuSans-72" x="1267.333984"/>
    <use xlink:href="#DejaVuSans-69" x="1308.447266"/>
    <use xlink:href="#DejaVuSans-63" x="1336.230469"/>
    <use xlink:href="#DejaVuSans-61" x="1391.210938"/>
    <use xlink:href="#DejaVuSans-6c" x="1452.490234"/>
    <use xlink:href="#DejaVuSans-20" x="1480.273438"/>
    <use xlink:href="#DejaVuSans-73" x="1512.060547"/>
    <use xlink:href="#DejaVuSans-79" x="1564.160156"/>
    <use xlink:href="#DejaVuSans-73" x="1623.339844"/>
    <use xlink:href="#DejaVuSans-74" x="1675.439453"/>
    <use xlink:href="#DejaVuSans-65" x="1714.648438"/>
    <use xlink:href="#DejaVuSans-6d" x="1776.171875"/>
    <use xlink:href="#DejaVuSans-20" x="1873.583984"/>
    <use xlink:href="#DejaVuSans-63" x="1905.371094"/>
    <use xlink:href="#DejaVuSans-6f" x="1960.351562"/>
    <use xlink:href="#DejaVuSans-6d" x="2021.533203"/>
    <use xlink:href="#DejaVuSans-70" x="2118.945312"/>
    <use xlink:href="#DejaVuSans-6c" x="2182.421875"/>
    <use xlink:href="#DejaVuSans-61" x="2210.205078"/>
    <use xlink:href="#DejaVuSans-69" x="2271.484375"/>
    <use xlink:href="#DejaVuSans-6e" x="2299.267578"/>
    <use xlink:href="#DejaVuSans-74" x="2362.646484"/>
    <use xlink:href="#DejaVuSans-73" x="2401.855469"/>
   </g>
  </g>
 </g>
 <defs>
  <clipPath id="pb62793ea69">
   <rect x="73.71" y="54.6" width="366.487849" height="100.79"/>
  </clipPath>
  <clipPath id="p2010de1bac">
   <rect x="73.71" y="185.77" width="366.487849" height="100.79"/>
  </clipPath>
 </defs>
</svg>
