<?xml version="1.0" encoding="utf-8" standalone="no"?>
<!DOCTYPE svg PUBLIC "-//W3C//DTD SVG 1.1//EN"
  "http://www.w3.org/Graphics/SVG/1.1/DTD/svg11.dtd">
<svg xmlns:xlink="http://www.w3.org/1999/xlink" width="460.8pt" height="345.6pt" viewBox="0 0 460.8 345.6" xmlns="http://www.w3.org/2000/svg" version="1.1">
 <metadata>
  <rdf:RDF xmlns:dc="http://purl.org/dc/elements/1.1/" xmlns:cc="http://creativecommons.org/ns#" xmlns:rdf="http://www.w3.org/1999/02/22-rdf-syntax-ns#">
   <cc:Work>
    <dc:type rdf:resource="http://purl.org/dc/dcmitype/StillImage"/>
    <dc:date>2023-12-06T17:23:37.393148</dc:date>
    <dc:format>image/svg+xml</dc:format>
    <dc:creator>
     <cc:Agent>
      <dc:title>Matplotlib v3.7.1, https://matplotlib.org/</dc:title>
     </cc:Agent>
    </dc:creator>
   </cc:Work>
  </rdf:RDF>
 </metadata>
 <defs>
  <style type="text/css">*{stroke-linejoin: round; stroke-linecap: butt}</style>
 </defs>
 <g id="figure_1">
  <g id="patch_1">
   <path d="M 0 345.6 
L 460.8 345.6 
L 460.8 0 
L 0 0 
z
" style="fill: #ffffff"/>
  </g>
  <g id="axes_1">
   <g id="patch_2">
    <path d="M 70.47 111.666667 
L 442.08 111.666667 
L 442.08 38.52 
L 70.47 38.52 
z
" style="fill: #ffffff"/>
   </g>
   <g id="PathCollection_1">
    <defs>
     <path id="C0_0_69923a69de" d="M 0 1.691974 
C 0.448717 1.691974 0.879116 1.513697 1.196406 1.196406 
C 1.513697 0.879116 1.691974 0.448717 1.691974 -0 
C 1.691974 -0.448717 1.513697 -0.879116 1.196406 -1.196406 
C 0.879116 -1.513697 0.448717 -1.691974 0 -1.691974 
C -0.448717 -1.691974 -0.879116 -1.513697 -1.196406 -1.196406 
C -1.513697 -0.879116 -1.691974 -0.448717 -1.691974 0 
C -1.691974 0.448717 -1.513697 0.879116 -1.196406 1.196406 
C -0.879116 1.513697 -0.448717 1.691974 0 1.691974 
z
"/>
    </defs>
    <g clip-path="url(#p17915216af)">
     <use xlink:href="#C0_0_69923a69de" x="89.0505" y="108.341818" style="fill: #ffa500; stroke: #ffa500; stroke-width: 1.0125"/>
    </g>
    <g clip-path="url(#p17915216af)">
     <use xlink:href="#C0_0_69923a69de" x="126.2115" y="108.341818" style="fill: #ffa500; stroke: #ffa500; stroke-width: 1.0125"/>
    </g>
    <g clip-path="url(#p17915216af)">
     <use xlink:href="#C0_0_69923a69de" x="163.3725" y="95.042424" style="fill: #ffa500; stroke: #ffa500; stroke-width: 1.0125"/>
    </g>
    <g clip-path="url(#p17915216af)">
     <use xlink:href="#C0_0_69923a69de" x="200.5335" y="108.341818" style="fill: #ffa500; stroke: #ffa500; stroke-width: 1.0125"/>
    </g>
    <g clip-path="url(#p17915216af)">
     <use xlink:href="#C0_0_69923a69de" x="237.6945" y="88.392727" style="fill: #ffa500; stroke: #ffa500; stroke-width: 1.0125"/>
    </g>
    <g clip-path="url(#p17915216af)">
     <use xlink:href="#C0_0_69923a69de" x="274.8555" y="108.341818" style="fill: #ffa500; stroke: #ffa500; stroke-width: 1.0125"/>
    </g>
    <g clip-path="url(#p17915216af)">
     <use xlink:href="#C0_0_69923a69de" x="312.0165" y="74.539192" style="fill: #ffa500; stroke: #ffa500; stroke-width: 1.0125"/>
    </g>
    <g clip-path="url(#p17915216af)">
     <use xlink:href="#C0_0_69923a69de" x="349.1775" y="88.392727" style="fill: #ffa500; stroke: #ffa500; stroke-width: 1.0125"/>
    </g>
    <g clip-path="url(#p17915216af)">
     <use xlink:href="#C0_0_69923a69de" x="386.3385" y="90.905516" style="fill: #ffa500; stroke: #ffa500; stroke-width: 1.0125"/>
    </g>
    <g clip-path="url(#p17915216af)">
     <use xlink:href="#C0_0_69923a69de" x="423.4995" y="108.341818" style="fill: #ffa500; stroke: #ffa500; stroke-width: 1.0125"/>
    </g>
   </g>
   <g id="matplotlib.axis_1">
    <g id="xtick_1">
     <g id="line2d_1">
      <defs>
       <path id="md3b00b95a8" d="M 0 0 
L 0 3.5 
" style="stroke: #000000; stroke-width: 0.8"/>
      </defs>
      <g>
       <use xlink:href="#md3b00b95a8" x="89.0505" y="111.666667" style="stroke: #000000; stroke-width: 0.8"/>
      </g>
     </g>
    </g>
    <g id="xtick_2">
     <g id="line2d_2">
      <g>
       <use xlink:href="#md3b00b95a8" x="126.2115" y="111.666667" style="stroke: #000000; stroke-width: 0.8"/>
      </g>
     </g>
    </g>
    <g id="xtick_3">
     <g id="line2d_3">
      <g>
       <use xlink:href="#md3b00b95a8" x="163.3725" y="111.666667" style="stroke: #000000; stroke-width: 0.8"/>
      </g>
     </g>
    </g>
    <g id="xtick_4">
     <g id="line2d_4">
      <g>
       <use xlink:href="#md3b00b95a8" x="200.5335" y="111.666667" style="stroke: #000000; stroke-width: 0.8"/>
      </g>
     </g>
    </g>
    <g id="xtick_5">
     <g id="line2d_5">
      <g>
       <use xlink:href="#md3b00b95a8" x="237.6945" y="111.666667" style="stroke: #000000; stroke-width: 0.8"/>
      </g>
     </g>
    </g>
    <g id="xtick_6">
     <g id="line2d_6">
      <g>
       <use xlink:href="#md3b00b95a8" x="274.8555" y="111.666667" style="stroke: #000000; stroke-width: 0.8"/>
      </g>
     </g>
    </g>
    <g id="xtick_7">
     <g id="line2d_7">
      <g>
       <use xlink:href="#md3b00b95a8" x="312.0165" y="111.666667" style="stroke: #000000; stroke-width: 0.8"/>
      </g>
     </g>
    </g>
    <g id="xtick_8">
     <g id="line2d_8">
      <g>
       <use xlink:href="#md3b00b95a8" x="349.1775" y="111.666667" style="stroke: #000000; stroke-width: 0.8"/>
      </g>
     </g>
    </g>
    <g id="xtick_9">
     <g id="line2d_9">
      <g>
       <use xlink:href="#md3b00b95a8" x="386.3385" y="111.666667" style="stroke: #000000; stroke-width: 0.8"/>
      </g>
     </g>
    </g>
    <g id="xtick_10">
     <g id="line2d_10">
      <g>
       <use xlink:href="#md3b00b95a8" x="423.4995" y="111.666667" style="stroke: #000000; stroke-width: 0.8"/>
      </g>
     </g>
    </g>
   </g>
   <g id="matplotlib.axis_2">
    <g id="ytick_1">
     <g id="line2d_11">
      <defs>
       <path id="mc5f949eee4" d="M 0 0 
L -3.5 0 
" style="stroke: #000000; stroke-width: 0.8"/>
      </defs>
      <g>
       <use xlink:href="#mc5f949eee4" x="70.47" y="108.341818" style="stroke: #000000; stroke-width: 0.8"/>
      </g>
     </g>
     <g id="text_1">
      <!-- 0.0 -->
      <g transform="translate(47.566875 112.141037) scale(0.1 -0.1)">
       <defs>
        <path id="DejaVuSans-30" d="M 2034 4250 
Q 1547 4250 1301 3770 
Q 1056 3291 1056 2328 
Q 1056 1369 1301 889 
Q 1547 409 2034 409 
Q 2525 409 2770 889 
Q 3016 1369 3016 2328 
Q 3016 3291 2770 3770 
Q 2525 4250 2034 4250 
z
M 2034 4750 
Q 2819 4750 3233 4129 
Q 3647 3509 3647 2328 
Q 3647 1150 3233 529 
Q 2819 -91 2034 -91 
Q 1250 -91 836 529 
Q 422 1150 422 2328 
Q 422 3509 836 4129 
Q 1250 4750 2034 4750 
z
" transform="scale(0.015625)"/>
        <path id="DejaVuSans-2e" d="M 684 794 
L 1344 794 
L 1344 0 
L 684 0 
L 684 794 
z
" transform="scale(0.015625)"/>
       </defs>
       <use xlink:href="#DejaVuSans-30"/>
       <use xlink:href="#DejaVuSans-2e" x="63.623047"/>
       <use xlink:href="#DejaVuSans-30" x="95.410156"/>
      </g>
     </g>
    </g>
    <g id="ytick_2">
     <g id="line2d_12">
      <g>
       <use xlink:href="#mc5f949eee4" x="70.47" y="60.464" style="stroke: #000000; stroke-width: 0.8"/>
      </g>
     </g>
     <g id="text_2">
      <!-- 0.2 -->
      <g transform="translate(47.566875 64.263219) scale(0.1 -0.1)">
       <defs>
        <path id="DejaVuSans-32" d="M 1228 531 
L 3431 531 
L 3431 0 
L 469 0 
L 469 531 
Q 828 903 1448 1529 
Q 2069 2156 2228 2338 
Q 2531 2678 2651 2914 
Q 2772 3150 2772 3378 
Q 2772 3750 2511 3984 
Q 2250 4219 1831 4219 
Q 1534 4219 1204 4116 
Q 875 4013 500 3803 
L 500 4441 
Q 881 4594 1212 4672 
Q 1544 4750 1819 4750 
Q 2544 4750 2975 4387 
Q 3406 4025 3406 3419 
Q 3406 3131 3298 2873 
Q 3191 2616 2906 2266 
Q 2828 2175 2409 1742 
Q 1991 1309 1228 531 
z
" transform="scale(0.015625)"/>
       </defs>
       <use xlink:href="#DejaVuSans-30"/>
       <use xlink:href="#DejaVuSans-2e" x="63.623047"/>
       <use xlink:href="#DejaVuSans-32" x="95.410156"/>
      </g>
     </g>
    </g>
   </g>
   <g id="line2d_13">
    <path d="M 89.0505 108.341818 
L 126.2115 108.341818 
L 163.3725 95.042424 
L 200.5335 108.341818 
L 237.6945 88.392727 
L 274.8555 108.341818 
L 312.0165 74.539192 
L 349.1775 88.392727 
L 386.3385 90.905516 
L 423.4995 108.341818 
" clip-path="url(#p17915216af)" style="fill: none; stroke: #ffa500; stroke-width: 1.35; stroke-linecap: square"/>
   </g>
   <g id="line2d_14">
    <path d="M 89.0505 108.341818 
L 89.0505 108.341818 
" clip-path="url(#p17915216af)" style="fill: none; stroke: #ffa500; stroke-width: 2.7; stroke-linecap: square"/>
   </g>
   <g id="line2d_15">
    <path d="M 126.2115 108.341818 
L 126.2115 108.341818 
" clip-path="url(#p17915216af)" style="fill: none; stroke: #ffa500; stroke-width: 2.7; stroke-linecap: square"/>
   </g>
   <g id="line2d_16">
    <path d="M 163.3725 108.341818 
L 163.3725 68.443636 
" clip-path="url(#p17915216af)" style="fill: none; stroke: #ffa500; stroke-width: 2.7; stroke-linecap: square"/>
   </g>
   <g id="line2d_17">
    <path d="M 200.5335 108.341818 
L 200.5335 108.341818 
" clip-path="url(#p17915216af)" style="fill: none; stroke: #ffa500; stroke-width: 2.7; stroke-linecap: square"/>
   </g>
   <g id="line2d_18">
    <path d="M 237.6945 108.341818 
L 237.6945 48.494545 
" clip-path="url(#p17915216af)" style="fill: none; stroke: #ffa500; stroke-width: 2.7; stroke-linecap: square"/>
   </g>
   <g id="line2d_19">
    <path d="M 274.8555 108.341818 
L 274.8555 108.341818 
" clip-path="url(#p17915216af)" style="fill: none; stroke: #ffa500; stroke-width: 2.7; stroke-linecap: square"/>
   </g>
   <g id="line2d_20">
    <path d="M 312.0165 103.354545 
L 312.0165 41.844848 
" clip-path="url(#p17915216af)" style="fill: none; stroke: #ffa500; stroke-width: 2.7; stroke-linecap: square"/>
   </g>
   <g id="line2d_21">
    <path d="M 349.1775 108.341818 
L 349.1775 48.494545 
" clip-path="url(#p17915216af)" style="fill: none; stroke: #ffa500; stroke-width: 2.7; stroke-linecap: square"/>
   </g>
   <g id="line2d_22">
    <path d="M 386.3385 108.341818 
L 386.3385 62.743896 
" clip-path="url(#p17915216af)" style="fill: none; stroke: #ffa500; stroke-width: 2.7; stroke-linecap: square"/>
   </g>
   <g id="line2d_23">
    <path d="M 423.4995 108.341818 
L 423.4995 108.341818 
" clip-path="url(#p17915216af)" style="fill: none; stroke: #ffa500; stroke-width: 2.7; stroke-linecap: square"/>
   </g>
   <g id="patch_3">
    <path d="M 70.47 111.666667 
L 70.47 38.52 
" style="fill: none; stroke: #000000; stroke-width: 0.8; stroke-linejoin: miter; stroke-linecap: square"/>
   </g>
   <g id="patch_4">
    <path d="M 442.08 111.666667 
L 442.08 38.52 
" style="fill: none; stroke: #000000; stroke-width: 0.8; stroke-linejoin: miter; stroke-linecap: square"/>
   </g>
   <g id="patch_5">
    <path d="M 70.47 111.666667 
L 442.08 111.666667 
" style="fill: none; stroke: #000000; stroke-width: 0.8; stroke-linejoin: miter; stroke-linecap: square"/>
   </g>
   <g id="patch_6">
    <path d="M 70.47 38.52 
L 442.08 38.52 
" style="fill: none; stroke: #000000; stroke-width: 0.8; stroke-linejoin: miter; stroke-linecap: square"/>
   </g>
  </g>
  <g id="axes_2">
   <g id="patch_7">
    <path d="M 70.47 199.113333 
L 442.08 199.113333 
L 442.08 125.966667 
L 70.47 125.966667 
z
" style="fill: #ffffff"/>
   </g>
   <g id="PathCollection_2">
    <defs>
     <path id="C1_0_0bffcba1bb" d="M 0 1.691974 
C 0.448717 1.691974 0.879116 1.513697 1.196406 1.196406 
C 1.513697 0.879116 1.691974 0.448717 1.691974 -0 
C 1.691974 -0.448717 1.513697 -0.879116 1.196406 -1.196406 
C 0.879116 -1.513697 0.448717 -1.691974 0 -1.691974 
C -0.448717 -1.691974 -0.879116 -1.513697 -1.196406 -1.196406 
C -1.513697 -0.879116 -1.691974 -0.448717 -1.691974 0 
C -1.691974 0.448717 -1.513697 0.879116 -1.196406 1.196406 
C -0.879116 1.513697 -0.448717 1.691974 0 1.691974 
z
"/>
    </defs>
    <g clip-path="url(#p994bb89829)">
     <use xlink:href="#C1_0_0bffcba1bb" x="89.0505" y="140.509149" style="fill: #008000; stroke: #008000; stroke-width: 1.0125"/>
    </g>
    <g clip-path="url(#p994bb89829)">
     <use xlink:href="#C1_0_0bffcba1bb" x="126.2115" y="179.10533" style="fill: #008000; stroke: #008000; stroke-width: 1.0125"/>
    </g>
    <g clip-path="url(#p994bb89829)">
     <use xlink:href="#C1_0_0bffcba1bb" x="163.3725" y="175.35162" style="fill: #008000; stroke: #008000; stroke-width: 1.0125"/>
    </g>
    <g clip-path="url(#p994bb89829)">
     <use xlink:href="#C1_0_0bffcba1bb" x="200.5335" y="193.286012" style="fill: #008000; stroke: #008000; stroke-width: 1.0125"/>
    </g>
    <g clip-path="url(#p994bb89829)">
     <use xlink:href="#C1_0_0bffcba1bb" x="237.6945" y="186.028839" style="fill: #008000; stroke: #008000; stroke-width: 1.0125"/>
    </g>
    <g clip-path="url(#p994bb89829)">
     <use xlink:href="#C1_0_0bffcba1bb" x="274.8555" y="190.783538" style="fill: #008000; stroke: #008000; stroke-width: 1.0125"/>
    </g>
    <g clip-path="url(#p994bb89829)">
     <use xlink:href="#C1_0_0bffcba1bb" x="312.0165" y="162.013184" style="fill: #008000; stroke: #008000; stroke-width: 1.0125"/>
    </g>
    <g clip-path="url(#p994bb89829)">
     <use xlink:href="#C1_0_0bffcba1bb" x="349.1775" y="156.117243" style="fill: #008000; stroke: #008000; stroke-width: 1.0125"/>
    </g>
    <g clip-path="url(#p994bb89829)">
     <use xlink:href="#C1_0_0bffcba1bb" x="386.3385" y="149.641507" style="fill: #008000; stroke: #008000; stroke-width: 1.0125"/>
    </g>
    <g clip-path="url(#p994bb89829)">
     <use xlink:href="#C1_0_0bffcba1bb" x="423.4995" y="168.977158" style="fill: #008000; stroke: #008000; stroke-width: 1.0125"/>
    </g>
   </g>
   <g id="matplotlib.axis_3">
    <g id="xtick_11">
     <g id="line2d_24">
      <g>
       <use xlink:href="#md3b00b95a8" x="89.0505" y="199.113333" style="stroke: #000000; stroke-width: 0.8"/>
      </g>
     </g>
    </g>
    <g id="xtick_12">
     <g id="line2d_25">
      <g>
       <use xlink:href="#md3b00b95a8" x="126.2115" y="199.113333" style="stroke: #000000; stroke-width: 0.8"/>
      </g>
     </g>
    </g>
    <g id="xtick_13">
     <g id="line2d_26">
      <g>
       <use xlink:href="#md3b00b95a8" x="163.3725" y="199.113333" style="stroke: #000000; stroke-width: 0.8"/>
      </g>
     </g>
    </g>
    <g id="xtick_14">
     <g id="line2d_27">
      <g>
       <use xlink:href="#md3b00b95a8" x="200.5335" y="199.113333" style="stroke: #000000; stroke-width: 0.8"/>
      </g>
     </g>
    </g>
    <g id="xtick_15">
     <g id="line2d_28">
      <g>
       <use xlink:href="#md3b00b95a8" x="237.6945" y="199.113333" style="stroke: #000000; stroke-width: 0.8"/>
      </g>
     </g>
    </g>
    <g id="xtick_16">
     <g id="line2d_29">
      <g>
       <use xlink:href="#md3b00b95a8" x="274.8555" y="199.113333" style="stroke: #000000; stroke-width: 0.8"/>
      </g>
     </g>
    </g>
    <g id="xtick_17">
     <g id="line2d_30">
      <g>
       <use xlink:href="#md3b00b95a8" x="312.0165" y="199.113333" style="stroke: #000000; stroke-width: 0.8"/>
      </g>
     </g>
    </g>
    <g id="xtick_18">
     <g id="line2d_31">
      <g>
       <use xlink:href="#md3b00b95a8" x="349.1775" y="199.113333" style="stroke: #000000; stroke-width: 0.8"/>
      </g>
     </g>
    </g>
    <g id="xtick_19">
     <g id="line2d_32">
      <g>
       <use xlink:href="#md3b00b95a8" x="386.3385" y="199.113333" style="stroke: #000000; stroke-width: 0.8"/>
      </g>
     </g>
    </g>
    <g id="xtick_20">
     <g id="line2d_33">
      <g>
       <use xlink:href="#md3b00b95a8" x="423.4995" y="199.113333" style="stroke: #000000; stroke-width: 0.8"/>
      </g>
     </g>
    </g>
   </g>
   <g id="matplotlib.axis_4">
    <g id="ytick_3">
     <g id="line2d_34">
      <g>
       <use xlink:href="#mc5f949eee4" x="70.47" y="195.788485" style="stroke: #000000; stroke-width: 0.8"/>
      </g>
     </g>
     <g id="text_3">
      <!-- 0.0 -->
      <g transform="translate(47.566875 199.587704) scale(0.1 -0.1)">
       <use xlink:href="#DejaVuSans-30"/>
       <use xlink:href="#DejaVuSans-2e" x="63.623047"/>
       <use xlink:href="#DejaVuSans-30" x="95.410156"/>
      </g>
     </g>
    </g>
    <g id="ytick_4">
     <g id="line2d_35">
      <g>
       <use xlink:href="#mc5f949eee4" x="70.47" y="150.743967" style="stroke: #000000; stroke-width: 0.8"/>
      </g>
     </g>
     <g id="text_4">
      <!-- 0.5 -->
      <g transform="translate(47.566875 154.543186) scale(0.1 -0.1)">
       <defs>
        <path id="DejaVuSans-35" d="M 691 4666 
L 3169 4666 
L 3169 4134 
L 1269 4134 
L 1269 2991 
Q 1406 3038 1543 3061 
Q 1681 3084 1819 3084 
Q 2600 3084 3056 2656 
Q 3513 2228 3513 1497 
Q 3513 744 3044 326 
Q 2575 -91 1722 -91 
Q 1428 -91 1123 -41 
Q 819 9 494 109 
L 494 744 
Q 775 591 1075 516 
Q 1375 441 1709 441 
Q 2250 441 2565 725 
Q 2881 1009 2881 1497 
Q 2881 1984 2565 2268 
Q 2250 2553 1709 2553 
Q 1456 2553 1204 2497 
Q 953 2441 691 2322 
L 691 4666 
z
" transform="scale(0.015625)"/>
       </defs>
       <use xlink:href="#DejaVuSans-30"/>
       <use xlink:href="#DejaVuSans-2e" x="63.623047"/>
       <use xlink:href="#DejaVuSans-35" x="95.410156"/>
      </g>
     </g>
    </g>
   </g>
   <g id="line2d_36">
    <path d="M 89.0505 140.509149 
L 126.2115 179.10533 
L 163.3725 175.35162 
L 200.5335 193.286012 
L 237.6945 186.028839 
L 274.8555 190.783538 
L 312.0165 162.013184 
L 349.1775 156.117243 
L 386.3385 149.641507 
L 423.4995 168.977158 
" clip-path="url(#p994bb89829)" style="fill: none; stroke: #008000; stroke-width: 1.35; stroke-linecap: square"/>
   </g>
   <g id="line2d_37">
    <path d="M 89.0505 153.576677 
L 89.0505 129.291515 
" clip-path="url(#p994bb89829)" style="fill: none; stroke: #008000; stroke-width: 2.7; stroke-linecap: square"/>
   </g>
   <g id="line2d_38">
    <path d="M 126.2115 191.117202 
L 126.2115 165.425143 
" clip-path="url(#p994bb89829)" style="fill: none; stroke: #008000; stroke-width: 2.7; stroke-linecap: square"/>
   </g>
   <g id="line2d_39">
    <path d="M 163.3725 190.376887 
L 163.3725 158.251387 
" clip-path="url(#p994bb89829)" style="fill: none; stroke: #008000; stroke-width: 2.7; stroke-linecap: square"/>
   </g>
   <g id="line2d_40">
    <path d="M 200.5335 195.788485 
L 200.5335 188.281065 
" clip-path="url(#p994bb89829)" style="fill: none; stroke: #008000; stroke-width: 2.7; stroke-linecap: square"/>
   </g>
   <g id="line2d_41">
    <path d="M 237.6945 195.788485 
L 237.6945 176.250425 
" clip-path="url(#p994bb89829)" style="fill: none; stroke: #008000; stroke-width: 2.7; stroke-linecap: square"/>
   </g>
   <g id="line2d_42">
    <path d="M 274.8555 195.788485 
L 274.8555 180.773646 
" clip-path="url(#p994bb89829)" style="fill: none; stroke: #008000; stroke-width: 2.7; stroke-linecap: square"/>
   </g>
   <g id="line2d_43">
    <path d="M 312.0165 180.25617 
L 312.0165 144.703632 
" clip-path="url(#p994bb89829)" style="fill: none; stroke: #008000; stroke-width: 2.7; stroke-linecap: square"/>
   </g>
   <g id="line2d_44">
    <path d="M 349.1775 175.06454 
L 349.1775 136.812178 
" clip-path="url(#p994bb89829)" style="fill: none; stroke: #008000; stroke-width: 2.7; stroke-linecap: square"/>
   </g>
   <g id="line2d_45">
    <path d="M 386.3385 163.933881 
L 386.3385 137.050788 
" clip-path="url(#p994bb89829)" style="fill: none; stroke: #008000; stroke-width: 2.7; stroke-linecap: square"/>
   </g>
   <g id="line2d_46">
    <path d="M 423.4995 182.275861 
L 423.4995 155.286377 
" clip-path="url(#p994bb89829)" style="fill: none; stroke: #008000; stroke-width: 2.7; stroke-linecap: square"/>
   </g>
   <g id="patch_8">
    <path d="M 70.47 199.113333 
L 70.47 125.966667 
" style="fill: none; stroke: #000000; stroke-width: 0.8; stroke-linejoin: miter; stroke-linecap: square"/>
   </g>
   <g id="patch_9">
    <path d="M 442.08 199.113333 
L 442.08 125.966667 
" style="fill: none; stroke: #000000; stroke-width: 0.8; stroke-linejoin: miter; stroke-linecap: square"/>
   </g>
   <g id="patch_10">
    <path d="M 70.47 199.113333 
L 442.08 199.113333 
" style="fill: none; stroke: #000000; stroke-width: 0.8; stroke-linejoin: miter; stroke-linecap: square"/>
   </g>
   <g id="patch_11">
    <path d="M 70.47 125.966667 
L 442.08 125.966667 
" style="fill: none; stroke: #000000; stroke-width: 0.8; stroke-linejoin: miter; stroke-linecap: square"/>
   </g>
  </g>
  <g id="axes_3">
   <g id="patch_12">
    <path d="M 70.47 286.56 
L 442.08 286.56 
L 442.08 213.413333 
L 70.47 213.413333 
z
" style="fill: #ffffff"/>
   </g>
   <g id="PathCollection_3">
    <defs>
     <path id="C2_0_8c78b42122" d="M 0 1.691974 
C 0.448717 1.691974 0.879116 1.513697 1.196406 1.196406 
C 1.513697 0.879116 1.691974 0.448717 1.691974 -0 
C 1.691974 -0.448717 1.513697 -0.879116 1.196406 -1.196406 
C 0.879116 -1.513697 0.448717 -1.691974 0 -1.691974 
C -0.448717 -1.691974 -0.879116 -1.513697 -1.196406 -1.196406 
C -1.513697 -0.879116 -1.691974 -0.448717 -1.691974 0 
C -1.691974 0.448717 -1.513697 0.879116 -1.196406 1.196406 
C -0.879116 1.513697 -0.448717 1.691974 0 1.691974 
z
"/>
    </defs>
    <g clip-path="url(#p1cbc68faf4)">
     <use xlink:href="#C2_0_8c78b42122" x="89.0505" y="226.71641" style="fill: #ff0000; stroke: #ff0000; stroke-width: 1.0125"/>
    </g>
    <g clip-path="url(#p1cbc68faf4)">
     <use xlink:href="#C2_0_8c78b42122" x="126.2115" y="265.310979" style="fill: #ff0000; stroke: #ff0000; stroke-width: 1.0125"/>
    </g>
    <g clip-path="url(#p1cbc68faf4)">
     <use xlink:href="#C2_0_8c78b42122" x="163.3725" y="264.469598" style="fill: #ff0000; stroke: #ff0000; stroke-width: 1.0125"/>
    </g>
    <g clip-path="url(#p1cbc68faf4)">
     <use xlink:href="#C2_0_8c78b42122" x="200.5335" y="280.25075" style="fill: #ff0000; stroke: #ff0000; stroke-width: 1.0125"/>
    </g>
    <g clip-path="url(#p1cbc68faf4)">
     <use xlink:href="#C2_0_8c78b42122" x="237.6945" y="275.276748" style="fill: #ff0000; stroke: #ff0000; stroke-width: 1.0125"/>
    </g>
    <g clip-path="url(#p1cbc68faf4)">
     <use xlink:href="#C2_0_8c78b42122" x="274.8555" y="283.235152" style="fill: #ff0000; stroke: #ff0000; stroke-width: 1.0125"/>
    </g>
    <g clip-path="url(#p1cbc68faf4)">
     <use xlink:href="#C2_0_8c78b42122" x="312.0165" y="255.91946" style="fill: #ff0000; stroke: #ff0000; stroke-width: 1.0125"/>
    </g>
    <g clip-path="url(#p1cbc68faf4)">
     <use xlink:href="#C2_0_8c78b42122" x="349.1775" y="253.520333" style="fill: #ff0000; stroke: #ff0000; stroke-width: 1.0125"/>
    </g>
    <g clip-path="url(#p1cbc68faf4)">
     <use xlink:href="#C2_0_8c78b42122" x="386.3385" y="244.816906" style="fill: #ff0000; stroke: #ff0000; stroke-width: 1.0125"/>
    </g>
    <g clip-path="url(#p1cbc68faf4)">
     <use xlink:href="#C2_0_8c78b42122" x="423.4995" y="266.910299" style="fill: #ff0000; stroke: #ff0000; stroke-width: 1.0125"/>
    </g>
   </g>
   <g id="matplotlib.axis_5">
    <g id="xtick_21">
     <g id="line2d_47">
      <g>
       <use xlink:href="#md3b00b95a8" x="89.0505" y="286.56" style="stroke: #000000; stroke-width: 0.8"/>
      </g>
     </g>
     <g id="text_5">
      <!-- 2014 -->
      <g transform="translate(76.3255 301.158437) scale(0.1 -0.1)">
       <defs>
        <path id="DejaVuSans-31" d="M 794 531 
L 1825 531 
L 1825 4091 
L 703 3866 
L 703 4441 
L 1819 4666 
L 2450 4666 
L 2450 531 
L 3481 531 
L 3481 0 
L 794 0 
L 794 531 
z
" transform="scale(0.015625)"/>
        <path id="DejaVuSans-34" d="M 2419 4116 
L 825 1625 
L 2419 1625 
L 2419 4116 
z
M 2253 4666 
L 3047 4666 
L 3047 1625 
L 3713 1625 
L 3713 1100 
L 3047 1100 
L 3047 0 
L 2419 0 
L 2419 1100 
L 313 1100 
L 313 1709 
L 2253 4666 
z
" transform="scale(0.015625)"/>
       </defs>
       <use xlink:href="#DejaVuSans-32"/>
       <use xlink:href="#DejaVuSans-30" x="63.623047"/>
       <use xlink:href="#DejaVuSans-31" x="127.246094"/>
       <use xlink:href="#DejaVuSans-34" x="190.869141"/>
      </g>
     </g>
    </g>
    <g id="xtick_22">
     <g id="line2d_48">
      <g>
       <use xlink:href="#md3b00b95a8" x="126.2115" y="286.56" style="stroke: #000000; stroke-width: 0.8"/>
      </g>
     </g>
     <g id="text_6">
      <!-- 2015 -->
      <g transform="translate(113.4865 301.158437) scale(0.1 -0.1)">
       <use xlink:href="#DejaVuSans-32"/>
       <use xlink:href="#DejaVuSans-30" x="63.623047"/>
       <use xlink:href="#DejaVuSans-31" x="127.246094"/>
       <use xlink:href="#DejaVuSans-35" x="190.869141"/>
      </g>
     </g>
    </g>
    <g id="xtick_23">
     <g id="line2d_49">
      <g>
       <use xlink:href="#md3b00b95a8" x="163.3725" y="286.56" style="stroke: #000000; stroke-width: 0.8"/>
      </g>
     </g>
     <g id="text_7">
      <!-- 2016 -->
      <g transform="translate(150.6475 301.158437) scale(0.1 -0.1)">
       <defs>
        <path id="DejaVuSans-36" d="M 2113 2584 
Q 1688 2584 1439 2293 
Q 1191 2003 1191 1497 
Q 1191 994 1439 701 
Q 1688 409 2113 409 
Q 2538 409 2786 701 
Q 3034 994 3034 1497 
Q 3034 2003 2786 2293 
Q 2538 2584 2113 2584 
z
M 3366 4563 
L 3366 3988 
Q 3128 4100 2886 4159 
Q 2644 4219 2406 4219 
Q 1781 4219 1451 3797 
Q 1122 3375 1075 2522 
Q 1259 2794 1537 2939 
Q 1816 3084 2150 3084 
Q 2853 3084 3261 2657 
Q 3669 2231 3669 1497 
Q 3669 778 3244 343 
Q 2819 -91 2113 -91 
Q 1303 -91 875 529 
Q 447 1150 447 2328 
Q 447 3434 972 4092 
Q 1497 4750 2381 4750 
Q 2619 4750 2861 4703 
Q 3103 4656 3366 4563 
z
" transform="scale(0.015625)"/>
       </defs>
       <use xlink:href="#DejaVuSans-32"/>
       <use xlink:href="#DejaVuSans-30" x="63.623047"/>
       <use xlink:href="#DejaVuSans-31" x="127.246094"/>
       <use xlink:href="#DejaVuSans-36" x="190.869141"/>
      </g>
     </g>
    </g>
    <g id="xtick_24">
     <g id="line2d_50">
      <g>
       <use xlink:href="#md3b00b95a8" x="200.5335" y="286.56" style="stroke: #000000; stroke-width: 0.8"/>
      </g>
     </g>
     <g id="text_8">
      <!-- 2017 -->
      <g transform="translate(187.8085 301.158437) scale(0.1 -0.1)">
       <defs>
        <path id="DejaVuSans-37" d="M 525 4666 
L 3525 4666 
L 3525 4397 
L 1831 0 
L 1172 0 
L 2766 4134 
L 525 4134 
L 525 4666 
z
" transform="scale(0.015625)"/>
       </defs>
       <use xlink:href="#DejaVuSans-32"/>
       <use xlink:href="#DejaVuSans-30" x="63.623047"/>
       <use xlink:href="#DejaVuSans-31" x="127.246094"/>
       <use xlink:href="#DejaVuSans-37" x="190.869141"/>
      </g>
     </g>
    </g>
    <g id="xtick_25">
     <g id="line2d_51">
      <g>
       <use xlink:href="#md3b00b95a8" x="237.6945" y="286.56" style="stroke: #000000; stroke-width: 0.8"/>
      </g>
     </g>
     <g id="text_9">
      <!-- 2018 -->
      <g transform="translate(224.9695 301.158437) scale(0.1 -0.1)">
       <defs>
        <path id="DejaVuSans-38" d="M 2034 2216 
Q 1584 2216 1326 1975 
Q 1069 1734 1069 1313 
Q 1069 891 1326 650 
Q 1584 409 2034 409 
Q 2484 409 2743 651 
Q 3003 894 3003 1313 
Q 3003 1734 2745 1975 
Q 2488 2216 2034 2216 
z
M 1403 2484 
Q 997 2584 770 2862 
Q 544 3141 544 3541 
Q 544 4100 942 4425 
Q 1341 4750 2034 4750 
Q 2731 4750 3128 4425 
Q 3525 4100 3525 3541 
Q 3525 3141 3298 2862 
Q 3072 2584 2669 2484 
Q 3125 2378 3379 2068 
Q 3634 1759 3634 1313 
Q 3634 634 3220 271 
Q 2806 -91 2034 -91 
Q 1263 -91 848 271 
Q 434 634 434 1313 
Q 434 1759 690 2068 
Q 947 2378 1403 2484 
z
M 1172 3481 
Q 1172 3119 1398 2916 
Q 1625 2713 2034 2713 
Q 2441 2713 2670 2916 
Q 2900 3119 2900 3481 
Q 2900 3844 2670 4047 
Q 2441 4250 2034 4250 
Q 1625 4250 1398 4047 
Q 1172 3844 1172 3481 
z
" transform="scale(0.015625)"/>
       </defs>
       <use xlink:href="#DejaVuSans-32"/>
       <use xlink:href="#DejaVuSans-30" x="63.623047"/>
       <use xlink:href="#DejaVuSans-31" x="127.246094"/>
       <use xlink:href="#DejaVuSans-38" x="190.869141"/>
      </g>
     </g>
    </g>
    <g id="xtick_26">
     <g id="line2d_52">
      <g>
       <use xlink:href="#md3b00b95a8" x="274.8555" y="286.56" style="stroke: #000000; stroke-width: 0.8"/>
      </g>
     </g>
     <g id="text_10">
      <!-- 2019 -->
      <g transform="translate(262.1305 301.158437) scale(0.1 -0.1)">
       <defs>
        <path id="DejaVuSans-39" d="M 703 97 
L 703 672 
Q 941 559 1184 500 
Q 1428 441 1663 441 
Q 2288 441 2617 861 
Q 2947 1281 2994 2138 
Q 2813 1869 2534 1725 
Q 2256 1581 1919 1581 
Q 1219 1581 811 2004 
Q 403 2428 403 3163 
Q 403 3881 828 4315 
Q 1253 4750 1959 4750 
Q 2769 4750 3195 4129 
Q 3622 3509 3622 2328 
Q 3622 1225 3098 567 
Q 2575 -91 1691 -91 
Q 1453 -91 1209 -44 
Q 966 3 703 97 
z
M 1959 2075 
Q 2384 2075 2632 2365 
Q 2881 2656 2881 3163 
Q 2881 3666 2632 3958 
Q 2384 4250 1959 4250 
Q 1534 4250 1286 3958 
Q 1038 3666 1038 3163 
Q 1038 2656 1286 2365 
Q 1534 2075 1959 2075 
z
" transform="scale(0.015625)"/>
       </defs>
       <use xlink:href="#DejaVuSans-32"/>
       <use xlink:href="#DejaVuSans-30" x="63.623047"/>
       <use xlink:href="#DejaVuSans-31" x="127.246094"/>
       <use xlink:href="#DejaVuSans-39" x="190.869141"/>
      </g>
     </g>
    </g>
    <g id="xtick_27">
     <g id="line2d_53">
      <g>
       <use xlink:href="#md3b00b95a8" x="312.0165" y="286.56" style="stroke: #000000; stroke-width: 0.8"/>
      </g>
     </g>
     <g id="text_11">
      <!-- 2020 -->
      <g transform="translate(299.2915 301.158437) scale(0.1 -0.1)">
       <use xlink:href="#DejaVuSans-32"/>
       <use xlink:href="#DejaVuSans-30" x="63.623047"/>
       <use xlink:href="#DejaVuSans-32" x="127.246094"/>
       <use xlink:href="#DejaVuSans-30" x="190.869141"/>
      </g>
     </g>
    </g>
    <g id="xtick_28">
     <g id="line2d_54">
      <g>
       <use xlink:href="#md3b00b95a8" x="349.1775" y="286.56" style="stroke: #000000; stroke-width: 0.8"/>
      </g>
     </g>
     <g id="text_12">
      <!-- 2021 -->
      <g transform="translate(336.4525 301.158437) scale(0.1 -0.1)">
       <use xlink:href="#DejaVuSans-32"/>
       <use xlink:href="#DejaVuSans-30" x="63.623047"/>
       <use xlink:href="#DejaVuSans-32" x="127.246094"/>
       <use xlink:href="#DejaVuSans-31" x="190.869141"/>
      </g>
     </g>
    </g>
    <g id="xtick_29">
     <g id="line2d_55">
      <g>
       <use xlink:href="#md3b00b95a8" x="386.3385" y="286.56" style="stroke: #000000; stroke-width: 0.8"/>
      </g>
     </g>
     <g id="text_13">
      <!-- 2022 -->
      <g transform="translate(373.6135 301.158437) scale(0.1 -0.1)">
       <use xlink:href="#DejaVuSans-32"/>
       <use xlink:href="#DejaVuSans-30" x="63.623047"/>
       <use xlink:href="#DejaVuSans-32" x="127.246094"/>
       <use xlink:href="#DejaVuSans-32" x="190.869141"/>
      </g>
     </g>
    </g>
    <g id="xtick_30">
     <g id="line2d_56">
      <g>
       <use xlink:href="#md3b00b95a8" x="423.4995" y="286.56" style="stroke: #000000; stroke-width: 0.8"/>
      </g>
     </g>
     <g id="text_14">
      <!-- 2023 -->
      <g transform="translate(410.7745 301.158437) scale(0.1 -0.1)">
       <defs>
        <path id="DejaVuSans-33" d="M 2597 2516 
Q 3050 2419 3304 2112 
Q 3559 1806 3559 1356 
Q 3559 666 3084 287 
Q 2609 -91 1734 -91 
Q 1441 -91 1130 -33 
Q 819 25 488 141 
L 488 750 
Q 750 597 1062 519 
Q 1375 441 1716 441 
Q 2309 441 2620 675 
Q 2931 909 2931 1356 
Q 2931 1769 2642 2001 
Q 2353 2234 1838 2234 
L 1294 2234 
L 1294 2753 
L 1863 2753 
Q 2328 2753 2575 2939 
Q 2822 3125 2822 3475 
Q 2822 3834 2567 4026 
Q 2313 4219 1838 4219 
Q 1578 4219 1281 4162 
Q 984 4106 628 3988 
L 628 4550 
Q 988 4650 1302 4700 
Q 1616 4750 1894 4750 
Q 2613 4750 3031 4423 
Q 3450 4097 3450 3541 
Q 3450 3153 3228 2886 
Q 3006 2619 2597 2516 
z
" transform="scale(0.015625)"/>
       </defs>
       <use xlink:href="#DejaVuSans-32"/>
       <use xlink:href="#DejaVuSans-30" x="63.623047"/>
       <use xlink:href="#DejaVuSans-32" x="127.246094"/>
       <use xlink:href="#DejaVuSans-33" x="190.869141"/>
      </g>
     </g>
    </g>
   </g>
   <g id="matplotlib.axis_6">
    <g id="ytick_5">
     <g id="line2d_57">
      <g>
       <use xlink:href="#mc5f949eee4" x="70.47" y="283.235152" style="stroke: #000000; stroke-width: 0.8"/>
      </g>
     </g>
     <g id="text_15">
      <!-- 0.0 -->
      <g transform="translate(47.566875 287.03437) scale(0.1 -0.1)">
       <use xlink:href="#DejaVuSans-30"/>
       <use xlink:href="#DejaVuSans-2e" x="63.623047"/>
       <use xlink:href="#DejaVuSans-30" x="95.410156"/>
      </g>
     </g>
    </g>
    <g id="ytick_6">
     <g id="line2d_58">
      <g>
       <use xlink:href="#mc5f949eee4" x="70.47" y="238.469131" style="stroke: #000000; stroke-width: 0.8"/>
      </g>
     </g>
     <g id="text_16">
      <!-- 0.5 -->
      <g transform="translate(47.566875 242.26835) scale(0.1 -0.1)">
       <use xlink:href="#DejaVuSans-30"/>
       <use xlink:href="#DejaVuSans-2e" x="63.623047"/>
       <use xlink:href="#DejaVuSans-35" x="95.410156"/>
      </g>
     </g>
    </g>
   </g>
   <g id="line2d_59">
    <path d="M 89.0505 226.71641 
L 126.2115 265.310979 
L 163.3725 264.469598 
L 200.5335 280.25075 
L 237.6945 275.276748 
L 274.8555 283.235152 
L 312.0165 255.91946 
L 349.1775 253.520333 
L 386.3385 244.816906 
L 423.4995 266.910299 
" clip-path="url(#p1cbc68faf4)" style="fill: none; stroke: #ff0000; stroke-width: 1.35; stroke-linecap: square"/>
   </g>
   <g id="line2d_60">
    <path d="M 89.0505 239.040491 
L 89.0505 216.738182 
" clip-path="url(#p1cbc68faf4)" style="fill: none; stroke: #ff0000; stroke-width: 2.7; stroke-linecap: square"/>
   </g>
   <g id="line2d_61">
    <path d="M 126.2115 278.385499 
L 126.2115 249.536286 
" clip-path="url(#p1cbc68faf4)" style="fill: none; stroke: #ff0000; stroke-width: 2.7; stroke-linecap: square"/>
   </g>
   <g id="line2d_62">
    <path d="M 163.3725 279.165513 
L 163.3725 245.930135 
" clip-path="url(#p1cbc68faf4)" style="fill: none; stroke: #ff0000; stroke-width: 2.7; stroke-linecap: square"/>
   </g>
   <g id="line2d_63">
    <path d="M 200.5335 283.235152 
L 200.5335 274.281947 
" clip-path="url(#p1cbc68faf4)" style="fill: none; stroke: #ff0000; stroke-width: 2.7; stroke-linecap: square"/>
   </g>
   <g id="line2d_64">
    <path d="M 237.6945 283.235152 
L 237.6945 267.318344 
" clip-path="url(#p1cbc68faf4)" style="fill: none; stroke: #ff0000; stroke-width: 2.7; stroke-linecap: square"/>
   </g>
   <g id="line2d_65">
    <path d="M 274.8555 283.235152 
L 274.8555 283.235152 
" clip-path="url(#p1cbc68faf4)" style="fill: none; stroke: #ff0000; stroke-width: 2.7; stroke-linecap: square"/>
   </g>
   <g id="line2d_66">
    <path d="M 312.0165 269.8069 
L 312.0165 240.781048 
" clip-path="url(#p1cbc68faf4)" style="fill: none; stroke: #ff0000; stroke-width: 2.7; stroke-linecap: square"/>
   </g>
   <g id="line2d_67">
    <path d="M 349.1775 266.440142 
L 349.1775 241.476142 
" clip-path="url(#p1cbc68faf4)" style="fill: none; stroke: #ff0000; stroke-width: 2.7; stroke-linecap: square"/>
   </g>
   <g id="line2d_68">
    <path d="M 386.3385 256.485678 
L 386.3385 234.086088 
" clip-path="url(#p1cbc68faf4)" style="fill: none; stroke: #ff0000; stroke-width: 2.7; stroke-linecap: square"/>
   </g>
   <g id="line2d_69">
    <path d="M 423.4995 275.957639 
L 423.4995 256.565737 
" clip-path="url(#p1cbc68faf4)" style="fill: none; stroke: #ff0000; stroke-width: 2.7; stroke-linecap: square"/>
   </g>
   <g id="patch_13">
    <path d="M 70.47 286.56 
L 70.47 213.413333 
" style="fill: none; stroke: #000000; stroke-width: 0.8; stroke-linejoin: miter; stroke-linecap: square"/>
   </g>
   <g id="patch_14">
    <path d="M 442.08 286.56 
L 442.08 213.413333 
" style="fill: none; stroke: #000000; stroke-width: 0.8; stroke-linejoin: miter; stroke-linecap: square"/>
   </g>
   <g id="patch_15">
    <path d="M 70.47 286.56 
L 442.08 286.56 
" style="fill: none; stroke: #000000; stroke-width: 0.8; stroke-linejoin: miter; stroke-linecap: square"/>
   </g>
   <g id="patch_16">
    <path d="M 70.47 213.413333 
L 442.08 213.413333 
" style="fill: none; stroke: #000000; stroke-width: 0.8; stroke-linejoin: miter; stroke-linecap: square"/>
   </g>
  </g>
  <g id="axes_4">
   <g id="matplotlib.axis_7">
    <g id="xtick_31">
     <g id="text_17">
      <!-- 0.0 -->
      <g style="opacity: 0" transform="translate(62.518438 301.158437) scale(0.1 -0.1)">
       <use xlink:href="#DejaVuSans-30"/>
       <use xlink:href="#DejaVuSans-2e" x="63.623047"/>
       <use xlink:href="#DejaVuSans-30" x="95.410156"/>
      </g>
     </g>
    </g>
    <g id="xtick_32">
     <g id="text_18">
      <!-- 0.2 -->
      <g style="opacity: 0" transform="translate(136.840438 301.158437) scale(0.1 -0.1)">
       <use xlink:href="#DejaVuSans-30"/>
       <use xlink:href="#DejaVuSans-2e" x="63.623047"/>
       <use xlink:href="#DejaVuSans-32" x="95.410156"/>
      </g>
     </g>
    </g>
    <g id="xtick_33">
     <g id="text_19">
      <!-- 0.4 -->
      <g style="opacity: 0" transform="translate(211.162437 301.158437) scale(0.1 -0.1)">
       <use xlink:href="#DejaVuSans-30"/>
       <use xlink:href="#DejaVuSans-2e" x="63.623047"/>
       <use xlink:href="#DejaVuSans-34" x="95.410156"/>
      </g>
     </g>
    </g>
    <g id="xtick_34">
     <g id="text_20">
      <!-- 0.6 -->
      <g style="opacity: 0" transform="translate(285.484438 301.158437) scale(0.1 -0.1)">
       <use xlink:href="#DejaVuSans-30"/>
       <use xlink:href="#DejaVuSans-2e" x="63.623047"/>
       <use xlink:href="#DejaVuSans-36" x="95.410156"/>
      </g>
     </g>
    </g>
    <g id="xtick_35">
     <g id="text_21">
      <!-- 0.8 -->
      <g style="opacity: 0" transform="translate(359.806437 301.158437) scale(0.1 -0.1)">
       <use xlink:href="#DejaVuSans-30"/>
       <use xlink:href="#DejaVuSans-2e" x="63.623047"/>
       <use xlink:href="#DejaVuSans-38" x="95.410156"/>
      </g>
     </g>
    </g>
    <g id="xtick_36">
     <g id="text_22">
      <!-- 1.0 -->
      <g style="opacity: 0" transform="translate(434.128437 301.158437) scale(0.1 -0.1)">
       <use xlink:href="#DejaVuSans-31"/>
       <use xlink:href="#DejaVuSans-2e" x="63.623047"/>
       <use xlink:href="#DejaVuSans-30" x="95.410156"/>
      </g>
     </g>
    </g>
    <g id="text_23">
     <!-- Years -->
     <g transform="translate(243.082812 314.836563) scale(0.1 -0.1)">
      <defs>
       <path id="DejaVuSans-59" d="M -13 4666 
L 666 4666 
L 1959 2747 
L 3244 4666 
L 3922 4666 
L 2272 2222 
L 2272 0 
L 1638 0 
L 1638 2222 
L -13 4666 
z
" transform="scale(0.015625)"/>
       <path id="DejaVuSans-65" d="M 3597 1894 
L 3597 1613 
L 953 1613 
Q 991 1019 1311 708 
Q 1631 397 2203 397 
Q 2534 397 2845 478 
Q 3156 559 3463 722 
L 3463 178 
Q 3153 47 2828 -22 
Q 2503 -91 2169 -91 
Q 1331 -91 842 396 
Q 353 884 353 1716 
Q 353 2575 817 3079 
Q 1281 3584 2069 3584 
Q 2775 3584 3186 3129 
Q 3597 2675 3597 1894 
z
M 3022 2063 
Q 3016 2534 2758 2815 
Q 2500 3097 2075 3097 
Q 1594 3097 1305 2825 
Q 1016 2553 972 2059 
L 3022 2063 
z
" transform="scale(0.015625)"/>
       <path id="DejaVuSans-61" d="M 2194 1759 
Q 1497 1759 1228 1600 
Q 959 1441 959 1056 
Q 959 750 1161 570 
Q 1363 391 1709 391 
Q 2188 391 2477 730 
Q 2766 1069 2766 1631 
L 2766 1759 
L 2194 1759 
z
M 3341 1997 
L 3341 0 
L 2766 0 
L 2766 531 
Q 2569 213 2275 61 
Q 1981 -91 1556 -91 
Q 1019 -91 701 211 
Q 384 513 384 1019 
Q 384 1609 779 1909 
Q 1175 2209 1959 2209 
L 2766 2209 
L 2766 2266 
Q 2766 2663 2505 2880 
Q 2244 3097 1772 3097 
Q 1472 3097 1187 3025 
Q 903 2953 641 2809 
L 641 3341 
Q 956 3463 1253 3523 
Q 1550 3584 1831 3584 
Q 2591 3584 2966 3190 
Q 3341 2797 3341 1997 
z
" transform="scale(0.015625)"/>
       <path id="DejaVuSans-72" d="M 2631 2963 
Q 2534 3019 2420 3045 
Q 2306 3072 2169 3072 
Q 1681 3072 1420 2755 
Q 1159 2438 1159 1844 
L 1159 0 
L 581 0 
L 581 3500 
L 1159 3500 
L 1159 2956 
Q 1341 3275 1631 3429 
Q 1922 3584 2338 3584 
Q 2397 3584 2469 3576 
Q 2541 3569 2628 3553 
L 2631 2963 
z
" transform="scale(0.015625)"/>
       <path id="DejaVuSans-73" d="M 2834 3397 
L 2834 2853 
Q 2591 2978 2328 3040 
Q 2066 3103 1784 3103 
Q 1356 3103 1142 2972 
Q 928 2841 928 2578 
Q 928 2378 1081 2264 
Q 1234 2150 1697 2047 
L 1894 2003 
Q 2506 1872 2764 1633 
Q 3022 1394 3022 966 
Q 3022 478 2636 193 
Q 2250 -91 1575 -91 
Q 1294 -91 989 -36 
Q 684 19 347 128 
L 347 722 
Q 666 556 975 473 
Q 1284 391 1588 391 
Q 1994 391 2212 530 
Q 2431 669 2431 922 
Q 2431 1156 2273 1281 
Q 2116 1406 1581 1522 
L 1381 1569 
Q 847 1681 609 1914 
Q 372 2147 372 2553 
Q 372 3047 722 3315 
Q 1072 3584 1716 3584 
Q 2034 3584 2315 3537 
Q 2597 3491 2834 3397 
z
" transform="scale(0.015625)"/>
      </defs>
      <use xlink:href="#DejaVuSans-59"/>
      <use xlink:href="#DejaVuSans-65" x="47.833984"/>
      <use xlink:href="#DejaVuSans-61" x="109.357422"/>
      <use xlink:href="#DejaVuSans-72" x="170.636719"/>
      <use xlink:href="#DejaVuSans-73" x="211.75"/>
     </g>
    </g>
   </g>
   <g id="matplotlib.axis_8">
    <g id="ytick_7">
     <g id="text_24">
      <!-- 0.0 -->
      <g style="opacity: 0" transform="translate(47.566875 290.359219) scale(0.1 -0.1)">
       <use xlink:href="#DejaVuSans-30"/>
       <use xlink:href="#DejaVuSans-2e" x="63.623047"/>
       <use xlink:href="#DejaVuSans-30" x="95.410156"/>
      </g>
     </g>
    </g>
    <g id="ytick_8">
     <g id="text_25">
      <!-- 0.2 -->
      <g style="opacity: 0" transform="translate(47.566875 240.751219) scale(0.1 -0.1)">
       <use xlink:href="#DejaVuSans-30"/>
       <use xlink:href="#DejaVuSans-2e" x="63.623047"/>
       <use xlink:href="#DejaVuSans-32" x="95.410156"/>
      </g>
     </g>
    </g>
    <g id="ytick_9">
     <g id="text_26">
      <!-- 0.4 -->
      <g style="opacity: 0" transform="translate(47.566875 191.143219) scale(0.1 -0.1)">
       <use xlink:href="#DejaVuSans-30"/>
       <use xlink:href="#DejaVuSans-2e" x="63.623047"/>
       <use xlink:href="#DejaVuSans-34" x="95.410156"/>
      </g>
     </g>
    </g>
    <g id="ytick_10">
     <g id="text_27">
      <!-- 0.6 -->
      <g style="opacity: 0" transform="translate(47.566875 141.535219) scale(0.1 -0.1)">
       <use xlink:href="#DejaVuSans-30"/>
       <use xlink:href="#DejaVuSans-2e" x="63.623047"/>
       <use xlink:href="#DejaVuSans-36" x="95.410156"/>
      </g>
     </g>
    </g>
    <g id="ytick_11">
     <g id="text_28">
      <!-- 0.8 -->
      <g style="opacity: 0" transform="translate(47.566875 91.927219) scale(0.1 -0.1)">
       <use xlink:href="#DejaVuSans-30"/>
       <use xlink:href="#DejaVuSans-2e" x="63.623047"/>
       <use xlink:href="#DejaVuSans-38" x="95.410156"/>
      </g>
     </g>
    </g>
    <g id="ytick_12">
     <g id="text_29">
      <!-- 1.0 -->
      <g style="opacity: 0" transform="translate(47.566875 42.319219) scale(0.1 -0.1)">
       <use xlink:href="#DejaVuSans-31"/>
       <use xlink:href="#DejaVuSans-2e" x="63.623047"/>
       <use xlink:href="#DejaVuSans-30" x="95.410156"/>
      </g>
     </g>
    </g>
    <g id="text_30">
     <!-- F1 Score -->
     <g transform="translate(41.487188 184.188437) rotate(-90) scale(0.1 -0.1)">
      <defs>
       <path id="DejaVuSans-46" d="M 628 4666 
L 3309 4666 
L 3309 4134 
L 1259 4134 
L 1259 2759 
L 3109 2759 
L 3109 2228 
L 1259 2228 
L 1259 0 
L 628 0 
L 628 4666 
z
" transform="scale(0.015625)"/>
       <path id="DejaVuSans-20" transform="scale(0.015625)"/>
       <path id="DejaVuSans-53" d="M 3425 4513 
L 3425 3897 
Q 3066 4069 2747 4153 
Q 2428 4238 2131 4238 
Q 1616 4238 1336 4038 
Q 1056 3838 1056 3469 
Q 1056 3159 1242 3001 
Q 1428 2844 1947 2747 
L 2328 2669 
Q 3034 2534 3370 2195 
Q 3706 1856 3706 1288 
Q 3706 609 3251 259 
Q 2797 -91 1919 -91 
Q 1588 -91 1214 -16 
Q 841 59 441 206 
L 441 856 
Q 825 641 1194 531 
Q 1563 422 1919 422 
Q 2459 422 2753 634 
Q 3047 847 3047 1241 
Q 3047 1584 2836 1778 
Q 2625 1972 2144 2069 
L 1759 2144 
Q 1053 2284 737 2584 
Q 422 2884 422 3419 
Q 422 4038 858 4394 
Q 1294 4750 2059 4750 
Q 2388 4750 2728 4690 
Q 3069 4631 3425 4513 
z
" transform="scale(0.015625)"/>
       <path id="DejaVuSans-63" d="M 3122 3366 
L 3122 2828 
Q 2878 2963 2633 3030 
Q 2388 3097 2138 3097 
Q 1578 3097 1268 2742 
Q 959 2388 959 1747 
Q 959 1106 1268 751 
Q 1578 397 2138 397 
Q 2388 397 2633 464 
Q 2878 531 3122 666 
L 3122 134 
Q 2881 22 2623 -34 
Q 2366 -91 2075 -91 
Q 1284 -91 818 406 
Q 353 903 353 1747 
Q 353 2603 823 3093 
Q 1294 3584 2113 3584 
Q 2378 3584 2631 3529 
Q 2884 3475 3122 3366 
z
" transform="scale(0.015625)"/>
       <path id="DejaVuSans-6f" d="M 1959 3097 
Q 1497 3097 1228 2736 
Q 959 2375 959 1747 
Q 959 1119 1226 758 
Q 1494 397 1959 397 
Q 2419 397 2687 759 
Q 2956 1122 2956 1747 
Q 2956 2369 2687 2733 
Q 2419 3097 1959 3097 
z
M 1959 3584 
Q 2709 3584 3137 3096 
Q 3566 2609 3566 1747 
Q 3566 888 3137 398 
Q 2709 -91 1959 -91 
Q 1206 -91 779 398 
Q 353 888 353 1747 
Q 353 2609 779 3096 
Q 1206 3584 1959 3584 
z
" transform="scale(0.015625)"/>
      </defs>
      <use xlink:href="#DejaVuSans-46"/>
      <use xlink:href="#DejaVuSans-31" x="57.519531"/>
      <use xlink:href="#DejaVuSans-20" x="121.142578"/>
      <use xlink:href="#DejaVuSans-53" x="152.929688"/>
      <use xlink:href="#DejaVuSans-63" x="216.40625"/>
      <use xlink:href="#DejaVuSans-6f" x="271.386719"/>
      <use xlink:href="#DejaVuSans-72" x="332.568359"/>
      <use xlink:href="#DejaVuSans-65" x="371.431641"/>
     </g>
    </g>
   </g>
  </g>
  <g id="text_31">
   <!-- Yearly F1 scores (fuel system) -->
   <g transform="translate(140.689687 16.030125) scale(0.12 -0.12)">
    <defs>
     <path id="DejaVuSans-6c" d="M 603 4863 
L 1178 4863 
L 1178 0 
L 603 0 
L 603 4863 
z
" transform="scale(0.015625)"/>
     <path id="DejaVuSans-79" d="M 2059 -325 
Q 1816 -950 1584 -1140 
Q 1353 -1331 966 -1331 
L 506 -1331 
L 506 -850 
L 844 -850 
Q 1081 -850 1212 -737 
Q 1344 -625 1503 -206 
L 1606 56 
L 191 3500 
L 800 3500 
L 1894 763 
L 2988 3500 
L 3597 3500 
L 2059 -325 
z
" transform="scale(0.015625)"/>
     <path id="DejaVuSans-28" d="M 1984 4856 
Q 1566 4138 1362 3434 
Q 1159 2731 1159 2009 
Q 1159 1288 1364 580 
Q 1569 -128 1984 -844 
L 1484 -844 
Q 1016 -109 783 600 
Q 550 1309 550 2009 
Q 550 2706 781 3412 
Q 1013 4119 1484 4856 
L 1984 4856 
z
" transform="scale(0.015625)"/>
     <path id="DejaVuSans-66" d="M 2375 4863 
L 2375 4384 
L 1825 4384 
Q 1516 4384 1395 4259 
Q 1275 4134 1275 3809 
L 1275 3500 
L 2222 3500 
L 2222 3053 
L 1275 3053 
L 1275 0 
L 697 0 
L 697 3053 
L 147 3053 
L 147 3500 
L 697 3500 
L 697 3744 
Q 697 4328 969 4595 
Q 1241 4863 1831 4863 
L 2375 4863 
z
" transform="scale(0.015625)"/>
     <path id="DejaVuSans-75" d="M 544 1381 
L 544 3500 
L 1119 3500 
L 1119 1403 
Q 1119 906 1312 657 
Q 1506 409 1894 409 
Q 2359 409 2629 706 
Q 2900 1003 2900 1516 
L 2900 3500 
L 3475 3500 
L 3475 0 
L 2900 0 
L 2900 538 
Q 2691 219 2414 64 
Q 2138 -91 1772 -91 
Q 1169 -91 856 284 
Q 544 659 544 1381 
z
M 1991 3584 
L 1991 3584 
z
" transform="scale(0.015625)"/>
     <path id="DejaVuSans-74" d="M 1172 4494 
L 1172 3500 
L 2356 3500 
L 2356 3053 
L 1172 3053 
L 1172 1153 
Q 1172 725 1289 603 
Q 1406 481 1766 481 
L 2356 481 
L 2356 0 
L 1766 0 
Q 1100 0 847 248 
Q 594 497 594 1153 
L 594 3053 
L 172 3053 
L 172 3500 
L 594 3500 
L 594 4494 
L 1172 4494 
z
" transform="scale(0.015625)"/>
     <path id="DejaVuSans-6d" d="M 3328 2828 
Q 3544 3216 3844 3400 
Q 4144 3584 4550 3584 
Q 5097 3584 5394 3201 
Q 5691 2819 5691 2113 
L 5691 0 
L 5113 0 
L 5113 2094 
Q 5113 2597 4934 2840 
Q 4756 3084 4391 3084 
Q 3944 3084 3684 2787 
Q 3425 2491 3425 1978 
L 3425 0 
L 2847 0 
L 2847 2094 
Q 2847 2600 2669 2842 
Q 2491 3084 2119 3084 
Q 1678 3084 1418 2786 
Q 1159 2488 1159 1978 
L 1159 0 
L 581 0 
L 581 3500 
L 1159 3500 
L 1159 2956 
Q 1356 3278 1631 3431 
Q 1906 3584 2284 3584 
Q 2666 3584 2933 3390 
Q 3200 3197 3328 2828 
z
" transform="scale(0.015625)"/>
     <path id="DejaVuSans-29" d="M 513 4856 
L 1013 4856 
Q 1481 4119 1714 3412 
Q 1947 2706 1947 2009 
Q 1947 1309 1714 600 
Q 1481 -109 1013 -844 
L 513 -844 
Q 928 -128 1133 580 
Q 1338 1288 1338 2009 
Q 1338 2731 1133 3434 
Q 928 4138 513 4856 
z
" transform="scale(0.015625)"/>
    </defs>
    <use xlink:href="#DejaVuSans-59"/>
    <use xlink:href="#DejaVuSans-65" x="47.833984"/>
    <use xlink:href="#DejaVuSans-61" x="109.357422"/>
    <use xlink:href="#DejaVuSans-72" x="170.636719"/>
    <use xlink:href="#DejaVuSans-6c" x="211.75"/>
    <use xlink:href="#DejaVuSans-79" x="239.533203"/>
    <use xlink:href="#DejaVuSans-20" x="298.712891"/>
    <use xlink:href="#DejaVuSans-46" x="330.5"/>
    <use xlink:href="#DejaVuSans-31" x="388.019531"/>
    <use xlink:href="#DejaVuSans-20" x="451.642578"/>
    <use xlink:href="#DejaVuSans-73" x="483.429688"/>
    <use xlink:href="#DejaVuSans-63" x="535.529297"/>
    <use xlink:href="#DejaVuSans-6f" x="590.509766"/>
    <use xlink:href="#DejaVuSans-72" x="651.691406"/>
    <use xlink:href="#DejaVuSans-65" x="690.554688"/>
    <use xlink:href="#DejaVuSans-73" x="752.078125"/>
    <use xlink:href="#DejaVuSans-20" x="804.177734"/>
    <use xlink:href="#DejaVuSans-28" x="835.964844"/>
    <use xlink:href="#DejaVuSans-66" x="874.978516"/>
    <use xlink:href="#DejaVuSans-75" x="910.183594"/>
    <use xlink:href="#DejaVuSans-65" x="973.5625"/>
    <use xlink:href="#DejaVuSans-6c" x="1035.085938"/>
    <use xlink:href="#DejaVuSans-20" x="1062.869141"/>
    <use xlink:href="#DejaVuSans-73" x="1094.65625"/>
    <use xlink:href="#DejaVuSans-79" x="1146.755859"/>
    <use xlink:href="#DejaVuSans-73" x="1205.935547"/>
    <use xlink:href="#DejaVuSans-74" x="1258.035156"/>
    <use xlink:href="#DejaVuSans-65" x="1297.244141"/>
    <use xlink:href="#DejaVuSans-6d" x="1358.767578"/>
    <use xlink:href="#DejaVuSans-29" x="1456.179688"/>
   </g>
  </g>
 </g>
 <defs>
  <clipPath id="p17915216af">
   <rect x="70.47" y="38.52" width="371.61" height="73.146667"/>
  </clipPath>
  <clipPath id="p994bb89829">
   <rect x="70.47" y="125.966667" width="371.61" height="73.146667"/>
  </clipPath>
  <clipPath id="p1cbc68faf4">
   <rect x="70.47" y="213.413333" width="371.61" height="73.146667"/>
  </clipPath>
 </defs>
</svg>
