<?xml version="1.0" encoding="utf-8" standalone="no"?>
<!DOCTYPE svg PUBLIC "-//W3C//DTD SVG 1.1//EN"
  "http://www.w3.org/Graphics/SVG/1.1/DTD/svg11.dtd">
<svg xmlns:xlink="http://www.w3.org/1999/xlink" width="460.8pt" height="345.6pt" viewBox="0 0 460.8 345.6" xmlns="http://www.w3.org/2000/svg" version="1.1">
 <metadata>
  <rdf:RDF xmlns:dc="http://purl.org/dc/elements/1.1/" xmlns:cc="http://creativecommons.org/ns#" xmlns:rdf="http://www.w3.org/1999/02/22-rdf-syntax-ns#">
   <cc:Work>
    <dc:type rdf:resource="http://purl.org/dc/dcmitype/StillImage"/>
    <dc:date>2023-12-06T07:58:02.564636</dc:date>
    <dc:format>image/svg+xml</dc:format>
    <dc:creator>
     <cc:Agent>
      <dc:title>Matplotlib v3.7.1, https://matplotlib.org/</dc:title>
     </cc:Agent>
    </dc:creator>
   </cc:Work>
  </rdf:RDF>
 </metadata>
 <defs>
  <style type="text/css">*{stroke-linejoin: round; stroke-linecap: butt}</style>
 </defs>
 <g id="figure_1">
  <g id="patch_1">
   <path d="M 0 345.6 
L 460.8 345.6 
L 460.8 0 
L 0 0 
z
" style="fill: #ffffff"/>
  </g>
  <g id="axes_1">
   <g id="patch_2">
    <path d="M 67.41 154.996364 
L 440.197849 154.996364 
L 440.197849 54.6 
L 67.41 54.6 
z
" style="fill: #ffffff"/>
   </g>
   <g id="matplotlib.axis_1">
    <g id="xtick_1">
     <g id="line2d_1">
      <defs>
       <path id="meb75685a2f" d="M 0 0 
L 0 3.5 
" style="stroke: #000000; stroke-width: 0.8"/>
      </defs>
      <g>
       <use xlink:href="#meb75685a2f" x="84.354902" y="154.996364" style="stroke: #000000; stroke-width: 0.8"/>
      </g>
     </g>
    </g>
    <g id="xtick_2">
     <g id="line2d_2">
      <g>
       <use xlink:href="#meb75685a2f" x="118.801515" y="154.996364" style="stroke: #000000; stroke-width: 0.8"/>
      </g>
     </g>
    </g>
    <g id="xtick_3">
     <g id="line2d_3">
      <g>
       <use xlink:href="#meb75685a2f" x="153.248128" y="154.996364" style="stroke: #000000; stroke-width: 0.8"/>
      </g>
     </g>
    </g>
    <g id="xtick_4">
     <g id="line2d_4">
      <g>
       <use xlink:href="#meb75685a2f" x="187.789115" y="154.996364" style="stroke: #000000; stroke-width: 0.8"/>
      </g>
     </g>
    </g>
    <g id="xtick_5">
     <g id="line2d_5">
      <g>
       <use xlink:href="#meb75685a2f" x="222.235727" y="154.996364" style="stroke: #000000; stroke-width: 0.8"/>
      </g>
     </g>
    </g>
    <g id="xtick_6">
     <g id="line2d_6">
      <g>
       <use xlink:href="#meb75685a2f" x="256.68234" y="154.996364" style="stroke: #000000; stroke-width: 0.8"/>
      </g>
     </g>
    </g>
    <g id="xtick_7">
     <g id="line2d_7">
      <g>
       <use xlink:href="#meb75685a2f" x="291.128953" y="154.996364" style="stroke: #000000; stroke-width: 0.8"/>
      </g>
     </g>
    </g>
    <g id="xtick_8">
     <g id="line2d_8">
      <g>
       <use xlink:href="#meb75685a2f" x="325.66994" y="154.996364" style="stroke: #000000; stroke-width: 0.8"/>
      </g>
     </g>
    </g>
    <g id="xtick_9">
     <g id="line2d_9">
      <g>
       <use xlink:href="#meb75685a2f" x="360.116553" y="154.996364" style="stroke: #000000; stroke-width: 0.8"/>
      </g>
     </g>
    </g>
    <g id="xtick_10">
     <g id="line2d_10">
      <g>
       <use xlink:href="#meb75685a2f" x="394.563165" y="154.996364" style="stroke: #000000; stroke-width: 0.8"/>
      </g>
     </g>
    </g>
    <g id="xtick_11">
     <g id="line2d_11">
      <g>
       <use xlink:href="#meb75685a2f" x="429.009778" y="154.996364" style="stroke: #000000; stroke-width: 0.8"/>
      </g>
     </g>
    </g>
   </g>
   <g id="matplotlib.axis_2">
    <g id="ytick_1">
     <g id="line2d_12">
      <defs>
       <path id="m4d85640a06" d="M 0 0 
L -3.5 0 
" style="stroke: #000000; stroke-width: 0.8"/>
      </defs>
      <g>
       <use xlink:href="#m4d85640a06" x="67.41" y="153.475207" style="stroke: #000000; stroke-width: 0.8"/>
      </g>
     </g>
     <g id="text_1">
      <!-- 0 -->
      <g transform="translate(54.0475 157.274425) scale(0.1 -0.1)">
       <defs>
        <path id="DejaVuSans-30" d="M 2034 4250 
Q 1547 4250 1301 3770 
Q 1056 3291 1056 2328 
Q 1056 1369 1301 889 
Q 1547 409 2034 409 
Q 2525 409 2770 889 
Q 3016 1369 3016 2328 
Q 3016 3291 2770 3770 
Q 2525 4250 2034 4250 
z
M 2034 4750 
Q 2819 4750 3233 4129 
Q 3647 3509 3647 2328 
Q 3647 1150 3233 529 
Q 2819 -91 2034 -91 
Q 1250 -91 836 529 
Q 422 1150 422 2328 
Q 422 3509 836 4129 
Q 1250 4750 2034 4750 
z
" transform="scale(0.015625)"/>
       </defs>
       <use xlink:href="#DejaVuSans-30"/>
      </g>
     </g>
    </g>
    <g id="ytick_2">
     <g id="line2d_13">
      <g>
       <use xlink:href="#m4d85640a06" x="67.41" y="123.052066" style="stroke: #000000; stroke-width: 0.8"/>
      </g>
     </g>
     <g id="text_2">
      <!-- 10 -->
      <g transform="translate(47.685 126.851285) scale(0.1 -0.1)">
       <defs>
        <path id="DejaVuSans-31" d="M 794 531 
L 1825 531 
L 1825 4091 
L 703 3866 
L 703 4441 
L 1819 4666 
L 2450 4666 
L 2450 531 
L 3481 531 
L 3481 0 
L 794 0 
L 794 531 
z
" transform="scale(0.015625)"/>
       </defs>
       <use xlink:href="#DejaVuSans-31"/>
       <use xlink:href="#DejaVuSans-30" x="63.623047"/>
      </g>
     </g>
    </g>
    <g id="ytick_3">
     <g id="line2d_14">
      <g>
       <use xlink:href="#m4d85640a06" x="67.41" y="92.628926" style="stroke: #000000; stroke-width: 0.8"/>
      </g>
     </g>
     <g id="text_3">
      <!-- 20 -->
      <g transform="translate(47.685 96.428144) scale(0.1 -0.1)">
       <defs>
        <path id="DejaVuSans-32" d="M 1228 531 
L 3431 531 
L 3431 0 
L 469 0 
L 469 531 
Q 828 903 1448 1529 
Q 2069 2156 2228 2338 
Q 2531 2678 2651 2914 
Q 2772 3150 2772 3378 
Q 2772 3750 2511 3984 
Q 2250 4219 1831 4219 
Q 1534 4219 1204 4116 
Q 875 4013 500 3803 
L 500 4441 
Q 881 4594 1212 4672 
Q 1544 4750 1819 4750 
Q 2544 4750 2975 4387 
Q 3406 4025 3406 3419 
Q 3406 3131 3298 2873 
Q 3191 2616 2906 2266 
Q 2828 2175 2409 1742 
Q 1991 1309 1228 531 
z
" transform="scale(0.015625)"/>
       </defs>
       <use xlink:href="#DejaVuSans-32"/>
       <use xlink:href="#DejaVuSans-30" x="63.623047"/>
      </g>
     </g>
    </g>
    <g id="ytick_4">
     <g id="line2d_15">
      <g>
       <use xlink:href="#m4d85640a06" x="67.41" y="62.205785" style="stroke: #000000; stroke-width: 0.8"/>
      </g>
     </g>
     <g id="text_4">
      <!-- 30 -->
      <g transform="translate(47.685 66.005004) scale(0.1 -0.1)">
       <defs>
        <path id="DejaVuSans-33" d="M 2597 2516 
Q 3050 2419 3304 2112 
Q 3559 1806 3559 1356 
Q 3559 666 3084 287 
Q 2609 -91 1734 -91 
Q 1441 -91 1130 -33 
Q 819 25 488 141 
L 488 750 
Q 750 597 1062 519 
Q 1375 441 1716 441 
Q 2309 441 2620 675 
Q 2931 909 2931 1356 
Q 2931 1769 2642 2001 
Q 2353 2234 1838 2234 
L 1294 2234 
L 1294 2753 
L 1863 2753 
Q 2328 2753 2575 2939 
Q 2822 3125 2822 3475 
Q 2822 3834 2567 4026 
Q 2313 4219 1838 4219 
Q 1578 4219 1281 4162 
Q 984 4106 628 3988 
L 628 4550 
Q 988 4650 1302 4700 
Q 1616 4750 1894 4750 
Q 2613 4750 3031 4423 
Q 3450 4097 3450 3541 
Q 3450 3153 3228 2886 
Q 3006 2619 2597 2516 
z
" transform="scale(0.015625)"/>
       </defs>
       <use xlink:href="#DejaVuSans-33"/>
       <use xlink:href="#DejaVuSans-30" x="63.623047"/>
      </g>
     </g>
    </g>
   </g>
   <g id="line2d_16">
    <path d="M 84.354902 132.179008 
L 87.280505 138.263636 
L 89.922985 98.713554 
L 92.848588 123.052066 
L 95.679816 92.628926 
L 98.605419 113.925124 
L 101.436647 129.136694 
L 104.36225 120.009752 
L 107.287853 150.432893 
L 110.119081 150.432893 
L 115.875912 126.09438 
L 118.801515 141.30595 
L 124.369598 150.432893 
L 127.2952 150.432893 
L 130.126429 150.432893 
L 135.88326 150.432893 
L 147.491297 150.432893 
L 153.248128 150.432893 
L 164.667416 150.432893 
L 167.593018 150.432893 
L 176.275452 150.432893 
L 179.106681 150.432893 
L 182.032284 150.432893 
L 184.863512 141.30595 
L 187.789115 147.390579 
L 190.714717 147.390579 
L 202.039631 150.432893 
L 204.87086 150.432893 
L 227.80381 150.432893 
L 230.729413 150.432893 
L 236.486244 150.432893 
L 259.607943 150.432893 
L 262.250423 150.432893 
L 265.176025 144.348264 
L 268.007254 150.432893 
L 273.764085 150.432893 
L 276.689688 147.390579 
L 285.372122 150.432893 
L 296.79141 147.390579 
L 302.548241 132.179008 
L 305.473844 110.88281 
L 308.305072 116.967438 
L 311.230675 132.179008 
L 314.156278 141.30595 
L 322.744337 144.348264 
L 325.66994 147.390579 
L 328.595543 150.432893 
L 331.238023 147.390579 
L 334.163625 150.432893 
L 336.994854 147.390579 
L 339.920456 150.432893 
L 342.751685 141.30595 
L 345.677288 150.432893 
L 348.60289 144.348264 
L 354.359721 150.432893 
L 357.19095 150.432893 
L 360.116553 144.348264 
L 365.684635 147.390579 
L 371.441466 144.348264 
L 374.367069 147.390579 
L 377.198298 135.221322 
L 380.1239 65.248099 
L 383.049503 113.925124 
L 385.880731 126.09438 
L 388.806334 144.348264 
L 391.637563 144.348264 
L 394.563165 150.432893 
L 400.131248 147.390579 
L 411.64491 150.432893 
L 414.570513 144.348264 
L 417.496116 144.348264 
L 420.327344 144.348264 
L 423.252947 138.263636 
" clip-path="url(#p86e5623a7a)" style="fill: none; stroke: #1f77b4; stroke-width: 1.5; stroke-linecap: square"/>
   </g>
   <g id="line2d_17">
    <path d="M 176.275452 150.432893 
L 227.80381 150.432893 
L 296.79141 150.432893 
L 302.548241 150.432893 
L 305.473844 141.30595 
L 308.305072 141.30595 
L 339.920456 150.432893 
L 365.684635 150.432893 
L 380.1239 150.432893 
L 383.049503 150.432893 
" clip-path="url(#p86e5623a7a)" style="fill: none; stroke: #ff7f0e; stroke-width: 1.5; stroke-linecap: square"/>
   </g>
   <g id="line2d_18">
    <path d="M 84.354902 135.221322 
L 87.280505 141.30595 
L 89.922985 113.925124 
L 92.848588 135.221322 
L 95.679816 107.840496 
L 98.605419 129.136694 
L 101.436647 135.221322 
L 104.36225 135.221322 
L 107.287853 150.432893 
L 110.119081 150.432893 
L 115.875912 135.221322 
L 118.801515 141.30595 
L 124.369598 150.432893 
L 127.2952 150.432893 
L 130.126429 150.432893 
L 147.491297 150.432893 
L 153.248128 150.432893 
L 164.667416 150.432893 
L 176.275452 150.432893 
L 182.032284 150.432893 
L 184.863512 147.390579 
L 187.789115 150.432893 
L 227.80381 150.432893 
L 230.729413 150.432893 
L 236.486244 150.432893 
L 276.689688 150.432893 
L 296.79141 150.432893 
L 302.548241 135.221322 
L 305.473844 116.967438 
L 308.305072 123.052066 
L 311.230675 138.263636 
L 314.156278 144.348264 
L 322.744337 150.432893 
L 328.595543 150.432893 
L 331.238023 147.390579 
L 336.994854 150.432893 
L 339.920456 150.432893 
L 342.751685 144.348264 
L 348.60289 147.390579 
L 354.359721 150.432893 
L 357.19095 150.432893 
L 360.116553 147.390579 
L 365.684635 147.390579 
L 371.441466 147.390579 
L 374.367069 147.390579 
L 377.198298 141.30595 
L 380.1239 83.501983 
L 383.049503 123.052066 
L 385.880731 126.09438 
L 388.806334 144.348264 
L 391.637563 150.432893 
L 394.563165 150.432893 
L 400.131248 147.390579 
L 411.64491 150.432893 
L 414.570513 144.348264 
L 417.496116 150.432893 
L 420.327344 144.348264 
L 423.252947 141.30595 
" clip-path="url(#p86e5623a7a)" style="fill: none; stroke: #2ca02c; stroke-width: 1.5; stroke-linecap: square"/>
   </g>
   <g id="line2d_19">
    <path d="M 84.354902 135.221322 
L 87.280505 141.30595 
L 89.922985 113.925124 
L 92.848588 135.221322 
L 95.679816 110.88281 
L 98.605419 132.179008 
L 101.436647 135.221322 
L 104.36225 135.221322 
L 107.287853 150.432893 
L 110.119081 150.432893 
L 115.875912 135.221322 
L 118.801515 141.30595 
L 124.369598 150.432893 
L 127.2952 150.432893 
L 130.126429 150.432893 
L 147.491297 150.432893 
L 153.248128 150.432893 
L 164.667416 150.432893 
L 176.275452 150.432893 
L 184.863512 147.390579 
L 187.789115 150.432893 
L 227.80381 150.432893 
L 230.729413 150.432893 
L 236.486244 150.432893 
L 296.79141 150.432893 
L 302.548241 138.263636 
L 305.473844 116.967438 
L 308.305072 129.136694 
L 311.230675 141.30595 
L 314.156278 150.432893 
L 322.744337 150.432893 
L 328.595543 150.432893 
L 331.238023 147.390579 
L 336.994854 150.432893 
L 339.920456 150.432893 
L 342.751685 144.348264 
L 348.60289 150.432893 
L 354.359721 150.432893 
L 357.19095 150.432893 
L 360.116553 147.390579 
L 365.684635 147.390579 
L 371.441466 150.432893 
L 374.367069 147.390579 
L 377.198298 147.390579 
L 380.1239 86.544298 
L 383.049503 123.052066 
L 385.880731 144.348264 
L 388.806334 144.348264 
L 391.637563 150.432893 
L 400.131248 147.390579 
L 411.64491 150.432893 
L 414.570513 147.390579 
L 417.496116 150.432893 
L 420.327344 144.348264 
L 423.252947 144.348264 
" clip-path="url(#p86e5623a7a)" style="fill: none; stroke: #d62728; stroke-width: 1.5; stroke-linecap: square"/>
   </g>
   <g id="patch_3">
    <path d="M 67.41 154.996364 
L 67.41 54.6 
" style="fill: none; stroke: #000000; stroke-width: 0.8; stroke-linejoin: miter; stroke-linecap: square"/>
   </g>
   <g id="patch_4">
    <path d="M 440.197849 154.996364 
L 440.197849 54.6 
" style="fill: none; stroke: #000000; stroke-width: 0.8; stroke-linejoin: miter; stroke-linecap: square"/>
   </g>
   <g id="patch_5">
    <path d="M 67.41 154.996364 
L 440.197849 154.996364 
" style="fill: none; stroke: #000000; stroke-width: 0.8; stroke-linejoin: miter; stroke-linecap: square"/>
   </g>
   <g id="patch_6">
    <path d="M 67.41 54.6 
L 440.197849 54.6 
" style="fill: none; stroke: #000000; stroke-width: 0.8; stroke-linejoin: miter; stroke-linecap: square"/>
   </g>
   <g id="text_5">
    <!-- TP -->
    <g transform="translate(246.521425 48.6) scale(0.12 -0.12)">
     <defs>
      <path id="DejaVuSans-54" d="M -19 4666 
L 3928 4666 
L 3928 4134 
L 2272 4134 
L 2272 0 
L 1638 0 
L 1638 4134 
L -19 4134 
L -19 4666 
z
" transform="scale(0.015625)"/>
      <path id="DejaVuSans-50" d="M 1259 4147 
L 1259 2394 
L 2053 2394 
Q 2494 2394 2734 2622 
Q 2975 2850 2975 3272 
Q 2975 3691 2734 3919 
Q 2494 4147 2053 4147 
L 1259 4147 
z
M 628 4666 
L 2053 4666 
Q 2838 4666 3239 4311 
Q 3641 3956 3641 3272 
Q 3641 2581 3239 2228 
Q 2838 1875 2053 1875 
L 1259 1875 
L 1259 0 
L 628 0 
L 628 4666 
z
" transform="scale(0.015625)"/>
     </defs>
     <use xlink:href="#DejaVuSans-54"/>
     <use xlink:href="#DejaVuSans-50" x="61.083984"/>
    </g>
   </g>
   <g id="legend_1">
    <g id="patch_7">
     <path d="M 177.392987 122.146875 
L 330.214862 122.146875 
Q 332.214862 122.146875 332.214862 120.146875 
L 332.214862 61.6 
Q 332.214862 59.6 330.214862 59.6 
L 177.392987 59.6 
Q 175.392987 59.6 175.392987 61.6 
L 175.392987 120.146875 
Q 175.392987 122.146875 177.392987 122.146875 
z
" style="fill: #ffffff; opacity: 0.8; stroke: #cccccc; stroke-linejoin: miter"/>
    </g>
    <g id="line2d_20">
     <path d="M 179.392987 67.698438 
L 189.392987 67.698438 
L 199.392987 67.698438 
" style="fill: none; stroke: #1f77b4; stroke-width: 1.5; stroke-linecap: square"/>
    </g>
    <g id="text_6">
     <!-- actual -->
     <g transform="translate(207.392987 71.198438) scale(0.1 -0.1)">
      <defs>
       <path id="DejaVuSans-61" d="M 2194 1759 
Q 1497 1759 1228 1600 
Q 959 1441 959 1056 
Q 959 750 1161 570 
Q 1363 391 1709 391 
Q 2188 391 2477 730 
Q 2766 1069 2766 1631 
L 2766 1759 
L 2194 1759 
z
M 3341 1997 
L 3341 0 
L 2766 0 
L 2766 531 
Q 2569 213 2275 61 
Q 1981 -91 1556 -91 
Q 1019 -91 701 211 
Q 384 513 384 1019 
Q 384 1609 779 1909 
Q 1175 2209 1959 2209 
L 2766 2209 
L 2766 2266 
Q 2766 2663 2505 2880 
Q 2244 3097 1772 3097 
Q 1472 3097 1187 3025 
Q 903 2953 641 2809 
L 641 3341 
Q 956 3463 1253 3523 
Q 1550 3584 1831 3584 
Q 2591 3584 2966 3190 
Q 3341 2797 3341 1997 
z
" transform="scale(0.015625)"/>
       <path id="DejaVuSans-63" d="M 3122 3366 
L 3122 2828 
Q 2878 2963 2633 3030 
Q 2388 3097 2138 3097 
Q 1578 3097 1268 2742 
Q 959 2388 959 1747 
Q 959 1106 1268 751 
Q 1578 397 2138 397 
Q 2388 397 2633 464 
Q 2878 531 3122 666 
L 3122 134 
Q 2881 22 2623 -34 
Q 2366 -91 2075 -91 
Q 1284 -91 818 406 
Q 353 903 353 1747 
Q 353 2603 823 3093 
Q 1294 3584 2113 3584 
Q 2378 3584 2631 3529 
Q 2884 3475 3122 3366 
z
" transform="scale(0.015625)"/>
       <path id="DejaVuSans-74" d="M 1172 4494 
L 1172 3500 
L 2356 3500 
L 2356 3053 
L 1172 3053 
L 1172 1153 
Q 1172 725 1289 603 
Q 1406 481 1766 481 
L 2356 481 
L 2356 0 
L 1766 0 
Q 1100 0 847 248 
Q 594 497 594 1153 
L 594 3053 
L 172 3053 
L 172 3500 
L 594 3500 
L 594 4494 
L 1172 4494 
z
" transform="scale(0.015625)"/>
       <path id="DejaVuSans-75" d="M 544 1381 
L 544 3500 
L 1119 3500 
L 1119 1403 
Q 1119 906 1312 657 
Q 1506 409 1894 409 
Q 2359 409 2629 706 
Q 2900 1003 2900 1516 
L 2900 3500 
L 3475 3500 
L 3475 0 
L 2900 0 
L 2900 538 
Q 2691 219 2414 64 
Q 2138 -91 1772 -91 
Q 1169 -91 856 284 
Q 544 659 544 1381 
z
M 1991 3584 
L 1991 3584 
z
" transform="scale(0.015625)"/>
       <path id="DejaVuSans-6c" d="M 603 4863 
L 1178 4863 
L 1178 0 
L 603 0 
L 603 4863 
z
" transform="scale(0.015625)"/>
      </defs>
      <use xlink:href="#DejaVuSans-61"/>
      <use xlink:href="#DejaVuSans-63" x="61.279297"/>
      <use xlink:href="#DejaVuSans-74" x="116.259766"/>
      <use xlink:href="#DejaVuSans-75" x="155.46875"/>
      <use xlink:href="#DejaVuSans-61" x="218.847656"/>
      <use xlink:href="#DejaVuSans-6c" x="280.126953"/>
     </g>
    </g>
    <g id="line2d_21">
     <path d="M 179.392987 82.376563 
L 189.392987 82.376563 
L 199.392987 82.376563 
" style="fill: none; stroke: #ff7f0e; stroke-width: 1.5; stroke-linecap: square"/>
    </g>
    <g id="text_7">
     <!-- prompt_no_parts -->
     <g transform="translate(207.392987 85.876563) scale(0.1 -0.1)">
      <defs>
       <path id="DejaVuSans-70" d="M 1159 525 
L 1159 -1331 
L 581 -1331 
L 581 3500 
L 1159 3500 
L 1159 2969 
Q 1341 3281 1617 3432 
Q 1894 3584 2278 3584 
Q 2916 3584 3314 3078 
Q 3713 2572 3713 1747 
Q 3713 922 3314 415 
Q 2916 -91 2278 -91 
Q 1894 -91 1617 61 
Q 1341 213 1159 525 
z
M 3116 1747 
Q 3116 2381 2855 2742 
Q 2594 3103 2138 3103 
Q 1681 3103 1420 2742 
Q 1159 2381 1159 1747 
Q 1159 1113 1420 752 
Q 1681 391 2138 391 
Q 2594 391 2855 752 
Q 3116 1113 3116 1747 
z
" transform="scale(0.015625)"/>
       <path id="DejaVuSans-72" d="M 2631 2963 
Q 2534 3019 2420 3045 
Q 2306 3072 2169 3072 
Q 1681 3072 1420 2755 
Q 1159 2438 1159 1844 
L 1159 0 
L 581 0 
L 581 3500 
L 1159 3500 
L 1159 2956 
Q 1341 3275 1631 3429 
Q 1922 3584 2338 3584 
Q 2397 3584 2469 3576 
Q 2541 3569 2628 3553 
L 2631 2963 
z
" transform="scale(0.015625)"/>
       <path id="DejaVuSans-6f" d="M 1959 3097 
Q 1497 3097 1228 2736 
Q 959 2375 959 1747 
Q 959 1119 1226 758 
Q 1494 397 1959 397 
Q 2419 397 2687 759 
Q 2956 1122 2956 1747 
Q 2956 2369 2687 2733 
Q 2419 3097 1959 3097 
z
M 1959 3584 
Q 2709 3584 3137 3096 
Q 3566 2609 3566 1747 
Q 3566 888 3137 398 
Q 2709 -91 1959 -91 
Q 1206 -91 779 398 
Q 353 888 353 1747 
Q 353 2609 779 3096 
Q 1206 3584 1959 3584 
z
" transform="scale(0.015625)"/>
       <path id="DejaVuSans-6d" d="M 3328 2828 
Q 3544 3216 3844 3400 
Q 4144 3584 4550 3584 
Q 5097 3584 5394 3201 
Q 5691 2819 5691 2113 
L 5691 0 
L 5113 0 
L 5113 2094 
Q 5113 2597 4934 2840 
Q 4756 3084 4391 3084 
Q 3944 3084 3684 2787 
Q 3425 2491 3425 1978 
L 3425 0 
L 2847 0 
L 2847 2094 
Q 2847 2600 2669 2842 
Q 2491 3084 2119 3084 
Q 1678 3084 1418 2786 
Q 1159 2488 1159 1978 
L 1159 0 
L 581 0 
L 581 3500 
L 1159 3500 
L 1159 2956 
Q 1356 3278 1631 3431 
Q 1906 3584 2284 3584 
Q 2666 3584 2933 3390 
Q 3200 3197 3328 2828 
z
" transform="scale(0.015625)"/>
       <path id="DejaVuSans-5f" d="M 3263 -1063 
L 3263 -1509 
L -63 -1509 
L -63 -1063 
L 3263 -1063 
z
" transform="scale(0.015625)"/>
       <path id="DejaVuSans-6e" d="M 3513 2113 
L 3513 0 
L 2938 0 
L 2938 2094 
Q 2938 2591 2744 2837 
Q 2550 3084 2163 3084 
Q 1697 3084 1428 2787 
Q 1159 2491 1159 1978 
L 1159 0 
L 581 0 
L 581 3500 
L 1159 3500 
L 1159 2956 
Q 1366 3272 1645 3428 
Q 1925 3584 2291 3584 
Q 2894 3584 3203 3211 
Q 3513 2838 3513 2113 
z
" transform="scale(0.015625)"/>
       <path id="DejaVuSans-73" d="M 2834 3397 
L 2834 2853 
Q 2591 2978 2328 3040 
Q 2066 3103 1784 3103 
Q 1356 3103 1142 2972 
Q 928 2841 928 2578 
Q 928 2378 1081 2264 
Q 1234 2150 1697 2047 
L 1894 2003 
Q 2506 1872 2764 1633 
Q 3022 1394 3022 966 
Q 3022 478 2636 193 
Q 2250 -91 1575 -91 
Q 1294 -91 989 -36 
Q 684 19 347 128 
L 347 722 
Q 666 556 975 473 
Q 1284 391 1588 391 
Q 1994 391 2212 530 
Q 2431 669 2431 922 
Q 2431 1156 2273 1281 
Q 2116 1406 1581 1522 
L 1381 1569 
Q 847 1681 609 1914 
Q 372 2147 372 2553 
Q 372 3047 722 3315 
Q 1072 3584 1716 3584 
Q 2034 3584 2315 3537 
Q 2597 3491 2834 3397 
z
" transform="scale(0.015625)"/>
      </defs>
      <use xlink:href="#DejaVuSans-70"/>
      <use xlink:href="#DejaVuSans-72" x="63.476562"/>
      <use xlink:href="#DejaVuSans-6f" x="102.339844"/>
      <use xlink:href="#DejaVuSans-6d" x="163.521484"/>
      <use xlink:href="#DejaVuSans-70" x="260.933594"/>
      <use xlink:href="#DejaVuSans-74" x="324.410156"/>
      <use xlink:href="#DejaVuSans-5f" x="363.619141"/>
      <use xlink:href="#DejaVuSans-6e" x="413.619141"/>
      <use xlink:href="#DejaVuSans-6f" x="476.998047"/>
      <use xlink:href="#DejaVuSans-5f" x="538.179688"/>
      <use xlink:href="#DejaVuSans-70" x="588.179688"/>
      <use xlink:href="#DejaVuSans-61" x="651.65625"/>
      <use xlink:href="#DejaVuSans-72" x="712.935547"/>
      <use xlink:href="#DejaVuSans-74" x="754.048828"/>
      <use xlink:href="#DejaVuSans-73" x="793.257812"/>
     </g>
    </g>
    <g id="line2d_22">
     <path d="M 179.392987 97.332813 
L 189.392987 97.332813 
L 199.392987 97.332813 
" style="fill: none; stroke: #2ca02c; stroke-width: 1.5; stroke-linecap: square"/>
    </g>
    <g id="text_8">
     <!-- prompt_with_parts -->
     <g transform="translate(207.392987 100.832813) scale(0.1 -0.1)">
      <defs>
       <path id="DejaVuSans-77" d="M 269 3500 
L 844 3500 
L 1563 769 
L 2278 3500 
L 2956 3500 
L 3675 769 
L 4391 3500 
L 4966 3500 
L 4050 0 
L 3372 0 
L 2619 2869 
L 1863 0 
L 1184 0 
L 269 3500 
z
" transform="scale(0.015625)"/>
       <path id="DejaVuSans-69" d="M 603 3500 
L 1178 3500 
L 1178 0 
L 603 0 
L 603 3500 
z
M 603 4863 
L 1178 4863 
L 1178 4134 
L 603 4134 
L 603 4863 
z
" transform="scale(0.015625)"/>
       <path id="DejaVuSans-68" d="M 3513 2113 
L 3513 0 
L 2938 0 
L 2938 2094 
Q 2938 2591 2744 2837 
Q 2550 3084 2163 3084 
Q 1697 3084 1428 2787 
Q 1159 2491 1159 1978 
L 1159 0 
L 581 0 
L 581 4863 
L 1159 4863 
L 1159 2956 
Q 1366 3272 1645 3428 
Q 1925 3584 2291 3584 
Q 2894 3584 3203 3211 
Q 3513 2838 3513 2113 
z
" transform="scale(0.015625)"/>
      </defs>
      <use xlink:href="#DejaVuSans-70"/>
      <use xlink:href="#DejaVuSans-72" x="63.476562"/>
      <use xlink:href="#DejaVuSans-6f" x="102.339844"/>
      <use xlink:href="#DejaVuSans-6d" x="163.521484"/>
      <use xlink:href="#DejaVuSans-70" x="260.933594"/>
      <use xlink:href="#DejaVuSans-74" x="324.410156"/>
      <use xlink:href="#DejaVuSans-5f" x="363.619141"/>
      <use xlink:href="#DejaVuSans-77" x="413.619141"/>
      <use xlink:href="#DejaVuSans-69" x="495.40625"/>
      <use xlink:href="#DejaVuSans-74" x="523.189453"/>
      <use xlink:href="#DejaVuSans-68" x="562.398438"/>
      <use xlink:href="#DejaVuSans-5f" x="625.777344"/>
      <use xlink:href="#DejaVuSans-70" x="675.777344"/>
      <use xlink:href="#DejaVuSans-61" x="739.253906"/>
      <use xlink:href="#DejaVuSans-72" x="800.533203"/>
      <use xlink:href="#DejaVuSans-74" x="841.646484"/>
      <use xlink:href="#DejaVuSans-73" x="880.855469"/>
     </g>
    </g>
    <g id="line2d_23">
     <path d="M 179.392987 112.289062 
L 189.392987 112.289062 
L 199.392987 112.289062 
" style="fill: none; stroke: #d62728; stroke-width: 1.5; stroke-linecap: square"/>
    </g>
    <g id="text_9">
     <!-- prompt_emergent_parts -->
     <g transform="translate(207.392987 115.789062) scale(0.1 -0.1)">
      <defs>
       <path id="DejaVuSans-65" d="M 3597 1894 
L 3597 1613 
L 953 1613 
Q 991 1019 1311 708 
Q 1631 397 2203 397 
Q 2534 397 2845 478 
Q 3156 559 3463 722 
L 3463 178 
Q 3153 47 2828 -22 
Q 2503 -91 2169 -91 
Q 1331 -91 842 396 
Q 353 884 353 1716 
Q 353 2575 817 3079 
Q 1281 3584 2069 3584 
Q 2775 3584 3186 3129 
Q 3597 2675 3597 1894 
z
M 3022 2063 
Q 3016 2534 2758 2815 
Q 2500 3097 2075 3097 
Q 1594 3097 1305 2825 
Q 1016 2553 972 2059 
L 3022 2063 
z
" transform="scale(0.015625)"/>
       <path id="DejaVuSans-67" d="M 2906 1791 
Q 2906 2416 2648 2759 
Q 2391 3103 1925 3103 
Q 1463 3103 1205 2759 
Q 947 2416 947 1791 
Q 947 1169 1205 825 
Q 1463 481 1925 481 
Q 2391 481 2648 825 
Q 2906 1169 2906 1791 
z
M 3481 434 
Q 3481 -459 3084 -895 
Q 2688 -1331 1869 -1331 
Q 1566 -1331 1297 -1286 
Q 1028 -1241 775 -1147 
L 775 -588 
Q 1028 -725 1275 -790 
Q 1522 -856 1778 -856 
Q 2344 -856 2625 -561 
Q 2906 -266 2906 331 
L 2906 616 
Q 2728 306 2450 153 
Q 2172 0 1784 0 
Q 1141 0 747 490 
Q 353 981 353 1791 
Q 353 2603 747 3093 
Q 1141 3584 1784 3584 
Q 2172 3584 2450 3431 
Q 2728 3278 2906 2969 
L 2906 3500 
L 3481 3500 
L 3481 434 
z
" transform="scale(0.015625)"/>
      </defs>
      <use xlink:href="#DejaVuSans-70"/>
      <use xlink:href="#DejaVuSans-72" x="63.476562"/>
      <use xlink:href="#DejaVuSans-6f" x="102.339844"/>
      <use xlink:href="#DejaVuSans-6d" x="163.521484"/>
      <use xlink:href="#DejaVuSans-70" x="260.933594"/>
      <use xlink:href="#DejaVuSans-74" x="324.410156"/>
      <use xlink:href="#DejaVuSans-5f" x="363.619141"/>
      <use xlink:href="#DejaVuSans-65" x="413.619141"/>
      <use xlink:href="#DejaVuSans-6d" x="475.142578"/>
      <use xlink:href="#DejaVuSans-65" x="572.554688"/>
      <use xlink:href="#DejaVuSans-72" x="634.078125"/>
      <use xlink:href="#DejaVuSans-67" x="673.441406"/>
      <use xlink:href="#DejaVuSans-65" x="736.917969"/>
      <use xlink:href="#DejaVuSans-6e" x="798.441406"/>
      <use xlink:href="#DejaVuSans-74" x="861.820312"/>
      <use xlink:href="#DejaVuSans-5f" x="901.029297"/>
      <use xlink:href="#DejaVuSans-70" x="951.029297"/>
      <use xlink:href="#DejaVuSans-61" x="1014.505859"/>
      <use xlink:href="#DejaVuSans-72" x="1075.785156"/>
      <use xlink:href="#DejaVuSans-74" x="1116.898438"/>
      <use xlink:href="#DejaVuSans-73" x="1156.107422"/>
     </g>
    </g>
   </g>
  </g>
  <g id="axes_2">
   <g id="patch_8">
    <path d="M 67.41 286.56 
L 440.197849 286.56 
L 440.197849 186.163636 
L 67.41 186.163636 
z
" style="fill: #ffffff"/>
   </g>
   <g id="matplotlib.axis_3">
    <g id="xtick_12">
     <g id="line2d_24">
      <g>
       <use xlink:href="#meb75685a2f" x="84.354902" y="286.56" style="stroke: #000000; stroke-width: 0.8"/>
      </g>
     </g>
     <g id="text_10">
      <!-- 2014 -->
      <g transform="translate(71.629902 301.158438) scale(0.1 -0.1)">
       <defs>
        <path id="DejaVuSans-34" d="M 2419 4116 
L 825 1625 
L 2419 1625 
L 2419 4116 
z
M 2253 4666 
L 3047 4666 
L 3047 1625 
L 3713 1625 
L 3713 1100 
L 3047 1100 
L 3047 0 
L 2419 0 
L 2419 1100 
L 313 1100 
L 313 1709 
L 2253 4666 
z
" transform="scale(0.015625)"/>
       </defs>
       <use xlink:href="#DejaVuSans-32"/>
       <use xlink:href="#DejaVuSans-30" x="63.623047"/>
       <use xlink:href="#DejaVuSans-31" x="127.246094"/>
       <use xlink:href="#DejaVuSans-34" x="190.869141"/>
      </g>
     </g>
    </g>
    <g id="xtick_13">
     <g id="line2d_25">
      <g>
       <use xlink:href="#meb75685a2f" x="118.801515" y="286.56" style="stroke: #000000; stroke-width: 0.8"/>
      </g>
     </g>
     <g id="text_11">
      <!-- 2015 -->
      <g transform="translate(106.076515 301.158438) scale(0.1 -0.1)">
       <defs>
        <path id="DejaVuSans-35" d="M 691 4666 
L 3169 4666 
L 3169 4134 
L 1269 4134 
L 1269 2991 
Q 1406 3038 1543 3061 
Q 1681 3084 1819 3084 
Q 2600 3084 3056 2656 
Q 3513 2228 3513 1497 
Q 3513 744 3044 326 
Q 2575 -91 1722 -91 
Q 1428 -91 1123 -41 
Q 819 9 494 109 
L 494 744 
Q 775 591 1075 516 
Q 1375 441 1709 441 
Q 2250 441 2565 725 
Q 2881 1009 2881 1497 
Q 2881 1984 2565 2268 
Q 2250 2553 1709 2553 
Q 1456 2553 1204 2497 
Q 953 2441 691 2322 
L 691 4666 
z
" transform="scale(0.015625)"/>
       </defs>
       <use xlink:href="#DejaVuSans-32"/>
       <use xlink:href="#DejaVuSans-30" x="63.623047"/>
       <use xlink:href="#DejaVuSans-31" x="127.246094"/>
       <use xlink:href="#DejaVuSans-35" x="190.869141"/>
      </g>
     </g>
    </g>
    <g id="xtick_14">
     <g id="line2d_26">
      <g>
       <use xlink:href="#meb75685a2f" x="153.248128" y="286.56" style="stroke: #000000; stroke-width: 0.8"/>
      </g>
     </g>
     <g id="text_12">
      <!-- 2016 -->
      <g transform="translate(140.523128 301.158438) scale(0.1 -0.1)">
       <defs>
        <path id="DejaVuSans-36" d="M 2113 2584 
Q 1688 2584 1439 2293 
Q 1191 2003 1191 1497 
Q 1191 994 1439 701 
Q 1688 409 2113 409 
Q 2538 409 2786 701 
Q 3034 994 3034 1497 
Q 3034 2003 2786 2293 
Q 2538 2584 2113 2584 
z
M 3366 4563 
L 3366 3988 
Q 3128 4100 2886 4159 
Q 2644 4219 2406 4219 
Q 1781 4219 1451 3797 
Q 1122 3375 1075 2522 
Q 1259 2794 1537 2939 
Q 1816 3084 2150 3084 
Q 2853 3084 3261 2657 
Q 3669 2231 3669 1497 
Q 3669 778 3244 343 
Q 2819 -91 2113 -91 
Q 1303 -91 875 529 
Q 447 1150 447 2328 
Q 447 3434 972 4092 
Q 1497 4750 2381 4750 
Q 2619 4750 2861 4703 
Q 3103 4656 3366 4563 
z
" transform="scale(0.015625)"/>
       </defs>
       <use xlink:href="#DejaVuSans-32"/>
       <use xlink:href="#DejaVuSans-30" x="63.623047"/>
       <use xlink:href="#DejaVuSans-31" x="127.246094"/>
       <use xlink:href="#DejaVuSans-36" x="190.869141"/>
      </g>
     </g>
    </g>
    <g id="xtick_15">
     <g id="line2d_27">
      <g>
       <use xlink:href="#meb75685a2f" x="187.789115" y="286.56" style="stroke: #000000; stroke-width: 0.8"/>
      </g>
     </g>
     <g id="text_13">
      <!-- 2017 -->
      <g transform="translate(175.064115 301.158438) scale(0.1 -0.1)">
       <defs>
        <path id="DejaVuSans-37" d="M 525 4666 
L 3525 4666 
L 3525 4397 
L 1831 0 
L 1172 0 
L 2766 4134 
L 525 4134 
L 525 4666 
z
" transform="scale(0.015625)"/>
       </defs>
       <use xlink:href="#DejaVuSans-32"/>
       <use xlink:href="#DejaVuSans-30" x="63.623047"/>
       <use xlink:href="#DejaVuSans-31" x="127.246094"/>
       <use xlink:href="#DejaVuSans-37" x="190.869141"/>
      </g>
     </g>
    </g>
    <g id="xtick_16">
     <g id="line2d_28">
      <g>
       <use xlink:href="#meb75685a2f" x="222.235727" y="286.56" style="stroke: #000000; stroke-width: 0.8"/>
      </g>
     </g>
     <g id="text_14">
      <!-- 2018 -->
      <g transform="translate(209.510727 301.158438) scale(0.1 -0.1)">
       <defs>
        <path id="DejaVuSans-38" d="M 2034 2216 
Q 1584 2216 1326 1975 
Q 1069 1734 1069 1313 
Q 1069 891 1326 650 
Q 1584 409 2034 409 
Q 2484 409 2743 651 
Q 3003 894 3003 1313 
Q 3003 1734 2745 1975 
Q 2488 2216 2034 2216 
z
M 1403 2484 
Q 997 2584 770 2862 
Q 544 3141 544 3541 
Q 544 4100 942 4425 
Q 1341 4750 2034 4750 
Q 2731 4750 3128 4425 
Q 3525 4100 3525 3541 
Q 3525 3141 3298 2862 
Q 3072 2584 2669 2484 
Q 3125 2378 3379 2068 
Q 3634 1759 3634 1313 
Q 3634 634 3220 271 
Q 2806 -91 2034 -91 
Q 1263 -91 848 271 
Q 434 634 434 1313 
Q 434 1759 690 2068 
Q 947 2378 1403 2484 
z
M 1172 3481 
Q 1172 3119 1398 2916 
Q 1625 2713 2034 2713 
Q 2441 2713 2670 2916 
Q 2900 3119 2900 3481 
Q 2900 3844 2670 4047 
Q 2441 4250 2034 4250 
Q 1625 4250 1398 4047 
Q 1172 3844 1172 3481 
z
" transform="scale(0.015625)"/>
       </defs>
       <use xlink:href="#DejaVuSans-32"/>
       <use xlink:href="#DejaVuSans-30" x="63.623047"/>
       <use xlink:href="#DejaVuSans-31" x="127.246094"/>
       <use xlink:href="#DejaVuSans-38" x="190.869141"/>
      </g>
     </g>
    </g>
    <g id="xtick_17">
     <g id="line2d_29">
      <g>
       <use xlink:href="#meb75685a2f" x="256.68234" y="286.56" style="stroke: #000000; stroke-width: 0.8"/>
      </g>
     </g>
     <g id="text_15">
      <!-- 2019 -->
      <g transform="translate(243.95734 301.158438) scale(0.1 -0.1)">
       <defs>
        <path id="DejaVuSans-39" d="M 703 97 
L 703 672 
Q 941 559 1184 500 
Q 1428 441 1663 441 
Q 2288 441 2617 861 
Q 2947 1281 2994 2138 
Q 2813 1869 2534 1725 
Q 2256 1581 1919 1581 
Q 1219 1581 811 2004 
Q 403 2428 403 3163 
Q 403 3881 828 4315 
Q 1253 4750 1959 4750 
Q 2769 4750 3195 4129 
Q 3622 3509 3622 2328 
Q 3622 1225 3098 567 
Q 2575 -91 1691 -91 
Q 1453 -91 1209 -44 
Q 966 3 703 97 
z
M 1959 2075 
Q 2384 2075 2632 2365 
Q 2881 2656 2881 3163 
Q 2881 3666 2632 3958 
Q 2384 4250 1959 4250 
Q 1534 4250 1286 3958 
Q 1038 3666 1038 3163 
Q 1038 2656 1286 2365 
Q 1534 2075 1959 2075 
z
" transform="scale(0.015625)"/>
       </defs>
       <use xlink:href="#DejaVuSans-32"/>
       <use xlink:href="#DejaVuSans-30" x="63.623047"/>
       <use xlink:href="#DejaVuSans-31" x="127.246094"/>
       <use xlink:href="#DejaVuSans-39" x="190.869141"/>
      </g>
     </g>
    </g>
    <g id="xtick_18">
     <g id="line2d_30">
      <g>
       <use xlink:href="#meb75685a2f" x="291.128953" y="286.56" style="stroke: #000000; stroke-width: 0.8"/>
      </g>
     </g>
     <g id="text_16">
      <!-- 2020 -->
      <g transform="translate(278.403953 301.158438) scale(0.1 -0.1)">
       <use xlink:href="#DejaVuSans-32"/>
       <use xlink:href="#DejaVuSans-30" x="63.623047"/>
       <use xlink:href="#DejaVuSans-32" x="127.246094"/>
       <use xlink:href="#DejaVuSans-30" x="190.869141"/>
      </g>
     </g>
    </g>
    <g id="xtick_19">
     <g id="line2d_31">
      <g>
       <use xlink:href="#meb75685a2f" x="325.66994" y="286.56" style="stroke: #000000; stroke-width: 0.8"/>
      </g>
     </g>
     <g id="text_17">
      <!-- 2021 -->
      <g transform="translate(312.94494 301.158438) scale(0.1 -0.1)">
       <use xlink:href="#DejaVuSans-32"/>
       <use xlink:href="#DejaVuSans-30" x="63.623047"/>
       <use xlink:href="#DejaVuSans-32" x="127.246094"/>
       <use xlink:href="#DejaVuSans-31" x="190.869141"/>
      </g>
     </g>
    </g>
    <g id="xtick_20">
     <g id="line2d_32">
      <g>
       <use xlink:href="#meb75685a2f" x="360.116553" y="286.56" style="stroke: #000000; stroke-width: 0.8"/>
      </g>
     </g>
     <g id="text_18">
      <!-- 2022 -->
      <g transform="translate(347.391553 301.158438) scale(0.1 -0.1)">
       <use xlink:href="#DejaVuSans-32"/>
       <use xlink:href="#DejaVuSans-30" x="63.623047"/>
       <use xlink:href="#DejaVuSans-32" x="127.246094"/>
       <use xlink:href="#DejaVuSans-32" x="190.869141"/>
      </g>
     </g>
    </g>
    <g id="xtick_21">
     <g id="line2d_33">
      <g>
       <use xlink:href="#meb75685a2f" x="394.563165" y="286.56" style="stroke: #000000; stroke-width: 0.8"/>
      </g>
     </g>
     <g id="text_19">
      <!-- 2023 -->
      <g transform="translate(381.838165 301.158438) scale(0.1 -0.1)">
       <use xlink:href="#DejaVuSans-32"/>
       <use xlink:href="#DejaVuSans-30" x="63.623047"/>
       <use xlink:href="#DejaVuSans-32" x="127.246094"/>
       <use xlink:href="#DejaVuSans-33" x="190.869141"/>
      </g>
     </g>
    </g>
    <g id="xtick_22">
     <g id="line2d_34">
      <g>
       <use xlink:href="#meb75685a2f" x="429.009778" y="286.56" style="stroke: #000000; stroke-width: 0.8"/>
      </g>
     </g>
     <g id="text_20">
      <!-- 2024 -->
      <g transform="translate(416.284778 301.158438) scale(0.1 -0.1)">
       <use xlink:href="#DejaVuSans-32"/>
       <use xlink:href="#DejaVuSans-30" x="63.623047"/>
       <use xlink:href="#DejaVuSans-32" x="127.246094"/>
       <use xlink:href="#DejaVuSans-34" x="190.869141"/>
      </g>
     </g>
    </g>
   </g>
   <g id="matplotlib.axis_4">
    <g id="ytick_5">
     <g id="line2d_35">
      <g>
       <use xlink:href="#m4d85640a06" x="67.41" y="285.038843" style="stroke: #000000; stroke-width: 0.8"/>
      </g>
     </g>
     <g id="text_21">
      <!-- 0 -->
      <g transform="translate(54.0475 288.838062) scale(0.1 -0.1)">
       <use xlink:href="#DejaVuSans-30"/>
      </g>
     </g>
    </g>
    <g id="ytick_6">
     <g id="line2d_36">
      <g>
       <use xlink:href="#m4d85640a06" x="67.41" y="254.615702" style="stroke: #000000; stroke-width: 0.8"/>
      </g>
     </g>
     <g id="text_22">
      <!-- 10 -->
      <g transform="translate(47.685 258.414921) scale(0.1 -0.1)">
       <use xlink:href="#DejaVuSans-31"/>
       <use xlink:href="#DejaVuSans-30" x="63.623047"/>
      </g>
     </g>
    </g>
    <g id="ytick_7">
     <g id="line2d_37">
      <g>
       <use xlink:href="#m4d85640a06" x="67.41" y="224.192562" style="stroke: #000000; stroke-width: 0.8"/>
      </g>
     </g>
     <g id="text_23">
      <!-- 20 -->
      <g transform="translate(47.685 227.991781) scale(0.1 -0.1)">
       <use xlink:href="#DejaVuSans-32"/>
       <use xlink:href="#DejaVuSans-30" x="63.623047"/>
      </g>
     </g>
    </g>
    <g id="ytick_8">
     <g id="line2d_38">
      <g>
       <use xlink:href="#m4d85640a06" x="67.41" y="193.769421" style="stroke: #000000; stroke-width: 0.8"/>
      </g>
     </g>
     <g id="text_24">
      <!-- 30 -->
      <g transform="translate(47.685 197.56864) scale(0.1 -0.1)">
       <use xlink:href="#DejaVuSans-33"/>
       <use xlink:href="#DejaVuSans-30" x="63.623047"/>
      </g>
     </g>
    </g>
   </g>
   <g id="line2d_39">
    <path d="M 84.354902 263.742645 
L 87.280505 269.827273 
L 89.922985 230.27719 
L 92.848588 254.615702 
L 95.679816 224.192562 
L 98.605419 245.48876 
L 101.436647 260.700331 
L 104.36225 251.573388 
L 107.287853 281.996529 
L 110.119081 281.996529 
L 115.875912 257.658017 
L 118.801515 272.869587 
L 124.369598 281.996529 
L 127.2952 281.996529 
L 130.126429 281.996529 
L 135.88326 281.996529 
L 147.491297 281.996529 
L 153.248128 281.996529 
L 164.667416 281.996529 
L 167.593018 281.996529 
L 176.275452 281.996529 
L 179.106681 281.996529 
L 182.032284 281.996529 
L 184.863512 272.869587 
L 187.789115 278.954215 
L 190.714717 278.954215 
L 202.039631 281.996529 
L 204.87086 281.996529 
L 227.80381 281.996529 
L 230.729413 281.996529 
L 236.486244 281.996529 
L 259.607943 281.996529 
L 262.250423 281.996529 
L 265.176025 275.911901 
L 268.007254 281.996529 
L 273.764085 281.996529 
L 276.689688 278.954215 
L 285.372122 281.996529 
L 296.79141 278.954215 
L 302.548241 263.742645 
L 305.473844 242.446446 
L 308.305072 248.531074 
L 311.230675 263.742645 
L 314.156278 272.869587 
L 322.744337 275.911901 
L 325.66994 278.954215 
L 328.595543 281.996529 
L 331.238023 278.954215 
L 334.163625 281.996529 
L 336.994854 278.954215 
L 339.920456 281.996529 
L 342.751685 272.869587 
L 345.677288 281.996529 
L 348.60289 275.911901 
L 354.359721 281.996529 
L 357.19095 281.996529 
L 360.116553 275.911901 
L 365.684635 278.954215 
L 371.441466 275.911901 
L 374.367069 278.954215 
L 377.198298 266.784959 
L 380.1239 196.811736 
L 383.049503 245.48876 
L 385.880731 257.658017 
L 388.806334 275.911901 
L 391.637563 275.911901 
L 394.563165 281.996529 
L 400.131248 278.954215 
L 411.64491 281.996529 
L 414.570513 275.911901 
L 417.496116 275.911901 
L 420.327344 275.911901 
L 423.252947 269.827273 
" clip-path="url(#p3229e7a549)" style="fill: none; stroke: #1f77b4; stroke-width: 1.5; stroke-linecap: square"/>
   </g>
   <g id="line2d_40">
    <path d="M 107.287853 281.996529 
L 176.275452 278.954215 
L 227.80381 281.996529 
L 296.79141 278.954215 
L 302.548241 281.996529 
L 305.473844 272.869587 
L 308.305072 272.869587 
L 316.987506 281.996529 
L 339.920456 281.996529 
L 365.684635 281.996529 
L 380.1239 278.954215 
L 383.049503 281.996529 
L 417.496116 278.954215 
" clip-path="url(#p3229e7a549)" style="fill: none; stroke: #ff7f0e; stroke-width: 1.5; stroke-linecap: square"/>
   </g>
   <g id="line2d_41">
    <path d="M 84.354902 251.573388 
L 87.280505 272.869587 
L 89.922985 242.446446 
L 92.848588 254.615702 
L 95.679816 224.192562 
L 98.605419 260.700331 
L 101.436647 263.742645 
L 104.36225 257.658017 
L 107.287853 272.869587 
L 110.119081 269.827273 
L 115.875912 263.742645 
L 118.801515 266.784959 
L 121.727118 275.911901 
L 124.369598 272.869587 
L 127.2952 260.700331 
L 130.126429 272.869587 
L 135.88326 278.954215 
L 138.808863 281.996529 
L 141.734465 278.954215 
L 144.565694 275.911901 
L 147.491297 272.869587 
L 150.322525 272.869587 
L 153.248128 278.954215 
L 156.17373 278.954215 
L 158.910585 275.911901 
L 161.836187 281.996529 
L 164.667416 281.996529 
L 167.593018 269.827273 
L 173.34985 278.954215 
L 176.275452 260.700331 
L 179.106681 269.827273 
L 182.032284 269.827273 
L 184.863512 272.869587 
L 187.789115 272.869587 
L 190.714717 281.996529 
L 193.357197 269.827273 
L 199.114028 263.742645 
L 202.039631 275.911901 
L 204.87086 281.996529 
L 210.722065 281.996529 
L 213.553294 266.784959 
L 216.478896 272.869587 
L 219.310125 275.911901 
L 222.235727 281.996529 
L 225.16133 278.954215 
L 227.80381 275.911901 
L 230.729413 272.869587 
L 233.560641 278.954215 
L 236.486244 272.869587 
L 239.317472 281.996529 
L 242.243075 275.911901 
L 245.168678 263.742645 
L 247.999906 281.996529 
L 253.756737 281.996529 
L 256.68234 275.911901 
L 259.607943 278.954215 
L 262.250423 275.911901 
L 265.176025 278.954215 
L 268.007254 278.954215 
L 270.932857 278.954215 
L 273.764085 269.827273 
L 276.689688 281.996529 
L 279.615291 272.869587 
L 282.446519 281.996529 
L 285.372122 281.996529 
L 288.20335 275.911901 
L 291.128953 278.954215 
L 294.054556 272.869587 
L 296.79141 278.954215 
L 299.717013 275.911901 
L 302.548241 254.615702 
L 305.473844 242.446446 
L 308.305072 242.446446 
L 311.230675 260.700331 
L 314.156278 266.784959 
L 316.987506 266.784959 
L 319.913109 269.827273 
L 322.744337 278.954215 
L 325.66994 272.869587 
L 328.595543 266.784959 
L 331.238023 257.658017 
L 334.163625 278.954215 
L 336.994854 281.996529 
L 339.920456 281.996529 
L 342.751685 275.911901 
L 345.677288 275.911901 
L 348.60289 266.784959 
L 351.434119 281.996529 
L 354.359721 278.954215 
L 357.19095 281.996529 
L 360.116553 272.869587 
L 363.042155 281.996529 
L 365.684635 272.869587 
L 368.610238 275.911901 
L 371.441466 275.911901 
L 374.367069 263.742645 
L 377.198298 263.742645 
L 380.1239 193.769421 
L 383.049503 239.404132 
L 385.880731 248.531074 
L 388.806334 260.700331 
L 391.637563 272.869587 
L 394.563165 275.911901 
L 397.488768 269.827273 
L 400.131248 269.827273 
L 403.056851 275.911901 
L 405.888079 263.742645 
L 408.813682 272.869587 
L 411.64491 257.658017 
L 414.570513 245.48876 
L 417.496116 278.954215 
L 420.327344 257.658017 
L 423.252947 266.784959 
" clip-path="url(#p3229e7a549)" style="fill: none; stroke: #2ca02c; stroke-width: 1.5; stroke-linecap: square"/>
   </g>
   <g id="line2d_42">
    <path d="M 84.354902 254.615702 
L 87.280505 272.869587 
L 89.922985 242.446446 
L 92.848588 254.615702 
L 95.679816 227.234876 
L 98.605419 263.742645 
L 101.436647 263.742645 
L 104.36225 257.658017 
L 107.287853 269.827273 
L 110.119081 278.954215 
L 115.875912 263.742645 
L 118.801515 266.784959 
L 121.727118 272.869587 
L 124.369598 266.784959 
L 127.2952 263.742645 
L 130.126429 272.869587 
L 135.88326 278.954215 
L 141.734465 278.954215 
L 144.565694 275.911901 
L 147.491297 278.954215 
L 150.322525 272.869587 
L 153.248128 278.954215 
L 156.17373 278.954215 
L 158.910585 281.996529 
L 161.836187 281.996529 
L 164.667416 281.996529 
L 167.593018 272.869587 
L 173.34985 278.954215 
L 176.275452 254.615702 
L 179.106681 266.784959 
L 182.032284 272.869587 
L 184.863512 278.954215 
L 187.789115 275.911901 
L 190.714717 281.996529 
L 193.357197 272.869587 
L 199.114028 272.869587 
L 202.039631 275.911901 
L 210.722065 281.996529 
L 213.553294 272.869587 
L 216.478896 275.911901 
L 219.310125 275.911901 
L 225.16133 281.996529 
L 227.80381 269.827273 
L 230.729413 272.869587 
L 233.560641 281.996529 
L 236.486244 269.827273 
L 239.317472 281.996529 
L 242.243075 275.911901 
L 245.168678 269.827273 
L 247.999906 281.996529 
L 253.756737 281.996529 
L 256.68234 275.911901 
L 259.607943 278.954215 
L 262.250423 272.869587 
L 265.176025 275.911901 
L 268.007254 275.911901 
L 270.932857 278.954215 
L 273.764085 269.827273 
L 276.689688 281.996529 
L 279.615291 278.954215 
L 282.446519 278.954215 
L 285.372122 281.996529 
L 288.20335 275.911901 
L 291.128953 278.954215 
L 294.054556 275.911901 
L 296.79141 272.869587 
L 299.717013 275.911901 
L 302.548241 257.658017 
L 305.473844 242.446446 
L 308.305072 251.573388 
L 311.230675 257.658017 
L 314.156278 272.869587 
L 316.987506 266.784959 
L 319.913109 269.827273 
L 322.744337 278.954215 
L 325.66994 266.784959 
L 328.595543 272.869587 
L 331.238023 257.658017 
L 334.163625 278.954215 
L 336.994854 281.996529 
L 339.920456 275.911901 
L 342.751685 266.784959 
L 345.677288 275.911901 
L 348.60289 272.869587 
L 351.434119 281.996529 
L 354.359721 275.911901 
L 357.19095 278.954215 
L 360.116553 269.827273 
L 363.042155 281.996529 
L 365.684635 269.827273 
L 368.610238 275.911901 
L 371.441466 281.996529 
L 374.367069 263.742645 
L 377.198298 266.784959 
L 380.1239 190.727107 
L 383.049503 239.404132 
L 385.880731 266.784959 
L 388.806334 266.784959 
L 391.637563 272.869587 
L 394.563165 266.784959 
L 397.488768 275.911901 
L 400.131248 263.742645 
L 403.056851 272.869587 
L 405.888079 251.573388 
L 408.813682 266.784959 
L 411.64491 257.658017 
L 414.570513 245.48876 
L 417.496116 269.827273 
L 420.327344 236.361818 
L 423.252947 266.784959 
" clip-path="url(#p3229e7a549)" style="fill: none; stroke: #d62728; stroke-width: 1.5; stroke-linecap: square"/>
   </g>
   <g id="patch_9">
    <path d="M 67.41 286.56 
L 67.41 186.163636 
" style="fill: none; stroke: #000000; stroke-width: 0.8; stroke-linejoin: miter; stroke-linecap: square"/>
   </g>
   <g id="patch_10">
    <path d="M 440.197849 286.56 
L 440.197849 186.163636 
" style="fill: none; stroke: #000000; stroke-width: 0.8; stroke-linejoin: miter; stroke-linecap: square"/>
   </g>
   <g id="patch_11">
    <path d="M 67.41 286.56 
L 440.197849 286.56 
" style="fill: none; stroke: #000000; stroke-width: 0.8; stroke-linejoin: miter; stroke-linecap: square"/>
   </g>
   <g id="patch_12">
    <path d="M 67.41 186.163636 
L 440.197849 186.163636 
" style="fill: none; stroke: #000000; stroke-width: 0.8; stroke-linejoin: miter; stroke-linecap: square"/>
   </g>
   <g id="text_25">
    <!-- TP+FP -->
    <g transform="translate(234.424862 180.163636) scale(0.12 -0.12)">
     <defs>
      <path id="DejaVuSans-2b" d="M 2944 4013 
L 2944 2272 
L 4684 2272 
L 4684 1741 
L 2944 1741 
L 2944 0 
L 2419 0 
L 2419 1741 
L 678 1741 
L 678 2272 
L 2419 2272 
L 2419 4013 
L 2944 4013 
z
" transform="scale(0.015625)"/>
      <path id="DejaVuSans-46" d="M 628 4666 
L 3309 4666 
L 3309 4134 
L 1259 4134 
L 1259 2759 
L 3109 2759 
L 3109 2228 
L 1259 2228 
L 1259 0 
L 628 0 
L 628 4666 
z
" transform="scale(0.015625)"/>
     </defs>
     <use xlink:href="#DejaVuSans-54"/>
     <use xlink:href="#DejaVuSans-50" x="61.083984"/>
     <use xlink:href="#DejaVuSans-2b" x="121.386719"/>
     <use xlink:href="#DejaVuSans-46" x="205.175781"/>
     <use xlink:href="#DejaVuSans-50" x="262.695312"/>
    </g>
   </g>
   <g id="legend_2">
    <g id="patch_13">
     <path d="M 177.392987 253.710511 
L 330.214862 253.710511 
Q 332.214862 253.710511 332.214862 251.710511 
L 332.214862 193.163636 
Q 332.214862 191.163636 330.214862 191.163636 
L 177.392987 191.163636 
Q 175.392987 191.163636 175.392987 193.163636 
L 175.392987 251.710511 
Q 175.392987 253.710511 177.392987 253.710511 
z
" style="fill: #ffffff; opacity: 0.8; stroke: #cccccc; stroke-linejoin: miter"/>
    </g>
    <g id="line2d_43">
     <path d="M 179.392987 199.262074 
L 189.392987 199.262074 
L 199.392987 199.262074 
" style="fill: none; stroke: #1f77b4; stroke-width: 1.5; stroke-linecap: square"/>
    </g>
    <g id="text_26">
     <!-- actual -->
     <g transform="translate(207.392987 202.762074) scale(0.1 -0.1)">
      <use xlink:href="#DejaVuSans-61"/>
      <use xlink:href="#DejaVuSans-63" x="61.279297"/>
      <use xlink:href="#DejaVuSans-74" x="116.259766"/>
      <use xlink:href="#DejaVuSans-75" x="155.46875"/>
      <use xlink:href="#DejaVuSans-61" x="218.847656"/>
      <use xlink:href="#DejaVuSans-6c" x="280.126953"/>
     </g>
    </g>
    <g id="line2d_44">
     <path d="M 179.392987 213.940199 
L 189.392987 213.940199 
L 199.392987 213.940199 
" style="fill: none; stroke: #ff7f0e; stroke-width: 1.5; stroke-linecap: square"/>
    </g>
    <g id="text_27">
     <!-- prompt_no_parts -->
     <g transform="translate(207.392987 217.440199) scale(0.1 -0.1)">
      <use xlink:href="#DejaVuSans-70"/>
      <use xlink:href="#DejaVuSans-72" x="63.476562"/>
      <use xlink:href="#DejaVuSans-6f" x="102.339844"/>
      <use xlink:href="#DejaVuSans-6d" x="163.521484"/>
      <use xlink:href="#DejaVuSans-70" x="260.933594"/>
      <use xlink:href="#DejaVuSans-74" x="324.410156"/>
      <use xlink:href="#DejaVuSans-5f" x="363.619141"/>
      <use xlink:href="#DejaVuSans-6e" x="413.619141"/>
      <use xlink:href="#DejaVuSans-6f" x="476.998047"/>
      <use xlink:href="#DejaVuSans-5f" x="538.179688"/>
      <use xlink:href="#DejaVuSans-70" x="588.179688"/>
      <use xlink:href="#DejaVuSans-61" x="651.65625"/>
      <use xlink:href="#DejaVuSans-72" x="712.935547"/>
      <use xlink:href="#DejaVuSans-74" x="754.048828"/>
      <use xlink:href="#DejaVuSans-73" x="793.257812"/>
     </g>
    </g>
    <g id="line2d_45">
     <path d="M 179.392987 228.896449 
L 189.392987 228.896449 
L 199.392987 228.896449 
" style="fill: none; stroke: #2ca02c; stroke-width: 1.5; stroke-linecap: square"/>
    </g>
    <g id="text_28">
     <!-- prompt_with_parts -->
     <g transform="translate(207.392987 232.396449) scale(0.1 -0.1)">
      <use xlink:href="#DejaVuSans-70"/>
      <use xlink:href="#DejaVuSans-72" x="63.476562"/>
      <use xlink:href="#DejaVuSans-6f" x="102.339844"/>
      <use xlink:href="#DejaVuSans-6d" x="163.521484"/>
      <use xlink:href="#DejaVuSans-70" x="260.933594"/>
      <use xlink:href="#DejaVuSans-74" x="324.410156"/>
      <use xlink:href="#DejaVuSans-5f" x="363.619141"/>
      <use xlink:href="#DejaVuSans-77" x="413.619141"/>
      <use xlink:href="#DejaVuSans-69" x="495.40625"/>
      <use xlink:href="#DejaVuSans-74" x="523.189453"/>
      <use xlink:href="#DejaVuSans-68" x="562.398438"/>
      <use xlink:href="#DejaVuSans-5f" x="625.777344"/>
      <use xlink:href="#DejaVuSans-70" x="675.777344"/>
      <use xlink:href="#DejaVuSans-61" x="739.253906"/>
      <use xlink:href="#DejaVuSans-72" x="800.533203"/>
      <use xlink:href="#DejaVuSans-74" x="841.646484"/>
      <use xlink:href="#DejaVuSans-73" x="880.855469"/>
     </g>
    </g>
    <g id="line2d_46">
     <path d="M 179.392987 243.852699 
L 189.392987 243.852699 
L 199.392987 243.852699 
" style="fill: none; stroke: #d62728; stroke-width: 1.5; stroke-linecap: square"/>
    </g>
    <g id="text_29">
     <!-- prompt_emergent_parts -->
     <g transform="translate(207.392987 247.352699) scale(0.1 -0.1)">
      <use xlink:href="#DejaVuSans-70"/>
      <use xlink:href="#DejaVuSans-72" x="63.476562"/>
      <use xlink:href="#DejaVuSans-6f" x="102.339844"/>
      <use xlink:href="#DejaVuSans-6d" x="163.521484"/>
      <use xlink:href="#DejaVuSans-70" x="260.933594"/>
      <use xlink:href="#DejaVuSans-74" x="324.410156"/>
      <use xlink:href="#DejaVuSans-5f" x="363.619141"/>
      <use xlink:href="#DejaVuSans-65" x="413.619141"/>
      <use xlink:href="#DejaVuSans-6d" x="475.142578"/>
      <use xlink:href="#DejaVuSans-65" x="572.554688"/>
      <use xlink:href="#DejaVuSans-72" x="634.078125"/>
      <use xlink:href="#DejaVuSans-67" x="673.441406"/>
      <use xlink:href="#DejaVuSans-65" x="736.917969"/>
      <use xlink:href="#DejaVuSans-6e" x="798.441406"/>
      <use xlink:href="#DejaVuSans-74" x="861.820312"/>
      <use xlink:href="#DejaVuSans-5f" x="901.029297"/>
      <use xlink:href="#DejaVuSans-70" x="951.029297"/>
      <use xlink:href="#DejaVuSans-61" x="1014.505859"/>
      <use xlink:href="#DejaVuSans-72" x="1075.785156"/>
      <use xlink:href="#DejaVuSans-74" x="1116.898438"/>
      <use xlink:href="#DejaVuSans-73" x="1156.107422"/>
     </g>
    </g>
   </g>
  </g>
  <g id="axes_3">
   <g id="matplotlib.axis_5">
    <g id="xtick_23">
     <g id="text_30">
      <!-- 0.0 -->
      <g style="opacity: 0" transform="translate(59.458438 301.158437) scale(0.1 -0.1)">
       <defs>
        <path id="DejaVuSans-2e" d="M 684 794 
L 1344 794 
L 1344 0 
L 684 0 
L 684 794 
z
" transform="scale(0.015625)"/>
       </defs>
       <use xlink:href="#DejaVuSans-30"/>
       <use xlink:href="#DejaVuSans-2e" x="63.623047"/>
       <use xlink:href="#DejaVuSans-30" x="95.410156"/>
      </g>
     </g>
    </g>
    <g id="xtick_24">
     <g id="text_31">
      <!-- 0.2 -->
      <g style="opacity: 0" transform="translate(134.016007 301.158437) scale(0.1 -0.1)">
       <use xlink:href="#DejaVuSans-30"/>
       <use xlink:href="#DejaVuSans-2e" x="63.623047"/>
       <use xlink:href="#DejaVuSans-32" x="95.410156"/>
      </g>
     </g>
    </g>
    <g id="xtick_25">
     <g id="text_32">
      <!-- 0.4 -->
      <g style="opacity: 0" transform="translate(208.573577 301.158437) scale(0.1 -0.1)">
       <use xlink:href="#DejaVuSans-30"/>
       <use xlink:href="#DejaVuSans-2e" x="63.623047"/>
       <use xlink:href="#DejaVuSans-34" x="95.410156"/>
      </g>
     </g>
    </g>
    <g id="xtick_26">
     <g id="text_33">
      <!-- 0.6 -->
      <g style="opacity: 0" transform="translate(283.131147 301.158437) scale(0.1 -0.1)">
       <use xlink:href="#DejaVuSans-30"/>
       <use xlink:href="#DejaVuSans-2e" x="63.623047"/>
       <use xlink:href="#DejaVuSans-36" x="95.410156"/>
      </g>
     </g>
    </g>
    <g id="xtick_27">
     <g id="text_34">
      <!-- 0.8 -->
      <g style="opacity: 0" transform="translate(357.688717 301.158437) scale(0.1 -0.1)">
       <use xlink:href="#DejaVuSans-30"/>
       <use xlink:href="#DejaVuSans-2e" x="63.623047"/>
       <use xlink:href="#DejaVuSans-38" x="95.410156"/>
      </g>
     </g>
    </g>
    <g id="xtick_28">
     <g id="text_35">
      <!-- 1.0 -->
      <g style="opacity: 0" transform="translate(432.246287 301.158437) scale(0.1 -0.1)">
       <use xlink:href="#DejaVuSans-31"/>
       <use xlink:href="#DejaVuSans-2e" x="63.623047"/>
       <use xlink:href="#DejaVuSans-30" x="95.410156"/>
      </g>
     </g>
    </g>
    <g id="text_36">
     <!-- Months -->
     <g transform="translate(235.528143 314.836563) scale(0.1 -0.1)">
      <defs>
       <path id="DejaVuSans-4d" d="M 628 4666 
L 1569 4666 
L 2759 1491 
L 3956 4666 
L 4897 4666 
L 4897 0 
L 4281 0 
L 4281 4097 
L 3078 897 
L 2444 897 
L 1241 4097 
L 1241 0 
L 628 0 
L 628 4666 
z
" transform="scale(0.015625)"/>
      </defs>
      <use xlink:href="#DejaVuSans-4d"/>
      <use xlink:href="#DejaVuSans-6f" x="86.279297"/>
      <use xlink:href="#DejaVuSans-6e" x="147.460938"/>
      <use xlink:href="#DejaVuSans-74" x="210.839844"/>
      <use xlink:href="#DejaVuSans-68" x="250.048828"/>
      <use xlink:href="#DejaVuSans-73" x="313.427734"/>
     </g>
    </g>
   </g>
   <g id="matplotlib.axis_6">
    <g id="ytick_9">
     <g id="text_37">
      <!-- 0.0 -->
      <g style="opacity: 0" transform="translate(44.506875 290.359219) scale(0.1 -0.1)">
       <use xlink:href="#DejaVuSans-30"/>
       <use xlink:href="#DejaVuSans-2e" x="63.623047"/>
       <use xlink:href="#DejaVuSans-30" x="95.410156"/>
      </g>
     </g>
    </g>
    <g id="ytick_10">
     <g id="text_38">
      <!-- 0.2 -->
      <g style="opacity: 0" transform="translate(44.506875 243.967219) scale(0.1 -0.1)">
       <use xlink:href="#DejaVuSans-30"/>
       <use xlink:href="#DejaVuSans-2e" x="63.623047"/>
       <use xlink:href="#DejaVuSans-32" x="95.410156"/>
      </g>
     </g>
    </g>
    <g id="ytick_11">
     <g id="text_39">
      <!-- 0.4 -->
      <g style="opacity: 0" transform="translate(44.506875 197.575219) scale(0.1 -0.1)">
       <use xlink:href="#DejaVuSans-30"/>
       <use xlink:href="#DejaVuSans-2e" x="63.623047"/>
       <use xlink:href="#DejaVuSans-34" x="95.410156"/>
      </g>
     </g>
    </g>
    <g id="ytick_12">
     <g id="text_40">
      <!-- 0.6 -->
      <g style="opacity: 0" transform="translate(44.506875 151.183219) scale(0.1 -0.1)">
       <use xlink:href="#DejaVuSans-30"/>
       <use xlink:href="#DejaVuSans-2e" x="63.623047"/>
       <use xlink:href="#DejaVuSans-36" x="95.410156"/>
      </g>
     </g>
    </g>
    <g id="ytick_13">
     <g id="text_41">
      <!-- 0.8 -->
      <g style="opacity: 0" transform="translate(44.506875 104.791219) scale(0.1 -0.1)">
       <use xlink:href="#DejaVuSans-30"/>
       <use xlink:href="#DejaVuSans-2e" x="63.623047"/>
       <use xlink:href="#DejaVuSans-38" x="95.410156"/>
      </g>
     </g>
    </g>
    <g id="ytick_14">
     <g id="text_42">
      <!-- 1.0 -->
      <g style="opacity: 0" transform="translate(44.506875 58.399219) scale(0.1 -0.1)">
       <use xlink:href="#DejaVuSans-31"/>
       <use xlink:href="#DejaVuSans-2e" x="63.623047"/>
       <use xlink:href="#DejaVuSans-30" x="95.410156"/>
      </g>
     </g>
    </g>
    <g id="text_43">
     <!-- Complaint counts -->
     <g transform="translate(38.427188 214.446406) rotate(-90) scale(0.1 -0.1)">
      <defs>
       <path id="DejaVuSans-43" d="M 4122 4306 
L 4122 3641 
Q 3803 3938 3442 4084 
Q 3081 4231 2675 4231 
Q 1875 4231 1450 3742 
Q 1025 3253 1025 2328 
Q 1025 1406 1450 917 
Q 1875 428 2675 428 
Q 3081 428 3442 575 
Q 3803 722 4122 1019 
L 4122 359 
Q 3791 134 3420 21 
Q 3050 -91 2638 -91 
Q 1578 -91 968 557 
Q 359 1206 359 2328 
Q 359 3453 968 4101 
Q 1578 4750 2638 4750 
Q 3056 4750 3426 4639 
Q 3797 4528 4122 4306 
z
" transform="scale(0.015625)"/>
       <path id="DejaVuSans-20" transform="scale(0.015625)"/>
      </defs>
      <use xlink:href="#DejaVuSans-43"/>
      <use xlink:href="#DejaVuSans-6f" x="69.824219"/>
      <use xlink:href="#DejaVuSans-6d" x="131.005859"/>
      <use xlink:href="#DejaVuSans-70" x="228.417969"/>
      <use xlink:href="#DejaVuSans-6c" x="291.894531"/>
      <use xlink:href="#DejaVuSans-61" x="319.677734"/>
      <use xlink:href="#DejaVuSans-69" x="380.957031"/>
      <use xlink:href="#DejaVuSans-6e" x="408.740234"/>
      <use xlink:href="#DejaVuSans-74" x="472.119141"/>
      <use xlink:href="#DejaVuSans-20" x="511.328125"/>
      <use xlink:href="#DejaVuSans-63" x="543.115234"/>
      <use xlink:href="#DejaVuSans-6f" x="598.095703"/>
      <use xlink:href="#DejaVuSans-75" x="659.277344"/>
      <use xlink:href="#DejaVuSans-6e" x="722.65625"/>
      <use xlink:href="#DejaVuSans-74" x="786.035156"/>
      <use xlink:href="#DejaVuSans-73" x="825.244141"/>
     </g>
    </g>
   </g>
  </g>
  <g id="text_44">
   <!-- 2014-2023 Hyundai Engine fuel system complaints -->
   <g transform="translate(76.896563 16.030125) scale(0.12 -0.12)">
    <defs>
     <path id="DejaVuSans-2d" d="M 313 2009 
L 1997 2009 
L 1997 1497 
L 313 1497 
L 313 2009 
z
" transform="scale(0.015625)"/>
     <path id="DejaVuSans-48" d="M 628 4666 
L 1259 4666 
L 1259 2753 
L 3553 2753 
L 3553 4666 
L 4184 4666 
L 4184 0 
L 3553 0 
L 3553 2222 
L 1259 2222 
L 1259 0 
L 628 0 
L 628 4666 
z
" transform="scale(0.015625)"/>
     <path id="DejaVuSans-79" d="M 2059 -325 
Q 1816 -950 1584 -1140 
Q 1353 -1331 966 -1331 
L 506 -1331 
L 506 -850 
L 844 -850 
Q 1081 -850 1212 -737 
Q 1344 -625 1503 -206 
L 1606 56 
L 191 3500 
L 800 3500 
L 1894 763 
L 2988 3500 
L 3597 3500 
L 2059 -325 
z
" transform="scale(0.015625)"/>
     <path id="DejaVuSans-64" d="M 2906 2969 
L 2906 4863 
L 3481 4863 
L 3481 0 
L 2906 0 
L 2906 525 
Q 2725 213 2448 61 
Q 2172 -91 1784 -91 
Q 1150 -91 751 415 
Q 353 922 353 1747 
Q 353 2572 751 3078 
Q 1150 3584 1784 3584 
Q 2172 3584 2448 3432 
Q 2725 3281 2906 2969 
z
M 947 1747 
Q 947 1113 1208 752 
Q 1469 391 1925 391 
Q 2381 391 2643 752 
Q 2906 1113 2906 1747 
Q 2906 2381 2643 2742 
Q 2381 3103 1925 3103 
Q 1469 3103 1208 2742 
Q 947 2381 947 1747 
z
" transform="scale(0.015625)"/>
     <path id="DejaVuSans-45" d="M 628 4666 
L 3578 4666 
L 3578 4134 
L 1259 4134 
L 1259 2753 
L 3481 2753 
L 3481 2222 
L 1259 2222 
L 1259 531 
L 3634 531 
L 3634 0 
L 628 0 
L 628 4666 
z
" transform="scale(0.015625)"/>
     <path id="DejaVuSans-66" d="M 2375 4863 
L 2375 4384 
L 1825 4384 
Q 1516 4384 1395 4259 
Q 1275 4134 1275 3809 
L 1275 3500 
L 2222 3500 
L 2222 3053 
L 1275 3053 
L 1275 0 
L 697 0 
L 697 3053 
L 147 3053 
L 147 3500 
L 697 3500 
L 697 3744 
Q 697 4328 969 4595 
Q 1241 4863 1831 4863 
L 2375 4863 
z
" transform="scale(0.015625)"/>
    </defs>
    <use xlink:href="#DejaVuSans-32"/>
    <use xlink:href="#DejaVuSans-30" x="63.623047"/>
    <use xlink:href="#DejaVuSans-31" x="127.246094"/>
    <use xlink:href="#DejaVuSans-34" x="190.869141"/>
    <use xlink:href="#DejaVuSans-2d" x="254.492188"/>
    <use xlink:href="#DejaVuSans-32" x="290.576172"/>
    <use xlink:href="#DejaVuSans-30" x="354.199219"/>
    <use xlink:href="#DejaVuSans-32" x="417.822266"/>
    <use xlink:href="#DejaVuSans-33" x="481.445312"/>
    <use xlink:href="#DejaVuSans-20" x="545.068359"/>
    <use xlink:href="#DejaVuSans-48" x="576.855469"/>
    <use xlink:href="#DejaVuSans-79" x="652.050781"/>
    <use xlink:href="#DejaVuSans-75" x="711.230469"/>
    <use xlink:href="#DejaVuSans-6e" x="774.609375"/>
    <use xlink:href="#DejaVuSans-64" x="837.988281"/>
    <use xlink:href="#DejaVuSans-61" x="901.464844"/>
    <use xlink:href="#DejaVuSans-69" x="962.744141"/>
    <use xlink:href="#DejaVuSans-20" x="990.527344"/>
    <use xlink:href="#DejaVuSans-45" x="1022.314453"/>
    <use xlink:href="#DejaVuSans-6e" x="1085.498047"/>
    <use xlink:href="#DejaVuSans-67" x="1148.876953"/>
    <use xlink:href="#DejaVuSans-69" x="1212.353516"/>
    <use xlink:href="#DejaVuSans-6e" x="1240.136719"/>
    <use xlink:href="#DejaVuSans-65" x="1303.515625"/>
    <use xlink:href="#DejaVuSans-20" x="1365.039062"/>
    <use xlink:href="#DejaVuSans-66" x="1396.826172"/>
    <use xlink:href="#DejaVuSans-75" x="1432.03125"/>
    <use xlink:href="#DejaVuSans-65" x="1495.410156"/>
    <use xlink:href="#DejaVuSans-6c" x="1556.933594"/>
    <use xlink:href="#DejaVuSans-20" x="1584.716797"/>
    <use xlink:href="#DejaVuSans-73" x="1616.503906"/>
    <use xlink:href="#DejaVuSans-79" x="1668.603516"/>
    <use xlink:href="#DejaVuSans-73" x="1727.783203"/>
    <use xlink:href="#DejaVuSans-74" x="1779.882812"/>
    <use xlink:href="#DejaVuSans-65" x="1819.091797"/>
    <use xlink:href="#DejaVuSans-6d" x="1880.615234"/>
    <use xlink:href="#DejaVuSans-20" x="1978.027344"/>
    <use xlink:href="#DejaVuSans-63" x="2009.814453"/>
    <use xlink:href="#DejaVuSans-6f" x="2064.794922"/>
    <use xlink:href="#DejaVuSans-6d" x="2125.976562"/>
    <use xlink:href="#DejaVuSans-70" x="2223.388672"/>
    <use xlink:href="#DejaVuSans-6c" x="2286.865234"/>
    <use xlink:href="#DejaVuSans-61" x="2314.648438"/>
    <use xlink:href="#DejaVuSans-69" x="2375.927734"/>
    <use xlink:href="#DejaVuSans-6e" x="2403.710938"/>
    <use xlink:href="#DejaVuSans-74" x="2467.089844"/>
    <use xlink:href="#DejaVuSans-73" x="2506.298828"/>
   </g>
  </g>
 </g>
 <defs>
  <clipPath id="p86e5623a7a">
   <rect x="67.41" y="54.6" width="372.787849" height="100.396364"/>
  </clipPath>
  <clipPath id="p3229e7a549">
   <rect x="67.41" y="186.163636" width="372.787849" height="100.396364"/>
  </clipPath>
 </defs>
</svg>
