<?xml version="1.0" encoding="utf-8" standalone="no"?>
<!DOCTYPE svg PUBLIC "-//W3C//DTD SVG 1.1//EN"
  "http://www.w3.org/Graphics/SVG/1.1/DTD/svg11.dtd">
<svg xmlns:xlink="http://www.w3.org/1999/xlink" width="460.8pt" height="345.6pt" viewBox="0 0 460.8 345.6" xmlns="http://www.w3.org/2000/svg" version="1.1">
 <metadata>
  <rdf:RDF xmlns:dc="http://purl.org/dc/elements/1.1/" xmlns:cc="http://creativecommons.org/ns#" xmlns:rdf="http://www.w3.org/1999/02/22-rdf-syntax-ns#">
   <cc:Work>
    <dc:type rdf:resource="http://purl.org/dc/dcmitype/StillImage"/>
    <dc:date>2023-12-06T07:58:03.844662</dc:date>
    <dc:format>image/svg+xml</dc:format>
    <dc:creator>
     <cc:Agent>
      <dc:title>Matplotlib v3.7.1, https://matplotlib.org/</dc:title>
     </cc:Agent>
    </dc:creator>
   </cc:Work>
  </rdf:RDF>
 </metadata>
 <defs>
  <style type="text/css">*{stroke-linejoin: round; stroke-linecap: butt}</style>
 </defs>
 <g id="figure_1">
  <g id="patch_1">
   <path d="M 0 345.6 
L 460.8 345.6 
L 460.8 0 
L 0 0 
z
" style="fill: #ffffff"/>
  </g>
  <g id="axes_1">
   <g id="patch_2">
    <path d="M 67.41 155.39 
L 440.197849 155.39 
L 440.197849 54.6 
L 67.41 54.6 
z
" style="fill: #ffffff"/>
   </g>
   <g id="matplotlib.axis_1">
    <g id="xtick_1">
     <g id="line2d_1">
      <defs>
       <path id="m4a7ff1c05e" d="M 0 0 
L 0 3.5 
" style="stroke: #000000; stroke-width: 0.8"/>
      </defs>
      <g>
       <use xlink:href="#m4a7ff1c05e" x="84.354902" y="155.39" style="stroke: #000000; stroke-width: 0.8"/>
      </g>
     </g>
    </g>
    <g id="xtick_2">
     <g id="line2d_2">
      <g>
       <use xlink:href="#m4a7ff1c05e" x="118.801515" y="155.39" style="stroke: #000000; stroke-width: 0.8"/>
      </g>
     </g>
    </g>
    <g id="xtick_3">
     <g id="line2d_3">
      <g>
       <use xlink:href="#m4a7ff1c05e" x="153.248128" y="155.39" style="stroke: #000000; stroke-width: 0.8"/>
      </g>
     </g>
    </g>
    <g id="xtick_4">
     <g id="line2d_4">
      <g>
       <use xlink:href="#m4a7ff1c05e" x="187.789115" y="155.39" style="stroke: #000000; stroke-width: 0.8"/>
      </g>
     </g>
    </g>
    <g id="xtick_5">
     <g id="line2d_5">
      <g>
       <use xlink:href="#m4a7ff1c05e" x="222.235727" y="155.39" style="stroke: #000000; stroke-width: 0.8"/>
      </g>
     </g>
    </g>
    <g id="xtick_6">
     <g id="line2d_6">
      <g>
       <use xlink:href="#m4a7ff1c05e" x="256.68234" y="155.39" style="stroke: #000000; stroke-width: 0.8"/>
      </g>
     </g>
    </g>
    <g id="xtick_7">
     <g id="line2d_7">
      <g>
       <use xlink:href="#m4a7ff1c05e" x="291.128953" y="155.39" style="stroke: #000000; stroke-width: 0.8"/>
      </g>
     </g>
    </g>
    <g id="xtick_8">
     <g id="line2d_8">
      <g>
       <use xlink:href="#m4a7ff1c05e" x="325.66994" y="155.39" style="stroke: #000000; stroke-width: 0.8"/>
      </g>
     </g>
    </g>
    <g id="xtick_9">
     <g id="line2d_9">
      <g>
       <use xlink:href="#m4a7ff1c05e" x="360.116553" y="155.39" style="stroke: #000000; stroke-width: 0.8"/>
      </g>
     </g>
    </g>
    <g id="xtick_10">
     <g id="line2d_10">
      <g>
       <use xlink:href="#m4a7ff1c05e" x="394.563165" y="155.39" style="stroke: #000000; stroke-width: 0.8"/>
      </g>
     </g>
    </g>
    <g id="xtick_11">
     <g id="line2d_11">
      <g>
       <use xlink:href="#m4a7ff1c05e" x="429.009778" y="155.39" style="stroke: #000000; stroke-width: 0.8"/>
      </g>
     </g>
    </g>
   </g>
   <g id="matplotlib.axis_2">
    <g id="ytick_1">
     <g id="line2d_12">
      <defs>
       <path id="m43ee7c9d4e" d="M 0 0 
L -3.5 0 
" style="stroke: #000000; stroke-width: 0.8"/>
      </defs>
      <g>
       <use xlink:href="#m43ee7c9d4e" x="67.41" y="151.87407" style="stroke: #000000; stroke-width: 0.8"/>
      </g>
     </g>
     <g id="text_1">
      <!-- 0 -->
      <g transform="translate(54.0475 155.673289) scale(0.1 -0.1)">
       <defs>
        <path id="DejaVuSans-30" d="M 2034 4250 
Q 1547 4250 1301 3770 
Q 1056 3291 1056 2328 
Q 1056 1369 1301 889 
Q 1547 409 2034 409 
Q 2525 409 2770 889 
Q 3016 1369 3016 2328 
Q 3016 3291 2770 3770 
Q 2525 4250 2034 4250 
z
M 2034 4750 
Q 2819 4750 3233 4129 
Q 3647 3509 3647 2328 
Q 3647 1150 3233 529 
Q 2819 -91 2034 -91 
Q 1250 -91 836 529 
Q 422 1150 422 2328 
Q 422 3509 836 4129 
Q 1250 4750 2034 4750 
z
" transform="scale(0.015625)"/>
       </defs>
       <use xlink:href="#DejaVuSans-30"/>
      </g>
     </g>
    </g>
    <g id="ytick_2">
     <g id="line2d_13">
      <g>
       <use xlink:href="#m43ee7c9d4e" x="67.41" y="130.565402" style="stroke: #000000; stroke-width: 0.8"/>
      </g>
     </g>
     <g id="text_2">
      <!-- 20 -->
      <g transform="translate(47.685 134.36462) scale(0.1 -0.1)">
       <defs>
        <path id="DejaVuSans-32" d="M 1228 531 
L 3431 531 
L 3431 0 
L 469 0 
L 469 531 
Q 828 903 1448 1529 
Q 2069 2156 2228 2338 
Q 2531 2678 2651 2914 
Q 2772 3150 2772 3378 
Q 2772 3750 2511 3984 
Q 2250 4219 1831 4219 
Q 1534 4219 1204 4116 
Q 875 4013 500 3803 
L 500 4441 
Q 881 4594 1212 4672 
Q 1544 4750 1819 4750 
Q 2544 4750 2975 4387 
Q 3406 4025 3406 3419 
Q 3406 3131 3298 2873 
Q 3191 2616 2906 2266 
Q 2828 2175 2409 1742 
Q 1991 1309 1228 531 
z
" transform="scale(0.015625)"/>
       </defs>
       <use xlink:href="#DejaVuSans-32"/>
       <use xlink:href="#DejaVuSans-30" x="63.623047"/>
      </g>
     </g>
    </g>
    <g id="ytick_3">
     <g id="line2d_14">
      <g>
       <use xlink:href="#m43ee7c9d4e" x="67.41" y="109.256734" style="stroke: #000000; stroke-width: 0.8"/>
      </g>
     </g>
     <g id="text_3">
      <!-- 40 -->
      <g transform="translate(47.685 113.055952) scale(0.1 -0.1)">
       <defs>
        <path id="DejaVuSans-34" d="M 2419 4116 
L 825 1625 
L 2419 1625 
L 2419 4116 
z
M 2253 4666 
L 3047 4666 
L 3047 1625 
L 3713 1625 
L 3713 1100 
L 3047 1100 
L 3047 0 
L 2419 0 
L 2419 1100 
L 313 1100 
L 313 1709 
L 2253 4666 
z
" transform="scale(0.015625)"/>
       </defs>
       <use xlink:href="#DejaVuSans-34"/>
       <use xlink:href="#DejaVuSans-30" x="63.623047"/>
      </g>
     </g>
    </g>
    <g id="ytick_4">
     <g id="line2d_15">
      <g>
       <use xlink:href="#m43ee7c9d4e" x="67.41" y="87.948066" style="stroke: #000000; stroke-width: 0.8"/>
      </g>
     </g>
     <g id="text_4">
      <!-- 60 -->
      <g transform="translate(47.685 91.747284) scale(0.1 -0.1)">
       <defs>
        <path id="DejaVuSans-36" d="M 2113 2584 
Q 1688 2584 1439 2293 
Q 1191 2003 1191 1497 
Q 1191 994 1439 701 
Q 1688 409 2113 409 
Q 2538 409 2786 701 
Q 3034 994 3034 1497 
Q 3034 2003 2786 2293 
Q 2538 2584 2113 2584 
z
M 3366 4563 
L 3366 3988 
Q 3128 4100 2886 4159 
Q 2644 4219 2406 4219 
Q 1781 4219 1451 3797 
Q 1122 3375 1075 2522 
Q 1259 2794 1537 2939 
Q 1816 3084 2150 3084 
Q 2853 3084 3261 2657 
Q 3669 2231 3669 1497 
Q 3669 778 3244 343 
Q 2819 -91 2113 -91 
Q 1303 -91 875 529 
Q 447 1150 447 2328 
Q 447 3434 972 4092 
Q 1497 4750 2381 4750 
Q 2619 4750 2861 4703 
Q 3103 4656 3366 4563 
z
" transform="scale(0.015625)"/>
       </defs>
       <use xlink:href="#DejaVuSans-36"/>
       <use xlink:href="#DejaVuSans-30" x="63.623047"/>
      </g>
     </g>
    </g>
    <g id="ytick_5">
     <g id="line2d_16">
      <g>
       <use xlink:href="#m43ee7c9d4e" x="67.41" y="66.639397" style="stroke: #000000; stroke-width: 0.8"/>
      </g>
     </g>
     <g id="text_5">
      <!-- 80 -->
      <g transform="translate(47.685 70.438616) scale(0.1 -0.1)">
       <defs>
        <path id="DejaVuSans-38" d="M 2034 2216 
Q 1584 2216 1326 1975 
Q 1069 1734 1069 1313 
Q 1069 891 1326 650 
Q 1584 409 2034 409 
Q 2484 409 2743 651 
Q 3003 894 3003 1313 
Q 3003 1734 2745 1975 
Q 2488 2216 2034 2216 
z
M 1403 2484 
Q 997 2584 770 2862 
Q 544 3141 544 3541 
Q 544 4100 942 4425 
Q 1341 4750 2034 4750 
Q 2731 4750 3128 4425 
Q 3525 4100 3525 3541 
Q 3525 3141 3298 2862 
Q 3072 2584 2669 2484 
Q 3125 2378 3379 2068 
Q 3634 1759 3634 1313 
Q 3634 634 3220 271 
Q 2806 -91 2034 -91 
Q 1263 -91 848 271 
Q 434 634 434 1313 
Q 434 1759 690 2068 
Q 947 2378 1403 2484 
z
M 1172 3481 
Q 1172 3119 1398 2916 
Q 1625 2713 2034 2713 
Q 2441 2713 2670 2916 
Q 2900 3119 2900 3481 
Q 2900 3844 2670 4047 
Q 2441 4250 2034 4250 
Q 1625 4250 1398 4047 
Q 1172 3844 1172 3481 
z
" transform="scale(0.015625)"/>
       </defs>
       <use xlink:href="#DejaVuSans-38"/>
       <use xlink:href="#DejaVuSans-30" x="63.623047"/>
      </g>
     </g>
    </g>
   </g>
   <g id="line2d_17">
    <path d="M 84.354902 143.350603 
L 87.280505 138.023436 
L 89.922985 144.416036 
L 92.848588 136.958002 
L 95.679816 131.630835 
L 98.605419 132.696268 
L 101.436647 134.827135 
L 104.36225 118.845634 
L 107.287853 116.714767 
L 110.119081 134.827135 
L 113.044684 142.285169 
L 115.875912 143.350603 
L 118.801515 133.761702 
L 121.727118 139.088869 
L 124.369598 142.285169 
L 127.2952 138.023436 
L 130.126429 144.416036 
L 133.052031 143.350603 
L 135.88326 144.416036 
L 138.808863 135.892569 
L 141.734465 134.827135 
L 144.565694 135.892569 
L 147.491297 140.154302 
L 150.322525 135.892569 
L 153.248128 142.285169 
L 156.17373 136.958002 
L 158.910585 135.892569 
L 161.836187 140.154302 
L 164.667416 136.958002 
L 167.593018 93.275233 
L 170.424247 59.181364 
L 173.34985 67.704831 
L 176.275452 118.845634 
L 179.106681 119.911068 
L 182.032284 131.630835 
L 184.863512 136.958002 
L 187.789115 135.892569 
L 190.714717 130.565402 
L 193.357197 127.369101 
L 196.2828 122.041934 
L 199.114028 116.714767 
L 202.039631 111.3876 
L 204.87086 126.303668 
L 207.796462 115.649334 
L 210.722065 114.583901 
L 213.553294 125.238235 
L 216.478896 128.434535 
L 219.310125 132.696268 
L 222.235727 125.238235 
L 225.16133 120.976501 
L 227.80381 122.041934 
L 230.729413 130.565402 
L 233.560641 127.369101 
L 236.486244 124.172801 
L 239.317472 129.499968 
L 242.243075 115.649334 
L 245.168678 126.303668 
L 247.999906 107.125867 
L 250.925509 131.630835 
L 253.756737 125.238235 
L 256.68234 123.107368 
L 259.607943 130.565402 
L 262.250423 122.041934 
L 265.176025 111.3876 
L 268.007254 122.041934 
L 270.932857 120.976501 
L 273.764085 118.845634 
L 276.689688 111.3876 
L 279.615291 115.649334 
L 282.446519 107.125867 
L 285.372122 116.714767 
L 288.20335 128.434535 
L 291.128953 129.499968 
L 294.054556 128.434535 
L 296.79141 130.565402 
L 299.717013 140.154302 
L 302.548241 134.827135 
L 305.473844 140.154302 
L 308.305072 120.976501 
L 311.230675 122.041934 
L 314.156278 112.453034 
L 316.987506 126.303668 
L 319.913109 139.088869 
L 322.744337 118.845634 
L 325.66994 120.976501 
L 328.595543 127.369101 
L 331.238023 125.238235 
L 334.163625 122.041934 
L 336.994854 128.434535 
L 339.920456 139.088869 
L 342.751685 132.696268 
L 345.677288 136.958002 
L 348.60289 131.630835 
L 351.434119 133.761702 
L 354.359721 139.088869 
L 357.19095 135.892569 
L 360.116553 133.761702 
L 363.042155 132.696268 
L 365.684635 123.107368 
L 368.610238 140.154302 
L 371.441466 126.303668 
L 374.367069 125.238235 
L 377.198298 110.322167 
L 380.1239 93.275233 
L 383.049503 114.583901 
L 385.880731 107.125867 
L 388.806334 112.453034 
L 391.637563 96.471533 
L 394.563165 93.275233 
L 397.488768 111.3876 
L 400.131248 111.3876 
L 403.056851 112.453034 
L 405.888079 101.7987 
L 408.813682 96.471533 
L 411.64491 90.078932 
L 414.570513 85.817199 
L 417.496116 106.060433 
L 420.327344 94.340666 
L 423.252947 128.434535 
" clip-path="url(#pb9c8cd5309)" style="fill: none; stroke: #1f77b4; stroke-width: 1.5; stroke-linecap: square"/>
   </g>
   <g id="line2d_18">
    <path d="M 84.354902 150.808636 
L 110.119081 150.808636 
L 147.491297 150.808636 
L 170.424247 150.808636 
L 179.106681 150.808636 
L 182.032284 150.808636 
L 247.999906 150.808636 
L 308.305072 150.808636 
L 385.880731 149.743203 
L 391.637563 142.285169 
L 394.563165 146.546903 
L 397.488768 149.743203 
L 400.131248 149.743203 
L 414.570513 150.808636 
L 417.496116 143.350603 
L 420.327344 150.808636 
L 423.252947 149.743203 
" clip-path="url(#pb9c8cd5309)" style="fill: none; stroke: #ff7f0e; stroke-width: 1.5; stroke-linecap: square"/>
   </g>
   <g id="line2d_19">
    <path d="M 84.354902 147.612336 
L 87.280505 141.219736 
L 89.922985 150.808636 
L 92.848588 142.285169 
L 95.679816 140.154302 
L 98.605419 143.350603 
L 101.436647 141.219736 
L 104.36225 134.827135 
L 107.287853 138.023436 
L 110.119081 141.219736 
L 113.044684 149.743203 
L 115.875912 147.612336 
L 118.801515 142.285169 
L 121.727118 145.481469 
L 124.369598 146.546903 
L 127.2952 147.612336 
L 130.126429 148.67777 
L 133.052031 150.808636 
L 135.88326 148.67777 
L 138.808863 146.546903 
L 141.734465 146.546903 
L 144.565694 145.481469 
L 147.491297 143.350603 
L 150.322525 146.546903 
L 153.248128 149.743203 
L 156.17373 145.481469 
L 158.910585 143.350603 
L 161.836187 143.350603 
L 164.667416 148.67777 
L 167.593018 120.976501 
L 170.424247 101.7987 
L 173.34985 100.733266 
L 176.275452 128.434535 
L 179.106681 136.958002 
L 182.032284 136.958002 
L 184.863512 144.416036 
L 187.789115 143.350603 
L 190.714717 139.088869 
L 193.357197 136.958002 
L 196.2828 138.023436 
L 199.114028 132.696268 
L 202.039631 136.958002 
L 204.87086 136.958002 
L 207.796462 140.154302 
L 210.722065 135.892569 
L 213.553294 139.088869 
L 216.478896 143.350603 
L 219.310125 141.219736 
L 222.235727 141.219736 
L 225.16133 140.154302 
L 227.80381 135.892569 
L 230.729413 145.481469 
L 233.560641 139.088869 
L 236.486244 138.023436 
L 239.317472 142.285169 
L 242.243075 136.958002 
L 245.168678 140.154302 
L 247.999906 130.565402 
L 250.925509 140.154302 
L 253.756737 141.219736 
L 256.68234 140.154302 
L 259.607943 143.350603 
L 262.250423 140.154302 
L 265.176025 133.761702 
L 268.007254 144.416036 
L 270.932857 138.023436 
L 273.764085 140.154302 
L 276.689688 138.023436 
L 279.615291 139.088869 
L 282.446519 125.238235 
L 285.372122 136.958002 
L 288.20335 136.958002 
L 291.128953 143.350603 
L 294.054556 142.285169 
L 296.79141 144.416036 
L 299.717013 146.546903 
L 302.548241 146.546903 
L 305.473844 143.350603 
L 308.305072 139.088869 
L 311.230675 143.350603 
L 314.156278 133.761702 
L 316.987506 141.219736 
L 319.913109 148.67777 
L 322.744337 139.088869 
L 325.66994 141.219736 
L 328.595543 146.546903 
L 331.238023 144.416036 
L 334.163625 138.023436 
L 336.994854 146.546903 
L 339.920456 146.546903 
L 342.751685 144.416036 
L 345.677288 144.416036 
L 348.60289 142.285169 
L 351.434119 143.350603 
L 354.359721 145.481469 
L 357.19095 148.67777 
L 360.116553 144.416036 
L 363.042155 144.416036 
L 365.684635 141.219736 
L 368.610238 146.546903 
L 371.441466 144.416036 
L 374.367069 143.350603 
L 377.198298 132.696268 
L 380.1239 126.303668 
L 383.049503 136.958002 
L 385.880731 138.023436 
L 388.806334 140.154302 
L 391.637563 118.845634 
L 394.563165 114.583901 
L 397.488768 133.761702 
L 400.131248 140.154302 
L 403.056851 142.285169 
L 405.888079 140.154302 
L 408.813682 131.630835 
L 411.64491 135.892569 
L 414.570513 129.499968 
L 417.496116 130.565402 
L 420.327344 129.499968 
L 423.252947 144.416036 
" clip-path="url(#pb9c8cd5309)" style="fill: none; stroke: #2ca02c; stroke-width: 1.5; stroke-linecap: square"/>
   </g>
   <g id="line2d_20">
    <path d="M 84.354902 147.612336 
L 87.280505 142.285169 
L 89.922985 149.743203 
L 92.848588 142.285169 
L 95.679816 140.154302 
L 98.605419 145.481469 
L 101.436647 141.219736 
L 104.36225 135.892569 
L 107.287853 139.088869 
L 110.119081 140.154302 
L 113.044684 149.743203 
L 115.875912 149.743203 
L 118.801515 143.350603 
L 121.727118 145.481469 
L 124.369598 146.546903 
L 127.2952 146.546903 
L 130.126429 149.743203 
L 133.052031 149.743203 
L 135.88326 148.67777 
L 138.808863 147.612336 
L 141.734465 145.481469 
L 144.565694 145.481469 
L 147.491297 146.546903 
L 150.322525 146.546903 
L 153.248128 150.808636 
L 156.17373 145.481469 
L 158.910585 142.285169 
L 161.836187 143.350603 
L 164.667416 148.67777 
L 167.593018 124.172801 
L 170.424247 102.864133 
L 173.34985 103.929567 
L 176.275452 130.565402 
L 179.106681 134.827135 
L 182.032284 140.154302 
L 184.863512 145.481469 
L 187.789115 143.350603 
L 190.714717 136.958002 
L 193.357197 139.088869 
L 196.2828 138.023436 
L 199.114028 134.827135 
L 202.039631 133.761702 
L 204.87086 139.088869 
L 207.796462 136.958002 
L 210.722065 135.892569 
L 213.553294 139.088869 
L 216.478896 141.219736 
L 219.310125 140.154302 
L 222.235727 141.219736 
L 225.16133 141.219736 
L 227.80381 136.958002 
L 230.729413 141.219736 
L 233.560641 142.285169 
L 236.486244 139.088869 
L 239.317472 142.285169 
L 242.243075 136.958002 
L 245.168678 139.088869 
L 247.999906 130.565402 
L 250.925509 140.154302 
L 253.756737 141.219736 
L 256.68234 143.350603 
L 259.607943 144.416036 
L 262.250423 139.088869 
L 265.176025 134.827135 
L 268.007254 146.546903 
L 270.932857 140.154302 
L 273.764085 140.154302 
L 276.689688 136.958002 
L 279.615291 136.958002 
L 282.446519 124.172801 
L 285.372122 138.023436 
L 288.20335 140.154302 
L 291.128953 144.416036 
L 294.054556 142.285169 
L 296.79141 147.612336 
L 299.717013 146.546903 
L 302.548241 144.416036 
L 305.473844 143.350603 
L 308.305072 140.154302 
L 311.230675 145.481469 
L 314.156278 131.630835 
L 316.987506 143.350603 
L 319.913109 147.612336 
L 322.744337 139.088869 
L 325.66994 143.350603 
L 328.595543 144.416036 
L 331.238023 143.350603 
L 334.163625 140.154302 
L 336.994854 145.481469 
L 339.920456 144.416036 
L 342.751685 144.416036 
L 345.677288 143.350603 
L 348.60289 144.416036 
L 351.434119 143.350603 
L 354.359721 148.67777 
L 357.19095 148.67777 
L 360.116553 145.481469 
L 363.042155 144.416036 
L 365.684635 141.219736 
L 368.610238 146.546903 
L 371.441466 145.481469 
L 374.367069 140.154302 
L 377.198298 131.630835 
L 380.1239 131.630835 
L 383.049503 142.285169 
L 385.880731 136.958002 
L 388.806334 143.350603 
L 391.637563 122.041934 
L 394.563165 116.714767 
L 397.488768 133.761702 
L 400.131248 140.154302 
L 403.056851 141.219736 
L 405.888079 138.023436 
L 408.813682 125.238235 
L 411.64491 130.565402 
L 414.570513 129.499968 
L 417.496116 130.565402 
L 420.327344 130.565402 
L 423.252947 141.219736 
" clip-path="url(#pb9c8cd5309)" style="fill: none; stroke: #d62728; stroke-width: 1.5; stroke-linecap: square"/>
   </g>
   <g id="patch_3">
    <path d="M 67.41 155.39 
L 67.41 54.6 
" style="fill: none; stroke: #000000; stroke-width: 0.8; stroke-linejoin: miter; stroke-linecap: square"/>
   </g>
   <g id="patch_4">
    <path d="M 440.197849 155.39 
L 440.197849 54.6 
" style="fill: none; stroke: #000000; stroke-width: 0.8; stroke-linejoin: miter; stroke-linecap: square"/>
   </g>
   <g id="patch_5">
    <path d="M 67.41 155.39 
L 440.197849 155.39 
" style="fill: none; stroke: #000000; stroke-width: 0.8; stroke-linejoin: miter; stroke-linecap: square"/>
   </g>
   <g id="patch_6">
    <path d="M 67.41 54.6 
L 440.197849 54.6 
" style="fill: none; stroke: #000000; stroke-width: 0.8; stroke-linejoin: miter; stroke-linecap: square"/>
   </g>
   <g id="text_6">
    <!-- TP -->
    <g transform="translate(246.521425 48.6) scale(0.12 -0.12)">
     <defs>
      <path id="DejaVuSans-54" d="M -19 4666 
L 3928 4666 
L 3928 4134 
L 2272 4134 
L 2272 0 
L 1638 0 
L 1638 4134 
L -19 4134 
L -19 4666 
z
" transform="scale(0.015625)"/>
      <path id="DejaVuSans-50" d="M 1259 4147 
L 1259 2394 
L 2053 2394 
Q 2494 2394 2734 2622 
Q 2975 2850 2975 3272 
Q 2975 3691 2734 3919 
Q 2494 4147 2053 4147 
L 1259 4147 
z
M 628 4666 
L 2053 4666 
Q 2838 4666 3239 4311 
Q 3641 3956 3641 3272 
Q 3641 2581 3239 2228 
Q 2838 1875 2053 1875 
L 1259 1875 
L 1259 0 
L 628 0 
L 628 4666 
z
" transform="scale(0.015625)"/>
     </defs>
     <use xlink:href="#DejaVuSans-54"/>
     <use xlink:href="#DejaVuSans-50" x="61.083984"/>
    </g>
   </g>
   <g id="legend_1">
    <g id="patch_7">
     <path d="M 74.41 122.146875 
L 227.231875 122.146875 
Q 229.231875 122.146875 229.231875 120.146875 
L 229.231875 61.6 
Q 229.231875 59.6 227.231875 59.6 
L 74.41 59.6 
Q 72.41 59.6 72.41 61.6 
L 72.41 120.146875 
Q 72.41 122.146875 74.41 122.146875 
z
" style="fill: #ffffff; opacity: 0.8; stroke: #cccccc; stroke-linejoin: miter"/>
    </g>
    <g id="line2d_21">
     <path d="M 76.41 67.698438 
L 86.41 67.698438 
L 96.41 67.698438 
" style="fill: none; stroke: #1f77b4; stroke-width: 1.5; stroke-linecap: square"/>
    </g>
    <g id="text_7">
     <!-- actual -->
     <g transform="translate(104.41 71.198438) scale(0.1 -0.1)">
      <defs>
       <path id="DejaVuSans-61" d="M 2194 1759 
Q 1497 1759 1228 1600 
Q 959 1441 959 1056 
Q 959 750 1161 570 
Q 1363 391 1709 391 
Q 2188 391 2477 730 
Q 2766 1069 2766 1631 
L 2766 1759 
L 2194 1759 
z
M 3341 1997 
L 3341 0 
L 2766 0 
L 2766 531 
Q 2569 213 2275 61 
Q 1981 -91 1556 -91 
Q 1019 -91 701 211 
Q 384 513 384 1019 
Q 384 1609 779 1909 
Q 1175 2209 1959 2209 
L 2766 2209 
L 2766 2266 
Q 2766 2663 2505 2880 
Q 2244 3097 1772 3097 
Q 1472 3097 1187 3025 
Q 903 2953 641 2809 
L 641 3341 
Q 956 3463 1253 3523 
Q 1550 3584 1831 3584 
Q 2591 3584 2966 3190 
Q 3341 2797 3341 1997 
z
" transform="scale(0.015625)"/>
       <path id="DejaVuSans-63" d="M 3122 3366 
L 3122 2828 
Q 2878 2963 2633 3030 
Q 2388 3097 2138 3097 
Q 1578 3097 1268 2742 
Q 959 2388 959 1747 
Q 959 1106 1268 751 
Q 1578 397 2138 397 
Q 2388 397 2633 464 
Q 2878 531 3122 666 
L 3122 134 
Q 2881 22 2623 -34 
Q 2366 -91 2075 -91 
Q 1284 -91 818 406 
Q 353 903 353 1747 
Q 353 2603 823 3093 
Q 1294 3584 2113 3584 
Q 2378 3584 2631 3529 
Q 2884 3475 3122 3366 
z
" transform="scale(0.015625)"/>
       <path id="DejaVuSans-74" d="M 1172 4494 
L 1172 3500 
L 2356 3500 
L 2356 3053 
L 1172 3053 
L 1172 1153 
Q 1172 725 1289 603 
Q 1406 481 1766 481 
L 2356 481 
L 2356 0 
L 1766 0 
Q 1100 0 847 248 
Q 594 497 594 1153 
L 594 3053 
L 172 3053 
L 172 3500 
L 594 3500 
L 594 4494 
L 1172 4494 
z
" transform="scale(0.015625)"/>
       <path id="DejaVuSans-75" d="M 544 1381 
L 544 3500 
L 1119 3500 
L 1119 1403 
Q 1119 906 1312 657 
Q 1506 409 1894 409 
Q 2359 409 2629 706 
Q 2900 1003 2900 1516 
L 2900 3500 
L 3475 3500 
L 3475 0 
L 2900 0 
L 2900 538 
Q 2691 219 2414 64 
Q 2138 -91 1772 -91 
Q 1169 -91 856 284 
Q 544 659 544 1381 
z
M 1991 3584 
L 1991 3584 
z
" transform="scale(0.015625)"/>
       <path id="DejaVuSans-6c" d="M 603 4863 
L 1178 4863 
L 1178 0 
L 603 0 
L 603 4863 
z
" transform="scale(0.015625)"/>
      </defs>
      <use xlink:href="#DejaVuSans-61"/>
      <use xlink:href="#DejaVuSans-63" x="61.279297"/>
      <use xlink:href="#DejaVuSans-74" x="116.259766"/>
      <use xlink:href="#DejaVuSans-75" x="155.46875"/>
      <use xlink:href="#DejaVuSans-61" x="218.847656"/>
      <use xlink:href="#DejaVuSans-6c" x="280.126953"/>
     </g>
    </g>
    <g id="line2d_22">
     <path d="M 76.41 82.376563 
L 86.41 82.376563 
L 96.41 82.376563 
" style="fill: none; stroke: #ff7f0e; stroke-width: 1.5; stroke-linecap: square"/>
    </g>
    <g id="text_8">
     <!-- prompt_no_parts -->
     <g transform="translate(104.41 85.876563) scale(0.1 -0.1)">
      <defs>
       <path id="DejaVuSans-70" d="M 1159 525 
L 1159 -1331 
L 581 -1331 
L 581 3500 
L 1159 3500 
L 1159 2969 
Q 1341 3281 1617 3432 
Q 1894 3584 2278 3584 
Q 2916 3584 3314 3078 
Q 3713 2572 3713 1747 
Q 3713 922 3314 415 
Q 2916 -91 2278 -91 
Q 1894 -91 1617 61 
Q 1341 213 1159 525 
z
M 3116 1747 
Q 3116 2381 2855 2742 
Q 2594 3103 2138 3103 
Q 1681 3103 1420 2742 
Q 1159 2381 1159 1747 
Q 1159 1113 1420 752 
Q 1681 391 2138 391 
Q 2594 391 2855 752 
Q 3116 1113 3116 1747 
z
" transform="scale(0.015625)"/>
       <path id="DejaVuSans-72" d="M 2631 2963 
Q 2534 3019 2420 3045 
Q 2306 3072 2169 3072 
Q 1681 3072 1420 2755 
Q 1159 2438 1159 1844 
L 1159 0 
L 581 0 
L 581 3500 
L 1159 3500 
L 1159 2956 
Q 1341 3275 1631 3429 
Q 1922 3584 2338 3584 
Q 2397 3584 2469 3576 
Q 2541 3569 2628 3553 
L 2631 2963 
z
" transform="scale(0.015625)"/>
       <path id="DejaVuSans-6f" d="M 1959 3097 
Q 1497 3097 1228 2736 
Q 959 2375 959 1747 
Q 959 1119 1226 758 
Q 1494 397 1959 397 
Q 2419 397 2687 759 
Q 2956 1122 2956 1747 
Q 2956 2369 2687 2733 
Q 2419 3097 1959 3097 
z
M 1959 3584 
Q 2709 3584 3137 3096 
Q 3566 2609 3566 1747 
Q 3566 888 3137 398 
Q 2709 -91 1959 -91 
Q 1206 -91 779 398 
Q 353 888 353 1747 
Q 353 2609 779 3096 
Q 1206 3584 1959 3584 
z
" transform="scale(0.015625)"/>
       <path id="DejaVuSans-6d" d="M 3328 2828 
Q 3544 3216 3844 3400 
Q 4144 3584 4550 3584 
Q 5097 3584 5394 3201 
Q 5691 2819 5691 2113 
L 5691 0 
L 5113 0 
L 5113 2094 
Q 5113 2597 4934 2840 
Q 4756 3084 4391 3084 
Q 3944 3084 3684 2787 
Q 3425 2491 3425 1978 
L 3425 0 
L 2847 0 
L 2847 2094 
Q 2847 2600 2669 2842 
Q 2491 3084 2119 3084 
Q 1678 3084 1418 2786 
Q 1159 2488 1159 1978 
L 1159 0 
L 581 0 
L 581 3500 
L 1159 3500 
L 1159 2956 
Q 1356 3278 1631 3431 
Q 1906 3584 2284 3584 
Q 2666 3584 2933 3390 
Q 3200 3197 3328 2828 
z
" transform="scale(0.015625)"/>
       <path id="DejaVuSans-5f" d="M 3263 -1063 
L 3263 -1509 
L -63 -1509 
L -63 -1063 
L 3263 -1063 
z
" transform="scale(0.015625)"/>
       <path id="DejaVuSans-6e" d="M 3513 2113 
L 3513 0 
L 2938 0 
L 2938 2094 
Q 2938 2591 2744 2837 
Q 2550 3084 2163 3084 
Q 1697 3084 1428 2787 
Q 1159 2491 1159 1978 
L 1159 0 
L 581 0 
L 581 3500 
L 1159 3500 
L 1159 2956 
Q 1366 3272 1645 3428 
Q 1925 3584 2291 3584 
Q 2894 3584 3203 3211 
Q 3513 2838 3513 2113 
z
" transform="scale(0.015625)"/>
       <path id="DejaVuSans-73" d="M 2834 3397 
L 2834 2853 
Q 2591 2978 2328 3040 
Q 2066 3103 1784 3103 
Q 1356 3103 1142 2972 
Q 928 2841 928 2578 
Q 928 2378 1081 2264 
Q 1234 2150 1697 2047 
L 1894 2003 
Q 2506 1872 2764 1633 
Q 3022 1394 3022 966 
Q 3022 478 2636 193 
Q 2250 -91 1575 -91 
Q 1294 -91 989 -36 
Q 684 19 347 128 
L 347 722 
Q 666 556 975 473 
Q 1284 391 1588 391 
Q 1994 391 2212 530 
Q 2431 669 2431 922 
Q 2431 1156 2273 1281 
Q 2116 1406 1581 1522 
L 1381 1569 
Q 847 1681 609 1914 
Q 372 2147 372 2553 
Q 372 3047 722 3315 
Q 1072 3584 1716 3584 
Q 2034 3584 2315 3537 
Q 2597 3491 2834 3397 
z
" transform="scale(0.015625)"/>
      </defs>
      <use xlink:href="#DejaVuSans-70"/>
      <use xlink:href="#DejaVuSans-72" x="63.476562"/>
      <use xlink:href="#DejaVuSans-6f" x="102.339844"/>
      <use xlink:href="#DejaVuSans-6d" x="163.521484"/>
      <use xlink:href="#DejaVuSans-70" x="260.933594"/>
      <use xlink:href="#DejaVuSans-74" x="324.410156"/>
      <use xlink:href="#DejaVuSans-5f" x="363.619141"/>
      <use xlink:href="#DejaVuSans-6e" x="413.619141"/>
      <use xlink:href="#DejaVuSans-6f" x="476.998047"/>
      <use xlink:href="#DejaVuSans-5f" x="538.179688"/>
      <use xlink:href="#DejaVuSans-70" x="588.179688"/>
      <use xlink:href="#DejaVuSans-61" x="651.65625"/>
      <use xlink:href="#DejaVuSans-72" x="712.935547"/>
      <use xlink:href="#DejaVuSans-74" x="754.048828"/>
      <use xlink:href="#DejaVuSans-73" x="793.257812"/>
     </g>
    </g>
    <g id="line2d_23">
     <path d="M 76.41 97.332813 
L 86.41 97.332813 
L 96.41 97.332813 
" style="fill: none; stroke: #2ca02c; stroke-width: 1.5; stroke-linecap: square"/>
    </g>
    <g id="text_9">
     <!-- prompt_with_parts -->
     <g transform="translate(104.41 100.832813) scale(0.1 -0.1)">
      <defs>
       <path id="DejaVuSans-77" d="M 269 3500 
L 844 3500 
L 1563 769 
L 2278 3500 
L 2956 3500 
L 3675 769 
L 4391 3500 
L 4966 3500 
L 4050 0 
L 3372 0 
L 2619 2869 
L 1863 0 
L 1184 0 
L 269 3500 
z
" transform="scale(0.015625)"/>
       <path id="DejaVuSans-69" d="M 603 3500 
L 1178 3500 
L 1178 0 
L 603 0 
L 603 3500 
z
M 603 4863 
L 1178 4863 
L 1178 4134 
L 603 4134 
L 603 4863 
z
" transform="scale(0.015625)"/>
       <path id="DejaVuSans-68" d="M 3513 2113 
L 3513 0 
L 2938 0 
L 2938 2094 
Q 2938 2591 2744 2837 
Q 2550 3084 2163 3084 
Q 1697 3084 1428 2787 
Q 1159 2491 1159 1978 
L 1159 0 
L 581 0 
L 581 4863 
L 1159 4863 
L 1159 2956 
Q 1366 3272 1645 3428 
Q 1925 3584 2291 3584 
Q 2894 3584 3203 3211 
Q 3513 2838 3513 2113 
z
" transform="scale(0.015625)"/>
      </defs>
      <use xlink:href="#DejaVuSans-70"/>
      <use xlink:href="#DejaVuSans-72" x="63.476562"/>
      <use xlink:href="#DejaVuSans-6f" x="102.339844"/>
      <use xlink:href="#DejaVuSans-6d" x="163.521484"/>
      <use xlink:href="#DejaVuSans-70" x="260.933594"/>
      <use xlink:href="#DejaVuSans-74" x="324.410156"/>
      <use xlink:href="#DejaVuSans-5f" x="363.619141"/>
      <use xlink:href="#DejaVuSans-77" x="413.619141"/>
      <use xlink:href="#DejaVuSans-69" x="495.40625"/>
      <use xlink:href="#DejaVuSans-74" x="523.189453"/>
      <use xlink:href="#DejaVuSans-68" x="562.398438"/>
      <use xlink:href="#DejaVuSans-5f" x="625.777344"/>
      <use xlink:href="#DejaVuSans-70" x="675.777344"/>
      <use xlink:href="#DejaVuSans-61" x="739.253906"/>
      <use xlink:href="#DejaVuSans-72" x="800.533203"/>
      <use xlink:href="#DejaVuSans-74" x="841.646484"/>
      <use xlink:href="#DejaVuSans-73" x="880.855469"/>
     </g>
    </g>
    <g id="line2d_24">
     <path d="M 76.41 112.289062 
L 86.41 112.289062 
L 96.41 112.289062 
" style="fill: none; stroke: #d62728; stroke-width: 1.5; stroke-linecap: square"/>
    </g>
    <g id="text_10">
     <!-- prompt_emergent_parts -->
     <g transform="translate(104.41 115.789062) scale(0.1 -0.1)">
      <defs>
       <path id="DejaVuSans-65" d="M 3597 1894 
L 3597 1613 
L 953 1613 
Q 991 1019 1311 708 
Q 1631 397 2203 397 
Q 2534 397 2845 478 
Q 3156 559 3463 722 
L 3463 178 
Q 3153 47 2828 -22 
Q 2503 -91 2169 -91 
Q 1331 -91 842 396 
Q 353 884 353 1716 
Q 353 2575 817 3079 
Q 1281 3584 2069 3584 
Q 2775 3584 3186 3129 
Q 3597 2675 3597 1894 
z
M 3022 2063 
Q 3016 2534 2758 2815 
Q 2500 3097 2075 3097 
Q 1594 3097 1305 2825 
Q 1016 2553 972 2059 
L 3022 2063 
z
" transform="scale(0.015625)"/>
       <path id="DejaVuSans-67" d="M 2906 1791 
Q 2906 2416 2648 2759 
Q 2391 3103 1925 3103 
Q 1463 3103 1205 2759 
Q 947 2416 947 1791 
Q 947 1169 1205 825 
Q 1463 481 1925 481 
Q 2391 481 2648 825 
Q 2906 1169 2906 1791 
z
M 3481 434 
Q 3481 -459 3084 -895 
Q 2688 -1331 1869 -1331 
Q 1566 -1331 1297 -1286 
Q 1028 -1241 775 -1147 
L 775 -588 
Q 1028 -725 1275 -790 
Q 1522 -856 1778 -856 
Q 2344 -856 2625 -561 
Q 2906 -266 2906 331 
L 2906 616 
Q 2728 306 2450 153 
Q 2172 0 1784 0 
Q 1141 0 747 490 
Q 353 981 353 1791 
Q 353 2603 747 3093 
Q 1141 3584 1784 3584 
Q 2172 3584 2450 3431 
Q 2728 3278 2906 2969 
L 2906 3500 
L 3481 3500 
L 3481 434 
z
" transform="scale(0.015625)"/>
      </defs>
      <use xlink:href="#DejaVuSans-70"/>
      <use xlink:href="#DejaVuSans-72" x="63.476562"/>
      <use xlink:href="#DejaVuSans-6f" x="102.339844"/>
      <use xlink:href="#DejaVuSans-6d" x="163.521484"/>
      <use xlink:href="#DejaVuSans-70" x="260.933594"/>
      <use xlink:href="#DejaVuSans-74" x="324.410156"/>
      <use xlink:href="#DejaVuSans-5f" x="363.619141"/>
      <use xlink:href="#DejaVuSans-65" x="413.619141"/>
      <use xlink:href="#DejaVuSans-6d" x="475.142578"/>
      <use xlink:href="#DejaVuSans-65" x="572.554688"/>
      <use xlink:href="#DejaVuSans-72" x="634.078125"/>
      <use xlink:href="#DejaVuSans-67" x="673.441406"/>
      <use xlink:href="#DejaVuSans-65" x="736.917969"/>
      <use xlink:href="#DejaVuSans-6e" x="798.441406"/>
      <use xlink:href="#DejaVuSans-74" x="861.820312"/>
      <use xlink:href="#DejaVuSans-5f" x="901.029297"/>
      <use xlink:href="#DejaVuSans-70" x="951.029297"/>
      <use xlink:href="#DejaVuSans-61" x="1014.505859"/>
      <use xlink:href="#DejaVuSans-72" x="1075.785156"/>
      <use xlink:href="#DejaVuSans-74" x="1116.898438"/>
      <use xlink:href="#DejaVuSans-73" x="1156.107422"/>
     </g>
    </g>
   </g>
  </g>
  <g id="axes_2">
   <g id="patch_8">
    <path d="M 67.41 286.56 
L 440.197849 286.56 
L 440.197849 185.77 
L 67.41 185.77 
z
" style="fill: #ffffff"/>
   </g>
   <g id="matplotlib.axis_3">
    <g id="xtick_12">
     <g id="line2d_25">
      <g>
       <use xlink:href="#m4a7ff1c05e" x="84.354902" y="286.56" style="stroke: #000000; stroke-width: 0.8"/>
      </g>
     </g>
     <g id="text_11">
      <!-- 2014 -->
      <g transform="translate(71.629902 301.158437) scale(0.1 -0.1)">
       <defs>
        <path id="DejaVuSans-31" d="M 794 531 
L 1825 531 
L 1825 4091 
L 703 3866 
L 703 4441 
L 1819 4666 
L 2450 4666 
L 2450 531 
L 3481 531 
L 3481 0 
L 794 0 
L 794 531 
z
" transform="scale(0.015625)"/>
       </defs>
       <use xlink:href="#DejaVuSans-32"/>
       <use xlink:href="#DejaVuSans-30" x="63.623047"/>
       <use xlink:href="#DejaVuSans-31" x="127.246094"/>
       <use xlink:href="#DejaVuSans-34" x="190.869141"/>
      </g>
     </g>
    </g>
    <g id="xtick_13">
     <g id="line2d_26">
      <g>
       <use xlink:href="#m4a7ff1c05e" x="118.801515" y="286.56" style="stroke: #000000; stroke-width: 0.8"/>
      </g>
     </g>
     <g id="text_12">
      <!-- 2015 -->
      <g transform="translate(106.076515 301.158437) scale(0.1 -0.1)">
       <defs>
        <path id="DejaVuSans-35" d="M 691 4666 
L 3169 4666 
L 3169 4134 
L 1269 4134 
L 1269 2991 
Q 1406 3038 1543 3061 
Q 1681 3084 1819 3084 
Q 2600 3084 3056 2656 
Q 3513 2228 3513 1497 
Q 3513 744 3044 326 
Q 2575 -91 1722 -91 
Q 1428 -91 1123 -41 
Q 819 9 494 109 
L 494 744 
Q 775 591 1075 516 
Q 1375 441 1709 441 
Q 2250 441 2565 725 
Q 2881 1009 2881 1497 
Q 2881 1984 2565 2268 
Q 2250 2553 1709 2553 
Q 1456 2553 1204 2497 
Q 953 2441 691 2322 
L 691 4666 
z
" transform="scale(0.015625)"/>
       </defs>
       <use xlink:href="#DejaVuSans-32"/>
       <use xlink:href="#DejaVuSans-30" x="63.623047"/>
       <use xlink:href="#DejaVuSans-31" x="127.246094"/>
       <use xlink:href="#DejaVuSans-35" x="190.869141"/>
      </g>
     </g>
    </g>
    <g id="xtick_14">
     <g id="line2d_27">
      <g>
       <use xlink:href="#m4a7ff1c05e" x="153.248128" y="286.56" style="stroke: #000000; stroke-width: 0.8"/>
      </g>
     </g>
     <g id="text_13">
      <!-- 2016 -->
      <g transform="translate(140.523128 301.158437) scale(0.1 -0.1)">
       <use xlink:href="#DejaVuSans-32"/>
       <use xlink:href="#DejaVuSans-30" x="63.623047"/>
       <use xlink:href="#DejaVuSans-31" x="127.246094"/>
       <use xlink:href="#DejaVuSans-36" x="190.869141"/>
      </g>
     </g>
    </g>
    <g id="xtick_15">
     <g id="line2d_28">
      <g>
       <use xlink:href="#m4a7ff1c05e" x="187.789115" y="286.56" style="stroke: #000000; stroke-width: 0.8"/>
      </g>
     </g>
     <g id="text_14">
      <!-- 2017 -->
      <g transform="translate(175.064115 301.158437) scale(0.1 -0.1)">
       <defs>
        <path id="DejaVuSans-37" d="M 525 4666 
L 3525 4666 
L 3525 4397 
L 1831 0 
L 1172 0 
L 2766 4134 
L 525 4134 
L 525 4666 
z
" transform="scale(0.015625)"/>
       </defs>
       <use xlink:href="#DejaVuSans-32"/>
       <use xlink:href="#DejaVuSans-30" x="63.623047"/>
       <use xlink:href="#DejaVuSans-31" x="127.246094"/>
       <use xlink:href="#DejaVuSans-37" x="190.869141"/>
      </g>
     </g>
    </g>
    <g id="xtick_16">
     <g id="line2d_29">
      <g>
       <use xlink:href="#m4a7ff1c05e" x="222.235727" y="286.56" style="stroke: #000000; stroke-width: 0.8"/>
      </g>
     </g>
     <g id="text_15">
      <!-- 2018 -->
      <g transform="translate(209.510727 301.158437) scale(0.1 -0.1)">
       <use xlink:href="#DejaVuSans-32"/>
       <use xlink:href="#DejaVuSans-30" x="63.623047"/>
       <use xlink:href="#DejaVuSans-31" x="127.246094"/>
       <use xlink:href="#DejaVuSans-38" x="190.869141"/>
      </g>
     </g>
    </g>
    <g id="xtick_17">
     <g id="line2d_30">
      <g>
       <use xlink:href="#m4a7ff1c05e" x="256.68234" y="286.56" style="stroke: #000000; stroke-width: 0.8"/>
      </g>
     </g>
     <g id="text_16">
      <!-- 2019 -->
      <g transform="translate(243.95734 301.158437) scale(0.1 -0.1)">
       <defs>
        <path id="DejaVuSans-39" d="M 703 97 
L 703 672 
Q 941 559 1184 500 
Q 1428 441 1663 441 
Q 2288 441 2617 861 
Q 2947 1281 2994 2138 
Q 2813 1869 2534 1725 
Q 2256 1581 1919 1581 
Q 1219 1581 811 2004 
Q 403 2428 403 3163 
Q 403 3881 828 4315 
Q 1253 4750 1959 4750 
Q 2769 4750 3195 4129 
Q 3622 3509 3622 2328 
Q 3622 1225 3098 567 
Q 2575 -91 1691 -91 
Q 1453 -91 1209 -44 
Q 966 3 703 97 
z
M 1959 2075 
Q 2384 2075 2632 2365 
Q 2881 2656 2881 3163 
Q 2881 3666 2632 3958 
Q 2384 4250 1959 4250 
Q 1534 4250 1286 3958 
Q 1038 3666 1038 3163 
Q 1038 2656 1286 2365 
Q 1534 2075 1959 2075 
z
" transform="scale(0.015625)"/>
       </defs>
       <use xlink:href="#DejaVuSans-32"/>
       <use xlink:href="#DejaVuSans-30" x="63.623047"/>
       <use xlink:href="#DejaVuSans-31" x="127.246094"/>
       <use xlink:href="#DejaVuSans-39" x="190.869141"/>
      </g>
     </g>
    </g>
    <g id="xtick_18">
     <g id="line2d_31">
      <g>
       <use xlink:href="#m4a7ff1c05e" x="291.128953" y="286.56" style="stroke: #000000; stroke-width: 0.8"/>
      </g>
     </g>
     <g id="text_17">
      <!-- 2020 -->
      <g transform="translate(278.403953 301.158437) scale(0.1 -0.1)">
       <use xlink:href="#DejaVuSans-32"/>
       <use xlink:href="#DejaVuSans-30" x="63.623047"/>
       <use xlink:href="#DejaVuSans-32" x="127.246094"/>
       <use xlink:href="#DejaVuSans-30" x="190.869141"/>
      </g>
     </g>
    </g>
    <g id="xtick_19">
     <g id="line2d_32">
      <g>
       <use xlink:href="#m4a7ff1c05e" x="325.66994" y="286.56" style="stroke: #000000; stroke-width: 0.8"/>
      </g>
     </g>
     <g id="text_18">
      <!-- 2021 -->
      <g transform="translate(312.94494 301.158437) scale(0.1 -0.1)">
       <use xlink:href="#DejaVuSans-32"/>
       <use xlink:href="#DejaVuSans-30" x="63.623047"/>
       <use xlink:href="#DejaVuSans-32" x="127.246094"/>
       <use xlink:href="#DejaVuSans-31" x="190.869141"/>
      </g>
     </g>
    </g>
    <g id="xtick_20">
     <g id="line2d_33">
      <g>
       <use xlink:href="#m4a7ff1c05e" x="360.116553" y="286.56" style="stroke: #000000; stroke-width: 0.8"/>
      </g>
     </g>
     <g id="text_19">
      <!-- 2022 -->
      <g transform="translate(347.391553 301.158437) scale(0.1 -0.1)">
       <use xlink:href="#DejaVuSans-32"/>
       <use xlink:href="#DejaVuSans-30" x="63.623047"/>
       <use xlink:href="#DejaVuSans-32" x="127.246094"/>
       <use xlink:href="#DejaVuSans-32" x="190.869141"/>
      </g>
     </g>
    </g>
    <g id="xtick_21">
     <g id="line2d_34">
      <g>
       <use xlink:href="#m4a7ff1c05e" x="394.563165" y="286.56" style="stroke: #000000; stroke-width: 0.8"/>
      </g>
     </g>
     <g id="text_20">
      <!-- 2023 -->
      <g transform="translate(381.838165 301.158437) scale(0.1 -0.1)">
       <defs>
        <path id="DejaVuSans-33" d="M 2597 2516 
Q 3050 2419 3304 2112 
Q 3559 1806 3559 1356 
Q 3559 666 3084 287 
Q 2609 -91 1734 -91 
Q 1441 -91 1130 -33 
Q 819 25 488 141 
L 488 750 
Q 750 597 1062 519 
Q 1375 441 1716 441 
Q 2309 441 2620 675 
Q 2931 909 2931 1356 
Q 2931 1769 2642 2001 
Q 2353 2234 1838 2234 
L 1294 2234 
L 1294 2753 
L 1863 2753 
Q 2328 2753 2575 2939 
Q 2822 3125 2822 3475 
Q 2822 3834 2567 4026 
Q 2313 4219 1838 4219 
Q 1578 4219 1281 4162 
Q 984 4106 628 3988 
L 628 4550 
Q 988 4650 1302 4700 
Q 1616 4750 1894 4750 
Q 2613 4750 3031 4423 
Q 3450 4097 3450 3541 
Q 3450 3153 3228 2886 
Q 3006 2619 2597 2516 
z
" transform="scale(0.015625)"/>
       </defs>
       <use xlink:href="#DejaVuSans-32"/>
       <use xlink:href="#DejaVuSans-30" x="63.623047"/>
       <use xlink:href="#DejaVuSans-32" x="127.246094"/>
       <use xlink:href="#DejaVuSans-33" x="190.869141"/>
      </g>
     </g>
    </g>
    <g id="xtick_22">
     <g id="line2d_35">
      <g>
       <use xlink:href="#m4a7ff1c05e" x="429.009778" y="286.56" style="stroke: #000000; stroke-width: 0.8"/>
      </g>
     </g>
     <g id="text_21">
      <!-- 2024 -->
      <g transform="translate(416.284778 301.158437) scale(0.1 -0.1)">
       <use xlink:href="#DejaVuSans-32"/>
       <use xlink:href="#DejaVuSans-30" x="63.623047"/>
       <use xlink:href="#DejaVuSans-32" x="127.246094"/>
       <use xlink:href="#DejaVuSans-34" x="190.869141"/>
      </g>
     </g>
    </g>
   </g>
   <g id="matplotlib.axis_4">
    <g id="ytick_6">
     <g id="line2d_36">
      <g>
       <use xlink:href="#m43ee7c9d4e" x="67.41" y="283.04407" style="stroke: #000000; stroke-width: 0.8"/>
      </g>
     </g>
     <g id="text_22">
      <!-- 0 -->
      <g transform="translate(54.0475 286.843289) scale(0.1 -0.1)">
       <use xlink:href="#DejaVuSans-30"/>
      </g>
     </g>
    </g>
    <g id="ytick_7">
     <g id="line2d_37">
      <g>
       <use xlink:href="#m43ee7c9d4e" x="67.41" y="261.735402" style="stroke: #000000; stroke-width: 0.8"/>
      </g>
     </g>
     <g id="text_23">
      <!-- 20 -->
      <g transform="translate(47.685 265.53462) scale(0.1 -0.1)">
       <use xlink:href="#DejaVuSans-32"/>
       <use xlink:href="#DejaVuSans-30" x="63.623047"/>
      </g>
     </g>
    </g>
    <g id="ytick_8">
     <g id="line2d_38">
      <g>
       <use xlink:href="#m43ee7c9d4e" x="67.41" y="240.426734" style="stroke: #000000; stroke-width: 0.8"/>
      </g>
     </g>
     <g id="text_24">
      <!-- 40 -->
      <g transform="translate(47.685 244.225952) scale(0.1 -0.1)">
       <use xlink:href="#DejaVuSans-34"/>
       <use xlink:href="#DejaVuSans-30" x="63.623047"/>
      </g>
     </g>
    </g>
    <g id="ytick_9">
     <g id="line2d_39">
      <g>
       <use xlink:href="#m43ee7c9d4e" x="67.41" y="219.118066" style="stroke: #000000; stroke-width: 0.8"/>
      </g>
     </g>
     <g id="text_25">
      <!-- 60 -->
      <g transform="translate(47.685 222.917284) scale(0.1 -0.1)">
       <use xlink:href="#DejaVuSans-36"/>
       <use xlink:href="#DejaVuSans-30" x="63.623047"/>
      </g>
     </g>
    </g>
    <g id="ytick_10">
     <g id="line2d_40">
      <g>
       <use xlink:href="#m43ee7c9d4e" x="67.41" y="197.809397" style="stroke: #000000; stroke-width: 0.8"/>
      </g>
     </g>
     <g id="text_26">
      <!-- 80 -->
      <g transform="translate(47.685 201.608616) scale(0.1 -0.1)">
       <use xlink:href="#DejaVuSans-38"/>
       <use xlink:href="#DejaVuSans-30" x="63.623047"/>
      </g>
     </g>
    </g>
   </g>
   <g id="line2d_41">
    <path d="M 84.354902 274.520603 
L 87.280505 269.193436 
L 89.922985 275.586036 
L 92.848588 268.128002 
L 95.679816 262.800835 
L 98.605419 263.866268 
L 101.436647 265.997135 
L 104.36225 250.015634 
L 107.287853 247.884767 
L 110.119081 265.997135 
L 113.044684 273.455169 
L 115.875912 274.520603 
L 118.801515 264.931702 
L 121.727118 270.258869 
L 124.369598 273.455169 
L 127.2952 269.193436 
L 130.126429 275.586036 
L 133.052031 274.520603 
L 135.88326 275.586036 
L 138.808863 267.062569 
L 141.734465 265.997135 
L 144.565694 267.062569 
L 147.491297 271.324302 
L 150.322525 267.062569 
L 153.248128 273.455169 
L 156.17373 268.128002 
L 158.910585 267.062569 
L 161.836187 271.324302 
L 164.667416 268.128002 
L 167.593018 224.445233 
L 170.424247 190.351364 
L 173.34985 198.874831 
L 176.275452 250.015634 
L 179.106681 251.081068 
L 182.032284 262.800835 
L 184.863512 268.128002 
L 187.789115 267.062569 
L 190.714717 261.735402 
L 193.357197 258.539101 
L 196.2828 253.211934 
L 199.114028 247.884767 
L 202.039631 242.5576 
L 204.87086 257.473668 
L 207.796462 246.819334 
L 210.722065 245.753901 
L 213.553294 256.408235 
L 216.478896 259.604535 
L 219.310125 263.866268 
L 222.235727 256.408235 
L 225.16133 252.146501 
L 227.80381 253.211934 
L 230.729413 261.735402 
L 233.560641 258.539101 
L 236.486244 255.342801 
L 239.317472 260.669968 
L 242.243075 246.819334 
L 245.168678 257.473668 
L 247.999906 238.295867 
L 250.925509 262.800835 
L 253.756737 256.408235 
L 256.68234 254.277368 
L 259.607943 261.735402 
L 262.250423 253.211934 
L 265.176025 242.5576 
L 268.007254 253.211934 
L 270.932857 252.146501 
L 273.764085 250.015634 
L 276.689688 242.5576 
L 279.615291 246.819334 
L 282.446519 238.295867 
L 285.372122 247.884767 
L 288.20335 259.604535 
L 291.128953 260.669968 
L 294.054556 259.604535 
L 296.79141 261.735402 
L 299.717013 271.324302 
L 302.548241 265.997135 
L 305.473844 271.324302 
L 308.305072 252.146501 
L 311.230675 253.211934 
L 314.156278 243.623034 
L 316.987506 257.473668 
L 319.913109 270.258869 
L 322.744337 250.015634 
L 325.66994 252.146501 
L 328.595543 258.539101 
L 331.238023 256.408235 
L 334.163625 253.211934 
L 336.994854 259.604535 
L 339.920456 270.258869 
L 342.751685 263.866268 
L 345.677288 268.128002 
L 348.60289 262.800835 
L 351.434119 264.931702 
L 354.359721 270.258869 
L 357.19095 267.062569 
L 360.116553 264.931702 
L 363.042155 263.866268 
L 365.684635 254.277368 
L 368.610238 271.324302 
L 371.441466 257.473668 
L 374.367069 256.408235 
L 377.198298 241.492167 
L 380.1239 224.445233 
L 383.049503 245.753901 
L 385.880731 238.295867 
L 388.806334 243.623034 
L 391.637563 227.641533 
L 394.563165 224.445233 
L 397.488768 242.5576 
L 400.131248 242.5576 
L 403.056851 243.623034 
L 405.888079 232.9687 
L 408.813682 227.641533 
L 411.64491 221.248932 
L 414.570513 216.987199 
L 417.496116 237.230433 
L 420.327344 225.510666 
L 423.252947 259.604535 
" clip-path="url(#p0e252ffc3f)" style="fill: none; stroke: #1f77b4; stroke-width: 1.5; stroke-linecap: square"/>
   </g>
   <g id="line2d_42">
    <path d="M 84.354902 281.978636 
L 110.119081 281.978636 
L 147.491297 281.978636 
L 170.424247 281.978636 
L 179.106681 281.978636 
L 182.032284 281.978636 
L 247.999906 281.978636 
L 308.305072 281.978636 
L 385.880731 280.913203 
L 391.637563 273.455169 
L 394.563165 276.651469 
L 397.488768 280.913203 
L 400.131248 280.913203 
L 414.570513 281.978636 
L 417.496116 274.520603 
L 420.327344 281.978636 
L 423.252947 280.913203 
" clip-path="url(#p0e252ffc3f)" style="fill: none; stroke: #ff7f0e; stroke-width: 1.5; stroke-linecap: square"/>
   </g>
   <g id="line2d_43">
    <path d="M 84.354902 260.669968 
L 87.280505 255.342801 
L 89.922985 271.324302 
L 92.848588 253.211934 
L 95.679816 254.277368 
L 98.605419 245.753901 
L 101.436647 240.426734 
L 104.36225 226.576099 
L 107.287853 246.819334 
L 110.119081 254.277368 
L 113.044684 270.258869 
L 115.875912 265.997135 
L 118.801515 255.342801 
L 121.727118 267.062569 
L 124.369598 255.342801 
L 127.2952 262.800835 
L 130.126429 275.586036 
L 133.052031 278.782336 
L 135.88326 271.324302 
L 138.808863 262.800835 
L 141.734465 258.539101 
L 144.565694 263.866268 
L 147.491297 262.800835 
L 150.322525 261.735402 
L 153.248128 273.455169 
L 156.17373 267.062569 
L 158.910585 272.389736 
L 161.836187 267.062569 
L 164.667416 274.520603 
L 167.593018 235.099567 
L 170.424247 211.660032 
L 173.34985 212.725465 
L 176.275452 245.753901 
L 179.106681 248.950201 
L 182.032284 258.539101 
L 184.863512 260.669968 
L 187.789115 263.866268 
L 190.714717 256.408235 
L 193.357197 248.950201 
L 196.2828 245.753901 
L 199.114028 247.884767 
L 202.039631 256.408235 
L 204.87086 254.277368 
L 207.796462 251.081068 
L 210.722065 247.884767 
L 213.553294 260.669968 
L 216.478896 264.931702 
L 219.310125 268.128002 
L 222.235727 262.800835 
L 225.16133 253.211934 
L 227.80381 253.211934 
L 230.729413 265.997135 
L 233.560641 251.081068 
L 236.486244 256.408235 
L 239.317472 258.539101 
L 242.243075 252.146501 
L 245.168678 259.604535 
L 247.999906 245.753901 
L 250.925509 262.800835 
L 253.756737 250.015634 
L 256.68234 260.669968 
L 259.607943 261.735402 
L 262.250423 248.950201 
L 265.176025 241.492167 
L 268.007254 258.539101 
L 270.932857 243.623034 
L 273.764085 261.735402 
L 276.689688 256.408235 
L 279.615291 260.669968 
L 282.446519 241.492167 
L 285.372122 254.277368 
L 288.20335 254.277368 
L 291.128953 261.735402 
L 294.054556 265.997135 
L 296.79141 260.669968 
L 299.717013 268.128002 
L 302.548241 267.062569 
L 305.473844 254.277368 
L 308.305072 255.342801 
L 311.230675 267.062569 
L 314.156278 247.884767 
L 316.987506 262.800835 
L 319.913109 263.866268 
L 322.744337 256.408235 
L 325.66994 254.277368 
L 328.595543 263.866268 
L 331.238023 265.997135 
L 334.163625 258.539101 
L 336.994854 263.866268 
L 339.920456 268.128002 
L 342.751685 256.408235 
L 345.677288 262.800835 
L 348.60289 265.997135 
L 351.434119 267.062569 
L 354.359721 267.062569 
L 357.19095 272.389736 
L 360.116553 262.800835 
L 363.042155 260.669968 
L 365.684635 258.539101 
L 368.610238 272.389736 
L 371.441466 263.866268 
L 374.367069 257.473668 
L 377.198298 245.753901 
L 380.1239 224.445233 
L 383.049503 244.688467 
L 385.880731 258.539101 
L 388.806334 250.015634 
L 391.637563 227.641533 
L 394.563165 211.660032 
L 397.488768 236.165 
L 400.131248 250.015634 
L 403.056851 257.473668 
L 405.888079 252.146501 
L 408.813682 226.576099 
L 411.64491 243.623034 
L 414.570513 230.837833 
L 417.496116 231.903266 
L 420.327344 241.492167 
L 423.252947 264.931702 
" clip-path="url(#p0e252ffc3f)" style="fill: none; stroke: #2ca02c; stroke-width: 1.5; stroke-linecap: square"/>
   </g>
   <g id="line2d_44">
    <path d="M 84.354902 263.866268 
L 87.280505 258.539101 
L 89.922985 268.128002 
L 92.848588 256.408235 
L 95.679816 254.277368 
L 98.605419 254.277368 
L 101.436647 243.623034 
L 104.36225 236.165 
L 107.287853 247.884767 
L 110.119081 255.342801 
L 113.044684 264.931702 
L 115.875912 267.062569 
L 118.801515 258.539101 
L 121.727118 263.866268 
L 124.369598 252.146501 
L 127.2952 264.931702 
L 130.126429 272.389736 
L 133.052031 276.651469 
L 135.88326 272.389736 
L 138.808863 262.800835 
L 141.734465 261.735402 
L 144.565694 268.128002 
L 147.491297 272.389736 
L 150.322525 263.866268 
L 153.248128 274.520603 
L 156.17373 270.258869 
L 158.910585 269.193436 
L 161.836187 264.931702 
L 164.667416 274.520603 
L 167.593018 236.165 
L 170.424247 207.398298 
L 173.34985 215.921765 
L 176.275452 245.753901 
L 179.106681 246.819334 
L 182.032284 260.669968 
L 184.863512 258.539101 
L 187.789115 265.997135 
L 190.714717 251.081068 
L 193.357197 254.277368 
L 196.2828 243.623034 
L 199.114028 253.211934 
L 202.039631 250.015634 
L 204.87086 258.539101 
L 207.796462 246.819334 
L 210.722065 243.623034 
L 213.553294 262.800835 
L 216.478896 260.669968 
L 219.310125 267.062569 
L 222.235727 262.800835 
L 225.16133 261.735402 
L 227.80381 261.735402 
L 230.729413 259.604535 
L 233.560641 257.473668 
L 236.486244 256.408235 
L 239.317472 261.735402 
L 242.243075 252.146501 
L 245.168678 257.473668 
L 247.999906 243.623034 
L 250.925509 267.062569 
L 253.756737 252.146501 
L 256.68234 261.735402 
L 259.607943 258.539101 
L 262.250423 246.819334 
L 265.176025 251.081068 
L 268.007254 269.193436 
L 270.932857 252.146501 
L 273.764085 250.015634 
L 276.689688 251.081068 
L 279.615291 254.277368 
L 282.446519 231.903266 
L 285.372122 255.342801 
L 288.20335 261.735402 
L 291.128953 263.866268 
L 294.054556 260.669968 
L 296.79141 270.258869 
L 299.717013 272.389736 
L 302.548241 259.604535 
L 305.473844 255.342801 
L 308.305072 256.408235 
L 311.230675 263.866268 
L 314.156278 244.688467 
L 316.987506 263.866268 
L 319.913109 265.997135 
L 322.744337 255.342801 
L 325.66994 258.539101 
L 328.595543 257.473668 
L 331.238023 260.669968 
L 334.163625 262.800835 
L 336.994854 268.128002 
L 339.920456 263.866268 
L 342.751685 262.800835 
L 345.677288 265.997135 
L 348.60289 267.062569 
L 351.434119 264.931702 
L 354.359721 272.389736 
L 357.19095 273.455169 
L 360.116553 268.128002 
L 363.042155 265.997135 
L 365.684635 254.277368 
L 368.610238 270.258869 
L 371.441466 269.193436 
L 374.367069 263.866268 
L 377.198298 241.492167 
L 380.1239 234.034133 
L 383.049503 256.408235 
L 385.880731 254.277368 
L 388.806334 255.342801 
L 391.637563 231.903266 
L 394.563165 215.921765 
L 397.488768 242.5576 
L 400.131248 251.081068 
L 403.056851 252.146501 
L 405.888079 239.3613 
L 408.813682 205.267431 
L 411.64491 214.856332 
L 414.570513 216.987199 
L 417.496116 237.230433 
L 420.327344 235.099567 
L 423.252947 252.146501 
" clip-path="url(#p0e252ffc3f)" style="fill: none; stroke: #d62728; stroke-width: 1.5; stroke-linecap: square"/>
   </g>
   <g id="patch_9">
    <path d="M 67.41 286.56 
L 67.41 185.77 
" style="fill: none; stroke: #000000; stroke-width: 0.8; stroke-linejoin: miter; stroke-linecap: square"/>
   </g>
   <g id="patch_10">
    <path d="M 440.197849 286.56 
L 440.197849 185.77 
" style="fill: none; stroke: #000000; stroke-width: 0.8; stroke-linejoin: miter; stroke-linecap: square"/>
   </g>
   <g id="patch_11">
    <path d="M 67.41 286.56 
L 440.197849 286.56 
" style="fill: none; stroke: #000000; stroke-width: 0.8; stroke-linejoin: miter; stroke-linecap: square"/>
   </g>
   <g id="patch_12">
    <path d="M 67.41 185.77 
L 440.197849 185.77 
" style="fill: none; stroke: #000000; stroke-width: 0.8; stroke-linejoin: miter; stroke-linecap: square"/>
   </g>
   <g id="text_27">
    <!-- TP+FP -->
    <g transform="translate(234.424862 179.77) scale(0.12 -0.12)">
     <defs>
      <path id="DejaVuSans-2b" d="M 2944 4013 
L 2944 2272 
L 4684 2272 
L 4684 1741 
L 2944 1741 
L 2944 0 
L 2419 0 
L 2419 1741 
L 678 1741 
L 678 2272 
L 2419 2272 
L 2419 4013 
L 2944 4013 
z
" transform="scale(0.015625)"/>
      <path id="DejaVuSans-46" d="M 628 4666 
L 3309 4666 
L 3309 4134 
L 1259 4134 
L 1259 2759 
L 3109 2759 
L 3109 2228 
L 1259 2228 
L 1259 0 
L 628 0 
L 628 4666 
z
" transform="scale(0.015625)"/>
     </defs>
     <use xlink:href="#DejaVuSans-54"/>
     <use xlink:href="#DejaVuSans-50" x="61.083984"/>
     <use xlink:href="#DejaVuSans-2b" x="121.386719"/>
     <use xlink:href="#DejaVuSans-46" x="205.175781"/>
     <use xlink:href="#DejaVuSans-50" x="262.695312"/>
    </g>
   </g>
   <g id="legend_2">
    <g id="patch_13">
     <path d="M 74.41 253.316875 
L 227.231875 253.316875 
Q 229.231875 253.316875 229.231875 251.316875 
L 229.231875 192.77 
Q 229.231875 190.77 227.231875 190.77 
L 74.41 190.77 
Q 72.41 190.77 72.41 192.77 
L 72.41 251.316875 
Q 72.41 253.316875 74.41 253.316875 
z
" style="fill: #ffffff; opacity: 0.8; stroke: #cccccc; stroke-linejoin: miter"/>
    </g>
    <g id="line2d_45">
     <path d="M 76.41 198.868438 
L 86.41 198.868438 
L 96.41 198.868438 
" style="fill: none; stroke: #1f77b4; stroke-width: 1.5; stroke-linecap: square"/>
    </g>
    <g id="text_28">
     <!-- actual -->
     <g transform="translate(104.41 202.368438) scale(0.1 -0.1)">
      <use xlink:href="#DejaVuSans-61"/>
      <use xlink:href="#DejaVuSans-63" x="61.279297"/>
      <use xlink:href="#DejaVuSans-74" x="116.259766"/>
      <use xlink:href="#DejaVuSans-75" x="155.46875"/>
      <use xlink:href="#DejaVuSans-61" x="218.847656"/>
      <use xlink:href="#DejaVuSans-6c" x="280.126953"/>
     </g>
    </g>
    <g id="line2d_46">
     <path d="M 76.41 213.546563 
L 86.41 213.546563 
L 96.41 213.546563 
" style="fill: none; stroke: #ff7f0e; stroke-width: 1.5; stroke-linecap: square"/>
    </g>
    <g id="text_29">
     <!-- prompt_no_parts -->
     <g transform="translate(104.41 217.046563) scale(0.1 -0.1)">
      <use xlink:href="#DejaVuSans-70"/>
      <use xlink:href="#DejaVuSans-72" x="63.476562"/>
      <use xlink:href="#DejaVuSans-6f" x="102.339844"/>
      <use xlink:href="#DejaVuSans-6d" x="163.521484"/>
      <use xlink:href="#DejaVuSans-70" x="260.933594"/>
      <use xlink:href="#DejaVuSans-74" x="324.410156"/>
      <use xlink:href="#DejaVuSans-5f" x="363.619141"/>
      <use xlink:href="#DejaVuSans-6e" x="413.619141"/>
      <use xlink:href="#DejaVuSans-6f" x="476.998047"/>
      <use xlink:href="#DejaVuSans-5f" x="538.179688"/>
      <use xlink:href="#DejaVuSans-70" x="588.179688"/>
      <use xlink:href="#DejaVuSans-61" x="651.65625"/>
      <use xlink:href="#DejaVuSans-72" x="712.935547"/>
      <use xlink:href="#DejaVuSans-74" x="754.048828"/>
      <use xlink:href="#DejaVuSans-73" x="793.257812"/>
     </g>
    </g>
    <g id="line2d_47">
     <path d="M 76.41 228.502813 
L 86.41 228.502813 
L 96.41 228.502813 
" style="fill: none; stroke: #2ca02c; stroke-width: 1.5; stroke-linecap: square"/>
    </g>
    <g id="text_30">
     <!-- prompt_with_parts -->
     <g transform="translate(104.41 232.002813) scale(0.1 -0.1)">
      <use xlink:href="#DejaVuSans-70"/>
      <use xlink:href="#DejaVuSans-72" x="63.476562"/>
      <use xlink:href="#DejaVuSans-6f" x="102.339844"/>
      <use xlink:href="#DejaVuSans-6d" x="163.521484"/>
      <use xlink:href="#DejaVuSans-70" x="260.933594"/>
      <use xlink:href="#DejaVuSans-74" x="324.410156"/>
      <use xlink:href="#DejaVuSans-5f" x="363.619141"/>
      <use xlink:href="#DejaVuSans-77" x="413.619141"/>
      <use xlink:href="#DejaVuSans-69" x="495.40625"/>
      <use xlink:href="#DejaVuSans-74" x="523.189453"/>
      <use xlink:href="#DejaVuSans-68" x="562.398438"/>
      <use xlink:href="#DejaVuSans-5f" x="625.777344"/>
      <use xlink:href="#DejaVuSans-70" x="675.777344"/>
      <use xlink:href="#DejaVuSans-61" x="739.253906"/>
      <use xlink:href="#DejaVuSans-72" x="800.533203"/>
      <use xlink:href="#DejaVuSans-74" x="841.646484"/>
      <use xlink:href="#DejaVuSans-73" x="880.855469"/>
     </g>
    </g>
    <g id="line2d_48">
     <path d="M 76.41 243.459063 
L 86.41 243.459063 
L 96.41 243.459063 
" style="fill: none; stroke: #d62728; stroke-width: 1.5; stroke-linecap: square"/>
    </g>
    <g id="text_31">
     <!-- prompt_emergent_parts -->
     <g transform="translate(104.41 246.959063) scale(0.1 -0.1)">
      <use xlink:href="#DejaVuSans-70"/>
      <use xlink:href="#DejaVuSans-72" x="63.476562"/>
      <use xlink:href="#DejaVuSans-6f" x="102.339844"/>
      <use xlink:href="#DejaVuSans-6d" x="163.521484"/>
      <use xlink:href="#DejaVuSans-70" x="260.933594"/>
      <use xlink:href="#DejaVuSans-74" x="324.410156"/>
      <use xlink:href="#DejaVuSans-5f" x="363.619141"/>
      <use xlink:href="#DejaVuSans-65" x="413.619141"/>
      <use xlink:href="#DejaVuSans-6d" x="475.142578"/>
      <use xlink:href="#DejaVuSans-65" x="572.554688"/>
      <use xlink:href="#DejaVuSans-72" x="634.078125"/>
      <use xlink:href="#DejaVuSans-67" x="673.441406"/>
      <use xlink:href="#DejaVuSans-65" x="736.917969"/>
      <use xlink:href="#DejaVuSans-6e" x="798.441406"/>
      <use xlink:href="#DejaVuSans-74" x="861.820312"/>
      <use xlink:href="#DejaVuSans-5f" x="901.029297"/>
      <use xlink:href="#DejaVuSans-70" x="951.029297"/>
      <use xlink:href="#DejaVuSans-61" x="1014.505859"/>
      <use xlink:href="#DejaVuSans-72" x="1075.785156"/>
      <use xlink:href="#DejaVuSans-74" x="1116.898438"/>
      <use xlink:href="#DejaVuSans-73" x="1156.107422"/>
     </g>
    </g>
   </g>
  </g>
  <g id="axes_3">
   <g id="matplotlib.axis_5">
    <g id="xtick_23">
     <g id="text_32">
      <!-- 0.0 -->
      <g style="opacity: 0" transform="translate(59.458438 301.158437) scale(0.1 -0.1)">
       <defs>
        <path id="DejaVuSans-2e" d="M 684 794 
L 1344 794 
L 1344 0 
L 684 0 
L 684 794 
z
" transform="scale(0.015625)"/>
       </defs>
       <use xlink:href="#DejaVuSans-30"/>
       <use xlink:href="#DejaVuSans-2e" x="63.623047"/>
       <use xlink:href="#DejaVuSans-30" x="95.410156"/>
      </g>
     </g>
    </g>
    <g id="xtick_24">
     <g id="text_33">
      <!-- 0.2 -->
      <g style="opacity: 0" transform="translate(134.016007 301.158437) scale(0.1 -0.1)">
       <use xlink:href="#DejaVuSans-30"/>
       <use xlink:href="#DejaVuSans-2e" x="63.623047"/>
       <use xlink:href="#DejaVuSans-32" x="95.410156"/>
      </g>
     </g>
    </g>
    <g id="xtick_25">
     <g id="text_34">
      <!-- 0.4 -->
      <g style="opacity: 0" transform="translate(208.573577 301.158437) scale(0.1 -0.1)">
       <use xlink:href="#DejaVuSans-30"/>
       <use xlink:href="#DejaVuSans-2e" x="63.623047"/>
       <use xlink:href="#DejaVuSans-34" x="95.410156"/>
      </g>
     </g>
    </g>
    <g id="xtick_26">
     <g id="text_35">
      <!-- 0.6 -->
      <g style="opacity: 0" transform="translate(283.131147 301.158437) scale(0.1 -0.1)">
       <use xlink:href="#DejaVuSans-30"/>
       <use xlink:href="#DejaVuSans-2e" x="63.623047"/>
       <use xlink:href="#DejaVuSans-36" x="95.410156"/>
      </g>
     </g>
    </g>
    <g id="xtick_27">
     <g id="text_36">
      <!-- 0.8 -->
      <g style="opacity: 0" transform="translate(357.688717 301.158437) scale(0.1 -0.1)">
       <use xlink:href="#DejaVuSans-30"/>
       <use xlink:href="#DejaVuSans-2e" x="63.623047"/>
       <use xlink:href="#DejaVuSans-38" x="95.410156"/>
      </g>
     </g>
    </g>
    <g id="xtick_28">
     <g id="text_37">
      <!-- 1.0 -->
      <g style="opacity: 0" transform="translate(432.246287 301.158437) scale(0.1 -0.1)">
       <use xlink:href="#DejaVuSans-31"/>
       <use xlink:href="#DejaVuSans-2e" x="63.623047"/>
       <use xlink:href="#DejaVuSans-30" x="95.410156"/>
      </g>
     </g>
    </g>
    <g id="text_38">
     <!-- Months -->
     <g transform="translate(235.528143 314.836563) scale(0.1 -0.1)">
      <defs>
       <path id="DejaVuSans-4d" d="M 628 4666 
L 1569 4666 
L 2759 1491 
L 3956 4666 
L 4897 4666 
L 4897 0 
L 4281 0 
L 4281 4097 
L 3078 897 
L 2444 897 
L 1241 4097 
L 1241 0 
L 628 0 
L 628 4666 
z
" transform="scale(0.015625)"/>
      </defs>
      <use xlink:href="#DejaVuSans-4d"/>
      <use xlink:href="#DejaVuSans-6f" x="86.279297"/>
      <use xlink:href="#DejaVuSans-6e" x="147.460938"/>
      <use xlink:href="#DejaVuSans-74" x="210.839844"/>
      <use xlink:href="#DejaVuSans-68" x="250.048828"/>
      <use xlink:href="#DejaVuSans-73" x="313.427734"/>
     </g>
    </g>
   </g>
   <g id="matplotlib.axis_6">
    <g id="ytick_11">
     <g id="text_39">
      <!-- 0.0 -->
      <g style="opacity: 0" transform="translate(44.506875 290.359219) scale(0.1 -0.1)">
       <use xlink:href="#DejaVuSans-30"/>
       <use xlink:href="#DejaVuSans-2e" x="63.623047"/>
       <use xlink:href="#DejaVuSans-30" x="95.410156"/>
      </g>
     </g>
    </g>
    <g id="ytick_12">
     <g id="text_40">
      <!-- 0.2 -->
      <g style="opacity: 0" transform="translate(44.506875 243.967219) scale(0.1 -0.1)">
       <use xlink:href="#DejaVuSans-30"/>
       <use xlink:href="#DejaVuSans-2e" x="63.623047"/>
       <use xlink:href="#DejaVuSans-32" x="95.410156"/>
      </g>
     </g>
    </g>
    <g id="ytick_13">
     <g id="text_41">
      <!-- 0.4 -->
      <g style="opacity: 0" transform="translate(44.506875 197.575219) scale(0.1 -0.1)">
       <use xlink:href="#DejaVuSans-30"/>
       <use xlink:href="#DejaVuSans-2e" x="63.623047"/>
       <use xlink:href="#DejaVuSans-34" x="95.410156"/>
      </g>
     </g>
    </g>
    <g id="ytick_14">
     <g id="text_42">
      <!-- 0.6 -->
      <g style="opacity: 0" transform="translate(44.506875 151.183219) scale(0.1 -0.1)">
       <use xlink:href="#DejaVuSans-30"/>
       <use xlink:href="#DejaVuSans-2e" x="63.623047"/>
       <use xlink:href="#DejaVuSans-36" x="95.410156"/>
      </g>
     </g>
    </g>
    <g id="ytick_15">
     <g id="text_43">
      <!-- 0.8 -->
      <g style="opacity: 0" transform="translate(44.506875 104.791219) scale(0.1 -0.1)">
       <use xlink:href="#DejaVuSans-30"/>
       <use xlink:href="#DejaVuSans-2e" x="63.623047"/>
       <use xlink:href="#DejaVuSans-38" x="95.410156"/>
      </g>
     </g>
    </g>
    <g id="ytick_16">
     <g id="text_44">
      <!-- 1.0 -->
      <g style="opacity: 0" transform="translate(44.506875 58.399219) scale(0.1 -0.1)">
       <use xlink:href="#DejaVuSans-31"/>
       <use xlink:href="#DejaVuSans-2e" x="63.623047"/>
       <use xlink:href="#DejaVuSans-30" x="95.410156"/>
      </g>
     </g>
    </g>
    <g id="text_45">
     <!-- Complaint counts -->
     <g transform="translate(38.427188 214.446406) rotate(-90) scale(0.1 -0.1)">
      <defs>
       <path id="DejaVuSans-43" d="M 4122 4306 
L 4122 3641 
Q 3803 3938 3442 4084 
Q 3081 4231 2675 4231 
Q 1875 4231 1450 3742 
Q 1025 3253 1025 2328 
Q 1025 1406 1450 917 
Q 1875 428 2675 428 
Q 3081 428 3442 575 
Q 3803 722 4122 1019 
L 4122 359 
Q 3791 134 3420 21 
Q 3050 -91 2638 -91 
Q 1578 -91 968 557 
Q 359 1206 359 2328 
Q 359 3453 968 4101 
Q 1578 4750 2638 4750 
Q 3056 4750 3426 4639 
Q 3797 4528 4122 4306 
z
" transform="scale(0.015625)"/>
       <path id="DejaVuSans-20" transform="scale(0.015625)"/>
      </defs>
      <use xlink:href="#DejaVuSans-43"/>
      <use xlink:href="#DejaVuSans-6f" x="69.824219"/>
      <use xlink:href="#DejaVuSans-6d" x="131.005859"/>
      <use xlink:href="#DejaVuSans-70" x="228.417969"/>
      <use xlink:href="#DejaVuSans-6c" x="291.894531"/>
      <use xlink:href="#DejaVuSans-61" x="319.677734"/>
      <use xlink:href="#DejaVuSans-69" x="380.957031"/>
      <use xlink:href="#DejaVuSans-6e" x="408.740234"/>
      <use xlink:href="#DejaVuSans-74" x="472.119141"/>
      <use xlink:href="#DejaVuSans-20" x="511.328125"/>
      <use xlink:href="#DejaVuSans-63" x="543.115234"/>
      <use xlink:href="#DejaVuSans-6f" x="598.095703"/>
      <use xlink:href="#DejaVuSans-75" x="659.277344"/>
      <use xlink:href="#DejaVuSans-6e" x="722.65625"/>
      <use xlink:href="#DejaVuSans-74" x="786.035156"/>
      <use xlink:href="#DejaVuSans-73" x="825.244141"/>
     </g>
    </g>
   </g>
  </g>
  <g id="text_46">
   <!-- 2014-2023 Hyundai Engine power train complaints -->
   <g transform="translate(77.350313 16.030125) scale(0.12 -0.12)">
    <defs>
     <path id="DejaVuSans-2d" d="M 313 2009 
L 1997 2009 
L 1997 1497 
L 313 1497 
L 313 2009 
z
" transform="scale(0.015625)"/>
     <path id="DejaVuSans-48" d="M 628 4666 
L 1259 4666 
L 1259 2753 
L 3553 2753 
L 3553 4666 
L 4184 4666 
L 4184 0 
L 3553 0 
L 3553 2222 
L 1259 2222 
L 1259 0 
L 628 0 
L 628 4666 
z
" transform="scale(0.015625)"/>
     <path id="DejaVuSans-79" d="M 2059 -325 
Q 1816 -950 1584 -1140 
Q 1353 -1331 966 -1331 
L 506 -1331 
L 506 -850 
L 844 -850 
Q 1081 -850 1212 -737 
Q 1344 -625 1503 -206 
L 1606 56 
L 191 3500 
L 800 3500 
L 1894 763 
L 2988 3500 
L 3597 3500 
L 2059 -325 
z
" transform="scale(0.015625)"/>
     <path id="DejaVuSans-64" d="M 2906 2969 
L 2906 4863 
L 3481 4863 
L 3481 0 
L 2906 0 
L 2906 525 
Q 2725 213 2448 61 
Q 2172 -91 1784 -91 
Q 1150 -91 751 415 
Q 353 922 353 1747 
Q 353 2572 751 3078 
Q 1150 3584 1784 3584 
Q 2172 3584 2448 3432 
Q 2725 3281 2906 2969 
z
M 947 1747 
Q 947 1113 1208 752 
Q 1469 391 1925 391 
Q 2381 391 2643 752 
Q 2906 1113 2906 1747 
Q 2906 2381 2643 2742 
Q 2381 3103 1925 3103 
Q 1469 3103 1208 2742 
Q 947 2381 947 1747 
z
" transform="scale(0.015625)"/>
     <path id="DejaVuSans-45" d="M 628 4666 
L 3578 4666 
L 3578 4134 
L 1259 4134 
L 1259 2753 
L 3481 2753 
L 3481 2222 
L 1259 2222 
L 1259 531 
L 3634 531 
L 3634 0 
L 628 0 
L 628 4666 
z
" transform="scale(0.015625)"/>
    </defs>
    <use xlink:href="#DejaVuSans-32"/>
    <use xlink:href="#DejaVuSans-30" x="63.623047"/>
    <use xlink:href="#DejaVuSans-31" x="127.246094"/>
    <use xlink:href="#DejaVuSans-34" x="190.869141"/>
    <use xlink:href="#DejaVuSans-2d" x="254.492188"/>
    <use xlink:href="#DejaVuSans-32" x="290.576172"/>
    <use xlink:href="#DejaVuSans-30" x="354.199219"/>
    <use xlink:href="#DejaVuSans-32" x="417.822266"/>
    <use xlink:href="#DejaVuSans-33" x="481.445312"/>
    <use xlink:href="#DejaVuSans-20" x="545.068359"/>
    <use xlink:href="#DejaVuSans-48" x="576.855469"/>
    <use xlink:href="#DejaVuSans-79" x="652.050781"/>
    <use xlink:href="#DejaVuSans-75" x="711.230469"/>
    <use xlink:href="#DejaVuSans-6e" x="774.609375"/>
    <use xlink:href="#DejaVuSans-64" x="837.988281"/>
    <use xlink:href="#DejaVuSans-61" x="901.464844"/>
    <use xlink:href="#DejaVuSans-69" x="962.744141"/>
    <use xlink:href="#DejaVuSans-20" x="990.527344"/>
    <use xlink:href="#DejaVuSans-45" x="1022.314453"/>
    <use xlink:href="#DejaVuSans-6e" x="1085.498047"/>
    <use xlink:href="#DejaVuSans-67" x="1148.876953"/>
    <use xlink:href="#DejaVuSans-69" x="1212.353516"/>
    <use xlink:href="#DejaVuSans-6e" x="1240.136719"/>
    <use xlink:href="#DejaVuSans-65" x="1303.515625"/>
    <use xlink:href="#DejaVuSans-20" x="1365.039062"/>
    <use xlink:href="#DejaVuSans-70" x="1396.826172"/>
    <use xlink:href="#DejaVuSans-6f" x="1460.302734"/>
    <use xlink:href="#DejaVuSans-77" x="1521.484375"/>
    <use xlink:href="#DejaVuSans-65" x="1603.271484"/>
    <use xlink:href="#DejaVuSans-72" x="1664.794922"/>
    <use xlink:href="#DejaVuSans-20" x="1705.908203"/>
    <use xlink:href="#DejaVuSans-74" x="1737.695312"/>
    <use xlink:href="#DejaVuSans-72" x="1776.904297"/>
    <use xlink:href="#DejaVuSans-61" x="1818.017578"/>
    <use xlink:href="#DejaVuSans-69" x="1879.296875"/>
    <use xlink:href="#DejaVuSans-6e" x="1907.080078"/>
    <use xlink:href="#DejaVuSans-20" x="1970.458984"/>
    <use xlink:href="#DejaVuSans-63" x="2002.246094"/>
    <use xlink:href="#DejaVuSans-6f" x="2057.226562"/>
    <use xlink:href="#DejaVuSans-6d" x="2118.408203"/>
    <use xlink:href="#DejaVuSans-70" x="2215.820312"/>
    <use xlink:href="#DejaVuSans-6c" x="2279.296875"/>
    <use xlink:href="#DejaVuSans-61" x="2307.080078"/>
    <use xlink:href="#DejaVuSans-69" x="2368.359375"/>
    <use xlink:href="#DejaVuSans-6e" x="2396.142578"/>
    <use xlink:href="#DejaVuSans-74" x="2459.521484"/>
    <use xlink:href="#DejaVuSans-73" x="2498.730469"/>
   </g>
  </g>
 </g>
 <defs>
  <clipPath id="pb9c8cd5309">
   <rect x="67.41" y="54.6" width="372.787849" height="100.79"/>
  </clipPath>
  <clipPath id="p0e252ffc3f">
   <rect x="67.41" y="185.77" width="372.787849" height="100.79"/>
  </clipPath>
 </defs>
</svg>
