<?xml version="1.0" encoding="utf-8" standalone="no"?>
<!DOCTYPE svg PUBLIC "-//W3C//DTD SVG 1.1//EN"
  "http://www.w3.org/Graphics/SVG/1.1/DTD/svg11.dtd">
<svg xmlns:xlink="http://www.w3.org/1999/xlink" width="460.8pt" height="345.6pt" viewBox="0 0 460.8 345.6" xmlns="http://www.w3.org/2000/svg" version="1.1">
 <metadata>
  <rdf:RDF xmlns:dc="http://purl.org/dc/elements/1.1/" xmlns:cc="http://creativecommons.org/ns#" xmlns:rdf="http://www.w3.org/1999/02/22-rdf-syntax-ns#">
   <cc:Work>
    <dc:type rdf:resource="http://purl.org/dc/dcmitype/StillImage"/>
    <dc:date>2023-12-06T07:58:07.348765</dc:date>
    <dc:format>image/svg+xml</dc:format>
    <dc:creator>
     <cc:Agent>
      <dc:title>Matplotlib v3.7.1, https://matplotlib.org/</dc:title>
     </cc:Agent>
    </dc:creator>
   </cc:Work>
  </rdf:RDF>
 </metadata>
 <defs>
  <style type="text/css">*{stroke-linejoin: round; stroke-linecap: butt}</style>
 </defs>
 <g id="figure_1">
  <g id="patch_1">
   <path d="M 0 345.6 
L 460.8 345.6 
L 460.8 0 
L 0 0 
z
" style="fill: #ffffff"/>
  </g>
  <g id="axes_1">
   <g id="patch_2">
    <path d="M 67.41 155.39 
L 440.197849 155.39 
L 440.197849 54.6 
L 67.41 54.6 
z
" style="fill: #ffffff"/>
   </g>
   <g id="matplotlib.axis_1">
    <g id="xtick_1">
     <g id="line2d_1">
      <defs>
       <path id="m5224f7bc56" d="M 0 0 
L 0 3.5 
" style="stroke: #000000; stroke-width: 0.8"/>
      </defs>
      <g>
       <use xlink:href="#m5224f7bc56" x="84.354902" y="155.39" style="stroke: #000000; stroke-width: 0.8"/>
      </g>
     </g>
    </g>
    <g id="xtick_2">
     <g id="line2d_2">
      <g>
       <use xlink:href="#m5224f7bc56" x="118.801515" y="155.39" style="stroke: #000000; stroke-width: 0.8"/>
      </g>
     </g>
    </g>
    <g id="xtick_3">
     <g id="line2d_3">
      <g>
       <use xlink:href="#m5224f7bc56" x="153.248128" y="155.39" style="stroke: #000000; stroke-width: 0.8"/>
      </g>
     </g>
    </g>
    <g id="xtick_4">
     <g id="line2d_4">
      <g>
       <use xlink:href="#m5224f7bc56" x="187.789115" y="155.39" style="stroke: #000000; stroke-width: 0.8"/>
      </g>
     </g>
    </g>
    <g id="xtick_5">
     <g id="line2d_5">
      <g>
       <use xlink:href="#m5224f7bc56" x="222.235727" y="155.39" style="stroke: #000000; stroke-width: 0.8"/>
      </g>
     </g>
    </g>
    <g id="xtick_6">
     <g id="line2d_6">
      <g>
       <use xlink:href="#m5224f7bc56" x="256.68234" y="155.39" style="stroke: #000000; stroke-width: 0.8"/>
      </g>
     </g>
    </g>
    <g id="xtick_7">
     <g id="line2d_7">
      <g>
       <use xlink:href="#m5224f7bc56" x="291.128953" y="155.39" style="stroke: #000000; stroke-width: 0.8"/>
      </g>
     </g>
    </g>
    <g id="xtick_8">
     <g id="line2d_8">
      <g>
       <use xlink:href="#m5224f7bc56" x="325.66994" y="155.39" style="stroke: #000000; stroke-width: 0.8"/>
      </g>
     </g>
    </g>
    <g id="xtick_9">
     <g id="line2d_9">
      <g>
       <use xlink:href="#m5224f7bc56" x="360.116553" y="155.39" style="stroke: #000000; stroke-width: 0.8"/>
      </g>
     </g>
    </g>
    <g id="xtick_10">
     <g id="line2d_10">
      <g>
       <use xlink:href="#m5224f7bc56" x="394.563165" y="155.39" style="stroke: #000000; stroke-width: 0.8"/>
      </g>
     </g>
    </g>
    <g id="xtick_11">
     <g id="line2d_11">
      <g>
       <use xlink:href="#m5224f7bc56" x="429.009778" y="155.39" style="stroke: #000000; stroke-width: 0.8"/>
      </g>
     </g>
    </g>
   </g>
   <g id="matplotlib.axis_2">
    <g id="ytick_1">
     <g id="line2d_12">
      <defs>
       <path id="m18f364bc3e" d="M 0 0 
L -3.5 0 
" style="stroke: #000000; stroke-width: 0.8"/>
      </defs>
      <g>
       <use xlink:href="#m18f364bc3e" x="67.41" y="152.758153" style="stroke: #000000; stroke-width: 0.8"/>
      </g>
     </g>
     <g id="text_1">
      <!-- 0 -->
      <g transform="translate(54.0475 156.557372) scale(0.1 -0.1)">
       <defs>
        <path id="DejaVuSans-30" d="M 2034 4250 
Q 1547 4250 1301 3770 
Q 1056 3291 1056 2328 
Q 1056 1369 1301 889 
Q 1547 409 2034 409 
Q 2525 409 2770 889 
Q 3016 1369 3016 2328 
Q 3016 3291 2770 3770 
Q 2525 4250 2034 4250 
z
M 2034 4750 
Q 2819 4750 3233 4129 
Q 3647 3509 3647 2328 
Q 3647 1150 3233 529 
Q 2819 -91 2034 -91 
Q 1250 -91 836 529 
Q 422 1150 422 2328 
Q 422 3509 836 4129 
Q 1250 4750 2034 4750 
z
" transform="scale(0.015625)"/>
       </defs>
       <use xlink:href="#DejaVuSans-30"/>
      </g>
     </g>
    </g>
    <g id="ytick_2">
     <g id="line2d_13">
      <g>
       <use xlink:href="#m18f364bc3e" x="67.41" y="113.767824" style="stroke: #000000; stroke-width: 0.8"/>
      </g>
     </g>
     <g id="text_2">
      <!-- 20 -->
      <g transform="translate(47.685 117.567043) scale(0.1 -0.1)">
       <defs>
        <path id="DejaVuSans-32" d="M 1228 531 
L 3431 531 
L 3431 0 
L 469 0 
L 469 531 
Q 828 903 1448 1529 
Q 2069 2156 2228 2338 
Q 2531 2678 2651 2914 
Q 2772 3150 2772 3378 
Q 2772 3750 2511 3984 
Q 2250 4219 1831 4219 
Q 1534 4219 1204 4116 
Q 875 4013 500 3803 
L 500 4441 
Q 881 4594 1212 4672 
Q 1544 4750 1819 4750 
Q 2544 4750 2975 4387 
Q 3406 4025 3406 3419 
Q 3406 3131 3298 2873 
Q 3191 2616 2906 2266 
Q 2828 2175 2409 1742 
Q 1991 1309 1228 531 
z
" transform="scale(0.015625)"/>
       </defs>
       <use xlink:href="#DejaVuSans-32"/>
       <use xlink:href="#DejaVuSans-30" x="63.623047"/>
      </g>
     </g>
    </g>
    <g id="ytick_3">
     <g id="line2d_14">
      <g>
       <use xlink:href="#m18f364bc3e" x="67.41" y="74.777495" style="stroke: #000000; stroke-width: 0.8"/>
      </g>
     </g>
     <g id="text_3">
      <!-- 40 -->
      <g transform="translate(47.685 78.576714) scale(0.1 -0.1)">
       <defs>
        <path id="DejaVuSans-34" d="M 2419 4116 
L 825 1625 
L 2419 1625 
L 2419 4116 
z
M 2253 4666 
L 3047 4666 
L 3047 1625 
L 3713 1625 
L 3713 1100 
L 3047 1100 
L 3047 0 
L 2419 0 
L 2419 1100 
L 313 1100 
L 313 1709 
L 2253 4666 
z
" transform="scale(0.015625)"/>
       </defs>
       <use xlink:href="#DejaVuSans-34"/>
       <use xlink:href="#DejaVuSans-30" x="63.623047"/>
      </g>
     </g>
    </g>
   </g>
   <g id="line2d_15">
    <path d="M 84.354902 123.515406 
L 87.280505 139.111538 
L 89.922985 133.262988 
L 92.848588 123.515406 
L 95.679816 109.868791 
L 98.605419 121.56589 
L 101.436647 111.818308 
L 104.36225 102.070725 
L 107.287853 104.020242 
L 110.119081 96.222176 
L 113.044684 127.414439 
L 115.875912 121.56589 
L 118.801515 105.969758 
L 121.727118 121.56589 
L 124.369598 121.56589 
L 127.2952 115.71734 
L 130.126429 127.414439 
L 133.052031 125.464923 
L 135.88326 137.162021 
L 138.808863 117.666857 
L 141.734465 125.464923 
L 144.565694 125.464923 
L 147.491297 133.262988 
L 150.322525 127.414439 
L 153.248128 141.061054 
L 156.17373 135.212505 
L 158.910585 123.515406 
L 161.836187 129.363956 
L 164.667416 131.313472 
L 167.593018 125.464923 
L 170.424247 129.363956 
L 173.34985 131.313472 
L 176.275452 129.363956 
L 179.106681 137.162021 
L 182.032284 127.414439 
L 184.863512 133.262988 
L 187.789115 127.414439 
L 190.714717 137.162021 
L 193.357197 125.464923 
L 196.2828 141.061054 
L 199.114028 131.313472 
L 202.039631 131.313472 
L 204.87086 139.111538 
L 207.796462 135.212505 
L 210.722065 131.313472 
L 213.553294 131.313472 
L 216.478896 131.313472 
L 219.310125 139.111538 
L 222.235727 127.414439 
L 225.16133 135.212505 
L 227.80381 131.313472 
L 230.729413 115.71734 
L 233.560641 129.363956 
L 236.486244 121.56589 
L 239.317472 127.414439 
L 242.243075 127.414439 
L 245.168678 141.061054 
L 247.999906 125.464923 
L 250.925509 143.010571 
L 253.756737 127.414439 
L 256.68234 135.212505 
L 259.607943 115.71734 
L 262.250423 125.464923 
L 265.176025 135.212505 
L 268.007254 127.414439 
L 270.932857 129.363956 
L 273.764085 117.666857 
L 276.689688 125.464923 
L 279.615291 133.262988 
L 282.446519 135.212505 
L 285.372122 131.313472 
L 288.20335 137.162021 
L 291.128953 139.111538 
L 294.054556 143.010571 
L 296.79141 131.313472 
L 299.717013 141.061054 
L 302.548241 137.162021 
L 305.473844 135.212505 
L 308.305072 141.061054 
L 311.230675 131.313472 
L 314.156278 127.414439 
L 316.987506 131.313472 
L 319.913109 135.212505 
L 322.744337 141.061054 
L 325.66994 127.414439 
L 328.595543 139.111538 
L 331.238023 127.414439 
L 334.163625 139.111538 
L 336.994854 143.010571 
L 339.920456 148.85912 
L 342.751685 146.909603 
L 345.677288 141.061054 
L 348.60289 144.960087 
L 351.434119 141.061054 
L 354.359721 141.061054 
L 357.19095 146.909603 
L 360.116553 135.212505 
L 363.042155 144.960087 
L 365.684635 143.010571 
L 368.610238 150.808636 
L 371.441466 143.010571 
L 374.367069 141.061054 
L 377.198298 139.111538 
L 380.1239 141.061054 
L 383.049503 141.061054 
L 385.880731 133.262988 
L 388.806334 135.212505 
L 391.637563 139.111538 
L 394.563165 148.85912 
L 397.488768 143.010571 
L 400.131248 139.111538 
L 403.056851 143.010571 
L 405.888079 141.061054 
L 408.813682 135.212505 
L 411.64491 141.061054 
L 414.570513 139.111538 
L 417.496116 143.010571 
L 420.327344 141.061054 
L 423.252947 137.162021 
" clip-path="url(#p55cec57725)" style="fill: none; stroke: #1f77b4; stroke-width: 1.5; stroke-linecap: square"/>
   </g>
   <g id="line2d_16">
    <path d="M 84.354902 146.909603 
L 92.848588 150.808636 
L 95.679816 150.808636 
L 101.436647 143.010571 
L 104.36225 150.808636 
L 107.287853 144.960087 
L 110.119081 139.111538 
L 113.044684 146.909603 
L 115.875912 150.808636 
L 118.801515 143.010571 
L 121.727118 146.909603 
L 124.369598 148.85912 
L 127.2952 148.85912 
L 133.052031 150.808636 
L 138.808863 146.909603 
L 144.565694 146.909603 
L 150.322525 150.808636 
L 153.248128 150.808636 
L 156.17373 150.808636 
L 158.910585 146.909603 
L 161.836187 148.85912 
L 167.593018 148.85912 
L 170.424247 150.808636 
L 173.34985 150.808636 
L 176.275452 150.808636 
L 179.106681 150.808636 
L 182.032284 150.808636 
L 184.863512 150.808636 
L 196.2828 148.85912 
L 199.114028 150.808636 
L 207.796462 150.808636 
L 213.553294 150.808636 
L 219.310125 150.808636 
L 222.235727 150.808636 
L 230.729413 150.808636 
L 233.560641 150.808636 
L 236.486244 150.808636 
L 239.317472 148.85912 
L 247.999906 150.808636 
L 250.925509 150.808636 
L 253.756737 146.909603 
L 259.607943 150.808636 
L 262.250423 150.808636 
L 268.007254 150.808636 
L 273.764085 148.85912 
L 282.446519 148.85912 
L 285.372122 150.808636 
L 288.20335 150.808636 
L 296.79141 150.808636 
L 299.717013 150.808636 
L 302.548241 150.808636 
L 305.473844 150.808636 
L 316.987506 150.808636 
L 319.913109 150.808636 
L 325.66994 150.808636 
L 328.595543 148.85912 
L 331.238023 148.85912 
L 351.434119 150.808636 
L 371.441466 150.808636 
L 380.1239 150.808636 
L 383.049503 150.808636 
L 385.880731 150.808636 
L 388.806334 148.85912 
L 403.056851 150.808636 
L 408.813682 148.85912 
L 411.64491 150.808636 
" clip-path="url(#p55cec57725)" style="fill: none; stroke: #ff7f0e; stroke-width: 1.5; stroke-linecap: square"/>
   </g>
   <g id="line2d_17">
    <path d="M 84.354902 129.363956 
L 87.280505 143.010571 
L 89.922985 137.162021 
L 92.848588 123.515406 
L 95.679816 117.666857 
L 98.605419 127.414439 
L 101.436647 115.71734 
L 104.36225 105.969758 
L 107.287853 109.868791 
L 110.119081 104.020242 
L 113.044684 131.313472 
L 115.875912 127.414439 
L 118.801515 113.767824 
L 121.727118 125.464923 
L 124.369598 129.363956 
L 127.2952 119.616373 
L 130.126429 133.262988 
L 133.052031 127.414439 
L 135.88326 139.111538 
L 138.808863 121.56589 
L 141.734465 131.313472 
L 144.565694 125.464923 
L 147.491297 137.162021 
L 150.322525 131.313472 
L 153.248128 143.010571 
L 156.17373 141.061054 
L 158.910585 123.515406 
L 161.836187 135.212505 
L 164.667416 135.212505 
L 167.593018 129.363956 
L 170.424247 131.313472 
L 173.34985 133.262988 
L 176.275452 131.313472 
L 179.106681 143.010571 
L 182.032284 129.363956 
L 184.863512 139.111538 
L 187.789115 129.363956 
L 190.714717 139.111538 
L 193.357197 129.363956 
L 196.2828 143.010571 
L 199.114028 131.313472 
L 202.039631 137.162021 
L 204.87086 139.111538 
L 207.796462 135.212505 
L 210.722065 135.212505 
L 213.553294 137.162021 
L 216.478896 131.313472 
L 219.310125 141.061054 
L 222.235727 127.414439 
L 225.16133 139.111538 
L 227.80381 133.262988 
L 230.729413 123.515406 
L 233.560641 133.262988 
L 236.486244 125.464923 
L 239.317472 131.313472 
L 242.243075 133.262988 
L 245.168678 141.061054 
L 247.999906 127.414439 
L 250.925509 144.960087 
L 253.756737 131.313472 
L 256.68234 135.212505 
L 259.607943 121.56589 
L 262.250423 127.414439 
L 265.176025 135.212505 
L 268.007254 133.262988 
L 270.932857 131.313472 
L 273.764085 119.616373 
L 276.689688 129.363956 
L 279.615291 133.262988 
L 282.446519 139.111538 
L 285.372122 133.262988 
L 288.20335 141.061054 
L 291.128953 141.061054 
L 294.054556 143.010571 
L 296.79141 135.212505 
L 299.717013 143.010571 
L 302.548241 137.162021 
L 305.473844 137.162021 
L 308.305072 146.909603 
L 311.230675 135.212505 
L 314.156278 129.363956 
L 316.987506 133.262988 
L 319.913109 135.212505 
L 322.744337 144.960087 
L 325.66994 133.262988 
L 328.595543 141.061054 
L 331.238023 127.414439 
L 334.163625 141.061054 
L 336.994854 143.010571 
L 339.920456 150.808636 
L 342.751685 146.909603 
L 345.677288 141.061054 
L 348.60289 144.960087 
L 351.434119 141.061054 
L 354.359721 143.010571 
L 357.19095 146.909603 
L 360.116553 137.162021 
L 363.042155 144.960087 
L 365.684635 143.010571 
L 368.610238 150.808636 
L 371.441466 144.960087 
L 374.367069 141.061054 
L 377.198298 139.111538 
L 380.1239 144.960087 
L 383.049503 143.010571 
L 385.880731 133.262988 
L 388.806334 139.111538 
L 391.637563 146.909603 
L 394.563165 150.808636 
L 397.488768 143.010571 
L 400.131248 141.061054 
L 403.056851 143.010571 
L 405.888079 143.010571 
L 408.813682 141.061054 
L 411.64491 141.061054 
L 414.570513 139.111538 
L 417.496116 146.909603 
L 420.327344 143.010571 
L 423.252947 139.111538 
" clip-path="url(#p55cec57725)" style="fill: none; stroke: #2ca02c; stroke-width: 1.5; stroke-linecap: square"/>
   </g>
   <g id="line2d_18">
    <path d="M 84.354902 129.363956 
L 87.280505 143.010571 
L 89.922985 139.111538 
L 92.848588 127.414439 
L 95.679816 119.616373 
L 98.605419 129.363956 
L 101.436647 115.71734 
L 104.36225 104.020242 
L 107.287853 109.868791 
L 110.119081 104.020242 
L 113.044684 131.313472 
L 115.875912 133.262988 
L 118.801515 115.71734 
L 121.727118 127.414439 
L 124.369598 133.262988 
L 127.2952 121.56589 
L 130.126429 133.262988 
L 133.052031 129.363956 
L 135.88326 143.010571 
L 138.808863 121.56589 
L 141.734465 133.262988 
L 144.565694 127.414439 
L 147.491297 137.162021 
L 150.322525 131.313472 
L 153.248128 143.010571 
L 156.17373 141.061054 
L 158.910585 125.464923 
L 161.836187 133.262988 
L 164.667416 133.262988 
L 167.593018 131.313472 
L 170.424247 131.313472 
L 173.34985 135.212505 
L 176.275452 131.313472 
L 179.106681 143.010571 
L 182.032284 131.313472 
L 184.863512 141.061054 
L 187.789115 133.262988 
L 190.714717 139.111538 
L 193.357197 135.212505 
L 196.2828 143.010571 
L 199.114028 137.162021 
L 202.039631 141.061054 
L 204.87086 141.061054 
L 207.796462 135.212505 
L 210.722065 135.212505 
L 213.553294 139.111538 
L 216.478896 133.262988 
L 219.310125 141.061054 
L 222.235727 127.414439 
L 225.16133 139.111538 
L 227.80381 135.212505 
L 230.729413 125.464923 
L 233.560641 133.262988 
L 236.486244 127.414439 
L 239.317472 131.313472 
L 242.243075 135.212505 
L 245.168678 141.061054 
L 247.999906 131.313472 
L 250.925509 144.960087 
L 253.756737 133.262988 
L 256.68234 135.212505 
L 259.607943 119.616373 
L 262.250423 133.262988 
L 265.176025 135.212505 
L 268.007254 133.262988 
L 270.932857 131.313472 
L 273.764085 123.515406 
L 276.689688 131.313472 
L 279.615291 133.262988 
L 282.446519 139.111538 
L 285.372122 135.212505 
L 288.20335 143.010571 
L 291.128953 143.010571 
L 294.054556 143.010571 
L 296.79141 137.162021 
L 299.717013 143.010571 
L 302.548241 139.111538 
L 305.473844 139.111538 
L 308.305072 146.909603 
L 311.230675 137.162021 
L 314.156278 129.363956 
L 316.987506 133.262988 
L 319.913109 139.111538 
L 322.744337 146.909603 
L 325.66994 133.262988 
L 328.595543 143.010571 
L 331.238023 127.414439 
L 334.163625 143.010571 
L 336.994854 143.010571 
L 339.920456 150.808636 
L 342.751685 146.909603 
L 345.677288 143.010571 
L 348.60289 146.909603 
L 351.434119 141.061054 
L 354.359721 143.010571 
L 357.19095 146.909603 
L 360.116553 139.111538 
L 363.042155 146.909603 
L 365.684635 144.960087 
L 368.610238 150.808636 
L 371.441466 146.909603 
L 374.367069 143.010571 
L 377.198298 139.111538 
L 380.1239 146.909603 
L 383.049503 143.010571 
L 385.880731 135.212505 
L 388.806334 139.111538 
L 391.637563 146.909603 
L 394.563165 150.808636 
L 397.488768 143.010571 
L 400.131248 144.960087 
L 403.056851 143.010571 
L 405.888079 144.960087 
L 408.813682 141.061054 
L 411.64491 141.061054 
L 414.570513 141.061054 
L 417.496116 146.909603 
L 420.327344 143.010571 
L 423.252947 139.111538 
" clip-path="url(#p55cec57725)" style="fill: none; stroke: #d62728; stroke-width: 1.5; stroke-linecap: square"/>
   </g>
   <g id="patch_3">
    <path d="M 67.41 155.39 
L 67.41 54.6 
" style="fill: none; stroke: #000000; stroke-width: 0.8; stroke-linejoin: miter; stroke-linecap: square"/>
   </g>
   <g id="patch_4">
    <path d="M 440.197849 155.39 
L 440.197849 54.6 
" style="fill: none; stroke: #000000; stroke-width: 0.8; stroke-linejoin: miter; stroke-linecap: square"/>
   </g>
   <g id="patch_5">
    <path d="M 67.41 155.39 
L 440.197849 155.39 
" style="fill: none; stroke: #000000; stroke-width: 0.8; stroke-linejoin: miter; stroke-linecap: square"/>
   </g>
   <g id="patch_6">
    <path d="M 67.41 54.6 
L 440.197849 54.6 
" style="fill: none; stroke: #000000; stroke-width: 0.8; stroke-linejoin: miter; stroke-linecap: square"/>
   </g>
   <g id="text_4">
    <!-- TP -->
    <g transform="translate(246.521425 48.6) scale(0.12 -0.12)">
     <defs>
      <path id="DejaVuSans-54" d="M -19 4666 
L 3928 4666 
L 3928 4134 
L 2272 4134 
L 2272 0 
L 1638 0 
L 1638 4134 
L -19 4134 
L -19 4666 
z
" transform="scale(0.015625)"/>
      <path id="DejaVuSans-50" d="M 1259 4147 
L 1259 2394 
L 2053 2394 
Q 2494 2394 2734 2622 
Q 2975 2850 2975 3272 
Q 2975 3691 2734 3919 
Q 2494 4147 2053 4147 
L 1259 4147 
z
M 628 4666 
L 2053 4666 
Q 2838 4666 3239 4311 
Q 3641 3956 3641 3272 
Q 3641 2581 3239 2228 
Q 2838 1875 2053 1875 
L 1259 1875 
L 1259 0 
L 628 0 
L 628 4666 
z
" transform="scale(0.015625)"/>
     </defs>
     <use xlink:href="#DejaVuSans-54"/>
     <use xlink:href="#DejaVuSans-50" x="61.083984"/>
    </g>
   </g>
   <g id="legend_1">
    <g id="patch_7">
     <path d="M 280.375974 122.146875 
L 433.197849 122.146875 
Q 435.197849 122.146875 435.197849 120.146875 
L 435.197849 61.6 
Q 435.197849 59.6 433.197849 59.6 
L 280.375974 59.6 
Q 278.375974 59.6 278.375974 61.6 
L 278.375974 120.146875 
Q 278.375974 122.146875 280.375974 122.146875 
z
" style="fill: #ffffff; opacity: 0.8; stroke: #cccccc; stroke-linejoin: miter"/>
    </g>
    <g id="line2d_19">
     <path d="M 282.375974 67.698438 
L 292.375974 67.698438 
L 302.375974 67.698438 
" style="fill: none; stroke: #1f77b4; stroke-width: 1.5; stroke-linecap: square"/>
    </g>
    <g id="text_5">
     <!-- actual -->
     <g transform="translate(310.375974 71.198438) scale(0.1 -0.1)">
      <defs>
       <path id="DejaVuSans-61" d="M 2194 1759 
Q 1497 1759 1228 1600 
Q 959 1441 959 1056 
Q 959 750 1161 570 
Q 1363 391 1709 391 
Q 2188 391 2477 730 
Q 2766 1069 2766 1631 
L 2766 1759 
L 2194 1759 
z
M 3341 1997 
L 3341 0 
L 2766 0 
L 2766 531 
Q 2569 213 2275 61 
Q 1981 -91 1556 -91 
Q 1019 -91 701 211 
Q 384 513 384 1019 
Q 384 1609 779 1909 
Q 1175 2209 1959 2209 
L 2766 2209 
L 2766 2266 
Q 2766 2663 2505 2880 
Q 2244 3097 1772 3097 
Q 1472 3097 1187 3025 
Q 903 2953 641 2809 
L 641 3341 
Q 956 3463 1253 3523 
Q 1550 3584 1831 3584 
Q 2591 3584 2966 3190 
Q 3341 2797 3341 1997 
z
" transform="scale(0.015625)"/>
       <path id="DejaVuSans-63" d="M 3122 3366 
L 3122 2828 
Q 2878 2963 2633 3030 
Q 2388 3097 2138 3097 
Q 1578 3097 1268 2742 
Q 959 2388 959 1747 
Q 959 1106 1268 751 
Q 1578 397 2138 397 
Q 2388 397 2633 464 
Q 2878 531 3122 666 
L 3122 134 
Q 2881 22 2623 -34 
Q 2366 -91 2075 -91 
Q 1284 -91 818 406 
Q 353 903 353 1747 
Q 353 2603 823 3093 
Q 1294 3584 2113 3584 
Q 2378 3584 2631 3529 
Q 2884 3475 3122 3366 
z
" transform="scale(0.015625)"/>
       <path id="DejaVuSans-74" d="M 1172 4494 
L 1172 3500 
L 2356 3500 
L 2356 3053 
L 1172 3053 
L 1172 1153 
Q 1172 725 1289 603 
Q 1406 481 1766 481 
L 2356 481 
L 2356 0 
L 1766 0 
Q 1100 0 847 248 
Q 594 497 594 1153 
L 594 3053 
L 172 3053 
L 172 3500 
L 594 3500 
L 594 4494 
L 1172 4494 
z
" transform="scale(0.015625)"/>
       <path id="DejaVuSans-75" d="M 544 1381 
L 544 3500 
L 1119 3500 
L 1119 1403 
Q 1119 906 1312 657 
Q 1506 409 1894 409 
Q 2359 409 2629 706 
Q 2900 1003 2900 1516 
L 2900 3500 
L 3475 3500 
L 3475 0 
L 2900 0 
L 2900 538 
Q 2691 219 2414 64 
Q 2138 -91 1772 -91 
Q 1169 -91 856 284 
Q 544 659 544 1381 
z
M 1991 3584 
L 1991 3584 
z
" transform="scale(0.015625)"/>
       <path id="DejaVuSans-6c" d="M 603 4863 
L 1178 4863 
L 1178 0 
L 603 0 
L 603 4863 
z
" transform="scale(0.015625)"/>
      </defs>
      <use xlink:href="#DejaVuSans-61"/>
      <use xlink:href="#DejaVuSans-63" x="61.279297"/>
      <use xlink:href="#DejaVuSans-74" x="116.259766"/>
      <use xlink:href="#DejaVuSans-75" x="155.46875"/>
      <use xlink:href="#DejaVuSans-61" x="218.847656"/>
      <use xlink:href="#DejaVuSans-6c" x="280.126953"/>
     </g>
    </g>
    <g id="line2d_20">
     <path d="M 282.375974 82.376563 
L 292.375974 82.376563 
L 302.375974 82.376563 
" style="fill: none; stroke: #ff7f0e; stroke-width: 1.5; stroke-linecap: square"/>
    </g>
    <g id="text_6">
     <!-- prompt_no_parts -->
     <g transform="translate(310.375974 85.876563) scale(0.1 -0.1)">
      <defs>
       <path id="DejaVuSans-70" d="M 1159 525 
L 1159 -1331 
L 581 -1331 
L 581 3500 
L 1159 3500 
L 1159 2969 
Q 1341 3281 1617 3432 
Q 1894 3584 2278 3584 
Q 2916 3584 3314 3078 
Q 3713 2572 3713 1747 
Q 3713 922 3314 415 
Q 2916 -91 2278 -91 
Q 1894 -91 1617 61 
Q 1341 213 1159 525 
z
M 3116 1747 
Q 3116 2381 2855 2742 
Q 2594 3103 2138 3103 
Q 1681 3103 1420 2742 
Q 1159 2381 1159 1747 
Q 1159 1113 1420 752 
Q 1681 391 2138 391 
Q 2594 391 2855 752 
Q 3116 1113 3116 1747 
z
" transform="scale(0.015625)"/>
       <path id="DejaVuSans-72" d="M 2631 2963 
Q 2534 3019 2420 3045 
Q 2306 3072 2169 3072 
Q 1681 3072 1420 2755 
Q 1159 2438 1159 1844 
L 1159 0 
L 581 0 
L 581 3500 
L 1159 3500 
L 1159 2956 
Q 1341 3275 1631 3429 
Q 1922 3584 2338 3584 
Q 2397 3584 2469 3576 
Q 2541 3569 2628 3553 
L 2631 2963 
z
" transform="scale(0.015625)"/>
       <path id="DejaVuSans-6f" d="M 1959 3097 
Q 1497 3097 1228 2736 
Q 959 2375 959 1747 
Q 959 1119 1226 758 
Q 1494 397 1959 397 
Q 2419 397 2687 759 
Q 2956 1122 2956 1747 
Q 2956 2369 2687 2733 
Q 2419 3097 1959 3097 
z
M 1959 3584 
Q 2709 3584 3137 3096 
Q 3566 2609 3566 1747 
Q 3566 888 3137 398 
Q 2709 -91 1959 -91 
Q 1206 -91 779 398 
Q 353 888 353 1747 
Q 353 2609 779 3096 
Q 1206 3584 1959 3584 
z
" transform="scale(0.015625)"/>
       <path id="DejaVuSans-6d" d="M 3328 2828 
Q 3544 3216 3844 3400 
Q 4144 3584 4550 3584 
Q 5097 3584 5394 3201 
Q 5691 2819 5691 2113 
L 5691 0 
L 5113 0 
L 5113 2094 
Q 5113 2597 4934 2840 
Q 4756 3084 4391 3084 
Q 3944 3084 3684 2787 
Q 3425 2491 3425 1978 
L 3425 0 
L 2847 0 
L 2847 2094 
Q 2847 2600 2669 2842 
Q 2491 3084 2119 3084 
Q 1678 3084 1418 2786 
Q 1159 2488 1159 1978 
L 1159 0 
L 581 0 
L 581 3500 
L 1159 3500 
L 1159 2956 
Q 1356 3278 1631 3431 
Q 1906 3584 2284 3584 
Q 2666 3584 2933 3390 
Q 3200 3197 3328 2828 
z
" transform="scale(0.015625)"/>
       <path id="DejaVuSans-5f" d="M 3263 -1063 
L 3263 -1509 
L -63 -1509 
L -63 -1063 
L 3263 -1063 
z
" transform="scale(0.015625)"/>
       <path id="DejaVuSans-6e" d="M 3513 2113 
L 3513 0 
L 2938 0 
L 2938 2094 
Q 2938 2591 2744 2837 
Q 2550 3084 2163 3084 
Q 1697 3084 1428 2787 
Q 1159 2491 1159 1978 
L 1159 0 
L 581 0 
L 581 3500 
L 1159 3500 
L 1159 2956 
Q 1366 3272 1645 3428 
Q 1925 3584 2291 3584 
Q 2894 3584 3203 3211 
Q 3513 2838 3513 2113 
z
" transform="scale(0.015625)"/>
       <path id="DejaVuSans-73" d="M 2834 3397 
L 2834 2853 
Q 2591 2978 2328 3040 
Q 2066 3103 1784 3103 
Q 1356 3103 1142 2972 
Q 928 2841 928 2578 
Q 928 2378 1081 2264 
Q 1234 2150 1697 2047 
L 1894 2003 
Q 2506 1872 2764 1633 
Q 3022 1394 3022 966 
Q 3022 478 2636 193 
Q 2250 -91 1575 -91 
Q 1294 -91 989 -36 
Q 684 19 347 128 
L 347 722 
Q 666 556 975 473 
Q 1284 391 1588 391 
Q 1994 391 2212 530 
Q 2431 669 2431 922 
Q 2431 1156 2273 1281 
Q 2116 1406 1581 1522 
L 1381 1569 
Q 847 1681 609 1914 
Q 372 2147 372 2553 
Q 372 3047 722 3315 
Q 1072 3584 1716 3584 
Q 2034 3584 2315 3537 
Q 2597 3491 2834 3397 
z
" transform="scale(0.015625)"/>
      </defs>
      <use xlink:href="#DejaVuSans-70"/>
      <use xlink:href="#DejaVuSans-72" x="63.476562"/>
      <use xlink:href="#DejaVuSans-6f" x="102.339844"/>
      <use xlink:href="#DejaVuSans-6d" x="163.521484"/>
      <use xlink:href="#DejaVuSans-70" x="260.933594"/>
      <use xlink:href="#DejaVuSans-74" x="324.410156"/>
      <use xlink:href="#DejaVuSans-5f" x="363.619141"/>
      <use xlink:href="#DejaVuSans-6e" x="413.619141"/>
      <use xlink:href="#DejaVuSans-6f" x="476.998047"/>
      <use xlink:href="#DejaVuSans-5f" x="538.179688"/>
      <use xlink:href="#DejaVuSans-70" x="588.179688"/>
      <use xlink:href="#DejaVuSans-61" x="651.65625"/>
      <use xlink:href="#DejaVuSans-72" x="712.935547"/>
      <use xlink:href="#DejaVuSans-74" x="754.048828"/>
      <use xlink:href="#DejaVuSans-73" x="793.257812"/>
     </g>
    </g>
    <g id="line2d_21">
     <path d="M 282.375974 97.332813 
L 292.375974 97.332813 
L 302.375974 97.332813 
" style="fill: none; stroke: #2ca02c; stroke-width: 1.5; stroke-linecap: square"/>
    </g>
    <g id="text_7">
     <!-- prompt_with_parts -->
     <g transform="translate(310.375974 100.832813) scale(0.1 -0.1)">
      <defs>
       <path id="DejaVuSans-77" d="M 269 3500 
L 844 3500 
L 1563 769 
L 2278 3500 
L 2956 3500 
L 3675 769 
L 4391 3500 
L 4966 3500 
L 4050 0 
L 3372 0 
L 2619 2869 
L 1863 0 
L 1184 0 
L 269 3500 
z
" transform="scale(0.015625)"/>
       <path id="DejaVuSans-69" d="M 603 3500 
L 1178 3500 
L 1178 0 
L 603 0 
L 603 3500 
z
M 603 4863 
L 1178 4863 
L 1178 4134 
L 603 4134 
L 603 4863 
z
" transform="scale(0.015625)"/>
       <path id="DejaVuSans-68" d="M 3513 2113 
L 3513 0 
L 2938 0 
L 2938 2094 
Q 2938 2591 2744 2837 
Q 2550 3084 2163 3084 
Q 1697 3084 1428 2787 
Q 1159 2491 1159 1978 
L 1159 0 
L 581 0 
L 581 4863 
L 1159 4863 
L 1159 2956 
Q 1366 3272 1645 3428 
Q 1925 3584 2291 3584 
Q 2894 3584 3203 3211 
Q 3513 2838 3513 2113 
z
" transform="scale(0.015625)"/>
      </defs>
      <use xlink:href="#DejaVuSans-70"/>
      <use xlink:href="#DejaVuSans-72" x="63.476562"/>
      <use xlink:href="#DejaVuSans-6f" x="102.339844"/>
      <use xlink:href="#DejaVuSans-6d" x="163.521484"/>
      <use xlink:href="#DejaVuSans-70" x="260.933594"/>
      <use xlink:href="#DejaVuSans-74" x="324.410156"/>
      <use xlink:href="#DejaVuSans-5f" x="363.619141"/>
      <use xlink:href="#DejaVuSans-77" x="413.619141"/>
      <use xlink:href="#DejaVuSans-69" x="495.40625"/>
      <use xlink:href="#DejaVuSans-74" x="523.189453"/>
      <use xlink:href="#DejaVuSans-68" x="562.398438"/>
      <use xlink:href="#DejaVuSans-5f" x="625.777344"/>
      <use xlink:href="#DejaVuSans-70" x="675.777344"/>
      <use xlink:href="#DejaVuSans-61" x="739.253906"/>
      <use xlink:href="#DejaVuSans-72" x="800.533203"/>
      <use xlink:href="#DejaVuSans-74" x="841.646484"/>
      <use xlink:href="#DejaVuSans-73" x="880.855469"/>
     </g>
    </g>
    <g id="line2d_22">
     <path d="M 282.375974 112.289062 
L 292.375974 112.289062 
L 302.375974 112.289062 
" style="fill: none; stroke: #d62728; stroke-width: 1.5; stroke-linecap: square"/>
    </g>
    <g id="text_8">
     <!-- prompt_emergent_parts -->
     <g transform="translate(310.375974 115.789062) scale(0.1 -0.1)">
      <defs>
       <path id="DejaVuSans-65" d="M 3597 1894 
L 3597 1613 
L 953 1613 
Q 991 1019 1311 708 
Q 1631 397 2203 397 
Q 2534 397 2845 478 
Q 3156 559 3463 722 
L 3463 178 
Q 3153 47 2828 -22 
Q 2503 -91 2169 -91 
Q 1331 -91 842 396 
Q 353 884 353 1716 
Q 353 2575 817 3079 
Q 1281 3584 2069 3584 
Q 2775 3584 3186 3129 
Q 3597 2675 3597 1894 
z
M 3022 2063 
Q 3016 2534 2758 2815 
Q 2500 3097 2075 3097 
Q 1594 3097 1305 2825 
Q 1016 2553 972 2059 
L 3022 2063 
z
" transform="scale(0.015625)"/>
       <path id="DejaVuSans-67" d="M 2906 1791 
Q 2906 2416 2648 2759 
Q 2391 3103 1925 3103 
Q 1463 3103 1205 2759 
Q 947 2416 947 1791 
Q 947 1169 1205 825 
Q 1463 481 1925 481 
Q 2391 481 2648 825 
Q 2906 1169 2906 1791 
z
M 3481 434 
Q 3481 -459 3084 -895 
Q 2688 -1331 1869 -1331 
Q 1566 -1331 1297 -1286 
Q 1028 -1241 775 -1147 
L 775 -588 
Q 1028 -725 1275 -790 
Q 1522 -856 1778 -856 
Q 2344 -856 2625 -561 
Q 2906 -266 2906 331 
L 2906 616 
Q 2728 306 2450 153 
Q 2172 0 1784 0 
Q 1141 0 747 490 
Q 353 981 353 1791 
Q 353 2603 747 3093 
Q 1141 3584 1784 3584 
Q 2172 3584 2450 3431 
Q 2728 3278 2906 2969 
L 2906 3500 
L 3481 3500 
L 3481 434 
z
" transform="scale(0.015625)"/>
      </defs>
      <use xlink:href="#DejaVuSans-70"/>
      <use xlink:href="#DejaVuSans-72" x="63.476562"/>
      <use xlink:href="#DejaVuSans-6f" x="102.339844"/>
      <use xlink:href="#DejaVuSans-6d" x="163.521484"/>
      <use xlink:href="#DejaVuSans-70" x="260.933594"/>
      <use xlink:href="#DejaVuSans-74" x="324.410156"/>
      <use xlink:href="#DejaVuSans-5f" x="363.619141"/>
      <use xlink:href="#DejaVuSans-65" x="413.619141"/>
      <use xlink:href="#DejaVuSans-6d" x="475.142578"/>
      <use xlink:href="#DejaVuSans-65" x="572.554688"/>
      <use xlink:href="#DejaVuSans-72" x="634.078125"/>
      <use xlink:href="#DejaVuSans-67" x="673.441406"/>
      <use xlink:href="#DejaVuSans-65" x="736.917969"/>
      <use xlink:href="#DejaVuSans-6e" x="798.441406"/>
      <use xlink:href="#DejaVuSans-74" x="861.820312"/>
      <use xlink:href="#DejaVuSans-5f" x="901.029297"/>
      <use xlink:href="#DejaVuSans-70" x="951.029297"/>
      <use xlink:href="#DejaVuSans-61" x="1014.505859"/>
      <use xlink:href="#DejaVuSans-72" x="1075.785156"/>
      <use xlink:href="#DejaVuSans-74" x="1116.898438"/>
      <use xlink:href="#DejaVuSans-73" x="1156.107422"/>
     </g>
    </g>
   </g>
  </g>
  <g id="axes_2">
   <g id="patch_8">
    <path d="M 67.41 286.56 
L 440.197849 286.56 
L 440.197849 185.77 
L 67.41 185.77 
z
" style="fill: #ffffff"/>
   </g>
   <g id="matplotlib.axis_3">
    <g id="xtick_12">
     <g id="line2d_23">
      <g>
       <use xlink:href="#m5224f7bc56" x="84.354902" y="286.56" style="stroke: #000000; stroke-width: 0.8"/>
      </g>
     </g>
     <g id="text_9">
      <!-- 2014 -->
      <g transform="translate(71.629902 301.158437) scale(0.1 -0.1)">
       <defs>
        <path id="DejaVuSans-31" d="M 794 531 
L 1825 531 
L 1825 4091 
L 703 3866 
L 703 4441 
L 1819 4666 
L 2450 4666 
L 2450 531 
L 3481 531 
L 3481 0 
L 794 0 
L 794 531 
z
" transform="scale(0.015625)"/>
       </defs>
       <use xlink:href="#DejaVuSans-32"/>
       <use xlink:href="#DejaVuSans-30" x="63.623047"/>
       <use xlink:href="#DejaVuSans-31" x="127.246094"/>
       <use xlink:href="#DejaVuSans-34" x="190.869141"/>
      </g>
     </g>
    </g>
    <g id="xtick_13">
     <g id="line2d_24">
      <g>
       <use xlink:href="#m5224f7bc56" x="118.801515" y="286.56" style="stroke: #000000; stroke-width: 0.8"/>
      </g>
     </g>
     <g id="text_10">
      <!-- 2015 -->
      <g transform="translate(106.076515 301.158437) scale(0.1 -0.1)">
       <defs>
        <path id="DejaVuSans-35" d="M 691 4666 
L 3169 4666 
L 3169 4134 
L 1269 4134 
L 1269 2991 
Q 1406 3038 1543 3061 
Q 1681 3084 1819 3084 
Q 2600 3084 3056 2656 
Q 3513 2228 3513 1497 
Q 3513 744 3044 326 
Q 2575 -91 1722 -91 
Q 1428 -91 1123 -41 
Q 819 9 494 109 
L 494 744 
Q 775 591 1075 516 
Q 1375 441 1709 441 
Q 2250 441 2565 725 
Q 2881 1009 2881 1497 
Q 2881 1984 2565 2268 
Q 2250 2553 1709 2553 
Q 1456 2553 1204 2497 
Q 953 2441 691 2322 
L 691 4666 
z
" transform="scale(0.015625)"/>
       </defs>
       <use xlink:href="#DejaVuSans-32"/>
       <use xlink:href="#DejaVuSans-30" x="63.623047"/>
       <use xlink:href="#DejaVuSans-31" x="127.246094"/>
       <use xlink:href="#DejaVuSans-35" x="190.869141"/>
      </g>
     </g>
    </g>
    <g id="xtick_14">
     <g id="line2d_25">
      <g>
       <use xlink:href="#m5224f7bc56" x="153.248128" y="286.56" style="stroke: #000000; stroke-width: 0.8"/>
      </g>
     </g>
     <g id="text_11">
      <!-- 2016 -->
      <g transform="translate(140.523128 301.158437) scale(0.1 -0.1)">
       <defs>
        <path id="DejaVuSans-36" d="M 2113 2584 
Q 1688 2584 1439 2293 
Q 1191 2003 1191 1497 
Q 1191 994 1439 701 
Q 1688 409 2113 409 
Q 2538 409 2786 701 
Q 3034 994 3034 1497 
Q 3034 2003 2786 2293 
Q 2538 2584 2113 2584 
z
M 3366 4563 
L 3366 3988 
Q 3128 4100 2886 4159 
Q 2644 4219 2406 4219 
Q 1781 4219 1451 3797 
Q 1122 3375 1075 2522 
Q 1259 2794 1537 2939 
Q 1816 3084 2150 3084 
Q 2853 3084 3261 2657 
Q 3669 2231 3669 1497 
Q 3669 778 3244 343 
Q 2819 -91 2113 -91 
Q 1303 -91 875 529 
Q 447 1150 447 2328 
Q 447 3434 972 4092 
Q 1497 4750 2381 4750 
Q 2619 4750 2861 4703 
Q 3103 4656 3366 4563 
z
" transform="scale(0.015625)"/>
       </defs>
       <use xlink:href="#DejaVuSans-32"/>
       <use xlink:href="#DejaVuSans-30" x="63.623047"/>
       <use xlink:href="#DejaVuSans-31" x="127.246094"/>
       <use xlink:href="#DejaVuSans-36" x="190.869141"/>
      </g>
     </g>
    </g>
    <g id="xtick_15">
     <g id="line2d_26">
      <g>
       <use xlink:href="#m5224f7bc56" x="187.789115" y="286.56" style="stroke: #000000; stroke-width: 0.8"/>
      </g>
     </g>
     <g id="text_12">
      <!-- 2017 -->
      <g transform="translate(175.064115 301.158437) scale(0.1 -0.1)">
       <defs>
        <path id="DejaVuSans-37" d="M 525 4666 
L 3525 4666 
L 3525 4397 
L 1831 0 
L 1172 0 
L 2766 4134 
L 525 4134 
L 525 4666 
z
" transform="scale(0.015625)"/>
       </defs>
       <use xlink:href="#DejaVuSans-32"/>
       <use xlink:href="#DejaVuSans-30" x="63.623047"/>
       <use xlink:href="#DejaVuSans-31" x="127.246094"/>
       <use xlink:href="#DejaVuSans-37" x="190.869141"/>
      </g>
     </g>
    </g>
    <g id="xtick_16">
     <g id="line2d_27">
      <g>
       <use xlink:href="#m5224f7bc56" x="222.235727" y="286.56" style="stroke: #000000; stroke-width: 0.8"/>
      </g>
     </g>
     <g id="text_13">
      <!-- 2018 -->
      <g transform="translate(209.510727 301.158437) scale(0.1 -0.1)">
       <defs>
        <path id="DejaVuSans-38" d="M 2034 2216 
Q 1584 2216 1326 1975 
Q 1069 1734 1069 1313 
Q 1069 891 1326 650 
Q 1584 409 2034 409 
Q 2484 409 2743 651 
Q 3003 894 3003 1313 
Q 3003 1734 2745 1975 
Q 2488 2216 2034 2216 
z
M 1403 2484 
Q 997 2584 770 2862 
Q 544 3141 544 3541 
Q 544 4100 942 4425 
Q 1341 4750 2034 4750 
Q 2731 4750 3128 4425 
Q 3525 4100 3525 3541 
Q 3525 3141 3298 2862 
Q 3072 2584 2669 2484 
Q 3125 2378 3379 2068 
Q 3634 1759 3634 1313 
Q 3634 634 3220 271 
Q 2806 -91 2034 -91 
Q 1263 -91 848 271 
Q 434 634 434 1313 
Q 434 1759 690 2068 
Q 947 2378 1403 2484 
z
M 1172 3481 
Q 1172 3119 1398 2916 
Q 1625 2713 2034 2713 
Q 2441 2713 2670 2916 
Q 2900 3119 2900 3481 
Q 2900 3844 2670 4047 
Q 2441 4250 2034 4250 
Q 1625 4250 1398 4047 
Q 1172 3844 1172 3481 
z
" transform="scale(0.015625)"/>
       </defs>
       <use xlink:href="#DejaVuSans-32"/>
       <use xlink:href="#DejaVuSans-30" x="63.623047"/>
       <use xlink:href="#DejaVuSans-31" x="127.246094"/>
       <use xlink:href="#DejaVuSans-38" x="190.869141"/>
      </g>
     </g>
    </g>
    <g id="xtick_17">
     <g id="line2d_28">
      <g>
       <use xlink:href="#m5224f7bc56" x="256.68234" y="286.56" style="stroke: #000000; stroke-width: 0.8"/>
      </g>
     </g>
     <g id="text_14">
      <!-- 2019 -->
      <g transform="translate(243.95734 301.158437) scale(0.1 -0.1)">
       <defs>
        <path id="DejaVuSans-39" d="M 703 97 
L 703 672 
Q 941 559 1184 500 
Q 1428 441 1663 441 
Q 2288 441 2617 861 
Q 2947 1281 2994 2138 
Q 2813 1869 2534 1725 
Q 2256 1581 1919 1581 
Q 1219 1581 811 2004 
Q 403 2428 403 3163 
Q 403 3881 828 4315 
Q 1253 4750 1959 4750 
Q 2769 4750 3195 4129 
Q 3622 3509 3622 2328 
Q 3622 1225 3098 567 
Q 2575 -91 1691 -91 
Q 1453 -91 1209 -44 
Q 966 3 703 97 
z
M 1959 2075 
Q 2384 2075 2632 2365 
Q 2881 2656 2881 3163 
Q 2881 3666 2632 3958 
Q 2384 4250 1959 4250 
Q 1534 4250 1286 3958 
Q 1038 3666 1038 3163 
Q 1038 2656 1286 2365 
Q 1534 2075 1959 2075 
z
" transform="scale(0.015625)"/>
       </defs>
       <use xlink:href="#DejaVuSans-32"/>
       <use xlink:href="#DejaVuSans-30" x="63.623047"/>
       <use xlink:href="#DejaVuSans-31" x="127.246094"/>
       <use xlink:href="#DejaVuSans-39" x="190.869141"/>
      </g>
     </g>
    </g>
    <g id="xtick_18">
     <g id="line2d_29">
      <g>
       <use xlink:href="#m5224f7bc56" x="291.128953" y="286.56" style="stroke: #000000; stroke-width: 0.8"/>
      </g>
     </g>
     <g id="text_15">
      <!-- 2020 -->
      <g transform="translate(278.403953 301.158437) scale(0.1 -0.1)">
       <use xlink:href="#DejaVuSans-32"/>
       <use xlink:href="#DejaVuSans-30" x="63.623047"/>
       <use xlink:href="#DejaVuSans-32" x="127.246094"/>
       <use xlink:href="#DejaVuSans-30" x="190.869141"/>
      </g>
     </g>
    </g>
    <g id="xtick_19">
     <g id="line2d_30">
      <g>
       <use xlink:href="#m5224f7bc56" x="325.66994" y="286.56" style="stroke: #000000; stroke-width: 0.8"/>
      </g>
     </g>
     <g id="text_16">
      <!-- 2021 -->
      <g transform="translate(312.94494 301.158437) scale(0.1 -0.1)">
       <use xlink:href="#DejaVuSans-32"/>
       <use xlink:href="#DejaVuSans-30" x="63.623047"/>
       <use xlink:href="#DejaVuSans-32" x="127.246094"/>
       <use xlink:href="#DejaVuSans-31" x="190.869141"/>
      </g>
     </g>
    </g>
    <g id="xtick_20">
     <g id="line2d_31">
      <g>
       <use xlink:href="#m5224f7bc56" x="360.116553" y="286.56" style="stroke: #000000; stroke-width: 0.8"/>
      </g>
     </g>
     <g id="text_17">
      <!-- 2022 -->
      <g transform="translate(347.391553 301.158437) scale(0.1 -0.1)">
       <use xlink:href="#DejaVuSans-32"/>
       <use xlink:href="#DejaVuSans-30" x="63.623047"/>
       <use xlink:href="#DejaVuSans-32" x="127.246094"/>
       <use xlink:href="#DejaVuSans-32" x="190.869141"/>
      </g>
     </g>
    </g>
    <g id="xtick_21">
     <g id="line2d_32">
      <g>
       <use xlink:href="#m5224f7bc56" x="394.563165" y="286.56" style="stroke: #000000; stroke-width: 0.8"/>
      </g>
     </g>
     <g id="text_18">
      <!-- 2023 -->
      <g transform="translate(381.838165 301.158437) scale(0.1 -0.1)">
       <defs>
        <path id="DejaVuSans-33" d="M 2597 2516 
Q 3050 2419 3304 2112 
Q 3559 1806 3559 1356 
Q 3559 666 3084 287 
Q 2609 -91 1734 -91 
Q 1441 -91 1130 -33 
Q 819 25 488 141 
L 488 750 
Q 750 597 1062 519 
Q 1375 441 1716 441 
Q 2309 441 2620 675 
Q 2931 909 2931 1356 
Q 2931 1769 2642 2001 
Q 2353 2234 1838 2234 
L 1294 2234 
L 1294 2753 
L 1863 2753 
Q 2328 2753 2575 2939 
Q 2822 3125 2822 3475 
Q 2822 3834 2567 4026 
Q 2313 4219 1838 4219 
Q 1578 4219 1281 4162 
Q 984 4106 628 3988 
L 628 4550 
Q 988 4650 1302 4700 
Q 1616 4750 1894 4750 
Q 2613 4750 3031 4423 
Q 3450 4097 3450 3541 
Q 3450 3153 3228 2886 
Q 3006 2619 2597 2516 
z
" transform="scale(0.015625)"/>
       </defs>
       <use xlink:href="#DejaVuSans-32"/>
       <use xlink:href="#DejaVuSans-30" x="63.623047"/>
       <use xlink:href="#DejaVuSans-32" x="127.246094"/>
       <use xlink:href="#DejaVuSans-33" x="190.869141"/>
      </g>
     </g>
    </g>
    <g id="xtick_22">
     <g id="line2d_33">
      <g>
       <use xlink:href="#m5224f7bc56" x="429.009778" y="286.56" style="stroke: #000000; stroke-width: 0.8"/>
      </g>
     </g>
     <g id="text_19">
      <!-- 2024 -->
      <g transform="translate(416.284778 301.158437) scale(0.1 -0.1)">
       <use xlink:href="#DejaVuSans-32"/>
       <use xlink:href="#DejaVuSans-30" x="63.623047"/>
       <use xlink:href="#DejaVuSans-32" x="127.246094"/>
       <use xlink:href="#DejaVuSans-34" x="190.869141"/>
      </g>
     </g>
    </g>
   </g>
   <g id="matplotlib.axis_4">
    <g id="ytick_4">
     <g id="line2d_34">
      <g>
       <use xlink:href="#m18f364bc3e" x="67.41" y="283.928153" style="stroke: #000000; stroke-width: 0.8"/>
      </g>
     </g>
     <g id="text_20">
      <!-- 0 -->
      <g transform="translate(54.0475 287.727372) scale(0.1 -0.1)">
       <use xlink:href="#DejaVuSans-30"/>
      </g>
     </g>
    </g>
    <g id="ytick_5">
     <g id="line2d_35">
      <g>
       <use xlink:href="#m18f364bc3e" x="67.41" y="244.937824" style="stroke: #000000; stroke-width: 0.8"/>
      </g>
     </g>
     <g id="text_21">
      <!-- 20 -->
      <g transform="translate(47.685 248.737043) scale(0.1 -0.1)">
       <use xlink:href="#DejaVuSans-32"/>
       <use xlink:href="#DejaVuSans-30" x="63.623047"/>
      </g>
     </g>
    </g>
    <g id="ytick_6">
     <g id="line2d_36">
      <g>
       <use xlink:href="#m18f364bc3e" x="67.41" y="205.947495" style="stroke: #000000; stroke-width: 0.8"/>
      </g>
     </g>
     <g id="text_22">
      <!-- 40 -->
      <g transform="translate(47.685 209.746714) scale(0.1 -0.1)">
       <use xlink:href="#DejaVuSans-34"/>
       <use xlink:href="#DejaVuSans-30" x="63.623047"/>
      </g>
     </g>
    </g>
   </g>
   <g id="line2d_37">
    <path d="M 84.354902 254.685406 
L 87.280505 270.281538 
L 89.922985 264.432988 
L 92.848588 254.685406 
L 95.679816 241.038791 
L 98.605419 252.73589 
L 101.436647 242.988308 
L 104.36225 233.240725 
L 107.287853 235.190242 
L 110.119081 227.392176 
L 113.044684 258.584439 
L 115.875912 252.73589 
L 118.801515 237.139758 
L 121.727118 252.73589 
L 124.369598 252.73589 
L 127.2952 246.88734 
L 130.126429 258.584439 
L 133.052031 256.634923 
L 135.88326 268.332021 
L 138.808863 248.836857 
L 141.734465 256.634923 
L 144.565694 256.634923 
L 147.491297 264.432988 
L 150.322525 258.584439 
L 153.248128 272.231054 
L 156.17373 266.382505 
L 158.910585 254.685406 
L 161.836187 260.533956 
L 164.667416 262.483472 
L 167.593018 256.634923 
L 170.424247 260.533956 
L 173.34985 262.483472 
L 176.275452 260.533956 
L 179.106681 268.332021 
L 182.032284 258.584439 
L 184.863512 264.432988 
L 187.789115 258.584439 
L 190.714717 268.332021 
L 193.357197 256.634923 
L 196.2828 272.231054 
L 199.114028 262.483472 
L 202.039631 262.483472 
L 204.87086 270.281538 
L 207.796462 266.382505 
L 210.722065 262.483472 
L 213.553294 262.483472 
L 216.478896 262.483472 
L 219.310125 270.281538 
L 222.235727 258.584439 
L 225.16133 266.382505 
L 227.80381 262.483472 
L 230.729413 246.88734 
L 233.560641 260.533956 
L 236.486244 252.73589 
L 239.317472 258.584439 
L 242.243075 258.584439 
L 245.168678 272.231054 
L 247.999906 256.634923 
L 250.925509 274.180571 
L 253.756737 258.584439 
L 256.68234 266.382505 
L 259.607943 246.88734 
L 262.250423 256.634923 
L 265.176025 266.382505 
L 268.007254 258.584439 
L 270.932857 260.533956 
L 273.764085 248.836857 
L 276.689688 256.634923 
L 279.615291 264.432988 
L 282.446519 266.382505 
L 285.372122 262.483472 
L 288.20335 268.332021 
L 291.128953 270.281538 
L 294.054556 274.180571 
L 296.79141 262.483472 
L 299.717013 272.231054 
L 302.548241 268.332021 
L 305.473844 266.382505 
L 308.305072 272.231054 
L 311.230675 262.483472 
L 314.156278 258.584439 
L 316.987506 262.483472 
L 319.913109 266.382505 
L 322.744337 272.231054 
L 325.66994 258.584439 
L 328.595543 270.281538 
L 331.238023 258.584439 
L 334.163625 270.281538 
L 336.994854 274.180571 
L 339.920456 280.02912 
L 342.751685 278.079603 
L 345.677288 272.231054 
L 348.60289 276.130087 
L 351.434119 272.231054 
L 354.359721 272.231054 
L 357.19095 278.079603 
L 360.116553 266.382505 
L 363.042155 276.130087 
L 365.684635 274.180571 
L 368.610238 281.978636 
L 371.441466 274.180571 
L 374.367069 272.231054 
L 377.198298 270.281538 
L 380.1239 272.231054 
L 383.049503 272.231054 
L 385.880731 264.432988 
L 388.806334 266.382505 
L 391.637563 270.281538 
L 394.563165 280.02912 
L 397.488768 274.180571 
L 400.131248 270.281538 
L 403.056851 274.180571 
L 405.888079 272.231054 
L 408.813682 266.382505 
L 411.64491 272.231054 
L 414.570513 270.281538 
L 417.496116 274.180571 
L 420.327344 272.231054 
L 423.252947 268.332021 
" clip-path="url(#p542490987d)" style="fill: none; stroke: #1f77b4; stroke-width: 1.5; stroke-linecap: square"/>
   </g>
   <g id="line2d_38">
    <path d="M 84.354902 278.079603 
L 89.922985 281.978636 
L 92.848588 280.02912 
L 95.679816 281.978636 
L 101.436647 272.231054 
L 104.36225 281.978636 
L 107.287853 276.130087 
L 110.119081 268.332021 
L 113.044684 278.079603 
L 115.875912 280.02912 
L 118.801515 274.180571 
L 121.727118 278.079603 
L 124.369598 278.079603 
L 127.2952 278.079603 
L 133.052031 280.02912 
L 138.808863 276.130087 
L 144.565694 278.079603 
L 150.322525 281.978636 
L 153.248128 281.978636 
L 156.17373 281.978636 
L 158.910585 276.130087 
L 161.836187 280.02912 
L 167.593018 274.180571 
L 170.424247 281.978636 
L 173.34985 281.978636 
L 176.275452 281.978636 
L 179.106681 278.079603 
L 182.032284 281.978636 
L 184.863512 280.02912 
L 196.2828 276.130087 
L 199.114028 281.978636 
L 207.796462 281.978636 
L 213.553294 280.02912 
L 219.310125 280.02912 
L 222.235727 281.978636 
L 230.729413 281.978636 
L 233.560641 280.02912 
L 236.486244 278.079603 
L 239.317472 280.02912 
L 247.999906 281.978636 
L 250.925509 280.02912 
L 253.756737 278.079603 
L 259.607943 280.02912 
L 262.250423 280.02912 
L 268.007254 281.978636 
L 273.764085 280.02912 
L 279.615291 281.978636 
L 282.446519 278.079603 
L 285.372122 280.02912 
L 288.20335 281.978636 
L 296.79141 281.978636 
L 299.717013 281.978636 
L 302.548241 281.978636 
L 305.473844 280.02912 
L 308.305072 280.02912 
L 316.987506 280.02912 
L 319.913109 281.978636 
L 325.66994 278.079603 
L 328.595543 278.079603 
L 331.238023 274.180571 
L 351.434119 281.978636 
L 371.441466 281.978636 
L 380.1239 281.978636 
L 383.049503 281.978636 
L 385.880731 278.079603 
L 388.806334 280.02912 
L 403.056851 281.978636 
L 408.813682 280.02912 
L 411.64491 280.02912 
" clip-path="url(#p542490987d)" style="fill: none; stroke: #ff7f0e; stroke-width: 1.5; stroke-linecap: square"/>
   </g>
   <g id="line2d_39">
    <path d="M 84.354902 237.139758 
L 87.280505 252.73589 
L 89.922985 231.291209 
L 92.848588 219.59411 
L 95.679816 221.543627 
L 98.605419 227.392176 
L 101.436647 213.745561 
L 104.36225 202.048462 
L 107.287853 190.351364 
L 110.119081 192.30088 
L 113.044684 217.644594 
L 115.875912 235.190242 
L 118.801515 219.59411 
L 121.727118 239.089275 
L 124.369598 229.341692 
L 127.2952 221.543627 
L 130.126429 241.038791 
L 133.052031 223.493143 
L 135.88326 254.685406 
L 138.808863 237.139758 
L 141.734465 237.139758 
L 144.565694 227.392176 
L 147.491297 246.88734 
L 150.322525 229.341692 
L 153.248128 233.240725 
L 156.17373 239.089275 
L 158.910585 227.392176 
L 161.836187 231.291209 
L 164.667416 237.139758 
L 167.593018 219.59411 
L 170.424247 221.543627 
L 173.34985 203.997979 
L 176.275452 233.240725 
L 179.106681 211.796044 
L 182.032284 241.038791 
L 184.863512 250.786373 
L 187.789115 227.392176 
L 190.714717 244.937824 
L 193.357197 227.392176 
L 196.2828 246.88734 
L 199.114028 237.139758 
L 202.039631 248.836857 
L 204.87086 235.190242 
L 207.796462 217.644594 
L 210.722065 215.695077 
L 213.553294 246.88734 
L 216.478896 203.997979 
L 219.310125 248.836857 
L 222.235727 223.493143 
L 225.16133 225.44266 
L 227.80381 241.038791 
L 230.729413 211.796044 
L 233.560641 235.190242 
L 236.486244 213.745561 
L 239.317472 242.988308 
L 242.243075 215.695077 
L 245.168678 254.685406 
L 247.999906 211.796044 
L 250.925509 241.038791 
L 253.756737 225.44266 
L 256.68234 223.493143 
L 259.607943 213.745561 
L 262.250423 213.745561 
L 265.176025 229.341692 
L 268.007254 205.947495 
L 270.932857 215.695077 
L 273.764085 202.048462 
L 276.689688 194.250397 
L 279.615291 211.796044 
L 282.446519 233.240725 
L 285.372122 231.291209 
L 288.20335 235.190242 
L 291.128953 246.88734 
L 294.054556 239.089275 
L 296.79141 241.038791 
L 299.717013 262.483472 
L 302.548241 239.089275 
L 305.473844 256.634923 
L 308.305072 258.584439 
L 311.230675 219.59411 
L 314.156278 213.745561 
L 316.987506 225.44266 
L 319.913109 221.543627 
L 322.744337 233.240725 
L 325.66994 213.745561 
L 328.595543 237.139758 
L 331.238023 217.644594 
L 334.163625 248.836857 
L 336.994854 235.190242 
L 339.920456 268.332021 
L 342.751685 250.786373 
L 345.677288 248.836857 
L 348.60289 256.634923 
L 351.434119 258.584439 
L 354.359721 260.533956 
L 357.19095 254.685406 
L 360.116553 252.73589 
L 363.042155 242.988308 
L 365.684635 252.73589 
L 368.610238 256.634923 
L 371.441466 258.584439 
L 374.367069 246.88734 
L 377.198298 227.392176 
L 380.1239 252.73589 
L 383.049503 254.685406 
L 385.880731 233.240725 
L 388.806334 227.392176 
L 391.637563 256.634923 
L 394.563165 241.038791 
L 397.488768 239.089275 
L 400.131248 239.089275 
L 403.056851 231.291209 
L 405.888079 202.048462 
L 408.813682 246.88734 
L 411.64491 229.341692 
L 414.570513 227.392176 
L 417.496116 229.341692 
L 420.327344 235.190242 
L 423.252947 231.291209 
" clip-path="url(#p542490987d)" style="fill: none; stroke: #2ca02c; stroke-width: 1.5; stroke-linecap: square"/>
   </g>
   <g id="line2d_40">
    <path d="M 84.354902 241.038791 
L 87.280505 260.533956 
L 89.922985 239.089275 
L 92.848588 235.190242 
L 95.679816 221.543627 
L 98.605419 242.988308 
L 101.436647 227.392176 
L 104.36225 209.846528 
L 107.287853 198.149429 
L 110.119081 215.695077 
L 113.044684 235.190242 
L 115.875912 248.836857 
L 118.801515 231.291209 
L 121.727118 244.937824 
L 124.369598 246.88734 
L 127.2952 233.240725 
L 130.126429 248.836857 
L 133.052031 233.240725 
L 135.88326 262.483472 
L 138.808863 239.089275 
L 141.734465 248.836857 
L 144.565694 235.190242 
L 147.491297 254.685406 
L 150.322525 237.139758 
L 153.248128 242.988308 
L 156.17373 248.836857 
L 158.910585 244.937824 
L 161.836187 237.139758 
L 164.667416 235.190242 
L 167.593018 227.392176 
L 170.424247 242.988308 
L 173.34985 239.089275 
L 176.275452 248.836857 
L 179.106681 229.341692 
L 182.032284 256.634923 
L 184.863512 256.634923 
L 187.789115 248.836857 
L 190.714717 250.786373 
L 193.357197 239.089275 
L 196.2828 248.836857 
L 199.114028 250.786373 
L 202.039631 262.483472 
L 204.87086 252.73589 
L 207.796462 237.139758 
L 210.722065 233.240725 
L 213.553294 258.584439 
L 216.478896 239.089275 
L 219.310125 254.685406 
L 222.235727 241.038791 
L 225.16133 246.88734 
L 227.80381 248.836857 
L 230.729413 223.493143 
L 233.560641 246.88734 
L 236.486244 223.493143 
L 239.317472 244.937824 
L 242.243075 233.240725 
L 245.168678 264.432988 
L 247.999906 233.240725 
L 250.925509 252.73589 
L 253.756737 231.291209 
L 256.68234 242.988308 
L 259.607943 223.493143 
L 262.250423 239.089275 
L 265.176025 242.988308 
L 268.007254 209.846528 
L 270.932857 223.493143 
L 273.764085 225.44266 
L 276.689688 219.59411 
L 279.615291 223.493143 
L 282.446519 252.73589 
L 285.372122 241.038791 
L 288.20335 248.836857 
L 291.128953 260.533956 
L 294.054556 254.685406 
L 296.79141 250.786373 
L 299.717013 264.432988 
L 302.548241 254.685406 
L 305.473844 264.432988 
L 308.305072 264.432988 
L 311.230675 227.392176 
L 314.156278 217.644594 
L 316.987506 235.190242 
L 319.913109 248.836857 
L 322.744337 246.88734 
L 325.66994 242.988308 
L 328.595543 254.685406 
L 331.238023 239.089275 
L 334.163625 262.483472 
L 336.994854 252.73589 
L 339.920456 280.02912 
L 342.751685 266.382505 
L 345.677288 264.432988 
L 348.60289 270.281538 
L 351.434119 258.584439 
L 354.359721 270.281538 
L 357.19095 266.382505 
L 360.116553 260.533956 
L 363.042155 262.483472 
L 365.684635 264.432988 
L 368.610238 268.332021 
L 371.441466 268.332021 
L 374.367069 260.533956 
L 377.198298 239.089275 
L 380.1239 266.382505 
L 383.049503 250.786373 
L 385.880731 241.038791 
L 388.806334 250.786373 
L 391.637563 266.382505 
L 394.563165 262.483472 
L 397.488768 258.584439 
L 400.131248 254.685406 
L 403.056851 246.88734 
L 405.888079 227.392176 
L 408.813682 262.483472 
L 411.64491 237.139758 
L 414.570513 250.786373 
L 417.496116 246.88734 
L 420.327344 254.685406 
L 423.252947 252.73589 
" clip-path="url(#p542490987d)" style="fill: none; stroke: #d62728; stroke-width: 1.5; stroke-linecap: square"/>
   </g>
   <g id="patch_9">
    <path d="M 67.41 286.56 
L 67.41 185.77 
" style="fill: none; stroke: #000000; stroke-width: 0.8; stroke-linejoin: miter; stroke-linecap: square"/>
   </g>
   <g id="patch_10">
    <path d="M 440.197849 286.56 
L 440.197849 185.77 
" style="fill: none; stroke: #000000; stroke-width: 0.8; stroke-linejoin: miter; stroke-linecap: square"/>
   </g>
   <g id="patch_11">
    <path d="M 67.41 286.56 
L 440.197849 286.56 
" style="fill: none; stroke: #000000; stroke-width: 0.8; stroke-linejoin: miter; stroke-linecap: square"/>
   </g>
   <g id="patch_12">
    <path d="M 67.41 185.77 
L 440.197849 185.77 
" style="fill: none; stroke: #000000; stroke-width: 0.8; stroke-linejoin: miter; stroke-linecap: square"/>
   </g>
   <g id="text_23">
    <!-- TP+FP -->
    <g transform="translate(234.424862 179.77) scale(0.12 -0.12)">
     <defs>
      <path id="DejaVuSans-2b" d="M 2944 4013 
L 2944 2272 
L 4684 2272 
L 4684 1741 
L 2944 1741 
L 2944 0 
L 2419 0 
L 2419 1741 
L 678 1741 
L 678 2272 
L 2419 2272 
L 2419 4013 
L 2944 4013 
z
" transform="scale(0.015625)"/>
      <path id="DejaVuSans-46" d="M 628 4666 
L 3309 4666 
L 3309 4134 
L 1259 4134 
L 1259 2759 
L 3109 2759 
L 3109 2228 
L 1259 2228 
L 1259 0 
L 628 0 
L 628 4666 
z
" transform="scale(0.015625)"/>
     </defs>
     <use xlink:href="#DejaVuSans-54"/>
     <use xlink:href="#DejaVuSans-50" x="61.083984"/>
     <use xlink:href="#DejaVuSans-2b" x="121.386719"/>
     <use xlink:href="#DejaVuSans-46" x="205.175781"/>
     <use xlink:href="#DejaVuSans-50" x="262.695312"/>
    </g>
   </g>
   <g id="legend_2">
    <g id="patch_13">
     <path d="M 280.375974 253.316875 
L 433.197849 253.316875 
Q 435.197849 253.316875 435.197849 251.316875 
L 435.197849 192.77 
Q 435.197849 190.77 433.197849 190.77 
L 280.375974 190.77 
Q 278.375974 190.77 278.375974 192.77 
L 278.375974 251.316875 
Q 278.375974 253.316875 280.375974 253.316875 
z
" style="fill: #ffffff; opacity: 0.8; stroke: #cccccc; stroke-linejoin: miter"/>
    </g>
    <g id="line2d_41">
     <path d="M 282.375974 198.868438 
L 292.375974 198.868438 
L 302.375974 198.868438 
" style="fill: none; stroke: #1f77b4; stroke-width: 1.5; stroke-linecap: square"/>
    </g>
    <g id="text_24">
     <!-- actual -->
     <g transform="translate(310.375974 202.368438) scale(0.1 -0.1)">
      <use xlink:href="#DejaVuSans-61"/>
      <use xlink:href="#DejaVuSans-63" x="61.279297"/>
      <use xlink:href="#DejaVuSans-74" x="116.259766"/>
      <use xlink:href="#DejaVuSans-75" x="155.46875"/>
      <use xlink:href="#DejaVuSans-61" x="218.847656"/>
      <use xlink:href="#DejaVuSans-6c" x="280.126953"/>
     </g>
    </g>
    <g id="line2d_42">
     <path d="M 282.375974 213.546563 
L 292.375974 213.546563 
L 302.375974 213.546563 
" style="fill: none; stroke: #ff7f0e; stroke-width: 1.5; stroke-linecap: square"/>
    </g>
    <g id="text_25">
     <!-- prompt_no_parts -->
     <g transform="translate(310.375974 217.046563) scale(0.1 -0.1)">
      <use xlink:href="#DejaVuSans-70"/>
      <use xlink:href="#DejaVuSans-72" x="63.476562"/>
      <use xlink:href="#DejaVuSans-6f" x="102.339844"/>
      <use xlink:href="#DejaVuSans-6d" x="163.521484"/>
      <use xlink:href="#DejaVuSans-70" x="260.933594"/>
      <use xlink:href="#DejaVuSans-74" x="324.410156"/>
      <use xlink:href="#DejaVuSans-5f" x="363.619141"/>
      <use xlink:href="#DejaVuSans-6e" x="413.619141"/>
      <use xlink:href="#DejaVuSans-6f" x="476.998047"/>
      <use xlink:href="#DejaVuSans-5f" x="538.179688"/>
      <use xlink:href="#DejaVuSans-70" x="588.179688"/>
      <use xlink:href="#DejaVuSans-61" x="651.65625"/>
      <use xlink:href="#DejaVuSans-72" x="712.935547"/>
      <use xlink:href="#DejaVuSans-74" x="754.048828"/>
      <use xlink:href="#DejaVuSans-73" x="793.257812"/>
     </g>
    </g>
    <g id="line2d_43">
     <path d="M 282.375974 228.502813 
L 292.375974 228.502813 
L 302.375974 228.502813 
" style="fill: none; stroke: #2ca02c; stroke-width: 1.5; stroke-linecap: square"/>
    </g>
    <g id="text_26">
     <!-- prompt_with_parts -->
     <g transform="translate(310.375974 232.002813) scale(0.1 -0.1)">
      <use xlink:href="#DejaVuSans-70"/>
      <use xlink:href="#DejaVuSans-72" x="63.476562"/>
      <use xlink:href="#DejaVuSans-6f" x="102.339844"/>
      <use xlink:href="#DejaVuSans-6d" x="163.521484"/>
      <use xlink:href="#DejaVuSans-70" x="260.933594"/>
      <use xlink:href="#DejaVuSans-74" x="324.410156"/>
      <use xlink:href="#DejaVuSans-5f" x="363.619141"/>
      <use xlink:href="#DejaVuSans-77" x="413.619141"/>
      <use xlink:href="#DejaVuSans-69" x="495.40625"/>
      <use xlink:href="#DejaVuSans-74" x="523.189453"/>
      <use xlink:href="#DejaVuSans-68" x="562.398438"/>
      <use xlink:href="#DejaVuSans-5f" x="625.777344"/>
      <use xlink:href="#DejaVuSans-70" x="675.777344"/>
      <use xlink:href="#DejaVuSans-61" x="739.253906"/>
      <use xlink:href="#DejaVuSans-72" x="800.533203"/>
      <use xlink:href="#DejaVuSans-74" x="841.646484"/>
      <use xlink:href="#DejaVuSans-73" x="880.855469"/>
     </g>
    </g>
    <g id="line2d_44">
     <path d="M 282.375974 243.459063 
L 292.375974 243.459063 
L 302.375974 243.459063 
" style="fill: none; stroke: #d62728; stroke-width: 1.5; stroke-linecap: square"/>
    </g>
    <g id="text_27">
     <!-- prompt_emergent_parts -->
     <g transform="translate(310.375974 246.959063) scale(0.1 -0.1)">
      <use xlink:href="#DejaVuSans-70"/>
      <use xlink:href="#DejaVuSans-72" x="63.476562"/>
      <use xlink:href="#DejaVuSans-6f" x="102.339844"/>
      <use xlink:href="#DejaVuSans-6d" x="163.521484"/>
      <use xlink:href="#DejaVuSans-70" x="260.933594"/>
      <use xlink:href="#DejaVuSans-74" x="324.410156"/>
      <use xlink:href="#DejaVuSans-5f" x="363.619141"/>
      <use xlink:href="#DejaVuSans-65" x="413.619141"/>
      <use xlink:href="#DejaVuSans-6d" x="475.142578"/>
      <use xlink:href="#DejaVuSans-65" x="572.554688"/>
      <use xlink:href="#DejaVuSans-72" x="634.078125"/>
      <use xlink:href="#DejaVuSans-67" x="673.441406"/>
      <use xlink:href="#DejaVuSans-65" x="736.917969"/>
      <use xlink:href="#DejaVuSans-6e" x="798.441406"/>
      <use xlink:href="#DejaVuSans-74" x="861.820312"/>
      <use xlink:href="#DejaVuSans-5f" x="901.029297"/>
      <use xlink:href="#DejaVuSans-70" x="951.029297"/>
      <use xlink:href="#DejaVuSans-61" x="1014.505859"/>
      <use xlink:href="#DejaVuSans-72" x="1075.785156"/>
      <use xlink:href="#DejaVuSans-74" x="1116.898438"/>
      <use xlink:href="#DejaVuSans-73" x="1156.107422"/>
     </g>
    </g>
   </g>
  </g>
  <g id="axes_3">
   <g id="matplotlib.axis_5">
    <g id="xtick_23">
     <g id="text_28">
      <!-- 0.0 -->
      <g style="opacity: 0" transform="translate(59.458438 301.158437) scale(0.1 -0.1)">
       <defs>
        <path id="DejaVuSans-2e" d="M 684 794 
L 1344 794 
L 1344 0 
L 684 0 
L 684 794 
z
" transform="scale(0.015625)"/>
       </defs>
       <use xlink:href="#DejaVuSans-30"/>
       <use xlink:href="#DejaVuSans-2e" x="63.623047"/>
       <use xlink:href="#DejaVuSans-30" x="95.410156"/>
      </g>
     </g>
    </g>
    <g id="xtick_24">
     <g id="text_29">
      <!-- 0.2 -->
      <g style="opacity: 0" transform="translate(134.016007 301.158437) scale(0.1 -0.1)">
       <use xlink:href="#DejaVuSans-30"/>
       <use xlink:href="#DejaVuSans-2e" x="63.623047"/>
       <use xlink:href="#DejaVuSans-32" x="95.410156"/>
      </g>
     </g>
    </g>
    <g id="xtick_25">
     <g id="text_30">
      <!-- 0.4 -->
      <g style="opacity: 0" transform="translate(208.573577 301.158437) scale(0.1 -0.1)">
       <use xlink:href="#DejaVuSans-30"/>
       <use xlink:href="#DejaVuSans-2e" x="63.623047"/>
       <use xlink:href="#DejaVuSans-34" x="95.410156"/>
      </g>
     </g>
    </g>
    <g id="xtick_26">
     <g id="text_31">
      <!-- 0.6 -->
      <g style="opacity: 0" transform="translate(283.131147 301.158437) scale(0.1 -0.1)">
       <use xlink:href="#DejaVuSans-30"/>
       <use xlink:href="#DejaVuSans-2e" x="63.623047"/>
       <use xlink:href="#DejaVuSans-36" x="95.410156"/>
      </g>
     </g>
    </g>
    <g id="xtick_27">
     <g id="text_32">
      <!-- 0.8 -->
      <g style="opacity: 0" transform="translate(357.688717 301.158437) scale(0.1 -0.1)">
       <use xlink:href="#DejaVuSans-30"/>
       <use xlink:href="#DejaVuSans-2e" x="63.623047"/>
       <use xlink:href="#DejaVuSans-38" x="95.410156"/>
      </g>
     </g>
    </g>
    <g id="xtick_28">
     <g id="text_33">
      <!-- 1.0 -->
      <g style="opacity: 0" transform="translate(432.246287 301.158437) scale(0.1 -0.1)">
       <use xlink:href="#DejaVuSans-31"/>
       <use xlink:href="#DejaVuSans-2e" x="63.623047"/>
       <use xlink:href="#DejaVuSans-30" x="95.410156"/>
      </g>
     </g>
    </g>
    <g id="text_34">
     <!-- Months -->
     <g transform="translate(235.528143 314.836563) scale(0.1 -0.1)">
      <defs>
       <path id="DejaVuSans-4d" d="M 628 4666 
L 1569 4666 
L 2759 1491 
L 3956 4666 
L 4897 4666 
L 4897 0 
L 4281 0 
L 4281 4097 
L 3078 897 
L 2444 897 
L 1241 4097 
L 1241 0 
L 628 0 
L 628 4666 
z
" transform="scale(0.015625)"/>
      </defs>
      <use xlink:href="#DejaVuSans-4d"/>
      <use xlink:href="#DejaVuSans-6f" x="86.279297"/>
      <use xlink:href="#DejaVuSans-6e" x="147.460938"/>
      <use xlink:href="#DejaVuSans-74" x="210.839844"/>
      <use xlink:href="#DejaVuSans-68" x="250.048828"/>
      <use xlink:href="#DejaVuSans-73" x="313.427734"/>
     </g>
    </g>
   </g>
   <g id="matplotlib.axis_6">
    <g id="ytick_7">
     <g id="text_35">
      <!-- 0.0 -->
      <g style="opacity: 0" transform="translate(44.506875 290.359219) scale(0.1 -0.1)">
       <use xlink:href="#DejaVuSans-30"/>
       <use xlink:href="#DejaVuSans-2e" x="63.623047"/>
       <use xlink:href="#DejaVuSans-30" x="95.410156"/>
      </g>
     </g>
    </g>
    <g id="ytick_8">
     <g id="text_36">
      <!-- 0.2 -->
      <g style="opacity: 0" transform="translate(44.506875 243.967219) scale(0.1 -0.1)">
       <use xlink:href="#DejaVuSans-30"/>
       <use xlink:href="#DejaVuSans-2e" x="63.623047"/>
       <use xlink:href="#DejaVuSans-32" x="95.410156"/>
      </g>
     </g>
    </g>
    <g id="ytick_9">
     <g id="text_37">
      <!-- 0.4 -->
      <g style="opacity: 0" transform="translate(44.506875 197.575219) scale(0.1 -0.1)">
       <use xlink:href="#DejaVuSans-30"/>
       <use xlink:href="#DejaVuSans-2e" x="63.623047"/>
       <use xlink:href="#DejaVuSans-34" x="95.410156"/>
      </g>
     </g>
    </g>
    <g id="ytick_10">
     <g id="text_38">
      <!-- 0.6 -->
      <g style="opacity: 0" transform="translate(44.506875 151.183219) scale(0.1 -0.1)">
       <use xlink:href="#DejaVuSans-30"/>
       <use xlink:href="#DejaVuSans-2e" x="63.623047"/>
       <use xlink:href="#DejaVuSans-36" x="95.410156"/>
      </g>
     </g>
    </g>
    <g id="ytick_11">
     <g id="text_39">
      <!-- 0.8 -->
      <g style="opacity: 0" transform="translate(44.506875 104.791219) scale(0.1 -0.1)">
       <use xlink:href="#DejaVuSans-30"/>
       <use xlink:href="#DejaVuSans-2e" x="63.623047"/>
       <use xlink:href="#DejaVuSans-38" x="95.410156"/>
      </g>
     </g>
    </g>
    <g id="ytick_12">
     <g id="text_40">
      <!-- 1.0 -->
      <g style="opacity: 0" transform="translate(44.506875 58.399219) scale(0.1 -0.1)">
       <use xlink:href="#DejaVuSans-31"/>
       <use xlink:href="#DejaVuSans-2e" x="63.623047"/>
       <use xlink:href="#DejaVuSans-30" x="95.410156"/>
      </g>
     </g>
    </g>
    <g id="text_41">
     <!-- Complaint counts -->
     <g transform="translate(38.427188 214.446406) rotate(-90) scale(0.1 -0.1)">
      <defs>
       <path id="DejaVuSans-43" d="M 4122 4306 
L 4122 3641 
Q 3803 3938 3442 4084 
Q 3081 4231 2675 4231 
Q 1875 4231 1450 3742 
Q 1025 3253 1025 2328 
Q 1025 1406 1450 917 
Q 1875 428 2675 428 
Q 3081 428 3442 575 
Q 3803 722 4122 1019 
L 4122 359 
Q 3791 134 3420 21 
Q 3050 -91 2638 -91 
Q 1578 -91 968 557 
Q 359 1206 359 2328 
Q 359 3453 968 4101 
Q 1578 4750 2638 4750 
Q 3056 4750 3426 4639 
Q 3797 4528 4122 4306 
z
" transform="scale(0.015625)"/>
       <path id="DejaVuSans-20" transform="scale(0.015625)"/>
      </defs>
      <use xlink:href="#DejaVuSans-43"/>
      <use xlink:href="#DejaVuSans-6f" x="69.824219"/>
      <use xlink:href="#DejaVuSans-6d" x="131.005859"/>
      <use xlink:href="#DejaVuSans-70" x="228.417969"/>
      <use xlink:href="#DejaVuSans-6c" x="291.894531"/>
      <use xlink:href="#DejaVuSans-61" x="319.677734"/>
      <use xlink:href="#DejaVuSans-69" x="380.957031"/>
      <use xlink:href="#DejaVuSans-6e" x="408.740234"/>
      <use xlink:href="#DejaVuSans-74" x="472.119141"/>
      <use xlink:href="#DejaVuSans-20" x="511.328125"/>
      <use xlink:href="#DejaVuSans-63" x="543.115234"/>
      <use xlink:href="#DejaVuSans-6f" x="598.095703"/>
      <use xlink:href="#DejaVuSans-75" x="659.277344"/>
      <use xlink:href="#DejaVuSans-6e" x="722.65625"/>
      <use xlink:href="#DejaVuSans-74" x="786.035156"/>
      <use xlink:href="#DejaVuSans-73" x="825.244141"/>
     </g>
    </g>
   </g>
  </g>
  <g id="text_42">
   <!-- 2014-2023 Hyundai Engine suspension complaints -->
   <g transform="translate(78.144375 16.030125) scale(0.12 -0.12)">
    <defs>
     <path id="DejaVuSans-2d" d="M 313 2009 
L 1997 2009 
L 1997 1497 
L 313 1497 
L 313 2009 
z
" transform="scale(0.015625)"/>
     <path id="DejaVuSans-48" d="M 628 4666 
L 1259 4666 
L 1259 2753 
L 3553 2753 
L 3553 4666 
L 4184 4666 
L 4184 0 
L 3553 0 
L 3553 2222 
L 1259 2222 
L 1259 0 
L 628 0 
L 628 4666 
z
" transform="scale(0.015625)"/>
     <path id="DejaVuSans-79" d="M 2059 -325 
Q 1816 -950 1584 -1140 
Q 1353 -1331 966 -1331 
L 506 -1331 
L 506 -850 
L 844 -850 
Q 1081 -850 1212 -737 
Q 1344 -625 1503 -206 
L 1606 56 
L 191 3500 
L 800 3500 
L 1894 763 
L 2988 3500 
L 3597 3500 
L 2059 -325 
z
" transform="scale(0.015625)"/>
     <path id="DejaVuSans-64" d="M 2906 2969 
L 2906 4863 
L 3481 4863 
L 3481 0 
L 2906 0 
L 2906 525 
Q 2725 213 2448 61 
Q 2172 -91 1784 -91 
Q 1150 -91 751 415 
Q 353 922 353 1747 
Q 353 2572 751 3078 
Q 1150 3584 1784 3584 
Q 2172 3584 2448 3432 
Q 2725 3281 2906 2969 
z
M 947 1747 
Q 947 1113 1208 752 
Q 1469 391 1925 391 
Q 2381 391 2643 752 
Q 2906 1113 2906 1747 
Q 2906 2381 2643 2742 
Q 2381 3103 1925 3103 
Q 1469 3103 1208 2742 
Q 947 2381 947 1747 
z
" transform="scale(0.015625)"/>
     <path id="DejaVuSans-45" d="M 628 4666 
L 3578 4666 
L 3578 4134 
L 1259 4134 
L 1259 2753 
L 3481 2753 
L 3481 2222 
L 1259 2222 
L 1259 531 
L 3634 531 
L 3634 0 
L 628 0 
L 628 4666 
z
" transform="scale(0.015625)"/>
    </defs>
    <use xlink:href="#DejaVuSans-32"/>
    <use xlink:href="#DejaVuSans-30" x="63.623047"/>
    <use xlink:href="#DejaVuSans-31" x="127.246094"/>
    <use xlink:href="#DejaVuSans-34" x="190.869141"/>
    <use xlink:href="#DejaVuSans-2d" x="254.492188"/>
    <use xlink:href="#DejaVuSans-32" x="290.576172"/>
    <use xlink:href="#DejaVuSans-30" x="354.199219"/>
    <use xlink:href="#DejaVuSans-32" x="417.822266"/>
    <use xlink:href="#DejaVuSans-33" x="481.445312"/>
    <use xlink:href="#DejaVuSans-20" x="545.068359"/>
    <use xlink:href="#DejaVuSans-48" x="576.855469"/>
    <use xlink:href="#DejaVuSans-79" x="652.050781"/>
    <use xlink:href="#DejaVuSans-75" x="711.230469"/>
    <use xlink:href="#DejaVuSans-6e" x="774.609375"/>
    <use xlink:href="#DejaVuSans-64" x="837.988281"/>
    <use xlink:href="#DejaVuSans-61" x="901.464844"/>
    <use xlink:href="#DejaVuSans-69" x="962.744141"/>
    <use xlink:href="#DejaVuSans-20" x="990.527344"/>
    <use xlink:href="#DejaVuSans-45" x="1022.314453"/>
    <use xlink:href="#DejaVuSans-6e" x="1085.498047"/>
    <use xlink:href="#DejaVuSans-67" x="1148.876953"/>
    <use xlink:href="#DejaVuSans-69" x="1212.353516"/>
    <use xlink:href="#DejaVuSans-6e" x="1240.136719"/>
    <use xlink:href="#DejaVuSans-65" x="1303.515625"/>
    <use xlink:href="#DejaVuSans-20" x="1365.039062"/>
    <use xlink:href="#DejaVuSans-73" x="1396.826172"/>
    <use xlink:href="#DejaVuSans-75" x="1448.925781"/>
    <use xlink:href="#DejaVuSans-73" x="1512.304688"/>
    <use xlink:href="#DejaVuSans-70" x="1564.404297"/>
    <use xlink:href="#DejaVuSans-65" x="1627.880859"/>
    <use xlink:href="#DejaVuSans-6e" x="1689.404297"/>
    <use xlink:href="#DejaVuSans-73" x="1752.783203"/>
    <use xlink:href="#DejaVuSans-69" x="1804.882812"/>
    <use xlink:href="#DejaVuSans-6f" x="1832.666016"/>
    <use xlink:href="#DejaVuSans-6e" x="1893.847656"/>
    <use xlink:href="#DejaVuSans-20" x="1957.226562"/>
    <use xlink:href="#DejaVuSans-63" x="1989.013672"/>
    <use xlink:href="#DejaVuSans-6f" x="2043.994141"/>
    <use xlink:href="#DejaVuSans-6d" x="2105.175781"/>
    <use xlink:href="#DejaVuSans-70" x="2202.587891"/>
    <use xlink:href="#DejaVuSans-6c" x="2266.064453"/>
    <use xlink:href="#DejaVuSans-61" x="2293.847656"/>
    <use xlink:href="#DejaVuSans-69" x="2355.126953"/>
    <use xlink:href="#DejaVuSans-6e" x="2382.910156"/>
    <use xlink:href="#DejaVuSans-74" x="2446.289062"/>
    <use xlink:href="#DejaVuSans-73" x="2485.498047"/>
   </g>
  </g>
 </g>
 <defs>
  <clipPath id="p55cec57725">
   <rect x="67.41" y="54.6" width="372.787849" height="100.79"/>
  </clipPath>
  <clipPath id="p542490987d">
   <rect x="67.41" y="185.77" width="372.787849" height="100.79"/>
  </clipPath>
 </defs>
</svg>
